<?xml version="1.0" encoding="UTF-8"?>
<svg xmlns="http://www.w3.org/2000/svg" width="385" height="65" viewBox="0 0 385 65" fill="none">
  <path d="M43.8443 18.8129L53.99 8.66724C48.4758 3.51652 41.1443 0.286931 33.0652 0.0584717V15.3445C33.1379 15.3445 33.2106 15.3445 33.2729 15.3445C37.2294 15.3341 40.8847 16.6322 43.8443 18.8129Z" fill="#9A72EF"></path>
  <path d="M31.2067 15.3756V0.0584717C14.2696 0.546544 0.624303 14.1918 0.13623 31.129H15.443C15.9103 22.6448 22.7122 15.8326 31.2067 15.3756Z" fill="#348EF6"></path>
  <path d="M50.9991 31.129H64.1355C63.8967 22.9356 60.5944 15.5107 55.3087 9.97571L45.2876 19.9968C48.3926 22.8214 50.5006 26.7363 50.9991 31.129Z" fill="#E45E67"></path>
  <path d="M15.4324 33.1747C15.4324 33.1124 15.4324 33.0501 15.4324 32.9878H0.135986C0.624059 49.925 14.2693 63.5702 31.2065 64.0583V50.9011C22.3277 49.873 15.4324 42.3339 15.4324 33.1747Z" fill="#33C173"></path>
  <path d="M43.1589 19.4983L43.8443 18.8129C40.8847 16.6322 37.2294 15.3445 33.2729 15.3445C33.2002 15.3445 33.1275 15.3445 33.0652 15.3445V15.3653C36.9282 15.5833 40.4382 17.0995 43.1589 19.4983Z" fill="#7B55CC"></path>
  <path d="M48.8292 31.129H50.9996C50.5012 26.7364 48.3931 22.8214 45.2881 19.9968L44.4885 20.7964C47.0016 23.5587 48.6112 27.1621 48.8292 31.129Z" fill="#C95058"></path>
  <path d="M15.4428 32.9878C15.4324 33.0501 15.4324 33.1124 15.4324 33.1747C15.4324 42.3235 22.3277 49.873 31.2065 50.8907V48.7411C22.7119 48.2842 15.9101 41.4823 15.4428 32.9878Z" fill="#0FA656"></path>
  <path d="M51.1034 32.9878H49.8261H48.8395C48.7772 34.0782 48.6111 35.127 48.3619 36.1551C47.8426 37.7024 47.5623 39.3535 47.5623 41.0773C47.5623 41.9185 47.6246 42.7389 47.7596 43.5385L47.7699 43.6112C47.8842 44.4419 48.0192 45.2415 48.3307 46.0308L48.9745 47.6923C48.9953 48.2634 48.7357 48.7515 48.0919 48.7515H42.0065H39.13C36.6689 48.7515 35.2774 48.845 33.2212 48.7827C33.1589 48.7827 33.0966 48.7827 33.0343 48.7827V50.7038V50.8492V50.9842H33.0239V51.0257V64.0479C33.2939 64.0479 33.5431 64.0479 33.8131 64.0479C36.0562 64.0479 44.0004 63.1964 47.8738 62.3552C49.1719 62.0541 50.6049 62.0229 51.903 62.3552C56.3579 63.5702 60.761 64.0375 65.5794 64.0375C66.5555 64.0375 67.0021 62.916 66.4517 62.3137C65.2159 60.9637 64.4059 59.9564 64.1256 57.2357L64.1463 32.9982H51.1034" fill="#FAB63A"></path>
  <path d="M50.8226 36.1862C50.833 36.1447 50.833 36.1032 50.8434 36.0616C50.8746 35.8851 50.8953 35.7085 50.9161 35.5424C50.9161 35.532 50.9161 35.5112 50.9265 35.5008C50.968 35.1478 51.0096 34.7843 51.0303 34.4209C51.0303 34.4105 51.0303 34.4001 51.0303 34.4001C51.0511 34.0262 51.0719 33.6524 51.0719 33.2786C51.0719 33.237 51.0719 33.2059 51.0719 33.1643C51.0719 33.102 51.0719 33.0397 51.0719 32.9878H49.8257H49.7842H48.8496C48.7977 33.9328 48.6627 34.857 48.4654 35.7501C48.4342 35.8851 48.4031 36.0201 48.3719 36.1551C47.8527 37.7024 47.5723 39.3535 47.5723 41.0773C47.5723 41.9185 47.6346 42.7389 47.7696 43.5385L47.78 43.6112C47.8319 43.9642 47.8838 44.3069 47.9461 44.6392C48.0604 45.1169 48.1954 45.5842 48.3407 46.0411L48.8288 47.2977C48.8704 47.3807 48.9015 47.4638 48.943 47.5573C48.9846 47.6507 49.0054 47.7546 49.0054 47.8688C49.0054 48.2738 48.725 48.6165 48.3511 48.71C48.3511 48.7203 48.3511 48.7307 48.3511 48.7411H33.0237V51.0153H50.345C51.4561 51.0153 52.3596 50.1119 52.3596 49.0007C52.3596 48.9177 52.3492 48.8346 52.3388 48.7515V48.7411C52.3076 48.5023 52.2349 48.2738 52.1311 48.0661C52.0792 47.983 52.0273 47.9104 51.9753 47.8273C51.9234 47.7442 51.8715 47.6611 51.8299 47.5781C50.428 45.1688 49.9192 42.3546 50.2723 39.5924L50.5215 37.692C50.563 37.5258 50.6046 37.3701 50.6461 37.2039C50.6565 37.1831 50.6565 37.152 50.6669 37.1312C50.7084 36.9651 50.7396 36.7989 50.7707 36.6328L50.8226 36.1862Z" fill="#F09D3B"></path>
  <path d="M261.138 55.2976C261.619 55.1172 261.919 54.6061 261.919 54.0349V49.4349C261.919 48.563 261.168 47.9617 260.416 48.1722C260.025 48.2924 259.634 48.3526 259.213 48.3526C258.462 48.3526 257.83 48.082 257.289 47.4807C256.748 46.9095 256.478 45.8572 256.478 44.3239V9.42967C256.478 8.70811 255.966 8.10681 255.305 8.10681H249.382C248.751 8.10681 248.21 8.70811 248.21 9.42967V45.8873C248.21 47.7212 248.45 49.2846 248.931 50.5774C249.412 51.8702 250.074 52.9225 250.885 53.7342C251.697 54.546 252.659 55.1172 253.772 55.478C254.884 55.8388 256.027 56.0191 257.229 56.0191C258.101 56.0191 258.913 55.9289 259.725 55.7185C260.266 55.6283 260.717 55.478 261.138 55.2976Z" fill="#404658"></path>
  <path fill-rule="evenodd" clip-rule="evenodd" d="M102.032 9.68405L84.8346 53.4971C84.564 54.151 84.564 54.8049 84.8646 55.272C85.1954 55.7702 85.7666 56.0194 86.4581 56.0194H91.2384C91.7495 56.0194 92.2005 55.8637 92.5913 55.5834C92.9822 55.3032 93.2528 54.8983 93.4332 54.4313L96.3495 46.9578H115.381L118.297 54.4313C118.477 54.8983 118.778 55.3032 119.139 55.5834C119.53 55.8637 119.98 56.0194 120.492 56.0194H125.272C125.963 56.0194 126.565 55.7702 126.865 55.272C127.196 54.7738 127.166 54.1199 126.895 53.4971L109.758 9.68405C109.368 8.68759 108.526 8.09595 107.473 8.09595H104.317C103.264 8.09595 102.453 8.68759 102.032 9.68405ZM112.374 38.8305H99.5063L105.94 22.1086L112.374 38.8305Z" fill="#404658"></path>
  <path d="M149.269 22.5871C146.022 22.5871 142.655 23.4891 140.129 25.9844V11.7637C140.129 11.1624 139.949 10.6513 139.588 10.2906C139.227 9.92978 138.716 9.74939 138.115 9.74939H133.966C133.364 9.74939 132.853 9.92978 132.493 10.2906C132.132 10.6513 131.951 11.1624 131.951 11.7637V53.9749C131.951 54.5762 132.132 55.0873 132.493 55.4481C132.853 55.8089 133.364 55.9893 133.966 55.9893H138.115C138.716 55.9893 139.227 55.8089 139.588 55.4481C139.949 55.0873 140.129 54.5762 140.129 53.9749V37.0183C140.129 34.1922 141.091 32.3582 142.414 31.2458C143.737 30.1033 145.451 29.6524 147.014 29.6524C148.607 29.6524 150.351 30.1033 151.704 31.2458C153.057 32.3883 154.019 34.1922 154.019 37.0183V54.005C154.019 54.6063 154.199 55.1174 154.56 55.4781C154.921 55.8389 155.432 56.0193 156.033 56.0193H160.243C160.844 56.0193 161.355 55.8389 161.716 55.4781C162.076 55.1174 162.257 54.6063 162.257 54.005V35.9059C162.257 31.0053 160.543 27.6681 158.048 25.5635C155.613 23.4289 152.335 22.5871 149.269 22.5871Z" fill="#404658"></path>
  <path fill-rule="evenodd" clip-rule="evenodd" d="M192.778 24.5414V26.1048C190.463 23.5192 187.156 22.016 182.947 22.016C173.747 22.016 167.102 29.0512 167.102 38.9726C167.102 48.7437 173.747 56.0194 182.947 56.0194C187.156 56.0194 190.463 54.4561 192.778 51.9005V53.9821C192.778 54.5834 192.958 55.0945 193.319 55.4553C193.68 55.8161 194.191 55.9965 194.792 55.9965H198.941C199.542 55.9965 200.053 55.8161 200.414 55.4553C200.775 55.0945 200.955 54.5834 200.955 53.9821V24.5414C200.955 23.9401 200.775 23.429 200.414 23.0683C200.053 22.7075 199.542 22.5271 198.941 22.5271H194.792C194.191 22.5271 193.68 22.7075 193.319 23.0683C192.958 23.4591 192.778 23.9702 192.778 24.5414ZM183.999 48.2627C181.323 48.2627 179.098 47.2705 177.565 45.647C176.032 44.0235 175.13 41.6785 175.13 39.0027C175.13 36.2968 176.002 34.0119 177.565 32.3884C179.098 30.7649 181.293 29.8028 183.999 29.8028C186.675 29.8028 188.869 30.7649 190.373 32.3884C191.906 34.0119 192.748 36.2968 192.748 39.0027C192.748 41.7085 191.876 44.0235 190.342 45.647C188.869 47.3006 186.675 48.2627 183.999 48.2627Z" fill="#404658"></path>
  <path d="M224.063 16.6645C229.023 16.6645 233.142 18.7991 235.036 20.9036C235.397 21.3546 235.818 21.6853 236.299 21.7755C236.78 21.8957 237.291 21.7755 237.802 21.4448L241.32 19.1899C241.771 18.8893 242.132 18.4984 242.312 18.0174C242.493 17.5363 242.432 17.0252 242.132 16.4841C239.546 12.0044 232.872 8.09595 224.995 8.09595C220.214 8.09595 215.765 9.08809 212.488 11.3129C209.211 13.5377 207.136 16.9651 207.136 21.7454C207.136 26.8264 210.113 29.893 213.54 31.8472C216.276 33.3806 219.312 34.2524 221.387 34.8237C221.898 34.974 222.349 35.0943 222.71 35.2145C223.311 35.3949 224.003 35.6054 224.754 35.8158C225.175 35.9361 225.596 36.0563 226.047 36.1766C227.28 36.5374 228.572 36.9583 229.775 37.4694C232.18 38.5217 233.924 39.8746 233.924 41.8889C233.924 43.6327 233.413 45.0157 232.18 45.9778C230.948 46.9398 228.933 47.5111 225.837 47.5111C220.064 47.5111 215.314 44.4144 213.209 41.6183C212.849 41.1373 212.428 40.7765 211.947 40.6563C211.435 40.536 210.954 40.6863 210.443 41.0471L206.805 43.5726C206.354 43.9033 206.024 44.3242 205.873 44.8052C205.723 45.2863 205.813 45.7974 206.084 46.3085C208.82 51.5698 215.464 56.0194 225.055 56.0194C230.557 56.0194 235.127 54.7868 238.344 52.3515C241.561 49.9163 243.364 46.2483 243.364 41.4981C243.364 36.5674 240.298 33.4106 236.81 31.3662C233.954 29.6826 230.767 28.7205 228.753 28.1192C228.332 27.9989 227.941 27.8787 227.64 27.7584C227.039 27.578 226.378 27.3976 225.716 27.2172C224.093 26.7663 222.259 26.2852 220.665 25.5937C218.411 24.6016 216.787 23.3088 216.787 21.3546C216.787 19.8513 217.388 18.6788 218.591 17.867C219.733 17.1154 221.567 16.6645 224.063 16.6645Z" fill="#404658"></path>
  <path d="M271.305 18.3182C273.56 18.3182 275.935 16.5744 275.935 13.6882C275.935 10.8019 273.56 9.2085 271.305 9.2085C269.05 9.2085 266.765 10.8019 266.765 13.6882C266.765 16.5744 269.05 18.3182 271.305 18.3182Z" fill="#404658"></path>
  <path d="M275.499 25.1125L275.439 54.0049C275.439 54.6062 275.258 55.1173 274.898 55.4781C274.537 55.8389 274.026 56.0192 273.424 56.0192H269.215C268.614 56.0192 268.103 55.8389 267.742 55.4781C267.381 55.1173 267.201 54.6062 267.201 54.0049V25.1125C267.201 24.5112 267.381 24.0001 267.742 23.6393C268.103 23.2785 268.614 23.0981 269.215 23.0981H273.484C274.086 23.0981 274.597 23.2785 274.958 23.6393C275.318 24.0302 275.499 24.5413 275.499 25.1125Z" fill="#404658"></path>
  <path fill-rule="evenodd" clip-rule="evenodd" d="M306.456 11.1925V26.1047C304.141 23.5191 300.834 22.0158 296.624 22.0158C287.425 22.0158 280.78 29.051 280.78 38.9724C280.78 48.7435 287.425 56.0193 296.624 56.0193C300.834 56.0193 304.141 54.4559 306.456 51.9004V53.9851C306.456 54.5864 306.636 55.0975 306.997 55.4583C307.358 55.819 307.869 55.9994 308.47 55.9994H312.619C313.22 55.9994 313.731 55.819 314.092 55.4583C314.453 55.0975 314.633 54.5864 314.633 53.9851V11.1925C314.633 10.5912 314.453 10.08 314.092 9.71927C313.731 9.35849 313.22 9.1781 312.619 9.1781H308.47C307.869 9.1781 307.358 9.35849 306.997 9.71927C306.636 10.08 306.456 10.5912 306.456 11.1925ZM297.677 48.2324C295.001 48.2324 292.776 47.2403 291.243 45.6168C289.71 43.9933 288.808 41.6482 288.808 38.9724C288.808 36.2666 289.679 33.9817 291.243 32.3582C292.776 30.7347 294.971 29.7726 297.677 29.7726C300.353 29.7726 302.547 30.7347 304.05 32.3582C305.584 33.9817 306.426 36.2666 306.426 38.9724C306.426 41.6783 305.554 43.9933 304.05 45.6168C302.547 47.2704 300.383 48.2324 297.677 48.2324Z" fill="#404658"></path>
  <path fill-rule="evenodd" clip-rule="evenodd" d="M336.255 56.0193C341.516 56.0193 346.116 54.035 349.063 50.6377C349.454 50.1566 349.634 49.6756 349.574 49.1645C349.484 48.6534 349.153 48.2325 348.672 47.8416L346.207 46.0077C345.725 45.6469 345.244 45.4966 344.733 45.5567C344.252 45.6168 343.801 45.8573 343.38 46.2482C341.967 47.6612 339.682 48.8939 336.255 48.8939C331.775 48.8939 328.408 46.0377 327.536 41.3777H349.724C350.325 41.3777 350.837 41.1973 351.197 40.8365C351.558 40.4757 351.738 39.9646 351.738 39.3633V38.9424C351.738 34.0719 350.205 29.8027 347.439 26.7661C344.673 23.7296 340.705 21.9257 335.894 21.9257C330.934 21.9257 326.815 23.7296 323.958 26.7661C321.102 29.8027 319.479 34.0719 319.479 38.9424C319.479 43.8129 321.162 48.1122 324.109 51.1488C327.055 54.1853 331.264 56.0193 336.255 56.0193ZM335.894 28.5099C338.179 28.5099 340.013 29.3216 341.366 30.7046C342.659 31.9974 343.531 33.7712 343.952 35.8457H327.596C328.047 33.651 328.979 31.8772 330.302 30.6144C331.715 29.2916 333.579 28.5099 335.894 28.5099Z" fill="#404658"></path>
  <path fill-rule="evenodd" clip-rule="evenodd" d="M380.112 31.0956L382.336 29.6826C382.848 29.3819 383.208 28.961 383.359 28.4499C383.509 27.9388 383.359 27.3976 382.998 26.8865C380.893 23.9101 376.564 21.4749 370.521 21.4749C367.003 21.4749 363.756 22.2265 361.381 23.88C358.976 25.5336 357.503 28.029 357.503 31.4263C357.503 35.0642 359.728 37.3792 362.253 38.8524C364.117 39.9347 366.162 40.6262 367.635 41.0471C367.815 41.1073 367.995 41.1674 368.176 41.1974C368.446 41.2876 368.717 41.3478 368.927 41.4079C369.348 41.5282 369.799 41.6785 370.28 41.7987C371.363 42.0994 372.535 42.4301 373.557 42.9111C375.031 43.5726 376.053 44.4745 376.053 45.7974C376.053 47 375.632 47.8418 374.79 48.413C373.948 48.9843 372.625 49.315 370.792 49.315C367.454 49.315 364.388 47.5412 362.914 45.7974C362.734 45.5869 362.554 45.4065 362.373 45.2562C362.163 45.0758 361.922 44.9556 361.652 44.8954C361.171 44.7752 360.66 44.8954 360.149 45.2262L357.623 46.9098C357.172 47.2104 356.811 47.6013 356.661 48.0823C356.511 48.5634 356.571 49.1045 356.901 49.6156C359.066 53.1633 363.846 56.0195 370.731 56.0195C374.85 56.0195 378.187 55.1476 380.502 53.3737C382.848 51.5999 384.11 48.9542 384.11 45.5268C384.11 41.8889 381.795 39.5439 379.24 38.0106C377.526 36.9884 375.632 36.3269 374.189 35.8459C373.768 35.7256 373.407 35.6054 373.076 35.5152C372.836 35.455 372.625 35.3649 372.445 35.3047C372.024 35.1544 371.543 35.0341 371.062 34.9139C370.01 34.6132 368.897 34.3126 367.905 33.8616C366.462 33.2302 365.53 32.3584 365.53 31.0656C365.53 30.1636 365.921 29.412 366.673 28.8708C367.454 28.3297 368.657 27.9689 370.31 27.9689C373.167 27.9689 375.963 29.2617 377.436 30.6747C377.827 31.0355 378.278 31.3061 378.729 31.3963C379.15 31.5466 379.631 31.4263 380.112 31.0956Z" fill="#404658"></path>
</svg>
