<svg xmlns="http://www.w3.org/2000/svg" id="a" viewBox="0 0 652.1 176.5"><g id="b"><g id="c"><path id="d" d="M0 0v131.5l67.5 45 67.5-45V0H0Zm120 123.5-52.5 35-52.5-35V82h18.8v32.3c0 .9.3 1.6 1 2.3.6.6 1.4 1 2.3 1h38.2c4.2 0 8-.7 11.2-2.2 3.2-1.5 5.9-3.4 8.1-5.8 2.2-2.4 3.8-5.1 4.9-8.1s1.7-6 1.7-9.1c0-4.7-1-8.6-3.1-11.7-2.1-3.1-4.4-5.5-6.8-7.1.6-.3 1.3-.9 2.2-1.8.9-.9 1.8-2 2.8-3.3.9-1.3 1.7-2.9 2.3-4.8.6-1.9 1-4 1-6.4s-.5-5-1.4-7.7c-.9-2.8-2.4-5.3-4.5-7.7-2.1-2.4-4.8-4.3-8.3-5.9-3.4-1.6-7.7-2.3-12.8-2.3H37.1c-.9 0-1.6.3-2.3 1-.6.6-1 1.4-1 2.3v30.2H15v-52h105v108.3ZM53.5 82h18.8c4.2 0 7.4 1 9.5 2.9 2.1 1.9 3.2 4.4 3.2 7.4s-1 5.5-3.1 7.4c-2 1.9-5.3 2.8-9.7 2.8H50.1V82h3.4Zm-3.4-15V48.5h21.2c4.2 0 7.2.8 9.1 2.3 1.9 1.6 2.9 3.9 2.9 6.9s-1 5.3-2.9 6.9-5 2.3-9.1 2.3H50.1v.1Zm146.1 44.9c-.8 0-1.4-.3-2-.8-.6-.6-.8-1.2-.8-2V41.9c0-.8.3-1.4.8-2 .6-.6 1.2-.8 2-.8h30.7c4.4 0 8.1.7 11.1 2 3 1.4 5.4 3.1 7.2 5.1s3.1 4.3 3.9 6.7c.8 2.4 1.2 4.6 1.2 6.7s-.3 3.9-.8 5.6c-.6 1.6-1.2 3-2 4.2-.8 1.1-1.6 2.1-2.4 2.9-.8.8-1.4 1.3-1.9 1.6 2.1 1.5 4.1 3.5 5.9 6.2s2.7 6.1 2.7 10.1c0 2.6-.5 5.3-1.5 7.9s-2.4 4.9-4.3 7c-1.9 2.1-4.2 3.8-7 5-2.8 1.3-6.1 1.9-9.7 1.9h-33.1v-.1Zm40-51.8c0-2.6-.8-4.6-2.5-6s-4.3-2-7.9-2h-18.4v16h18.4c3.6 0 6.2-.7 7.9-2 1.7-1.4 2.5-3.4 2.5-6Zm-28.8 38.8h19.2c3.8 0 6.6-.8 8.4-2.4 1.8-1.6 2.7-3.8 2.7-6.4s-.9-4.8-2.8-6.4c-1.8-1.7-4.6-2.5-8.3-2.5h-19.2v17.7Zm63.5-60.8c.8 0 1.4.3 2 .8.6.6.8 1.2.8 2V49c0 .8-.3 1.4-.8 2-.6.6-1.2.8-2 .8H262c-.8 0-1.4-.3-2-.8-.6-.6-.8-1.2-.8-2v-8.1c0-.8.3-1.4.8-2 .6-.6 1.2-.8 2-.8h8.9Zm2.3 71c0 .8-.3 1.4-.8 2-.6.6-1.2.8-2 .8h-8c-.8 0-1.4-.3-2-.8-.6-.6-.8-1.2-.8-2V60.6c0-.8.3-1.4.8-2 .6-.6 1.2-.8 2-.8h7.9c.8 0 1.4.3 2 .8.6.6.8 1.2.8 2v48.5h.1Zm28.3-16.8c0 2.1.6 3.9 1.7 5.1 1.1 1.3 3.3 1.9 6.4 1.9h6.3c.8 0 1.4.3 2 .8.6.6.8 1.2.8 2v6.9c0 .8-.3 1.4-.8 2-.6.6-1.2.8-2 .8h-7.7c-6.5 0-11.5-1.6-15-4.7-3.5-3.2-5.3-8-5.3-14.5V70.3H281c-.8 0-1.4-.3-2-.8-.6-.6-.8-1.2-.8-2v-6.9c0-.8.3-1.4.8-2 .6-.6 1.2-.8 2-.8h6.9v-17c0-.8.3-1.4.8-2 .5-.6 1.2-.8 2-.8h7.9c.8 0 1.4.3 2 .8.6.6.8 1.2.8 2v17h13.4c.8 0 1.4.3 2 .8.6.6.8 1.2.8 2v6.9c0 .8-.3 1.4-.8 2-.6.6-1.2.8-2 .8h-13.4v22h.1Zm52.8-53.2c5.1 0 9.6.7 13.4 2 3.8 1.4 6.9 3.3 9.5 5.8 2.5 2.5 4.5 5.5 5.8 9 1.4 3.5 2.2 7.5 2.4 11.9.3 5.1.3 10.3 0 15.4-.3 4.4-1.1 8.3-2.4 11.9-1.4 3.5-3.3 6.6-5.8 9-2.5 2.5-5.6 4.4-9.3 5.8-3.7 1.4-8.1 2-13.1 2h-26.2c-.8 0-1.4-.3-2-.8-.6-.6-.8-1.2-.8-2V41.9c0-.8.3-1.4.8-2 .6-.6 1.2-.8 2-.8h25.7Zm17 28.7c-.1-2.2-.6-4.3-1.3-6.2-.7-1.9-1.8-3.6-3.2-5s-3.2-2.5-5.4-3.3c-2.1-.8-4.7-1.2-7.7-1.2h-13.9v46.8h14.5c2.8 0 5.3-.4 7.4-1.2 2.1-.8 3.8-1.9 5.2-3.3 1.4-1.4 2.4-3 3.2-5 .7-1.9 1.2-4 1.3-6.2.2-5.1.2-10.3-.1-15.4Zm19.9 17.1c0-3.9.6-7.5 1.8-11 1.2-3.4 2.9-6.4 5.1-8.9 2.2-2.5 4.9-4.5 8.1-6 3.2-1.5 6.7-2.2 10.6-2.2s7.4.7 10.6 2.1c3.2 1.4 5.8 3.3 8.1 5.7 2.2 2.4 3.9 5.2 5.1 8.4 1.2 3.2 1.8 6.6 1.8 10.1v4.7c0 .8-.3 1.4-.8 2-.6.6-1.2.8-2 .8h-34.7c0 1.6.3 3 1 4.2.7 1.2 1.5 2.2 2.7 3.1 1.1.8 2.4 1.5 3.8 1.9 1.5.4 2.9.6 4.5.6 2.2 0 4-.2 5.4-.7s2.5-1 3.4-1.7c.8-.6 1.4-.9 1.9-1.1.5-.2 1.1-.3 2-.3h8.3c.8 0 1.4.3 2 .8.6.6.9 1.2.8 2-.1 1-.6 2.2-1.6 3.7s-2.5 3-4.5 4.5-4.5 2.7-7.4 3.7c-2.9 1-6.4 1.6-10.2 1.6s-7.4-.7-10.6-2c-3.1-1.4-5.8-3.3-8.1-5.8-2.2-2.5-3.9-5.5-5.1-8.9-1.4-3.4-2-7.2-2-11.3Zm25.5-15.6c-2 0-3.7.3-5.1.9-1.4.6-2.6 1.4-3.6 2.3s-1.7 2-2.2 3.1-.9 2.2-1 3.3h23.5c-.1-1-.4-2.1-.8-3.3-.4-1.1-1-2.2-1.9-3.1-.9-.9-2-1.7-3.4-2.3-1.5-.6-3.3-.9-5.5-.9Zm56.3 53c1.5 0 2.9-.2 4.5-.7 1.5-.5 2.9-1.2 4.2-2.1 1.2-1 2.3-2.2 3.1-3.7.8-1.5 1.2-3.2 1.2-5.2v-3.9c-.6.6-1.3 1.3-2.2 2-.9.7-2 1.4-3.3 2-1.3.6-2.8 1.1-4.5 1.6-1.7.4-3.6.6-5.8.6-3.5 0-6.6-.7-9.4-2-2.8-1.4-5.2-3.2-7.2-5.4s-3.5-4.9-4.7-7.8c-1.1-2.9-1.8-6-1.9-9.2-.1-1-.1-2.3-.1-3.6 0-1.4 0-2.6.1-3.6.1-3.2.8-6.3 1.9-9.2s2.7-5.5 4.7-7.8 4.4-4.1 7.2-5.4c2.8-1.4 5.9-2 9.4-2 2.1 0 4.1.2 5.8.6 1.7.4 3.2.9 4.5 1.6 1.3.6 2.4 1.3 3.3 2s1.6 1.4 2.2 2v-2.5c0-.8.3-1.4.8-2 .6-.6 1.2-.8 2-.8h7.9c.8 0 1.4.3 2 .8.6.6.8 1.2.8 2v48.8c0 8.4-2.3 14.7-7 19-4.7 4.3-11.1 6.4-19.4 6.4-3.5 0-6.8-.5-9.8-1.4-3-.9-5.6-2.2-7.9-3.7-2.2-1.6-4-3.3-5.3-5.3-1.3-2-2-4-2.2-6.1-.1-.8.2-1.4.8-2 .6-.6 1.3-.8 2-.8h7.1c1 0 1.8.3 2.5 1l1.8 1.8c.9 1.2 2.1 2.1 3.7 2.9 1.5.7 3.9 1.1 7.2 1.1Zm-12.4-40.4c-.2 1.9-.2 3.9 0 5.8.4 4.5 1.8 7.7 4.2 9.7s5.2 3 8.6 3 6.2-1 8.6-3c2.3-2 3.7-4.9 4-8.6.1-1 .2-2.4.2-4s-.1-2.9-.2-4c-.3-3.6-1.7-6.4-4-8.5-2.3-2.1-5.2-3.1-8.6-3.1s-6.3 1-8.6 3c-2.4 2-3.8 5.2-4.2 9.7Zm74.3-11.6c-4.2 0-7.2.9-9 2.8-1.8 1.8-2.8 4.8-2.8 9v27c0 .8-.3 1.4-.8 2-.6.6-1.2.8-2 .8h-7.9c-.8 0-1.4-.3-2-.8-.6-.6-.8-1.2-.8-2V60.6c0-.8.3-1.4.8-2 .6-.6 1.2-.8 2-.8h7.9c.8 0 1.4.3 2 .8.6.6.8 1.2.8 2V63c1.8-1.7 3.7-2.9 5.8-3.8 2-.9 4.7-1.4 8.1-1.4h4.7c.8 0 1.4.3 2 .8.6.6.8 1.2.8 2v6.9c0 .8-.3 1.4-.8 2-.6.6-1.2.8-2 .8h-6.8Zm10.5 14.6c0-3.9.6-7.5 1.8-11 1.2-3.4 2.9-6.4 5.1-8.9 2.2-2.5 4.9-4.5 8.1-6s6.7-2.2 10.6-2.2 7.4.7 10.6 2.1c3.2 1.4 5.8 3.3 8.1 5.7 2.2 2.4 3.9 5.2 5.1 8.4 1.2 3.2 1.8 6.6 1.8 10.1v4.7c0 .8-.3 1.4-.8 2-.6.6-1.2.8-2 .8h-34.7c0 1.6.3 3 1 4.2.7 1.2 1.5 2.2 2.6 3.1 1.1.8 2.4 1.5 3.9 1.9 1.5.4 2.9.6 4.5.6 2.2 0 4-.2 5.4-.7 1.4-.5 2.5-1 3.4-1.7.8-.6 1.4-.9 1.9-1.1.5-.2 1.1-.3 2-.3h8.3c.8 0 1.4.3 2 .8.6.6.8 1.2.8 2-.1 1-.6 2.2-1.6 3.7s-2.5 3-4.5 4.5-4.5 2.7-7.4 3.7-6.4 1.6-10.2 1.6-7.4-.7-10.6-2c-3.2-1.4-5.8-3.3-8.1-5.8-2.2-2.5-3.9-5.5-5.1-8.9-1.4-3.4-2-7.2-2-11.3Zm25.5-15.6c-2 0-3.7.3-5.1.9-1.4.6-2.6 1.4-3.6 2.3s-1.7 2-2.2 3.1-.9 2.2-1 3.3h23.4c-.1-1-.4-2.1-.8-3.3-.4-1.1-1-2.2-1.9-3.1-.9-.9-2-1.7-3.4-2.3-1.4-.6-3.2-.9-5.4-.9Zm30 15.6c0-3.9.6-7.5 1.8-11 1.2-3.4 2.9-6.4 5.1-8.9 2.2-2.5 4.9-4.5 8.1-6s6.7-2.2 10.6-2.2 7.4.7 10.6 2.1c3.2 1.4 5.8 3.3 8.1 5.7 2.2 2.4 3.9 5.2 5.1 8.4 1.2 3.2 1.8 6.6 1.8 10.1v4.7c0 .8-.3 1.4-.8 2-.6.6-1.2.8-2 .8h-34.7c0 1.6.3 3 1 4.2.7 1.2 1.5 2.2 2.7 3.1 1.1.8 2.4 1.5 3.8 1.9 1.5.4 2.9.6 4.5.6 2.2 0 4-.2 5.4-.7 1.4-.5 2.5-1 3.4-1.7.8-.6 1.4-.9 1.9-1.1.5-.2 1.1-.3 2-.3h8.3c.8 0 1.4.3 2 .8.6.6.9 1.2.8 2-.1 1-.6 2.2-1.6 3.7s-2.5 3-4.5 4.5-4.5 2.7-7.4 3.7-6.4 1.6-10.2 1.6-7.4-.7-10.6-2c-3.1-1.4-5.8-3.3-8.1-5.8s-3.9-5.5-5.1-8.9c-1.4-3.4-2-7.2-2-11.3Zm25.5-15.6c-2 0-3.7.3-5.1.9-1.4.6-2.6 1.4-3.6 2.3s-1.7 2-2.2 3.1-.9 2.2-1 3.3H638c-.1-1-.4-2.1-.8-3.3-.4-1.1-1-2.2-1.9-3.1-.9-.9-2-1.7-3.4-2.3s-3.2-.9-5.5-.9Z" style="fill:#fff;stroke-width:0"/></g></g></svg>