<svg width="1228" height="427" viewBox="0 0 1228 427" fill="none" xmlns="http://www.w3.org/2000/svg">
<path d="M1029.51 402.529H46.7843L119.66 106.526H1029.51C1045.06 106.526 1057.66 119.132 1057.66 134.682V374.374C1057.66 389.924 1045.06 402.529 1029.51 402.529Z" fill="#213147" stroke="#7933FF" stroke-width="6.95976"/>
<path d="M240.318 298.075H273.012C273.256 318.326 286.188 329.793 305.463 329.793C323.03 329.793 331.569 319.058 331.569 308.567C331.569 298.319 324.006 290.512 311.074 287.34L290.58 282.216C262.033 275.14 245.198 256.597 245.198 232.931C245.198 203.164 272.524 182.425 303.755 182.425C337.913 182.425 359.384 208.532 359.384 238.786H327.422C327.422 224.147 317.174 213.412 302.291 213.412C287.164 213.412 278.624 223.659 278.624 233.175C278.624 240.25 282.528 247.57 295.703 250.986L315.71 256.109C348.648 264.405 364.996 280.996 364.996 308.079C364.996 339.309 340.353 361.024 305.463 361.024C270.085 361.024 240.562 337.113 240.318 298.075ZM546.053 359.56H510.919L493.596 314.666H426.743L409.42 359.56H374.286L442.602 183.889H477.981L546.053 359.56ZM444.554 268.797L438.455 284.656H481.884L475.785 268.797C469.929 253.669 465.293 240.738 460.169 226.587H459.925C455.29 240.738 450.654 253.669 444.554 268.797ZM599.152 183.889V327.11H674.788V359.56H566.702V183.889H599.152ZM697.75 183.889H820.475V216.339H730.2V255.621H811.204V287.828H730.2V327.11H820.475V359.56H697.75V183.889Z" fill="#7933FF"/>
<mask id="path-3-outside-1_2016_42471" maskUnits="userSpaceOnUse" x="227.758" y="169.674" width="588" height="186" fill="black">
<rect fill="white" x="227.758" y="169.674" width="588" height="186"/>
<path d="M231.6 289.189H264.295C264.539 309.44 277.47 320.908 296.745 320.908C314.312 320.908 322.852 310.172 322.852 299.681C322.852 289.433 315.288 281.626 302.357 278.454L281.862 273.33C253.315 266.255 236.48 247.712 236.48 224.045C236.48 194.278 263.807 173.54 295.037 173.54C329.195 173.54 350.666 199.646 350.666 229.901H318.704C318.704 215.261 308.456 204.526 293.573 204.526C278.446 204.526 269.906 214.773 269.906 224.289C269.906 231.365 273.81 238.684 286.985 242.1L306.992 247.224C339.931 255.519 356.278 272.11 356.278 299.193C356.278 330.423 331.635 352.138 296.745 352.138C261.367 352.138 231.844 328.227 231.6 289.189ZM537.335 350.674H502.201L484.878 305.781H418.025L400.702 350.674H365.568L433.885 175.004H469.263L537.335 350.674ZM435.837 259.911L429.737 275.77H473.167L467.067 259.911C461.211 244.784 456.575 231.852 451.452 217.701H451.208C446.572 231.852 441.936 244.784 435.837 259.911ZM590.435 175.004V318.224H666.071V350.674H557.984V175.004H590.435ZM689.032 175.004H811.758V207.454H721.482V246.736H802.486V278.942H721.482V318.224H811.758V350.674H689.032V175.004Z"/>
</mask>
<path d="M231.6 289.189H264.295C264.539 309.44 277.47 320.908 296.745 320.908C314.312 320.908 322.852 310.172 322.852 299.681C322.852 289.433 315.288 281.626 302.357 278.454L281.862 273.33C253.315 266.255 236.48 247.712 236.48 224.045C236.48 194.278 263.807 173.54 295.037 173.54C329.195 173.54 350.666 199.646 350.666 229.901H318.704C318.704 215.261 308.456 204.526 293.573 204.526C278.446 204.526 269.906 214.773 269.906 224.289C269.906 231.365 273.81 238.684 286.985 242.1L306.992 247.224C339.931 255.519 356.278 272.11 356.278 299.193C356.278 330.423 331.635 352.138 296.745 352.138C261.367 352.138 231.844 328.227 231.6 289.189ZM537.335 350.674H502.201L484.878 305.781H418.025L400.702 350.674H365.568L433.885 175.004H469.263L537.335 350.674ZM435.837 259.911L429.737 275.77H473.167L467.067 259.911C461.211 244.784 456.575 231.852 451.452 217.701H451.208C446.572 231.852 441.936 244.784 435.837 259.911ZM590.435 175.004V318.224H666.071V350.674H557.984V175.004H590.435ZM689.032 175.004H811.758V207.454H721.482V246.736H802.486V278.942H721.482V318.224H811.758V350.674H689.032V175.004Z" fill="white"/>
<path d="M231.6 289.189V285.701H228.09L228.112 289.211L231.6 289.189ZM264.295 289.189L267.783 289.147L267.741 285.701H264.295V289.189ZM302.357 278.454L301.511 281.838L301.518 281.84L301.526 281.842L302.357 278.454ZM281.862 273.33L282.708 269.946L282.701 269.944L281.862 273.33ZM350.666 229.901V233.389H354.154V229.901H350.666ZM318.704 229.901H315.215V233.389H318.704V229.901ZM286.985 242.1L286.11 245.477L286.12 245.479L286.985 242.1ZM306.992 247.224L306.127 250.603L306.14 250.606L306.992 247.224ZM231.6 292.678H264.295V285.701H231.6V292.678ZM260.807 289.231C260.938 300.112 264.501 309.005 270.978 315.17C277.437 321.315 286.421 324.396 296.745 324.396V317.419C287.794 317.419 280.675 314.766 275.788 310.116C270.92 305.484 267.896 298.518 267.783 289.147L260.807 289.231ZM296.745 324.396C306.255 324.396 313.674 321.477 318.751 316.793C323.813 312.123 326.34 305.88 326.34 299.681H319.363C319.363 303.973 317.62 308.344 314.021 311.665C310.436 314.971 304.802 317.419 296.745 317.419V324.396ZM326.34 299.681C326.34 287.258 317.049 278.466 303.188 275.066L301.526 281.842C313.527 284.786 319.363 291.609 319.363 299.681H326.34ZM303.203 275.07L282.708 269.946L281.016 276.714L301.511 281.838L303.203 275.07ZM282.701 269.944C255.24 263.138 239.969 245.669 239.969 224.045H232.992C232.992 249.754 251.391 269.372 281.022 276.716L282.701 269.944ZM239.969 224.045C239.969 196.787 265.095 177.028 295.037 177.028V170.051C262.519 170.051 232.992 191.77 232.992 224.045H239.969ZM295.037 177.028C327.051 177.028 347.178 201.348 347.178 229.901H354.154C354.154 197.945 331.339 170.051 295.037 170.051V177.028ZM350.666 226.412H318.704V233.389H350.666V226.412ZM322.192 229.901C322.192 213.403 310.45 201.038 293.573 201.038V208.014C306.463 208.014 315.215 217.12 315.215 229.901H322.192ZM293.573 201.038C276.755 201.038 266.418 212.619 266.418 224.289H273.395C273.395 216.928 280.136 208.014 293.573 208.014V201.038ZM266.418 224.289C266.418 228.493 267.591 232.927 270.827 236.803C274.04 240.651 279.029 243.641 286.11 245.477L287.861 238.723C281.766 237.143 278.216 234.766 276.183 232.331C274.173 229.924 273.395 227.161 273.395 224.289H266.418ZM286.12 245.479L306.127 250.603L307.858 243.844L287.851 238.721L286.12 245.479ZM306.14 250.606C322.257 254.665 333.884 260.654 341.467 268.575C348.965 276.408 352.789 286.421 352.789 299.193H359.766C359.766 284.882 355.417 273.058 346.507 263.751C337.682 254.533 324.666 248.077 307.844 243.841L306.14 250.606ZM352.789 299.193C352.789 313.834 347.039 326.112 337.28 334.767C327.491 343.45 313.473 348.65 296.745 348.65V355.626C314.907 355.626 330.655 349.969 341.91 339.987C353.196 329.977 359.766 315.782 359.766 299.193H352.789ZM296.745 348.65C263.018 348.65 235.319 326.031 235.089 289.168L228.112 289.211C228.37 330.423 259.715 355.626 296.745 355.626V348.65ZM537.335 350.674V354.162H542.428L540.588 349.414L537.335 350.674ZM502.201 350.674L498.947 351.93L499.808 354.162H502.201V350.674ZM484.878 305.781L488.132 304.525L487.271 302.292H484.878V305.781ZM418.025 305.781V302.292H415.632L414.771 304.525L418.025 305.781ZM400.702 350.674V354.162H403.095L403.957 351.93L400.702 350.674ZM365.568 350.674L362.317 349.41L360.469 354.162H365.568V350.674ZM433.885 175.004V171.515H431.498L430.633 173.739L433.885 175.004ZM469.263 175.004L472.515 173.743L471.652 171.515H469.263V175.004ZM435.837 259.911L432.601 258.606L432.591 258.633L432.581 258.659L435.837 259.911ZM429.737 275.77L426.481 274.518L424.658 279.258H429.737V275.77ZM473.167 275.77V279.258H478.246L476.422 274.518L473.167 275.77ZM467.067 259.911L470.323 258.659L470.32 258.652L467.067 259.911ZM451.452 217.701L454.732 216.514L453.899 214.213H451.452V217.701ZM451.208 217.701V214.213H448.68L447.893 216.615L451.208 217.701ZM537.335 347.186H502.201V354.162H537.335V347.186ZM505.455 349.418L488.132 304.525L481.623 307.036L498.947 351.93L505.455 349.418ZM484.878 302.292H418.025V309.269H484.878V302.292ZM414.771 304.525L397.448 349.418L403.957 351.93L421.28 307.036L414.771 304.525ZM400.702 347.186H365.568V354.162H400.702V347.186ZM368.819 351.938L437.136 176.268L430.633 173.739L362.317 349.41L368.819 351.938ZM433.885 178.492H469.263V171.515H433.885V178.492ZM466.01 176.264L534.082 351.935L540.588 349.414L472.515 173.743L466.01 176.264ZM432.581 258.659L426.481 274.518L432.993 277.022L439.092 261.163L432.581 258.659ZM429.737 279.258H473.167V272.282H429.737V279.258ZM476.422 274.518L470.323 258.659L463.811 261.163L469.911 277.022L476.422 274.518ZM470.32 258.652C464.481 243.568 459.86 230.677 454.732 216.514L448.172 218.889C453.291 233.028 457.941 246 463.814 261.17L470.32 258.652ZM451.452 214.213H451.208V221.19H451.452V214.213ZM447.893 216.615C443.278 230.701 438.669 243.559 432.601 258.606L439.072 261.216C445.204 246.009 449.866 233.004 454.523 218.787L447.893 216.615ZM590.435 175.004H593.923V171.515H590.435V175.004ZM590.435 318.224H586.946V321.712H590.435V318.224ZM666.071 318.224H669.559V314.736H666.071V318.224ZM666.071 350.674V354.162H669.559V350.674H666.071ZM557.984 350.674H554.496V354.162H557.984V350.674ZM557.984 175.004V171.515H554.496V175.004H557.984ZM586.946 175.004V318.224H593.923V175.004H586.946ZM590.435 321.712H666.071V314.736H590.435V321.712ZM662.582 318.224V350.674H669.559V318.224H662.582ZM666.071 347.186H557.984V354.162H666.071V347.186ZM561.473 350.674V175.004H554.496V350.674H561.473ZM557.984 178.492H590.435V171.515H557.984V178.492ZM689.032 175.004V171.515H685.544V175.004H689.032ZM811.758 175.004H815.246V171.515H811.758V175.004ZM811.758 207.454V210.942H815.246V207.454H811.758ZM721.482 207.454V203.965H717.994V207.454H721.482ZM721.482 246.736H717.994V250.224H721.482V246.736ZM802.486 246.736H805.974V243.247H802.486V246.736ZM802.486 278.942V282.43H805.974V278.942H802.486ZM721.482 278.942V275.454H717.994V278.942H721.482ZM721.482 318.224H717.994V321.712H721.482V318.224ZM811.758 318.224H815.246V314.736H811.758V318.224ZM811.758 350.674V354.162H815.246V350.674H811.758ZM689.032 350.674H685.544V354.162H689.032V350.674ZM689.032 178.492H811.758V171.515H689.032V178.492ZM808.269 175.004V207.454H815.246V175.004H808.269ZM811.758 203.965H721.482V210.942H811.758V203.965ZM717.994 207.454V246.736H724.971V207.454H717.994ZM721.482 250.224H802.486V243.247H721.482V250.224ZM798.998 246.736V278.942H805.974V246.736H798.998ZM802.486 275.454H721.482V282.43H802.486V275.454ZM717.994 278.942V318.224H724.971V278.942H717.994ZM721.482 321.712H811.758V314.736H721.482V321.712ZM808.269 318.224V350.674H815.246V318.224H808.269ZM811.758 347.186H689.032V354.162H811.758V347.186ZM692.52 350.674V175.004H685.544V350.674H692.52Z" fill="#7933FF" mask="url(#path-3-outside-1_2016_42471)"/>
<rect x="223.774" y="19.112" width="430.575" height="118.555" transform="rotate(-2.48012 223.774 19.112)" fill="#5646A5"/>
<path d="M284.476 63.8835L283.027 76.4674L314.454 75.0649L312.279 93.728L280.839 95.129L278.108 118.616L252.703 119.742L261.259 46.3482L322.523 43.6257L320.348 62.2888L284.489 63.885L284.476 63.8835Z" fill="#7933FF"/>
<path d="M330.588 43.2662L355.993 42.14L349.673 96.3466L383.703 94.8319L381.468 114.019L322.032 116.66L330.588 43.2662Z" fill="#7933FF"/>
<path d="M446.486 98.4205L417.837 99.6912L411.291 112.711L385.445 113.853L426.936 38.991L451.915 37.882L476.321 109.811L450.048 110.97L446.474 98.4059L446.486 98.4205ZM441.556 80.9051L436.378 62.7768L426.911 81.5567L441.556 80.9051Z" fill="#7933FF"/>
<path d="M490.326 108.834C484.569 107.733 479.907 106.12 476.382 103.975L486.668 85.5813C490.025 87.4553 493.844 88.8912 498.162 89.9195C502.467 90.9464 506.669 91.3637 510.754 91.1832C514.265 91.0296 516.827 90.5807 518.412 89.8468C519.998 89.1128 520.873 88.0847 521.025 86.7607C521.202 85.2271 520.347 84.1192 518.473 83.4385C516.585 82.7564 513.438 82.062 509.017 81.3538C503.346 80.4221 498.647 79.3631 494.932 78.1783C491.216 76.9934 488.097 74.8945 485.584 71.9222C483.072 68.9367 482.128 64.7904 482.753 59.483C483.284 54.8689 485.102 50.6155 488.206 46.7227C491.298 42.8283 495.617 39.6864 501.141 37.2807C506.664 34.875 513.196 33.5151 520.739 33.1749C525.906 32.9462 530.917 33.2575 535.785 34.1234C540.653 34.9893 544.863 36.3771 548.425 38.3146L538.685 56.5849C531.706 53.2846 524.921 51.7729 518.326 52.0629C511.798 52.3474 508.35 54.0357 507.995 57.1161C507.826 58.5843 508.661 59.6367 510.512 60.2881C512.363 60.9395 515.464 61.5754 519.826 62.2236C525.446 63.0167 530.153 64.0102 533.935 65.1895C537.729 66.3833 540.892 68.4475 543.447 71.3981C545.99 74.3472 546.963 78.4704 546.337 83.7908C545.806 88.405 543.99 92.6453 540.89 96.4988C537.803 100.354 533.482 103.509 527.955 105.941C522.429 108.373 515.894 109.759 508.351 110.099C502.103 110.376 496.107 109.964 490.337 108.862L490.326 108.834Z" fill="#7933FF"/>
<path d="M634.01 29.8108L625.454 103.205L600.049 104.331L603.203 77.2802L579.733 78.3237L576.579 105.375L551.174 106.501L559.729 33.1068L585.135 31.9805L582.101 57.9828L605.571 56.9392L608.605 30.937L634.01 29.8108Z" fill="#7933FF"/>
<path d="M309.886 49.3216L275.259 50.863L274.034 50.722L273.883 52.0386L272.434 64.6225L272.256 66.1674L273.81 66.098L303.681 64.7649L301.817 80.7609L271.503 82.1117L270.376 82.1619L270.246 83.2826L267.646 105.649L244.923 106.656L253.168 35.9287L311.75 33.3254L309.886 49.3216Z" fill="white" stroke="#7933FF" stroke-width="2.65054"/>
<path d="M371.004 101.051L314.252 103.573L322.496 32.8459L345.219 31.8385L339.079 84.4988L338.899 86.0454L340.455 85.9762L372.929 84.5308L371.004 101.051Z" fill="white" stroke="#7933FF" stroke-width="2.65054"/>
<path d="M438.235 85.8894L437.195 86.423L437.15 85.4042L408.5 86.6749L407.724 86.7093L407.375 87.4036L401.178 99.729L378.475 100.732L418.459 28.5897L441.702 27.5577L465.221 96.8726L441.759 97.9078L438.935 87.9781L439.861 87.9371L438.247 85.904L438.235 85.8894ZM432.337 70.5367L434.014 70.4621L433.553 68.8488L428.375 50.7204L427.443 47.46L425.917 50.4879L416.45 69.2678L415.431 71.2889L417.692 71.1883L432.337 70.5367Z" fill="white" stroke="#7933FF" stroke-width="2.65054"/>
<path d="M499.012 97.0812C493.127 97.3419 487.479 96.9821 482.043 96.0031L482.035 95.9799L481.296 95.8386C476.234 94.8705 472.106 93.5132 468.899 91.7833L477.91 75.6701C481.096 77.3074 484.646 78.5789 488.576 79.5149C492.991 80.5682 497.317 80.9996 501.533 80.8134C505.078 80.6582 507.858 80.2035 509.69 79.3556C511.542 78.4979 512.841 77.1461 513.063 75.2184C513.186 74.1473 512.947 73.1336 512.289 72.2778C511.657 71.456 510.723 70.8902 509.646 70.499L509.644 70.4983C507.63 69.7706 504.377 69.061 499.949 68.3517C494.317 67.4261 489.687 66.38 486.055 65.2218C482.58 64.1138 479.672 62.1577 477.318 59.3739C475.119 56.76 474.192 53.0261 474.789 47.944L474.79 47.9408C475.291 43.5913 477.002 39.5683 479.963 35.8551L479.965 35.8528C482.894 32.1626 487.022 29.1401 492.391 26.8018C497.732 24.4756 504.097 23.1398 511.519 22.805C516.594 22.5804 521.507 22.8865 526.274 23.7343C530.501 24.4864 534.184 25.6346 537.345 27.1821L528.824 43.165C522.082 40.1532 515.466 38.7603 508.989 39.0451C505.653 39.1904 502.947 39.6966 500.984 40.6568C498.966 41.644 497.641 43.172 497.399 45.2707C497.279 46.3163 497.519 47.3066 498.179 48.1383C498.809 48.9321 499.734 49.4716 500.793 49.8444C502.775 50.5419 505.988 51.1922 510.352 51.8407L510.352 51.8407L510.361 51.8421C515.936 52.6287 520.567 53.6092 524.259 54.7602C527.823 55.8816 530.774 57.81 533.165 60.5701C535.386 63.1469 536.341 66.8517 535.742 71.9422L535.742 71.9454C535.241 76.2949 533.531 80.3029 530.578 83.9742L530.576 83.9766C527.649 87.6319 523.516 90.6692 518.142 93.0339C512.798 95.3857 506.431 96.7466 499.012 97.0812Z" fill="white" stroke="#7933FF" stroke-width="2.65054"/>
<path d="M614.991 90.2384L592.268 91.2457L595.242 65.7413L595.422 64.1947L593.867 64.2638L570.397 65.3074L569.27 65.3575L569.139 66.4779L566.116 92.4082L543.393 93.4155L551.638 22.6884L574.361 21.6811L571.508 46.1368L571.327 47.6835L572.883 47.6143L596.353 46.5708L597.48 46.5207L597.61 45.4004L600.513 20.5186L623.236 19.5113L614.991 90.2384Z" fill="white" stroke="#7933FF" stroke-width="2.65054"/>
<circle cx="1037.85" cy="254.553" r="170.438" fill="#7933FF"/>
<circle cx="1026.3" cy="242.998" r="168.72" fill="#03EF62" stroke="#65FF8F" stroke-width="3.43526"/>
<path d="M1023.24 76.0093C977.382 71.7493 930.761 92.1178 899.804 127.37C876.362 153.579 861.038 187.481 856.435 222.987C842.026 327.919 919.536 412.669 1015.01 409.305C892.261 397.826 840.086 241.896 915.858 141.276C946.628 99.1616 997.925 73.4084 1048.83 78.2175L1023.24 76.0078V76.0093Z" fill="#00C74E"/>
<path d="M1101.14 316.404C1108.63 317.055 1115.19 311.593 1115.83 304.218C1116.48 296.844 1110.95 290.331 1103.47 289.68C1095.98 289.029 1089.45 294.494 1088.81 301.869C1088.17 309.244 1093.66 315.753 1101.14 316.404ZM1101.57 311.548C1096.78 311.133 1093.33 307.007 1093.74 302.298C1094.15 297.588 1098.26 294.12 1103.05 294.536C1107.83 294.952 1111.31 299.08 1110.9 303.79C1110.49 308.499 1106.35 311.964 1101.57 311.548Z" fill="#000820"/>
<path d="M1121.19 291.442L1118.9 317.727L1123.83 318.156L1124.75 307.605L1136.69 308.643L1137.1 303.824L1125.17 302.786L1125.7 296.726L1138.97 297.88L1139.39 293.024L1121.19 291.442Z" fill="#000820"/>
<path d="M1143.38 293.371L1141.09 319.657L1146.02 320.085L1146.94 309.535L1158.87 310.572L1159.29 305.753L1147.36 304.716L1147.88 298.655L1161.15 299.809L1161.58 294.954L1143.38 293.371Z" fill="#000820"/>
<path d="M1109.47 225.26C1115.26 225.763 1120.75 223.032 1123.99 218.257C1125.66 215.874 1126.57 213.231 1126.83 210.239C1127.36 204.16 1124.83 198.592 1120.15 195.269C1117.87 193.611 1115.22 192.701 1112.32 192.449C1106.43 191.937 1100.95 194.571 1097.72 199.346C1096.05 201.729 1095.13 204.469 1094.87 207.461C1094.36 213.347 1096.89 218.915 1101.55 222.335C1103.84 223.992 1106.48 224.999 1109.47 225.26ZM1110.16 217.346C1105.52 216.943 1102.38 212.878 1102.79 208.149C1103.2 203.42 1107 199.959 1111.64 200.362C1116.17 200.757 1119.32 204.822 1118.91 209.551C1118.5 214.28 1114.7 217.741 1110.16 217.346ZM1149.05 265.649C1154.94 266.162 1160.43 263.527 1163.66 258.752C1165.33 256.369 1166.25 253.629 1166.51 250.638C1167.02 244.751 1164.49 239.183 1159.82 235.763C1157.54 234.106 1154.9 233.099 1151.91 232.839C1146.11 232.335 1140.72 235.075 1137.39 239.841C1135.72 242.224 1134.71 244.859 1134.45 247.85C1133.92 253.93 1136.56 259.41 1141.23 262.733C1143.52 264.39 1146.16 265.398 1149.05 265.649ZM1149.74 257.736C1145.2 257.342 1142.06 253.276 1142.47 248.547C1142.88 243.819 1146.68 240.357 1151.22 240.752C1155.85 241.155 1159 245.221 1158.59 249.949C1158.18 254.678 1154.38 258.139 1149.74 257.736ZM1151.14 195.824L1101.07 261.477L1110.72 262.317L1160.79 196.663L1151.14 195.824Z" fill="#000820"/>
<path d="M942.869 217.444C932.198 216.43 924.244 220.264 920.096 223.047L925.83 197.997L976.037 202.769L978.181 180.202L908.907 173.618L894.675 237.93L915.027 244.806C917.317 241.14 925.138 235 935.809 236.014C948.054 237.177 955.854 247.98 954.74 259.701C953.593 271.771 943.073 280.303 931.353 279.189C921.206 278.225 912.225 268.722 912.806 258.893L889.365 256.665C887.445 278.723 905.134 298.762 929.275 301.056C954.29 303.434 975.404 287.436 977.731 262.945C979.959 239.503 965.086 219.556 942.869 217.444Z" fill="#000820"/>
<path d="M989.317 243.394C985.926 279.08 1000.14 307.791 1032.86 310.9C1065.39 313.992 1084.76 288.473 1088.16 252.787C1091.55 217.1 1077.31 188.564 1044.78 185.472C1012.06 182.363 992.709 207.707 989.317 243.394ZM1012.41 245.588C1014.59 222.672 1024.28 206.118 1042.65 207.863C1061.02 209.609 1067.07 227.659 1064.89 250.576C1062.71 273.492 1053.35 290.254 1034.98 288.508C1016.62 286.763 1010.23 268.505 1012.41 245.588Z" fill="#000820"/>
<path d="M36.2986 424.043L201.508 217.335H135.25L201.508 109.259L181.742 87.1089L15.0547 399.527L36.2986 424.043Z" fill="#7933FF"/>
<path d="M183.683 194.681L120.593 203.801L188.645 92.3681L190.683 89.0192L187.914 86.2392L171.981 70.2993L170.154 68.4622L167.604 68.9093L56.9663 88.4014L53.8479 88.9541L53.0277 92.0104L2.58144 279.266L0.307617 287.696L8.71262 285.371L54.5544 272.682L8.17665 372.931L6.80424 375.906L8.98061 378.344L24.0284 395.178L27.9183 399.527L31.597 395.008L188.255 202.769L196.327 192.861L183.683 194.681Z" fill="#7933FF"/>
<path d="M57.8353 93.3105L168.465 73.8184L184.398 89.7665L110.823 210.247L184.398 199.615L27.7397 391.854L12.6918 375.019L63.5929 265.009L7.38086 280.566L57.8353 93.3105Z" fill="#03EF62"/>
<path d="M7.38086 280.566L69.3343 101.577L168.465 73.8184L57.8353 93.3105L7.38086 280.566Z" fill="#00C74E"/>
<path d="M168.465 73.8184L61.376 258.969L110.823 210.247L184.398 89.7665L168.465 73.8184Z" fill="#65FF8F"/>
</svg>
