<?xml version="1.0" encoding="utf-8"?>
<!-- Generator: Adobe Illustrator 16.0.0, SVG Export Plug-In . SVG Version: 6.00 Build 0)  -->
<!DOCTYPE svg PUBLIC "-//W3C//DTD SVG 1.1//EN" "http://www.w3.org/Graphics/SVG/1.1/DTD/svg11.dtd">
<svg version="1.1" id="Layer_1" xmlns="http://www.w3.org/2000/svg" xmlns:xlink="http://www.w3.org/1999/xlink" x="0px" y="0px"
	 width="167.997px" height="56px" viewBox="0 0 167.997 56" enable-background="new 0 0 167.997 56" xml:space="preserve">
<g>
	<g>
		<g>
			<path fill="#51A803" d="M19.951,22.45c-1.204-6.897,0.674-12.969,4.223-18.713c4.264,6.922,10.321,10.903,18.447,11.174
				c8.127,0.272,14.451-3.27,19.121-9.862c2.051,2.567,4.156,12.494,3.56,16.812c-2.415-4.672-6.164-7.316-11.485-7.125
				c-5.31,0.19-8.862,3.069-10.937,7.887c-2.042-5.101-5.723-8.164-11.314-8.242C25.963,14.303,22.189,17.247,19.951,22.45z"/>
			<path fill="#4FA801" d="M148.464,25.642c0-2.672,0.01-4.875-0.01-7.08c-0.002-0.365,0.096-0.45,0.451-0.443
				c1.421,0.021,2.842,0.024,4.263-0.002c0.402-0.006,0.464,0.137,0.462,0.492c-0.011,4.088-0.006,8.176-0.006,12.262
				c0,0.528,0.017,1.054,0.169,1.564c0.402,1.355,1.518,2.251,2.985,2.376c0.591,0.052,1.18,0.034,1.758-0.129
				c1.479-0.418,2.363-1.621,2.379-3.314c0.021-2.283,0.009-4.567,0.009-6.85c0.001-1.979,0.007-3.96-0.006-5.939
				c-0.003-0.335,0.049-0.466,0.433-0.462c1.437,0.026,2.874,0.02,4.312,0.002c0.323-0.003,0.433,0.074,0.433,0.419
				c-0.013,4.232,0.027,8.463-0.02,12.694c-0.039,3.43-1.452,6.124-4.682,7.54c-2.818,1.233-5.743,1.185-8.549-0.091
				c-2.594-1.179-3.975-3.336-4.279-6.139C148.302,30.096,148.535,27.631,148.464,25.642z"/>
			<path fill="#4FA801" d="M80.146,39.239c0.692-2.008,1.365-3.964,2.041-5.919c1.686-4.877,3.379-9.754,5.049-14.636
				c0.148-0.433,0.34-0.58,0.801-0.568c1.484,0.033,2.97,0.019,4.456,0.007c0.279-0.002,0.416,0.069,0.514,0.351
				c2.351,6.821,4.711,13.64,7.068,20.459c0.031,0.089,0.05,0.181,0.082,0.307c-1.668,0-3.31-0.002-4.951,0.004
				c-0.255,0.001-0.261-0.182-0.313-0.344c-0.425-1.336-0.86-2.668-1.271-4.01c-0.095-0.315-0.241-0.413-0.572-0.41
				c-1.947,0.018-3.895,0.014-5.845-0.002c-0.308-0.003-0.405,0.114-0.487,0.382c-0.41,1.324-0.848,2.639-1.253,3.964
				c-0.092,0.304-0.2,0.432-0.547,0.427C83.351,39.226,81.785,39.239,80.146,39.239z M90.159,23.556
				c-0.667,2.24-1.291,4.344-1.925,6.445c-0.082,0.271,0.042,0.295,0.255,0.294c1.117-0.006,2.234-0.006,3.352,0
				c0.227,0.001,0.318-0.042,0.241-0.302C91.447,27.891,90.824,25.788,90.159,23.556z"/>
			<path fill="#4FA700" d="M139.579,39.239c-1.771,0-3.545-0.009-5.315,0.007c-0.318,0.003-0.396-0.089-0.396-0.398
				c0.008-6.771,0.009-13.542-0.002-20.312c0-0.347,0.113-0.416,0.438-0.414c3.464,0.01,6.929,0.01,10.394,0
				c0.328-0.001,0.435,0.073,0.43,0.416c-0.021,1.261-0.021,2.523,0,3.785c0.005,0.348-0.109,0.419-0.433,0.417
				c-1.74-0.016-3.482,0.004-5.222-0.018c-0.387-0.003-0.484,0.11-0.474,0.483c0.026,0.862,0.032,1.725-0.001,2.586
				c-0.018,0.418,0.135,0.499,0.517,0.492c1.403-0.021,2.811,0.003,4.216-0.015c0.356-0.004,0.5,0.064,0.491,0.464
				c-0.028,1.229-0.022,2.461-0.003,3.689c0.006,0.34-0.101,0.429-0.431,0.425c-1.454-0.018-2.907,0.003-4.361-0.016
				c-0.339-0.003-0.432,0.101-0.427,0.435c0.02,0.973,0.022,1.949-0.002,2.92c-0.008,0.352,0.077,0.462,0.446,0.459
				c1.821-0.021,3.642,0,5.462-0.02c0.359-0.004,0.453,0.093,0.447,0.45c-0.022,1.244-0.024,2.49,0.002,3.734
				c0.007,0.372-0.11,0.444-0.455,0.44C143.125,39.23,141.353,39.239,139.579,39.239z"/>
			<path fill="#F8AE2F" d="M19.673,28.479c-0.001-4.603,2.721-8.812,7.218-10.447c6.905-2.508,13.707,1.344,15.232,7.797
				c1.026,4.341,0.209,8.318-3.087,11.545c-2.275,2.225-5.056,3.185-8.221,3.124c-4.129-0.078-7.274-1.907-9.486-5.351
				C20.114,33.258,19.654,31.136,19.673,28.479z M35.693,21.079c-0.102-0.227-0.333-0.289-0.523-0.39
				c-3.408-1.824-7.751-1.112-10.399,1.729c-2.112,2.263-2.716,4.999-2.313,7.984c0.699,5.176,5.016,8.369,10.181,7.564
				c0.556-0.087,1.136-0.147,1.617-0.502c0.954-0.238,1.729-0.797,2.463-1.415c3.661-3.083,3.905-8.854,1.677-12.325
				C37.701,22.643,36.865,21.684,35.693,21.079z"/>
			<path fill="#4FA701" d="M71.497,30.979c0-2.602-0.006-5.205,0.009-7.806c0.003-0.365-0.102-0.457-0.457-0.452
				c-1.245,0.021-2.491-0.002-3.734,0.017c-0.319,0.004-0.401-0.093-0.396-0.404c0.018-1.276,0.016-2.555,0.001-3.831
				c-0.002-0.283,0.057-0.383,0.365-0.382c4.517,0.009,9.035,0.009,13.551,0.001c0.289,0,0.383,0.067,0.377,0.369
				c-0.017,1.293-0.017,2.585,0,3.88c0.004,0.307-0.1,0.37-0.384,0.365c-1.245-0.015-2.49,0.009-3.734-0.016
				c-0.387-0.008-0.473,0.113-0.472,0.483c0.012,5.155,0.003,10.311,0.019,15.468c0.001,0.438-0.071,0.597-0.555,0.581
				c-1.371-0.037-2.745-0.025-4.118-0.006c-0.365,0.006-0.48-0.077-0.478-0.464C71.504,36.182,71.497,33.578,71.497,30.979z"/>
			<path fill="#F8AE2F" d="M2.239,34.438c0-1.389,0.005-2.778-0.001-4.169c-0.003-0.709,0.103-0.613-0.645-0.621
				c-0.256-0.004-0.513-0.016-0.767,0.002c-0.253,0.017-0.334-0.088-0.328-0.333c0.013-0.511,0.015-1.022,0-1.532
				c-0.007-0.255,0.09-0.353,0.335-0.323c0.047,0.006,0.096,0.003,0.144,0c0.408-0.034,0.931,0.178,1.193-0.097
				c0.238-0.249,0.066-0.761,0.068-1.157c0.005-2.524,0.012-5.048-0.005-7.57c-0.003-0.38,0.072-0.525,0.489-0.516
				c1.694,0.03,3.389-0.035,5.078,0.044c2.665,0.123,5.12,0.868,7.136,2.725c1.448,1.333,2.312,3.001,2.702,4.908
				c0.451,2.205,0.425,4.415-0.193,6.587c-0.978,3.43-3.318,5.461-6.705,6.366c-1.208,0.322-2.445,0.466-3.693,0.479
				c-1.469,0.016-2.938-0.004-4.408,0.013c-0.309,0.003-0.408-0.078-0.404-0.396C2.25,37.377,2.239,35.907,2.239,34.438z
				 M4.659,33.342c0,1.101,0.004,2.203-0.002,3.304c-0.001,0.252,0.011,0.429,0.347,0.419c1.308-0.037,2.62,0.075,3.92-0.134
				c2.897-0.463,4.984-1.956,5.955-4.8c0.577-1.694,0.61-3.44,0.396-5.203c-0.398-3.262-2.659-5.713-5.87-6.385
				c-1.42-0.298-2.858-0.224-4.292-0.253c-0.357-0.006-0.461,0.103-0.46,0.462c0.015,2.091,0.019,4.182-0.001,6.274
				c-0.002,0.375,0.12,0.45,0.465,0.445c1.182-0.02,2.363,0.002,3.544-0.015c0.32-0.003,0.414,0.096,0.398,0.407
				c-0.023,0.463-0.024,0.928,0,1.387c0.017,0.317-0.087,0.408-0.402,0.404c-1.182-0.017-2.364,0.007-3.543-0.015
				c-0.351-0.007-0.471,0.077-0.462,0.448C4.676,31.171,4.659,32.256,4.659,33.342z"/>
			<path fill="#F8AE30" d="M51.193,37.509c1.31,0.553,2.687,0.686,4.08,0.526c3.634-0.414,6.17-2.382,7.76-5.627
				c0.117-0.24,0.193-0.289,0.397-0.083c0.404,0.41,0.817,0.811,1.252,1.187c0.233,0.201,0.211,0.365,0.09,0.614
				c-1.305,2.665-3.363,4.554-6.108,5.581c-3.209,1.201-6.474,1.214-9.56-0.395c-3.615-1.885-5.62-4.946-6.047-9.016
				c-0.303-2.905,0.192-5.649,1.881-8.073c2.596-3.725,6.205-5.315,10.71-4.846c3.427,0.356,6.092,2.015,8.071,4.82
				c0.229,0.324,0.229,0.53-0.056,0.808c-0.328,0.323-0.608,0.698-0.905,1.051c-0.369,0.438-0.377,0.445-0.68-0.02
				c-0.85-1.31-1.93-2.386-3.303-3.131c-2.763-1.501-5.583-1.633-8.44-0.252c-0.168,0.082-0.362,0.144-0.435,0.349
				c-0.216,0.061-0.405,0.168-0.585,0.301c-1.059,0.775-1.899,1.745-2.517,2.9c-1.145,2.142-1.397,4.429-0.935,6.772
				C46.474,34.075,48.189,36.331,51.193,37.509z"/>
			<path fill="#4FA700" d="M111.165,28.67c0-3.354,0.009-6.707-0.009-10.061c-0.004-0.408,0.115-0.499,0.506-0.492
				c1.389,0.023,2.778,0.022,4.168,0c0.373-0.004,0.478,0.091,0.476,0.472c-0.013,5.156-0.003,10.315-0.021,15.471
				c0,0.453,0.093,0.591,0.567,0.583c1.788-0.032,3.576-0.006,5.364-0.021c0.334-0.002,0.431,0.086,0.426,0.424
				c-0.02,1.261-0.015,2.521-0.003,3.785c0.003,0.28-0.029,0.42-0.377,0.418c-3.576-0.014-7.152-0.014-10.729,0
				c-0.358,0.002-0.371-0.149-0.371-0.422C111.167,35.439,111.165,32.055,111.165,28.67z"/>
			<path fill="#4FA701" d="M51.193,37.509c-3.002-1.177-4.719-3.432-5.329-6.534c-0.463-2.345-0.211-4.633,0.934-6.772
				c0.618-1.156,1.456-2.125,2.517-2.901c0.181-0.132,0.371-0.242,0.585-0.3c4.573-1.147,9.263,1.75,10.218,6.311
				c0.991,4.741-2.072,9.302-6.777,10.088C52.629,37.518,51.911,37.521,51.193,37.509z M50.367,25.764
				c0.006,1.632-0.672,2.547-2.071,2.886c-0.449,0.108-0.911,0.17-1.375,0.134c-0.276-0.023-0.392,0.059-0.41,0.361
				c-0.146,2.439,1.717,4.68,4.16,4.894c1.893,0.168,3.415-0.563,4.427-2.186c0.982-1.571,0.996-3.219,0.049-4.803
				c-0.989-1.655-2.515-2.376-4.436-2.274c-0.288,0.015-0.496,0.07-0.384,0.452C50.392,25.439,50.363,25.674,50.367,25.764z"/>
			<path fill="#4FA700" d="M107.386,28.642c0,3.383-0.004,6.768,0.006,10.149c0.001,0.339-0.054,0.467-0.434,0.46
				c-1.436-0.025-2.872-0.019-4.309-0.005c-0.302,0.003-0.404-0.066-0.404-0.392c0.01-6.781,0.01-13.563,0-20.344
				c0-0.329,0.113-0.393,0.411-0.39c1.419,0.013,2.842,0.019,4.262-0.003c0.372-0.006,0.477,0.091,0.475,0.471
				C107.379,21.94,107.386,25.29,107.386,28.642z"/>
			<path fill="#4FA700" d="M124.963,28.676c0-3.35,0.008-6.702-0.008-10.051c-0.001-0.388,0.078-0.516,0.49-0.509
				c1.42,0.026,2.84,0.02,4.262,0.002c0.317-0.003,0.394,0.098,0.394,0.404c-0.008,6.78-0.008,13.563,0.003,20.344
				c0,0.346-0.134,0.377-0.417,0.377c-1.438-0.013-2.872-0.017-4.309,0.001c-0.334,0.005-0.423-0.085-0.422-0.421
				C124.969,35.443,124.963,32.06,124.963,28.676z"/>
			<path fill="#F8AE30" d="M45.257,39.624c-0.204,2.037-1.156,3.739-2.629,5.181c-0.133,0.131-0.235,0.115-0.362-0.008
				c-1.467-1.446-2.427-3.149-2.617-5.229c-0.042-0.455,0.168-0.872,0.399-1.258c0.553-0.925,1.359-1.598,2.219-2.212
				c0.112-0.079,0.211-0.117,0.342-0.021c0.986,0.72,1.923,1.48,2.446,2.63C45.183,38.981,45.275,39.271,45.257,39.624z"/>
			<path fill="#51A803" d="M136.192,17.015c0.608-0.915,1.166-1.748,1.712-2.584c0.105-0.159,0.235-0.185,0.404-0.185
				c0.877,0.003,1.754,0.003,2.632,0c0.17-0.001,0.303,0.026,0.405,0.184c0.547,0.838,1.102,1.671,1.708,2.584
				c-0.891,0-1.708,0-2.525,0c-0.157,0-0.205-0.136-0.271-0.238c-0.2-0.307-0.393-0.616-0.625-0.987
				c-0.215,0.334-0.41,0.613-0.579,0.906c-0.129,0.227-0.278,0.338-0.562,0.328C137.754,17,137.021,17.015,136.192,17.015z"/>
			<path fill="#51A803" d="M141.392,43.089c0,1.007-0.777,1.787-1.781,1.796c-0.992,0.007-1.787-0.791-1.785-1.794
				c0-0.997,0.795-1.796,1.783-1.793C140.605,41.303,141.392,42.092,141.392,43.089z"/>
			<path fill="#51A803" d="M91.958,16.44c-0.786,0-1.518-0.002-2.249,0.003c-0.146,0-0.231-0.066-0.313-0.176
				c-0.667-0.911-1.339-1.816-2.07-2.806c1.157,0,2.229,0.001,3.302-0.002c0.141,0,0.194,0.085,0.237,0.192
				C91.226,14.565,91.583,15.479,91.958,16.44z"/>
			<path fill="#4FA701" d="M35.693,21.079c1.172,0.604,2.008,1.563,2.701,2.646c2.229,3.471,1.984,9.241-1.677,12.324
				c-0.734,0.619-1.508,1.177-2.462,1.416c-5.805,0.636-10.47-4.739-9.043-10.386C26.327,22.669,30.925,19.714,35.693,21.079z
				 M38.755,28.922c-0.003-2.564-2.109-4.65-4.673-4.632c-0.948,0.007-0.948,0.035-0.848,0.952c0.101,0.913-0.115,1.752-0.834,2.382
				c-0.702,0.615-1.568,0.744-2.465,0.708c-0.346-0.013-0.471,0.093-0.482,0.458c-0.065,2.586,1.993,4.759,4.564,4.795
				C36.644,33.617,38.758,31.536,38.755,28.922z"/>
			<path fill="#121D26" d="M50.367,25.764c-0.003-0.09,0.023-0.325-0.038-0.533c-0.113-0.384,0.095-0.436,0.384-0.451
				c1.921-0.105,3.446,0.617,4.436,2.274c0.947,1.583,0.933,3.231-0.049,4.805c-1.012,1.624-2.534,2.352-4.428,2.184
				c-2.445-0.215-4.307-2.452-4.16-4.893c0.018-0.303,0.132-0.384,0.408-0.362c0.465,0.037,0.928-0.024,1.376-0.132
				C49.695,28.311,50.375,27.396,50.367,25.764z"/>
			<path fill="#121D26" d="M38.755,28.922c0.002,2.614-2.112,4.695-4.737,4.66c-2.572-0.034-4.629-2.207-4.564-4.795
				c0.01-0.363,0.137-0.469,0.482-0.456c0.896,0.036,1.762-0.095,2.464-0.71c0.719-0.629,0.935-1.468,0.834-2.382
				c-0.099-0.915-0.099-0.945,0.847-0.951C36.647,24.271,38.751,26.358,38.755,28.922z"/>
		</g>
	</g>
	<g>
		<path d="M102.617,46.545h2.32c0.593,0,1.102,0.101,1.529,0.303c0.426,0.2,0.749,0.483,0.974,0.846
			c0.223,0.364,0.333,0.792,0.333,1.282c0,0.691-0.154,1.3-0.462,1.83s-0.738,0.941-1.295,1.232
			c-0.557,0.29-1.202,0.435-1.936,0.435h-2.649L102.617,46.545z M104.107,51.737c0.571,0,1.067-0.116,1.491-0.347
			c0.423-0.231,0.749-0.552,0.978-0.963c0.228-0.407,0.344-0.876,0.344-1.4c0-0.545-0.176-0.976-0.525-1.283
			c-0.352-0.309-0.864-0.463-1.541-0.463h-1.541l-0.89,4.456H104.107L104.107,51.737z"/>
		<path d="M109.309,52.283c-0.316-0.16-0.563-0.389-0.737-0.682c-0.176-0.294-0.263-0.632-0.263-1.018
			c0-0.502,0.113-0.953,0.338-1.353c0.226-0.401,0.538-0.716,0.94-0.945c0.401-0.229,0.852-0.342,1.353-0.342
			c0.425,0,0.795,0.078,1.11,0.236c0.316,0.16,0.56,0.384,0.731,0.673c0.173,0.291,0.26,0.631,0.26,1.021
			c0,0.502-0.112,0.956-0.338,1.36c-0.227,0.404-0.538,0.719-0.938,0.948c-0.397,0.229-0.846,0.343-1.349,0.343
			C109.993,52.526,109.625,52.443,109.309,52.283z M111.369,51.572c0.27-0.163,0.479-0.386,0.627-0.674
			c0.149-0.288,0.225-0.615,0.225-0.983c0-0.4-0.116-0.71-0.347-0.931c-0.231-0.221-0.563-0.33-0.991-0.33
			c-0.333,0-0.632,0.082-0.897,0.241c-0.266,0.163-0.475,0.387-0.626,0.673c-0.152,0.29-0.228,0.617-0.228,0.984
			c0,0.395,0.116,0.703,0.352,0.927c0.234,0.223,0.563,0.334,0.987,0.334C110.8,51.813,111.101,51.733,111.369,51.572z"/>
		<path d="M114.693,52.283c-0.321-0.16-0.569-0.386-0.744-0.678c-0.176-0.29-0.263-0.632-0.263-1.021
			c0-0.502,0.112-0.953,0.338-1.353c0.226-0.401,0.539-0.716,0.939-0.945c0.401-0.229,0.854-0.342,1.365-0.342
			c0.885,0,1.501,0.324,1.846,0.974l-0.687,0.381c-0.237-0.429-0.644-0.643-1.219-0.643c-0.333,0-0.634,0.08-0.903,0.242
			c-0.269,0.161-0.478,0.385-0.63,0.672c-0.153,0.289-0.229,0.617-0.229,0.984c0,0.395,0.116,0.704,0.353,0.927
			c0.233,0.223,0.567,0.334,0.995,0.334c0.272,0,0.523-0.055,0.759-0.162c0.234-0.107,0.427-0.266,0.58-0.475l0.593,0.424
			c-0.209,0.288-0.489,0.514-0.839,0.678c-0.351,0.163-0.726,0.246-1.125,0.246C115.391,52.526,115.014,52.443,114.693,52.283z"/>
		<path d="M119.522,51.044c-0.018,0.083-0.026,0.164-0.026,0.235c0,0.176,0.049,0.314,0.148,0.412
			c0.099,0.097,0.243,0.146,0.436,0.146c0.236,0,0.452-0.071,0.643-0.211l0.17,0.617c-0.271,0.187-0.618,0.28-1.041,0.28
			c-0.357,0-0.641-0.098-0.856-0.296c-0.213-0.197-0.321-0.473-0.321-0.82c0-0.125,0.012-0.24,0.035-0.349l0.813-4.056h0.812
			l-0.195,0.983h1.279l-0.136,0.669h-1.277L119.522,51.044z"/>
		<path d="M127.108,51.763l-0.084,0.661c-0.17,0.067-0.371,0.103-0.603,0.103c-0.289,0-0.523-0.066-0.71-0.2
			c-0.188-0.132-0.302-0.315-0.347-0.546c-0.208,0.243-0.46,0.428-0.749,0.555c-0.291,0.128-0.616,0.191-0.979,0.191
			c-0.385,0-0.724-0.077-1.025-0.231c-0.299-0.157-0.532-0.381-0.701-0.675c-0.171-0.293-0.256-0.639-0.256-1.033
			c0-0.507,0.11-0.961,0.331-1.363c0.219-0.4,0.521-0.714,0.91-0.938c0.386-0.227,0.819-0.34,1.3-0.34
			c0.383,0,0.712,0.069,0.987,0.204c0.274,0.136,0.484,0.336,0.631,0.603l0.151-0.765h0.814l-0.619,3.118
			c-0.017,0.084-0.024,0.158-0.024,0.219c0,0.17,0.047,0.297,0.144,0.386c0.097,0.088,0.235,0.13,0.415,0.13
			C126.847,51.839,126.985,51.813,127.108,51.763z M124.715,51.572c0.268-0.163,0.478-0.386,0.627-0.674
			c0.148-0.288,0.224-0.615,0.224-0.983c0-0.4-0.116-0.71-0.348-0.931c-0.23-0.221-0.563-0.33-0.991-0.33
			c-0.332,0-0.632,0.082-0.897,0.241c-0.266,0.163-0.475,0.387-0.627,0.673c-0.152,0.29-0.227,0.617-0.227,0.984
			c0,0.395,0.115,0.703,0.352,0.927c0.234,0.223,0.564,0.334,0.986,0.334C124.147,51.813,124.448,51.733,124.715,51.572z"/>
		<path d="M128.7,47.985h0.813l-0.889,4.489h-0.813L128.7,47.985z M128.98,46.979c-0.096-0.096-0.144-0.211-0.144-0.348
			c0-0.157,0.056-0.291,0.166-0.4c0.11-0.11,0.249-0.167,0.418-0.167c0.147,0,0.271,0.046,0.37,0.139
			c0.099,0.095,0.148,0.205,0.148,0.334c0,0.175-0.057,0.316-0.166,0.424c-0.109,0.106-0.254,0.162-0.428,0.162
			C129.197,47.122,129.076,47.073,128.98,46.979z"/>
		<path d="M130.699,52.242c-0.198-0.19-0.296-0.448-0.296-0.775c0-0.124,0.011-0.242,0.034-0.356l0.989-4.92h0.813l-0.99,4.913
			c-0.018,0.073-0.025,0.146-0.025,0.219c0,0.165,0.047,0.29,0.143,0.382c0.097,0.09,0.233,0.134,0.415,0.134
			c0.146,0,0.285-0.024,0.415-0.076l-0.085,0.66c-0.176,0.067-0.376,0.101-0.602,0.101
			C131.167,52.526,130.897,52.431,130.699,52.242z"/>
		<path d="M133.782,47.985h0.813l-0.89,4.489h-0.813L133.782,47.985z M134.062,46.979c-0.097-0.096-0.144-0.211-0.144-0.348
			c0-0.157,0.056-0.291,0.166-0.4c0.11-0.11,0.248-0.167,0.418-0.167c0.146,0,0.27,0.046,0.369,0.139
			c0.099,0.095,0.147,0.205,0.147,0.334c0,0.175-0.058,0.316-0.167,0.424c-0.109,0.106-0.252,0.162-0.427,0.162
			C134.277,47.122,134.158,47.073,134.062,46.979z"/>
		<path d="M139.24,48.459c0.365,0.344,0.546,0.836,0.546,1.475c0,0.092-0.003,0.162-0.009,0.212l-3.71,0.687
			c0.108,0.655,0.574,0.981,1.399,0.981c0.282,0,0.543-0.043,0.787-0.134c0.242-0.09,0.442-0.217,0.601-0.381l0.347,0.585
			c-0.221,0.207-0.486,0.367-0.801,0.478c-0.313,0.109-0.647,0.167-1.003,0.167c-0.441,0-0.822-0.079-1.143-0.236
			c-0.321-0.159-0.57-0.386-0.746-0.68c-0.175-0.294-0.262-0.639-0.262-1.032c0-0.497,0.108-0.944,0.325-1.346
			c0.217-0.4,0.517-0.717,0.897-0.944c0.382-0.229,0.815-0.343,1.3-0.343C138.385,47.943,138.875,48.116,139.24,48.459z
			 M136.601,49.061c-0.305,0.293-0.485,0.688-0.541,1.179l2.973-0.552c-0.027-0.338-0.158-0.6-0.39-0.787s-0.53-0.28-0.898-0.28
			C137.289,48.621,136.906,48.768,136.601,49.061z"/>
		<path d="M145.783,51.763l-0.076,0.661c-0.177,0.067-0.376,0.103-0.602,0.103c-0.294,0-0.532-0.07-0.716-0.209
			c-0.184-0.136-0.298-0.325-0.341-0.563c-0.216,0.261-0.471,0.454-0.767,0.58c-0.297,0.127-0.626,0.192-0.987,0.192
			c-0.498,0-0.891-0.133-1.178-0.399c-0.288-0.265-0.432-0.634-0.432-1.108c0-0.159,0.018-0.33,0.053-0.516l0.499-2.516h0.813
			l-0.5,2.522c-0.028,0.152-0.04,0.279-0.04,0.382c0,0.292,0.086,0.517,0.259,0.674c0.171,0.155,0.427,0.232,0.767,0.232
			c0.429,0,0.785-0.122,1.07-0.363c0.285-0.243,0.477-0.599,0.572-1.068l0.477-2.38h0.812l-0.617,3.117
			c-0.018,0.084-0.025,0.157-0.025,0.219c0,0.169,0.048,0.298,0.144,0.385c0.095,0.088,0.233,0.132,0.414,0.132
			C145.522,51.839,145.656,51.813,145.783,51.763z"/>
		<path d="M146.462,52.368c-0.104-0.104-0.157-0.231-0.157-0.386c0-0.181,0.06-0.328,0.174-0.443
			c0.115-0.115,0.259-0.175,0.428-0.175c0.153,0,0.279,0.054,0.381,0.158s0.153,0.236,0.153,0.395c0,0.174-0.058,0.319-0.175,0.435
			c-0.115,0.116-0.256,0.175-0.418,0.175C146.696,52.526,146.568,52.473,146.462,52.368z"/>
		<path d="M149.406,52.283c-0.321-0.16-0.572-0.386-0.745-0.678c-0.175-0.29-0.264-0.632-0.264-1.021
			c0-0.502,0.113-0.953,0.338-1.353c0.226-0.401,0.54-0.716,0.94-0.945c0.401-0.229,0.854-0.342,1.363-0.342
			c0.888,0,1.504,0.324,1.847,0.974l-0.687,0.381c-0.237-0.429-0.644-0.643-1.22-0.643c-0.333,0-0.633,0.08-0.901,0.242
			c-0.269,0.161-0.479,0.385-0.631,0.672c-0.153,0.289-0.228,0.617-0.228,0.984c0,0.395,0.116,0.704,0.352,0.927
			c0.234,0.223,0.566,0.334,0.995,0.334c0.271,0,0.523-0.055,0.76-0.162c0.232-0.107,0.427-0.266,0.579-0.475l0.595,0.424
			c-0.21,0.288-0.489,0.514-0.84,0.678c-0.35,0.163-0.725,0.246-1.125,0.246C150.103,52.526,149.728,52.443,149.406,52.283z"/>
		<path d="M154.166,52.283c-0.315-0.16-0.562-0.389-0.736-0.682c-0.174-0.294-0.263-0.632-0.263-1.018
			c0-0.502,0.114-0.953,0.34-1.353c0.226-0.401,0.538-0.716,0.939-0.945c0.4-0.229,0.851-0.342,1.354-0.342
			c0.425,0,0.794,0.078,1.109,0.236c0.315,0.16,0.56,0.384,0.732,0.673c0.173,0.291,0.259,0.631,0.259,1.021
			c0,0.502-0.111,0.956-0.338,1.36c-0.226,0.404-0.538,0.719-0.936,0.948c-0.397,0.229-0.848,0.343-1.35,0.343
			C154.851,52.526,154.482,52.443,154.166,52.283z M156.227,51.572c0.269-0.163,0.478-0.386,0.627-0.674
			c0.148-0.288,0.224-0.615,0.224-0.983c0-0.4-0.115-0.71-0.347-0.931c-0.23-0.221-0.563-0.33-0.99-0.33
			c-0.332,0-0.634,0.082-0.897,0.241c-0.267,0.163-0.476,0.387-0.628,0.673c-0.152,0.29-0.228,0.617-0.228,0.984
			c0,0.395,0.117,0.703,0.353,0.927c0.233,0.223,0.563,0.334,0.987,0.334C155.659,51.813,155.959,51.733,156.227,51.572z"/>
		<path d="M166.127,48.329c0.286,0.258,0.428,0.623,0.428,1.098c0,0.13-0.021,0.308-0.062,0.532l-0.499,2.517h-0.813l0.501-2.517
			c0.027-0.157,0.041-0.288,0.041-0.391c0-0.292-0.082-0.514-0.244-0.668c-0.165-0.154-0.413-0.229-0.745-0.229
			c-0.417,0-0.763,0.117-1.028,0.354c-0.269,0.234-0.45,0.586-0.545,1.055l-0.483,2.396h-0.813l0.507-2.517
			c0.029-0.152,0.042-0.28,0.042-0.382c0-0.293-0.083-0.517-0.248-0.673c-0.168-0.156-0.417-0.233-0.749-0.233
			c-0.418,0-0.761,0.119-1.029,0.356c-0.268,0.238-0.449,0.596-0.546,1.075l-0.474,2.372h-0.813l0.89-4.488h0.78l-0.111,0.558
			c0.395-0.399,0.914-0.6,1.559-0.6c0.349,0,0.648,0.068,0.897,0.203c0.247,0.135,0.429,0.333,0.542,0.593
			c0.457-0.53,1.066-0.796,1.828-0.796C165.446,47.943,165.843,48.072,166.127,48.329z"/>
	</g>
</g>
</svg>
