<svg xmlns="http://www.w3.org/2000/svg" xmlns:xlink="http://www.w3.org/1999/xlink" width="236.582" height="236.582" viewBox="0 0 236.582 236.582">
  <defs>
    <linearGradient id="linear-gradient" x1="0.5" x2="0.5" y2="1" gradientUnits="objectBoundingBox">
      <stop offset="0" stop-color="#0081cb"/>
      <stop offset="1" stop-color="#00437e"/>
    </linearGradient>
    <linearGradient id="linear-gradient-2" x1="0.881" y1="0.93" x2="0.131" y2="0.074" gradientUnits="objectBoundingBox">
      <stop offset="0.006" stop-color="#f2ce4b"/>
      <stop offset="0.25" stop-color="#fde789"/>
      <stop offset="0.339" stop-color="#f6da77"/>
      <stop offset="0.514" stop-color="#e4b94b"/>
      <stop offset="0.6" stop-color="#dba833"/>
      <stop offset="1" stop-color="#ffdf70"/>
    </linearGradient>
    <linearGradient id="linear-gradient-3" x1="1.11" y1="0.967" x2="0.193" y2="0.141" xlink:href="#linear-gradient-2"/>
    <linearGradient id="linear-gradient-4" x1="1.011" y1="0.996" x2="0.088" y2="-0.033" xlink:href="#linear-gradient-2"/>
    <linearGradient id="linear-gradient-5" x1="1.005" y1="0.173" x2="0.007" y2="0.831" xlink:href="#linear-gradient-2"/>
    <linearGradient id="linear-gradient-6" x1="1.385" y1="0.2" x2="0.04" y2="0.9" xlink:href="#linear-gradient-2"/>
    <linearGradient id="linear-gradient-7" x1="1.139" y1="0.089" x2="-0.049" y2="0.853" xlink:href="#linear-gradient-2"/>
    <linearGradient id="linear-gradient-8" x1="-16.388" y1="0.5" x2="16.401" y2="0.5" xlink:href="#linear-gradient-2"/>
    <linearGradient id="linear-gradient-9" x1="-0.313" y1="0.5" x2="5.152" y2="0.5" xlink:href="#linear-gradient-2"/>
    <linearGradient id="linear-gradient-10" x1="-0.001" y1="0.5" x2="1.018" y2="0.5" xlink:href="#linear-gradient-2"/>
    <linearGradient id="linear-gradient-11" x1="-2.211" y1="0.5" x2="16.011" y2="0.5" xlink:href="#linear-gradient-2"/>
    <linearGradient id="linear-gradient-12" x1="-27.173" y1="0.5" x2="18.84" y2="0.5" xlink:href="#linear-gradient-2"/>
  </defs>
  <g id="Group_12688" data-name="Group 12688" transform="translate(-164 -26)">
    <g id="Rectangle_2895" data-name="Rectangle 2895" transform="translate(282.291 26) rotate(45)" stroke="#fff" stroke-width="2" fill="url(#linear-gradient)">
      <rect width="167.289" height="167.289" rx="15" stroke="none"/>
      <rect x="1" y="1" width="165.289" height="165.289" rx="14" fill="none"/>
    </g>
    <g id="Group_12704" data-name="Group 12704" transform="translate(227.516 96.674)">
      <g id="Group_12686" data-name="Group 12686" transform="translate(0)">
        <g id="Group_12682" data-name="Group 12682" transform="translate(0.282)">
          <path id="Path_27337" data-name="Path 27337" d="M1297.768,1255.344h9.94l.04.908.039.868q0,7.85-3.728,11.48t-11.815,3.629a20.592,20.592,0,0,1-7.1-1.065,11.185,11.185,0,0,1-4.773-3.313,15.556,15.556,0,0,1-3.117-6.667,39.636,39.636,0,0,1-.671-5.6q-.237-3.628-.236-8.876a62.007,62.007,0,0,1,.789-11.933,13.826,13.826,0,0,1,2.722-5.877,11.8,11.8,0,0,1,5.089-3.531,19.73,19.73,0,0,1,3.491-.907,24.651,24.651,0,0,1,4.083-.315,18.957,18.957,0,0,1,7.279,1.282,12,12,0,0,1,5.069,3.886,14.483,14.483,0,0,1,2.406,5.76,34.786,34.786,0,0,1,.552,4.5q.2,2.8.2,6.627v3.472h-20.75l-.119,1.1v1.815q0,6.509,1.183,9.113a4.165,4.165,0,0,0,4.1,2.6,4.367,4.367,0,0,0,4.063-2.13Q1297.767,1260.039,1297.768,1255.344Zm-10.612-12.938h10.257v-1.933q0-4.695-1.144-6.47t-4.024-1.775a4.4,4.4,0,0,0-3.964,1.814q-1.2,1.815-1.2,6.43l.039.67Z" transform="translate(-1276.347 -1211.93)" fill="url(#linear-gradient-2)"/>
          <path id="Path_27338" data-name="Path 27338" d="M1415.849,1240.93a9.8,9.8,0,0,1-3.63,4.5,10.274,10.274,0,0,1-5.68,1.5q-6.549,0-9.29-5.227t-2.742-18.6q0-13.767,2.643-19.015t9.152-5.246a10.719,10.719,0,0,1,5.424,1.242,9.34,9.34,0,0,1,3.531,3.846v-17.3h10.611v60.3h-10.019Zm-10.612-18.738q0,5.365.237,8.619a17.681,17.681,0,0,0,.789,4.675,3.8,3.8,0,0,0,3.827,2.722,4.354,4.354,0,0,0,4.3-2.426q1.184-2.426,1.183-9.961,0-12.031-1.164-15.069a4.293,4.293,0,0,0-4.319-3.037,3.818,3.818,0,0,0-3.768,2.6Q1405.236,1212.921,1405.237,1222.192Z" transform="translate(-1356.045 -1186.627)" fill="url(#linear-gradient-3)"/>
          <path id="Path_27339" data-name="Path 27339" d="M1548.746,1227.9v46.865h-10.375V1269a11.067,11.067,0,0,1-4.063,4.3,10.742,10.742,0,0,1-2.564,1.065,11.038,11.038,0,0,1-2.959.394q-5.01,0-7.594-2.821t-2.584-8.185V1227.9h10.178v29.823q0,4.577,1.026,6.273a3.728,3.728,0,0,0,3.471,1.7,3.97,3.97,0,0,0,3.728-1.933q1.124-1.933,1.124-6.706V1227.9Z" transform="translate(-1439.749 -1214.463)" fill="url(#linear-gradient-4)"/>
        </g>
        <g id="Group_12683" data-name="Group 12683" transform="translate(1.956)">
          <path id="Path_27340" data-name="Path 27340" d="M1302.912,1255.344h9.941l.04.908.039.868q0,7.85-3.728,11.48t-11.815,3.629a20.592,20.592,0,0,1-7.1-1.065,11.185,11.185,0,0,1-4.773-3.313,15.553,15.553,0,0,1-3.117-6.667,39.68,39.68,0,0,1-.671-5.6q-.237-3.628-.237-8.876a62,62,0,0,1,.789-11.933,13.822,13.822,0,0,1,2.722-5.877,11.8,11.8,0,0,1,5.089-3.531,19.75,19.75,0,0,1,3.491-.907,24.653,24.653,0,0,1,4.083-.315,18.954,18.954,0,0,1,7.278,1.282,11.993,11.993,0,0,1,5.07,3.886,14.49,14.49,0,0,1,2.406,5.76,34.743,34.743,0,0,1,.552,4.5q.2,2.8.2,6.627v3.472h-20.75l-.119,1.1v1.815q0,6.509,1.184,9.113a4.165,4.165,0,0,0,4.1,2.6,4.367,4.367,0,0,0,4.064-2.13Q1302.911,1260.039,1302.912,1255.344Zm-10.612-12.938h10.257v-1.933q0-4.695-1.143-6.47t-4.025-1.775a4.4,4.4,0,0,0-3.964,1.814q-1.2,1.815-1.2,6.43l.04.67Z" transform="translate(-1281.491 -1211.93)" fill="url(#linear-gradient-5)"/>
          <path id="Path_27341" data-name="Path 27341" d="M1420.994,1240.93a9.794,9.794,0,0,1-3.629,4.5,10.274,10.274,0,0,1-5.68,1.5q-6.549,0-9.29-5.227t-2.741-18.6q0-13.767,2.643-19.015t9.152-5.246a10.722,10.722,0,0,1,5.424,1.242,9.339,9.339,0,0,1,3.531,3.846v-17.3h10.612v60.3h-10.02Zm-10.612-18.738q0,5.365.237,8.619a17.676,17.676,0,0,0,.789,4.675,3.8,3.8,0,0,0,3.827,2.722,4.353,4.353,0,0,0,4.3-2.426q1.184-2.426,1.184-9.961,0-12.031-1.164-15.069a4.293,4.293,0,0,0-4.319-3.037,3.817,3.817,0,0,0-3.767,2.6Q1410.381,1212.921,1410.382,1222.192Z" transform="translate(-1361.19 -1186.627)" fill="url(#linear-gradient-6)"/>
          <path id="Path_27342" data-name="Path 27342" d="M1553.891,1227.9v46.865h-10.375V1269a11.067,11.067,0,0,1-4.063,4.3,10.742,10.742,0,0,1-2.564,1.065,11.034,11.034,0,0,1-2.959.394q-5.01,0-7.594-2.821t-2.584-8.185V1227.9h10.178v29.823q0,4.577,1.026,6.273a3.728,3.728,0,0,0,3.471,1.7,3.969,3.969,0,0,0,3.728-1.933q1.125-1.933,1.125-6.706V1227.9Z" transform="translate(-1444.894 -1214.463)" fill="url(#linear-gradient-7)"/>
        </g>
        <g id="Group_12684" data-name="Group 12684" transform="translate(0 65.489)">
          <path id="Path_27343" data-name="Path 27343" d="M1448.176,1413.5h-1.169v4.33h1.132a2.52,2.52,0,0,0,1.769-.5,2.29,2.29,0,0,0,.514-1.693,2.363,2.363,0,0,0-.463-1.674A2.531,2.531,0,0,0,1448.176,1413.5Z" transform="translate(-1391.174 -1405.143)" fill="url(#linear-gradient-8)"/>
          <path id="Path_27344" data-name="Path 27344" d="M1315.264,1411.637l0-.241a2.264,2.264,0,0,0-.041-.673l-.017-.24-.092-.623a.351.351,0,0,0-.044-.193,2,2,0,0,0-.134-.578.257.257,0,0,0-.053-.19,2.048,2.048,0,0,0-.18-.582c-.007-.051,0-.106-.053-.141a1.959,1.959,0,0,0-.2-.526.336.336,0,0,0-.089-.193,1.738,1.738,0,0,0-.234-.484.358.358,0,0,0-.1-.193,1.644,1.644,0,0,0-.246-.427.468.468,0,0,0-.133-.211,1.376,1.376,0,0,0-.247-.367.46.46,0,0,0-.142-.2,1.433,1.433,0,0,0-.254-.331.59.59,0,0,0-.175-.206,1.318,1.318,0,0,0-.29-.326.367.367,0,0,0-.144-.151,1.638,1.638,0,0,0-.334-.33.343.343,0,0,0-.151-.14,1.47,1.47,0,0,0-.334-.29.456.456,0,0,0-.19-.153,1.516,1.516,0,0,0-.378-.284.461.461,0,0,0-.2-.143,1.376,1.376,0,0,0-.374-.242.49.49,0,0,0-.2-.129,2.052,2.052,0,0,0-.478-.258.234.234,0,0,0-.147-.08,2.327,2.327,0,0,0-.473-.222l-.105-.042a2.519,2.519,0,0,0-.619-.235c-.036-.047-.091-.043-.141-.051a2.3,2.3,0,0,0-.583-.174.305.305,0,0,0-.193-.05,2.7,2.7,0,0,0-.569-.128l-.2-.025a2.3,2.3,0,0,0-.675-.089.482.482,0,0,0-.242-.032,3.445,3.445,0,0,0-.671-.017l-.241,0a2.891,2.891,0,0,0-.769.042l-.263.016a4.253,4.253,0,0,0-.842.14,1,1,0,0,0-.33.064,5.255,5.255,0,0,0-1.019.306,1.27,1.27,0,0,0-.376.13,7.029,7.029,0,0,0-1.4.688.148.148,0,0,0-.112.063.028.028,0,0,0-.034.017,9.876,9.876,0,0,0-3.479,3.479.028.028,0,0,0-.017.034.145.145,0,0,0-.063.112,7.035,7.035,0,0,0-.688,1.4,1.275,1.275,0,0,0-.13.376,5.263,5.263,0,0,0-.306,1.019,1,1,0,0,0-.064.33,4.257,4.257,0,0,0-.14.839c-.005.088-.011.177-.016.265a2.873,2.873,0,0,0-.041.769c0,.08,0,.16,0,.24a3.446,3.446,0,0,0,.016.671.483.483,0,0,0,.032.242,2.31,2.31,0,0,0,.088.675c.008.065.017.131.026.2a2.7,2.7,0,0,0,.128.569.3.3,0,0,0,.05.192,2.3,2.3,0,0,0,.173.583c.008.05,0,.105.051.141a2.528,2.528,0,0,0,.235.618l.043.106a2.286,2.286,0,0,0,.222.473.235.235,0,0,0,.08.147,2.045,2.045,0,0,0,.259.478.483.483,0,0,0,.129.2,1.374,1.374,0,0,0,.242.375.464.464,0,0,0,.143.2,1.516,1.516,0,0,0,.284.377.458.458,0,0,0,.153.19,1.463,1.463,0,0,0,.29.334.344.344,0,0,0,.14.151,1.648,1.648,0,0,0,.33.334.369.369,0,0,0,.151.144,1.307,1.307,0,0,0,.325.289.587.587,0,0,0,.206.175,1.4,1.4,0,0,0,.331.254.46.46,0,0,0,.2.142,1.361,1.361,0,0,0,.367.247.47.47,0,0,0,.211.134,1.635,1.635,0,0,0,.426.245.356.356,0,0,0,.193.1,1.732,1.732,0,0,0,.484.234.336.336,0,0,0,.193.089,1.961,1.961,0,0,0,.526.2c.034.05.089.046.141.053a2.062,2.062,0,0,0,.582.181.257.257,0,0,0,.19.053,2.014,2.014,0,0,0,.578.134.354.354,0,0,0,.193.044l.623.092.24.017a2.257,2.257,0,0,0,.673.041l.24,0a4.054,4.054,0,0,0,.72-.014.589.589,0,0,0,.289-.031,3.452,3.452,0,0,0,.817-.106l.326-.057a4.94,4.94,0,0,0,.974-.266,1.1,1.1,0,0,0,.363-.112,6.517,6.517,0,0,0,1.27-.564,2.583,2.583,0,0,0,.582-.32,9.875,9.875,0,0,0,3.473-3.473,2.575,2.575,0,0,0,.32-.581,6.541,6.541,0,0,0,.564-1.27,1.1,1.1,0,0,0,.111-.362,4.941,4.941,0,0,0,.266-.973l.057-.327a3.446,3.446,0,0,0,.106-.817.586.586,0,0,0,.032-.289A4.118,4.118,0,0,0,1315.264,1411.637Zm-2.053.679-.015.282-.145.865a1.077,1.077,0,0,0-.086.337l-.36,1.058-.19.426a8.613,8.613,0,0,1-2.339,2.867,10.926,10.926,0,0,1-1.448.92l-.426.191-1.058.36a1.074,1.074,0,0,0-.337.086l-.865.144-.281.015-.728.035a.5.5,0,0,0-.238-.007,3.35,3.35,0,0,0-.625-.048.409.409,0,0,0-.243-.036l-.621-.112a.307.307,0,0,0-.192-.047l-.526-.158-.2-.066-.527-.2a.336.336,0,0,0-.193-.091l-.426-.215-.149-.079-.479-.292c-.011-.038-.042-.046-.075-.051l-.395-.284a.564.564,0,0,0-.2-.158l-.387-.332a.354.354,0,0,0-.145-.139l-.279-.284-.16-.178-.288-.344-.143-.186-.278-.394a.243.243,0,0,0-.094-.144l-.251-.429a.244.244,0,0,0-.08-.149l-.252-.525a.2.2,0,0,0-.058-.143l-.193-.528-.062-.2-.158-.574c-.012-.065-.024-.13-.036-.194q-.046-.285-.092-.569l-.035-.241-.041-.673,0-.24.047-.769a.685.685,0,0,0,.04-.289q.083-.432.165-.865a.881.881,0,0,0,.089-.334l.456-1.159.262-.524a8.817,8.817,0,0,1,2.119-2.437c.321-.248.668-.458,1-.684l.524-.263,1.158-.456a.886.886,0,0,0,.334-.089l.865-.165a.69.69,0,0,0,.289-.04l.769-.047.24,0,.672.041.241.035.569.091.194.036.573.158.2.062.528.193a.194.194,0,0,0,.143.058l.525.252a.249.249,0,0,0,.149.08l.429.251a.241.241,0,0,0,.145.094l.394.279.186.144.344.288.178.159.283.279a.352.352,0,0,0,.139.145l.332.388a.568.568,0,0,0,.158.2l.284.4c.005.033.012.064.051.074l.292.479.079.15.215.425a.335.335,0,0,0,.091.193l.2.527.066.2.157.526a.31.31,0,0,0,.047.191l.112.621a.409.409,0,0,0,.036.242,3.349,3.349,0,0,0,.048.625.494.494,0,0,0,.008.238Q1313.228,1411.953,1313.211,1412.316Z" transform="translate(-1288.503 -1397.008)" fill="url(#linear-gradient-9)"/>
          <path id="Path_27345" data-name="Path 27345" d="M1290.16,1387.817a14.678,14.678,0,0,0-14.678,14.677h0a14.678,14.678,0,0,0,14.678,14.678h73.494a21.654,21.654,0,0,0,21.654-21.654v-7.7Zm14.148,15.735c-.053.011-.047.054-.05.093a13.015,13.015,0,0,1-.561,2.708l-.117.367-.554,1.263-.263.515c-.034.052-.072.1-.1.157a12.53,12.53,0,0,1-2.8,3.313,15.954,15.954,0,0,1-1.845,1.282l-.515.263-1.263.554-.367.117a14.117,14.117,0,0,1-2.138.5,3.052,3.052,0,0,0-.759.115h-2.018c-.017-.065-.073-.045-.116-.052-.291-.04-.583-.074-.874-.119a13.829,13.829,0,0,1-2.321-.613.372.372,0,0,0-.2-.078l-.479-.2a.33.33,0,0,0-.193-.092l-.426-.214-.151-.075-.428-.241-.2-.126-.427-.267a.242.242,0,0,0-.142-.1l-.384-.278a.5.5,0,0,0-.195-.15l-.342-.279a.226.226,0,0,0-.125-.1l-.359-.327-.187-.18-.3-.3-.183-.194-.295-.335a.354.354,0,0,0-.133-.155l-.3-.375-.079-.1-.3-.428a.5.5,0,0,0-.138-.2l-.281-.454a.339.339,0,0,0-.1-.175l-.2-.367-.076-.15-.255-.525a.2.2,0,0,0-.06-.143l-.193-.479a.364.364,0,0,0-.081-.195,14.964,14.964,0,0,1-.612-2.5,1.915,1.915,0,0,0-.116-.664v-2.114c.053-.011.047-.055.051-.093a12.938,12.938,0,0,1,.661-3l.148-.411.635-1.346.334-.575a16.606,16.606,0,0,1,1.317-1.734,13.611,13.611,0,0,1,2.668-2.251l.575-.334,1.345-.635.411-.148a13.664,13.664,0,0,1,2.433-.6,2.5,2.5,0,0,0,.712-.116h1.97c.026.079.093.041.142.047.316.043.633.079.95.125a14.393,14.393,0,0,1,2.174.556.367.367,0,0,0,.195.08l.48.193a.2.2,0,0,0,.142.06l.525.255.15.076.367.2a.341.341,0,0,0,.175.1l.454.28a.5.5,0,0,0,.205.138l.428.3.1.079.375.295a.356.356,0,0,0,.156.133l.334.295.194.183.3.3.18.187.327.359a.226.226,0,0,0,.1.125l.279.342a.489.489,0,0,0,.149.195l.278.385a.248.248,0,0,0,.1.142l.267.427.126.2.242.428.076.151.214.425a.33.33,0,0,0,.092.194l.2.479a.371.371,0,0,0,.078.2,14.284,14.284,0,0,1,.669,2.65,2.39,2.39,0,0,0,.115.709Zm32.129-2.081a4.072,4.072,0,0,1-3.075,1.047h-1.972v6.16H1328.7V1394.15h4.7a4.223,4.223,0,0,1,3.094.962,3.007,3.007,0,0,1,.708,1.26,6.6,6.6,0,0,1,.236,1.891A4.5,4.5,0,0,1,1336.437,1401.47Zm7.821,7.207a1.244,1.244,0,0,1-.151-.368l-.123-.689a2.739,2.739,0,0,1-1.019,1,2.965,2.965,0,0,1-1.472.354,2.37,2.37,0,0,1-1.939-.844,3.561,3.561,0,0,1-.693-2.325,3.43,3.43,0,0,1,.6-2.132,6.393,6.393,0,0,1,2.415-1.613l.509-.227q1.481-.623,1.481-1.481a1.061,1.061,0,0,0-.288-.792,1.142,1.142,0,0,0-.834-.283,1.282,1.282,0,0,0-1.01.372,1.692,1.692,0,0,0-.329,1.146v.217h-2.453a3.5,3.5,0,0,1,.905-2.679,4.156,4.156,0,0,1,2.887-.839,3.991,3.991,0,0,1,2.788.773,3.641,3.641,0,0,1,.806,2.689v6.16a3.7,3.7,0,0,0,.086.821,2.938,2.938,0,0,0,.283.745Zm8.651,1.028a3.913,3.913,0,0,1-1,2.09,3.072,3.072,0,0,1-2,.533h-.151c-.057,0-.109,0-.156-.005a1.176,1.176,0,0,1-.128-.013l-.453-.057v-1.887h.16l.246.01a1.377,1.377,0,0,0,.783-.174.642.642,0,0,0,.245-.562l-.028-.292q-.018-.114-.028-.17a.964.964,0,0,0-.047-.16l-2.8-11.254h2.669l1.51,7.877,1.463-7.877h2.556Z" transform="translate(-1275.482 -1387.817)" fill="url(#linear-gradient-10)"/>
          <path id="Path_27346" data-name="Path 27346" d="M1322.914,1422.4a1.331,1.331,0,0,0-.151-.576l-.067-.15a1.383,1.383,0,0,0-.3-.477.151.151,0,0,0-.083-.1,1.439,1.439,0,0,0-.444-.4l-.142-.094a1.243,1.243,0,0,0-.488-.224.5.5,0,0,0-.242-.081,1.577,1.577,0,0,0-.624-.058l-.24,0h-.721l-.193-.037a.681.681,0,0,1-.33-.3l-.029-.191a.56.56,0,0,1,.552-.528h.961l.24,0,.721,0a.476.476,0,0,0,.24,0,.963.963,0,0,0,.86-.86.43.43,0,0,0,0-.24.747.747,0,0,0-.2-.527.4.4,0,0,0-.178-.178.748.748,0,0,0-.527-.2.474.474,0,0,0-.24,0c-.126-.067-.381.123-.384-.192,0-.08,0-.16,0-.24a.805.805,0,0,0-.145-.624.329.329,0,0,0-.145-.187.685.685,0,0,0-.429-.252.311.311,0,0,0-.242-.043.978.978,0,0,0-1.058,1.057q0,.12,0,.24a.27.27,0,0,1-.281.344.348.348,0,0,0-.1.047,2.41,2.41,0,0,0-1.526,1.531,1.975,1.975,0,0,0-.15.864c0,.08.006.161.01.242a1.711,1.711,0,0,0,.16.665l.041.11a1.5,1.5,0,0,0,.3.509.22.22,0,0,0,.1.125,1.011,1.011,0,0,0,.332.325.213.213,0,0,0,.132.1,1.285,1.285,0,0,0,.5.278.438.438,0,0,0,.241.09,1.327,1.327,0,0,0,.576.1.488.488,0,0,0,.241,0l.72,0,.24,0a.824.824,0,0,1,.385.191l.091.146c.041.459-.128.686-.526.708l-.19.013-.24,0-.721,0-.24,0h-.721l-.24,0a1.014,1.014,0,0,0-1.184,1.166.378.378,0,0,0,.074.229.654.654,0,0,0,.281.388.226.226,0,0,0,.153.107,1,1,0,0,0,.724.127l.24,0c.188.046.388-.041.572.05,0,.063,0,.127.005.19a1.229,1.229,0,0,0,.051.624.408.408,0,0,0,.134.252.676.676,0,0,0,.391.324c.046.058.117.057.181.074a1.029,1.029,0,0,0,1.261-1.227l0-.24a.126.126,0,0,1,.1-.109,1,1,0,0,0,.385-.131,2.385,2.385,0,0,0,1.386-1.393.707.707,0,0,0,.1-.337,1.725,1.725,0,0,0,.083-.768A.378.378,0,0,0,1322.914,1422.4Z" transform="translate(-1303.361 -1406.572)" fill="url(#linear-gradient-11)"/>
          <path id="Path_27347" data-name="Path 27347" d="M1478.73,1435.624a1.957,1.957,0,0,0-.509,1.34,1.734,1.734,0,0,0,.269,1.07,1,1,0,0,0,.844.345,1.074,1.074,0,0,0,.986-.576,3.516,3.516,0,0,0,.335-1.726v-1.736A6.655,6.655,0,0,0,1478.73,1435.624Z" transform="translate(-1412.228 -1419.197)" fill="url(#linear-gradient-12)"/>
        </g>
        <g id="Group_12685" data-name="Group 12685" transform="translate(0.505 0.179)">
          <path id="Path_27348" data-name="Path 27348" d="M1280.117,1197.8h1.43l.006.131.006.125a2.219,2.219,0,0,1-.537,1.651,2.366,2.366,0,0,1-1.7.522,2.961,2.961,0,0,1-1.021-.153,1.606,1.606,0,0,1-.687-.477,2.23,2.23,0,0,1-.448-.959,5.746,5.746,0,0,1-.1-.806q-.034-.522-.034-1.277a8.909,8.909,0,0,1,.114-1.717,1.981,1.981,0,0,1,.391-.845,1.692,1.692,0,0,1,.732-.508,2.79,2.79,0,0,1,.5-.131,3.547,3.547,0,0,1,.587-.046,2.726,2.726,0,0,1,1.047.185,1.725,1.725,0,0,1,.73.559,2.093,2.093,0,0,1,.346.829,5.009,5.009,0,0,1,.079.646q.029.4.028.953v.5h-2.984l-.017.159v.261a3.514,3.514,0,0,0,.17,1.311.6.6,0,0,0,.591.375.627.627,0,0,0,.584-.306A2.005,2.005,0,0,0,1280.117,1197.8Zm-1.526-1.861h1.475v-.278a1.846,1.846,0,0,0-.165-.931.768.768,0,0,0-1.149.005,1.783,1.783,0,0,0-.173.925l.005.1Z" transform="translate(-1277.035 -1191.315)" fill="#fff"/>
          <path id="Path_27349" data-name="Path 27349" d="M1297.1,1195.228a1.407,1.407,0,0,1-.522.647,1.475,1.475,0,0,1-.817.216,1.386,1.386,0,0,1-1.336-.752,6.316,6.316,0,0,1-.395-2.676,6.753,6.753,0,0,1,.38-2.735,1.351,1.351,0,0,1,1.316-.755,1.544,1.544,0,0,1,.78.179,1.347,1.347,0,0,1,.508.553v-2.73h1.526v8.739H1297.1Zm-1.526-2.7q0,.772.034,1.24a2.543,2.543,0,0,0,.114.673.546.546,0,0,0,.55.392.626.626,0,0,0,.619-.349,3.86,3.86,0,0,0,.17-1.432,8.123,8.123,0,0,0-.168-2.168.618.618,0,0,0-.621-.437.549.549,0,0,0-.542.374A5.65,5.65,0,0,0,1295.576,1192.533Z" transform="translate(-1288.499 -1187.176)" fill="#fff"/>
          <path id="Path_27350" data-name="Path 27350" d="M1316.22,1193.854v6.566h-1.492v-.653a1.592,1.592,0,0,1-.585.619,1.566,1.566,0,0,1-.369.153,1.6,1.6,0,0,1-.426.057,1.408,1.408,0,0,1-1.092-.406,1.684,1.684,0,0,1-.372-1.177v-5.158h1.464v4.29a1.9,1.9,0,0,0,.148.9.535.535,0,0,0,.5.244.57.57,0,0,0,.536-.278,2.054,2.054,0,0,0,.162-.964v-4.194Z" transform="translate(-1300.54 -1191.68)" fill="#fff"/>
          <path id="Path_27351" data-name="Path 27351" d="M1329.231,1202.262v-8.773h1.442v.687a1.379,1.379,0,0,1,.522-.645,1.471,1.471,0,0,1,.811-.218,1.386,1.386,0,0,1,1.339.752,6.363,6.363,0,0,1,.391,2.675,6.807,6.807,0,0,1-.377,2.738,1.351,1.351,0,0,1-1.319.752,1.528,1.528,0,0,1-.777-.179,1.387,1.387,0,0,1-.511-.553v2.763Zm1.475-5.765a7.235,7.235,0,0,0,.168,2.029.615.615,0,0,0,.621.422.547.547,0,0,0,.548-.372,6.448,6.448,0,0,0,.15-1.824q0-.721-.034-1.161a2.355,2.355,0,0,0-.113-.638.547.547,0,0,0-.551-.386.637.637,0,0,0-.624.351,1.8,1.8,0,0,0-.125.556Q1330.707,1195.855,1330.706,1196.5Z" transform="translate(-1312.241 -1191.315)" fill="#fff"/>
          <path id="Path_27352" data-name="Path 27352" d="M1349.389,1200.078a.758.758,0,0,1-.091-.221l-.074-.414a1.637,1.637,0,0,1-.613.6,1.78,1.78,0,0,1-.885.213,1.425,1.425,0,0,1-1.166-.508,2.141,2.141,0,0,1-.417-1.4,2.068,2.068,0,0,1,.363-1.283,3.853,3.853,0,0,1,1.453-.97l.307-.136q.89-.375.891-.891a.638.638,0,0,0-.173-.477.689.689,0,0,0-.5-.17.769.769,0,0,0-.607.224,1.017,1.017,0,0,0-.2.689v.131H1346.2a2.106,2.106,0,0,1,.544-1.612,2.5,2.5,0,0,1,1.736-.505,2.4,2.4,0,0,1,1.678.466,2.19,2.19,0,0,1,.485,1.617v3.706a2.286,2.286,0,0,0,.051.494,1.775,1.775,0,0,0,.171.448Zm-.21-3.439a4,4,0,0,0-1.158.771,1.182,1.182,0,0,0-.306.806,1.042,1.042,0,0,0,.162.643.6.6,0,0,0,.508.207.647.647,0,0,0,.593-.346,2.11,2.11,0,0,0,.2-1.038Z" transform="translate(-1323.648 -1191.339)" fill="#fff"/>
          <path id="Path_27353" data-name="Path 27353" d="M1363.083,1202.57v-1.135h.1l.148.006a.823.823,0,0,0,.471-.105.385.385,0,0,0,.147-.337l-.017-.176c-.008-.045-.013-.08-.017-.1a.6.6,0,0,0-.028-.1l-1.686-6.77h1.606l.908,4.738.879-4.738h1.538l-1.708,7.184a2.355,2.355,0,0,1-.6,1.257,1.848,1.848,0,0,1-1.2.321h-.091c-.034,0-.065,0-.094,0a.654.654,0,0,1-.076-.008Z" transform="translate(-1334.477 -1191.68)" fill="#fff"/>
          <path id="Path_27354" data-name="Path 27354" d="M1379.91,1210.779v-1.566h1.464v1.566Z" transform="translate(-1346.423 -1202.04)" fill="#fff"/>
          <path id="Path_27355" data-name="Path 27355" d="M1391.473,1200.078a.75.75,0,0,1-.091-.221l-.073-.414a1.641,1.641,0,0,1-.613.6,1.778,1.778,0,0,1-.885.213,1.425,1.425,0,0,1-1.166-.508,2.141,2.141,0,0,1-.417-1.4,2.065,2.065,0,0,1,.363-1.283,3.848,3.848,0,0,1,1.453-.97l.306-.136q.891-.375.891-.891a.639.639,0,0,0-.173-.477.691.691,0,0,0-.5-.17.769.769,0,0,0-.607.224,1.016,1.016,0,0,0-.2.689v.131h-1.475a2.106,2.106,0,0,1,.544-1.612,2.5,2.5,0,0,1,1.736-.505,2.4,2.4,0,0,1,1.678.466,2.189,2.189,0,0,1,.485,1.617v3.706a2.262,2.262,0,0,0,.051.494,1.779,1.779,0,0,0,.17.448Zm-.21-3.439a4,4,0,0,0-1.158.771,1.18,1.18,0,0,0-.307.806,1.039,1.039,0,0,0,.162.643.6.6,0,0,0,.508.207.647.647,0,0,0,.592-.346,2.105,2.105,0,0,0,.2-1.038Z" transform="translate(-1352.033 -1191.339)" fill="#fff"/>
          <path id="Path_27356" data-name="Path 27356" d="M1405.235,1197.87h1.368v.188a1.437,1.437,0,0,0,.17.8.655.655,0,0,0,.579.244.7.7,0,0,0,.5-.17.609.609,0,0,0,.184-.471q0-.369-.732-.863l-.29-.193-.074-.051q-1.668-1.14-1.668-2.247a1.652,1.652,0,0,1,.542-1.331,2.361,2.361,0,0,1,1.574-.463,2.022,2.022,0,0,1,1.5.511,1.616,1.616,0,0,1,.374.633,2.9,2.9,0,0,1,.125.9v.136h-1.339v-.136a1.09,1.09,0,0,0-.182-.7.7.7,0,0,0-.573-.219.646.646,0,0,0-.451.156.527.527,0,0,0-.173.411.684.684,0,0,0,.153.437,3.241,3.241,0,0,0,.67.539l.346.233q1.651,1.089,1.651,2.185a1.683,1.683,0,0,1-.558,1.345,2.366,2.366,0,0,1-1.592.482,2.187,2.187,0,0,1-1.594-.511,2.16,2.16,0,0,1-.517-1.594l.006-.125Z" transform="translate(-1363.497 -1191.315)" fill="#fff"/>
          <path id="Path_27357" data-name="Path 27357" d="M1421.646,1188.538v-1.362h1.51v1.362Zm0,7.377v-6.566h1.51v6.566Z" transform="translate(-1374.574 -1187.176)" fill="#fff"/>
          <path id="Path_27358" data-name="Path 27358" d="M1433.139,1200.078a.752.752,0,0,1-.091-.221l-.074-.414a1.638,1.638,0,0,1-.613.6,1.78,1.78,0,0,1-.885.213,1.424,1.424,0,0,1-1.166-.508,2.141,2.141,0,0,1-.417-1.4,2.068,2.068,0,0,1,.363-1.283,3.853,3.853,0,0,1,1.453-.97l.306-.136q.89-.375.891-.891a.638.638,0,0,0-.173-.477.69.69,0,0,0-.5-.17.768.768,0,0,0-.607.224,1.016,1.016,0,0,0-.2.689v.131h-1.475a2.106,2.106,0,0,1,.544-1.612,2.5,2.5,0,0,1,1.736-.505,2.4,2.4,0,0,1,1.677.466,2.19,2.19,0,0,1,.485,1.617v3.706a2.263,2.263,0,0,0,.051.494,1.751,1.751,0,0,0,.17.448Zm-.21-3.439a4,4,0,0,0-1.158.771,1.182,1.182,0,0,0-.306.806,1.039,1.039,0,0,0,.162.643.6.6,0,0,0,.508.207.647.647,0,0,0,.593-.346,2.111,2.111,0,0,0,.2-1.038Z" transform="translate(-1380.136 -1191.339)" fill="#fff"/>
        </g>
        <path id="Path_27359" data-name="Path 27359" d="M1326.034,1227.571" transform="translate(-1309.579 -1214.243)" fill="none" stroke="#6b6b6b" stroke-miterlimit="10" stroke-width="0.429"/>
      </g>
      <g id="Group_12703" data-name="Group 12703" transform="translate(0)" opacity="0.5" style="mix-blend-mode: screen;isolation: isolate">
        <g id="Group_12682-2" data-name="Group 12682" transform="translate(0.282)">
          <path id="Path_27337-2" data-name="Path 27337" d="M1297.768,1255.344h9.94l.04.908.039.868q0,7.85-3.728,11.48t-11.815,3.629a20.592,20.592,0,0,1-7.1-1.065,11.185,11.185,0,0,1-4.773-3.313,15.556,15.556,0,0,1-3.117-6.667,39.636,39.636,0,0,1-.671-5.6q-.237-3.628-.236-8.876a62.007,62.007,0,0,1,.789-11.933,13.826,13.826,0,0,1,2.722-5.877,11.8,11.8,0,0,1,5.089-3.531,19.73,19.73,0,0,1,3.491-.907,24.651,24.651,0,0,1,4.083-.315,18.957,18.957,0,0,1,7.279,1.282,12,12,0,0,1,5.069,3.886,14.483,14.483,0,0,1,2.406,5.76,34.786,34.786,0,0,1,.552,4.5q.2,2.8.2,6.627v3.472h-20.75l-.119,1.1v1.815q0,6.509,1.183,9.113a4.165,4.165,0,0,0,4.1,2.6,4.367,4.367,0,0,0,4.063-2.13Q1297.767,1260.039,1297.768,1255.344Zm-10.612-12.938h10.257v-1.933q0-4.695-1.144-6.47t-4.024-1.775a4.4,4.4,0,0,0-3.964,1.814q-1.2,1.815-1.2,6.43l.039.67Z" transform="translate(-1276.347 -1211.93)" fill="url(#linear-gradient-2)"/>
          <path id="Path_27338-2" data-name="Path 27338" d="M1415.849,1240.93a9.8,9.8,0,0,1-3.63,4.5,10.274,10.274,0,0,1-5.68,1.5q-6.549,0-9.29-5.227t-2.742-18.6q0-13.767,2.643-19.015t9.152-5.246a10.719,10.719,0,0,1,5.424,1.242,9.34,9.34,0,0,1,3.531,3.846v-17.3h10.611v60.3h-10.019Zm-10.612-18.738q0,5.365.237,8.619a17.681,17.681,0,0,0,.789,4.675,3.8,3.8,0,0,0,3.827,2.722,4.354,4.354,0,0,0,4.3-2.426q1.184-2.426,1.183-9.961,0-12.031-1.164-15.069a4.293,4.293,0,0,0-4.319-3.037,3.818,3.818,0,0,0-3.768,2.6Q1405.236,1212.921,1405.237,1222.192Z" transform="translate(-1356.045 -1186.627)" fill="url(#linear-gradient-3)"/>
          <path id="Path_27339-2" data-name="Path 27339" d="M1548.746,1227.9v46.865h-10.375V1269a11.067,11.067,0,0,1-4.063,4.3,10.742,10.742,0,0,1-2.564,1.065,11.038,11.038,0,0,1-2.959.394q-5.01,0-7.594-2.821t-2.584-8.185V1227.9h10.178v29.823q0,4.577,1.026,6.273a3.728,3.728,0,0,0,3.471,1.7,3.97,3.97,0,0,0,3.728-1.933q1.124-1.933,1.124-6.706V1227.9Z" transform="translate(-1439.749 -1214.463)" fill="url(#linear-gradient-4)"/>
        </g>
        <g id="Group_12683-2" data-name="Group 12683" transform="translate(1.956)">
          <path id="Path_27340-2" data-name="Path 27340" d="M1302.912,1255.344h9.941l.04.908.039.868q0,7.85-3.728,11.48t-11.815,3.629a20.592,20.592,0,0,1-7.1-1.065,11.185,11.185,0,0,1-4.773-3.313,15.553,15.553,0,0,1-3.117-6.667,39.68,39.68,0,0,1-.671-5.6q-.237-3.628-.237-8.876a62,62,0,0,1,.789-11.933,13.822,13.822,0,0,1,2.722-5.877,11.8,11.8,0,0,1,5.089-3.531,19.75,19.75,0,0,1,3.491-.907,24.653,24.653,0,0,1,4.083-.315,18.954,18.954,0,0,1,7.278,1.282,11.993,11.993,0,0,1,5.07,3.886,14.49,14.49,0,0,1,2.406,5.76,34.743,34.743,0,0,1,.552,4.5q.2,2.8.2,6.627v3.472h-20.75l-.119,1.1v1.815q0,6.509,1.184,9.113a4.165,4.165,0,0,0,4.1,2.6,4.367,4.367,0,0,0,4.064-2.13Q1302.911,1260.039,1302.912,1255.344Zm-10.612-12.938h10.257v-1.933q0-4.695-1.143-6.47t-4.025-1.775a4.4,4.4,0,0,0-3.964,1.814q-1.2,1.815-1.2,6.43l.04.67Z" transform="translate(-1281.491 -1211.93)" fill="url(#linear-gradient-5)"/>
          <path id="Path_27341-2" data-name="Path 27341" d="M1420.994,1240.93a9.794,9.794,0,0,1-3.629,4.5,10.274,10.274,0,0,1-5.68,1.5q-6.549,0-9.29-5.227t-2.741-18.6q0-13.767,2.643-19.015t9.152-5.246a10.722,10.722,0,0,1,5.424,1.242,9.339,9.339,0,0,1,3.531,3.846v-17.3h10.612v60.3h-10.02Zm-10.612-18.738q0,5.365.237,8.619a17.676,17.676,0,0,0,.789,4.675,3.8,3.8,0,0,0,3.827,2.722,4.353,4.353,0,0,0,4.3-2.426q1.184-2.426,1.184-9.961,0-12.031-1.164-15.069a4.293,4.293,0,0,0-4.319-3.037,3.817,3.817,0,0,0-3.767,2.6Q1410.381,1212.921,1410.382,1222.192Z" transform="translate(-1361.19 -1186.627)" fill="url(#linear-gradient-6)"/>
          <path id="Path_27342-2" data-name="Path 27342" d="M1553.891,1227.9v46.865h-10.375V1269a11.067,11.067,0,0,1-4.063,4.3,10.742,10.742,0,0,1-2.564,1.065,11.034,11.034,0,0,1-2.959.394q-5.01,0-7.594-2.821t-2.584-8.185V1227.9h10.178v29.823q0,4.577,1.026,6.273a3.728,3.728,0,0,0,3.471,1.7,3.969,3.969,0,0,0,3.728-1.933q1.125-1.933,1.125-6.706V1227.9Z" transform="translate(-1444.894 -1214.463)" fill="url(#linear-gradient-7)"/>
        </g>
        <g id="Group_12684-2" data-name="Group 12684" transform="translate(0 65.489)">
          <path id="Path_27343-2" data-name="Path 27343" d="M1448.176,1413.5h-1.169v4.33h1.132a2.52,2.52,0,0,0,1.769-.5,2.29,2.29,0,0,0,.514-1.693,2.363,2.363,0,0,0-.463-1.674A2.531,2.531,0,0,0,1448.176,1413.5Z" transform="translate(-1391.174 -1405.143)" fill="url(#linear-gradient-8)"/>
          <path id="Path_27344-2" data-name="Path 27344" d="M1315.264,1411.637l0-.241a2.264,2.264,0,0,0-.041-.673l-.017-.24-.092-.623a.351.351,0,0,0-.044-.193,2,2,0,0,0-.134-.578.257.257,0,0,0-.053-.19,2.048,2.048,0,0,0-.18-.582c-.007-.051,0-.106-.053-.141a1.959,1.959,0,0,0-.2-.526.336.336,0,0,0-.089-.193,1.738,1.738,0,0,0-.234-.484.358.358,0,0,0-.1-.193,1.644,1.644,0,0,0-.246-.427.468.468,0,0,0-.133-.211,1.376,1.376,0,0,0-.247-.367.46.46,0,0,0-.142-.2,1.433,1.433,0,0,0-.254-.331.59.59,0,0,0-.175-.206,1.318,1.318,0,0,0-.29-.326.367.367,0,0,0-.144-.151,1.638,1.638,0,0,0-.334-.33.343.343,0,0,0-.151-.14,1.47,1.47,0,0,0-.334-.29.456.456,0,0,0-.19-.153,1.516,1.516,0,0,0-.378-.284.461.461,0,0,0-.2-.143,1.376,1.376,0,0,0-.374-.242.49.49,0,0,0-.2-.129,2.052,2.052,0,0,0-.478-.258.234.234,0,0,0-.147-.08,2.327,2.327,0,0,0-.473-.222l-.105-.042a2.519,2.519,0,0,0-.619-.235c-.036-.047-.091-.043-.141-.051a2.3,2.3,0,0,0-.583-.174.305.305,0,0,0-.193-.05,2.7,2.7,0,0,0-.569-.128l-.2-.025a2.3,2.3,0,0,0-.675-.089.482.482,0,0,0-.242-.032,3.445,3.445,0,0,0-.671-.017l-.241,0a2.891,2.891,0,0,0-.769.042l-.263.016a4.253,4.253,0,0,0-.842.14,1,1,0,0,0-.33.064,5.255,5.255,0,0,0-1.019.306,1.27,1.27,0,0,0-.376.13,7.029,7.029,0,0,0-1.4.688.148.148,0,0,0-.112.063.028.028,0,0,0-.034.017,9.876,9.876,0,0,0-3.479,3.479.028.028,0,0,0-.017.034.145.145,0,0,0-.063.112,7.035,7.035,0,0,0-.688,1.4,1.275,1.275,0,0,0-.13.376,5.263,5.263,0,0,0-.306,1.019,1,1,0,0,0-.064.33,4.257,4.257,0,0,0-.14.839c-.005.088-.011.177-.016.265a2.873,2.873,0,0,0-.041.769c0,.08,0,.16,0,.24a3.446,3.446,0,0,0,.016.671.483.483,0,0,0,.032.242,2.31,2.31,0,0,0,.088.675c.008.065.017.131.026.2a2.7,2.7,0,0,0,.128.569.3.3,0,0,0,.05.192,2.3,2.3,0,0,0,.173.583c.008.05,0,.105.051.141a2.528,2.528,0,0,0,.235.618l.043.106a2.286,2.286,0,0,0,.222.473.235.235,0,0,0,.08.147,2.045,2.045,0,0,0,.259.478.483.483,0,0,0,.129.2,1.374,1.374,0,0,0,.242.375.464.464,0,0,0,.143.2,1.516,1.516,0,0,0,.284.377.458.458,0,0,0,.153.19,1.463,1.463,0,0,0,.29.334.344.344,0,0,0,.14.151,1.648,1.648,0,0,0,.33.334.369.369,0,0,0,.151.144,1.307,1.307,0,0,0,.325.289.587.587,0,0,0,.206.175,1.4,1.4,0,0,0,.331.254.46.46,0,0,0,.2.142,1.361,1.361,0,0,0,.367.247.47.47,0,0,0,.211.134,1.635,1.635,0,0,0,.426.245.356.356,0,0,0,.193.1,1.732,1.732,0,0,0,.484.234.336.336,0,0,0,.193.089,1.961,1.961,0,0,0,.526.2c.034.05.089.046.141.053a2.062,2.062,0,0,0,.582.181.257.257,0,0,0,.19.053,2.014,2.014,0,0,0,.578.134.354.354,0,0,0,.193.044l.623.092.24.017a2.257,2.257,0,0,0,.673.041l.24,0a4.054,4.054,0,0,0,.72-.014.589.589,0,0,0,.289-.031,3.452,3.452,0,0,0,.817-.106l.326-.057a4.94,4.94,0,0,0,.974-.266,1.1,1.1,0,0,0,.363-.112,6.517,6.517,0,0,0,1.27-.564,2.583,2.583,0,0,0,.582-.32,9.875,9.875,0,0,0,3.473-3.473,2.575,2.575,0,0,0,.32-.581,6.541,6.541,0,0,0,.564-1.27,1.1,1.1,0,0,0,.111-.362,4.941,4.941,0,0,0,.266-.973l.057-.327a3.446,3.446,0,0,0,.106-.817.586.586,0,0,0,.032-.289A4.118,4.118,0,0,0,1315.264,1411.637Zm-2.053.679-.015.282-.145.865a1.077,1.077,0,0,0-.086.337l-.36,1.058-.19.426a8.613,8.613,0,0,1-2.339,2.867,10.926,10.926,0,0,1-1.448.92l-.426.191-1.058.36a1.074,1.074,0,0,0-.337.086l-.865.144-.281.015-.728.035a.5.5,0,0,0-.238-.007,3.35,3.35,0,0,0-.625-.048.409.409,0,0,0-.243-.036l-.621-.112a.307.307,0,0,0-.192-.047l-.526-.158-.2-.066-.527-.2a.336.336,0,0,0-.193-.091l-.426-.215-.149-.079-.479-.292c-.011-.038-.042-.046-.075-.051l-.395-.284a.564.564,0,0,0-.2-.158l-.387-.332a.354.354,0,0,0-.145-.139l-.279-.284-.16-.178-.288-.344-.143-.186-.278-.394a.243.243,0,0,0-.094-.144l-.251-.429a.244.244,0,0,0-.08-.149l-.252-.525a.2.2,0,0,0-.058-.143l-.193-.528-.062-.2-.158-.574c-.012-.065-.024-.13-.036-.194q-.046-.285-.092-.569l-.035-.241-.041-.673,0-.24.047-.769a.685.685,0,0,0,.04-.289q.083-.432.165-.865a.881.881,0,0,0,.089-.334l.456-1.159.262-.524a8.817,8.817,0,0,1,2.119-2.437c.321-.248.668-.458,1-.684l.524-.263,1.158-.456a.886.886,0,0,0,.334-.089l.865-.165a.69.69,0,0,0,.289-.04l.769-.047.24,0,.672.041.241.035.569.091.194.036.573.158.2.062.528.193a.194.194,0,0,0,.143.058l.525.252a.249.249,0,0,0,.149.08l.429.251a.241.241,0,0,0,.145.094l.394.279.186.144.344.288.178.159.283.279a.352.352,0,0,0,.139.145l.332.388a.568.568,0,0,0,.158.2l.284.4c.005.033.012.064.051.074l.292.479.079.15.215.425a.335.335,0,0,0,.091.193l.2.527.066.2.157.526a.31.31,0,0,0,.047.191l.112.621a.409.409,0,0,0,.036.242,3.349,3.349,0,0,0,.048.625.494.494,0,0,0,.008.238Q1313.228,1411.953,1313.211,1412.316Z" transform="translate(-1288.503 -1397.008)" fill="url(#linear-gradient-9)"/>
          <path id="Path_27345-2" data-name="Path 27345" d="M1290.16,1387.817a14.678,14.678,0,0,0-14.678,14.677h0a14.678,14.678,0,0,0,14.678,14.678h73.494a21.654,21.654,0,0,0,21.654-21.654v-7.7Zm14.148,15.735c-.053.011-.047.054-.05.093a13.015,13.015,0,0,1-.561,2.708l-.117.367-.554,1.263-.263.515c-.034.052-.072.1-.1.157a12.53,12.53,0,0,1-2.8,3.313,15.954,15.954,0,0,1-1.845,1.282l-.515.263-1.263.554-.367.117a14.117,14.117,0,0,1-2.138.5,3.052,3.052,0,0,0-.759.115h-2.018c-.017-.065-.073-.045-.116-.052-.291-.04-.583-.074-.874-.119a13.829,13.829,0,0,1-2.321-.613.372.372,0,0,0-.2-.078l-.479-.2a.33.33,0,0,0-.193-.092l-.426-.214-.151-.075-.428-.241-.2-.126-.427-.267a.242.242,0,0,0-.142-.1l-.384-.278a.5.5,0,0,0-.195-.15l-.342-.279a.226.226,0,0,0-.125-.1l-.359-.327-.187-.18-.3-.3-.183-.194-.295-.335a.354.354,0,0,0-.133-.155l-.3-.375-.079-.1-.3-.428a.5.5,0,0,0-.138-.2l-.281-.454a.339.339,0,0,0-.1-.175l-.2-.367-.076-.15-.255-.525a.2.2,0,0,0-.06-.143l-.193-.479a.364.364,0,0,0-.081-.195,14.964,14.964,0,0,1-.612-2.5,1.915,1.915,0,0,0-.116-.664v-2.114c.053-.011.047-.055.051-.093a12.938,12.938,0,0,1,.661-3l.148-.411.635-1.346.334-.575a16.606,16.606,0,0,1,1.317-1.734,13.611,13.611,0,0,1,2.668-2.251l.575-.334,1.345-.635.411-.148a13.664,13.664,0,0,1,2.433-.6,2.5,2.5,0,0,0,.712-.116h1.97c.026.079.093.041.142.047.316.043.633.079.95.125a14.393,14.393,0,0,1,2.174.556.367.367,0,0,0,.195.08l.48.193a.2.2,0,0,0,.142.06l.525.255.15.076.367.2a.341.341,0,0,0,.175.1l.454.28a.5.5,0,0,0,.205.138l.428.3.1.079.375.295a.356.356,0,0,0,.156.133l.334.295.194.183.3.3.18.187.327.359a.226.226,0,0,0,.1.125l.279.342a.489.489,0,0,0,.149.195l.278.385a.248.248,0,0,0,.1.142l.267.427.126.2.242.428.076.151.214.425a.33.33,0,0,0,.092.194l.2.479a.371.371,0,0,0,.078.2,14.284,14.284,0,0,1,.669,2.65,2.39,2.39,0,0,0,.115.709Zm32.129-2.081a4.072,4.072,0,0,1-3.075,1.047h-1.972v6.16H1328.7V1394.15h4.7a4.223,4.223,0,0,1,3.094.962,3.007,3.007,0,0,1,.708,1.26,6.6,6.6,0,0,1,.236,1.891A4.5,4.5,0,0,1,1336.437,1401.47Zm7.821,7.207a1.244,1.244,0,0,1-.151-.368l-.123-.689a2.739,2.739,0,0,1-1.019,1,2.965,2.965,0,0,1-1.472.354,2.37,2.37,0,0,1-1.939-.844,3.561,3.561,0,0,1-.693-2.325,3.43,3.43,0,0,1,.6-2.132,6.393,6.393,0,0,1,2.415-1.613l.509-.227q1.481-.623,1.481-1.481a1.061,1.061,0,0,0-.288-.792,1.142,1.142,0,0,0-.834-.283,1.282,1.282,0,0,0-1.01.372,1.692,1.692,0,0,0-.329,1.146v.217h-2.453a3.5,3.5,0,0,1,.905-2.679,4.156,4.156,0,0,1,2.887-.839,3.991,3.991,0,0,1,2.788.773,3.641,3.641,0,0,1,.806,2.689v6.16a3.7,3.7,0,0,0,.086.821,2.938,2.938,0,0,0,.283.745Zm8.651,1.028a3.913,3.913,0,0,1-1,2.09,3.072,3.072,0,0,1-2,.533h-.151c-.057,0-.109,0-.156-.005a1.176,1.176,0,0,1-.128-.013l-.453-.057v-1.887h.16l.246.01a1.377,1.377,0,0,0,.783-.174.642.642,0,0,0,.245-.562l-.028-.292q-.018-.114-.028-.17a.964.964,0,0,0-.047-.16l-2.8-11.254h2.669l1.51,7.877,1.463-7.877h2.556Z" transform="translate(-1275.482 -1387.817)" fill="url(#linear-gradient-10)"/>
          <path id="Path_27346-2" data-name="Path 27346" d="M1322.914,1422.4a1.331,1.331,0,0,0-.151-.576l-.067-.15a1.383,1.383,0,0,0-.3-.477.151.151,0,0,0-.083-.1,1.439,1.439,0,0,0-.444-.4l-.142-.094a1.243,1.243,0,0,0-.488-.224.5.5,0,0,0-.242-.081,1.577,1.577,0,0,0-.624-.058l-.24,0h-.721l-.193-.037a.681.681,0,0,1-.33-.3l-.029-.191a.56.56,0,0,1,.552-.528h.961l.24,0,.721,0a.476.476,0,0,0,.24,0,.963.963,0,0,0,.86-.86.43.43,0,0,0,0-.24.747.747,0,0,0-.2-.527.4.4,0,0,0-.178-.178.748.748,0,0,0-.527-.2.474.474,0,0,0-.24,0c-.126-.067-.381.123-.384-.192,0-.08,0-.16,0-.24a.805.805,0,0,0-.145-.624.329.329,0,0,0-.145-.187.685.685,0,0,0-.429-.252.311.311,0,0,0-.242-.043.978.978,0,0,0-1.058,1.057q0,.12,0,.24a.27.27,0,0,1-.281.344.348.348,0,0,0-.1.047,2.41,2.41,0,0,0-1.526,1.531,1.975,1.975,0,0,0-.15.864c0,.08.006.161.01.242a1.711,1.711,0,0,0,.16.665l.041.11a1.5,1.5,0,0,0,.3.509.22.22,0,0,0,.1.125,1.011,1.011,0,0,0,.332.325.213.213,0,0,0,.132.1,1.285,1.285,0,0,0,.5.278.438.438,0,0,0,.241.09,1.327,1.327,0,0,0,.576.1.488.488,0,0,0,.241,0l.72,0,.24,0a.824.824,0,0,1,.385.191l.091.146c.041.459-.128.686-.526.708l-.19.013-.24,0-.721,0-.24,0h-.721l-.24,0a1.014,1.014,0,0,0-1.184,1.166.378.378,0,0,0,.074.229.654.654,0,0,0,.281.388.226.226,0,0,0,.153.107,1,1,0,0,0,.724.127l.24,0c.188.046.388-.041.572.05,0,.063,0,.127.005.19a1.229,1.229,0,0,0,.051.624.408.408,0,0,0,.134.252.676.676,0,0,0,.391.324c.046.058.117.057.181.074a1.029,1.029,0,0,0,1.261-1.227l0-.24a.126.126,0,0,1,.1-.109,1,1,0,0,0,.385-.131,2.385,2.385,0,0,0,1.386-1.393.707.707,0,0,0,.1-.337,1.725,1.725,0,0,0,.083-.768A.378.378,0,0,0,1322.914,1422.4Z" transform="translate(-1303.361 -1406.572)" fill="url(#linear-gradient-11)"/>
          <path id="Path_27347-2" data-name="Path 27347" d="M1478.73,1435.624a1.957,1.957,0,0,0-.509,1.34,1.734,1.734,0,0,0,.269,1.07,1,1,0,0,0,.844.345,1.074,1.074,0,0,0,.986-.576,3.516,3.516,0,0,0,.335-1.726v-1.736A6.655,6.655,0,0,0,1478.73,1435.624Z" transform="translate(-1412.228 -1419.197)" fill="url(#linear-gradient-12)"/>
        </g>
        <g id="Group_12685-2" data-name="Group 12685" transform="translate(0.505 0.179)">
          <path id="Path_27348-2" data-name="Path 27348" d="M1280.117,1197.8h1.43l.006.131.006.125a2.219,2.219,0,0,1-.537,1.651,2.366,2.366,0,0,1-1.7.522,2.961,2.961,0,0,1-1.021-.153,1.606,1.606,0,0,1-.687-.477,2.23,2.23,0,0,1-.448-.959,5.746,5.746,0,0,1-.1-.806q-.034-.522-.034-1.277a8.909,8.909,0,0,1,.114-1.717,1.981,1.981,0,0,1,.391-.845,1.692,1.692,0,0,1,.732-.508,2.79,2.79,0,0,1,.5-.131,3.547,3.547,0,0,1,.587-.046,2.726,2.726,0,0,1,1.047.185,1.725,1.725,0,0,1,.73.559,2.093,2.093,0,0,1,.346.829,5.009,5.009,0,0,1,.079.646q.029.4.028.953v.5h-2.984l-.017.159v.261a3.514,3.514,0,0,0,.17,1.311.6.6,0,0,0,.591.375.627.627,0,0,0,.584-.306A2.005,2.005,0,0,0,1280.117,1197.8Zm-1.526-1.861h1.475v-.278a1.846,1.846,0,0,0-.165-.931.768.768,0,0,0-1.149.005,1.783,1.783,0,0,0-.173.925l.005.1Z" transform="translate(-1277.035 -1191.315)" fill="#fff"/>
          <path id="Path_27349-2" data-name="Path 27349" d="M1297.1,1195.228a1.407,1.407,0,0,1-.522.647,1.475,1.475,0,0,1-.817.216,1.386,1.386,0,0,1-1.336-.752,6.316,6.316,0,0,1-.395-2.676,6.753,6.753,0,0,1,.38-2.735,1.351,1.351,0,0,1,1.316-.755,1.544,1.544,0,0,1,.78.179,1.347,1.347,0,0,1,.508.553v-2.73h1.526v8.739H1297.1Zm-1.526-2.7q0,.772.034,1.24a2.543,2.543,0,0,0,.114.673.546.546,0,0,0,.55.392.626.626,0,0,0,.619-.349,3.86,3.86,0,0,0,.17-1.432,8.123,8.123,0,0,0-.168-2.168.618.618,0,0,0-.621-.437.549.549,0,0,0-.542.374A5.65,5.65,0,0,0,1295.576,1192.533Z" transform="translate(-1288.499 -1187.176)" fill="#fff"/>
          <path id="Path_27350-2" data-name="Path 27350" d="M1316.22,1193.854v6.566h-1.492v-.653a1.592,1.592,0,0,1-.585.619,1.566,1.566,0,0,1-.369.153,1.6,1.6,0,0,1-.426.057,1.408,1.408,0,0,1-1.092-.406,1.684,1.684,0,0,1-.372-1.177v-5.158h1.464v4.29a1.9,1.9,0,0,0,.148.9.535.535,0,0,0,.5.244.57.57,0,0,0,.536-.278,2.054,2.054,0,0,0,.162-.964v-4.194Z" transform="translate(-1300.54 -1191.68)" fill="#fff"/>
          <path id="Path_27351-2" data-name="Path 27351" d="M1329.231,1202.262v-8.773h1.442v.687a1.379,1.379,0,0,1,.522-.645,1.471,1.471,0,0,1,.811-.218,1.386,1.386,0,0,1,1.339.752,6.363,6.363,0,0,1,.391,2.675,6.807,6.807,0,0,1-.377,2.738,1.351,1.351,0,0,1-1.319.752,1.528,1.528,0,0,1-.777-.179,1.387,1.387,0,0,1-.511-.553v2.763Zm1.475-5.765a7.235,7.235,0,0,0,.168,2.029.615.615,0,0,0,.621.422.547.547,0,0,0,.548-.372,6.448,6.448,0,0,0,.15-1.824q0-.721-.034-1.161a2.355,2.355,0,0,0-.113-.638.547.547,0,0,0-.551-.386.637.637,0,0,0-.624.351,1.8,1.8,0,0,0-.125.556Q1330.707,1195.855,1330.706,1196.5Z" transform="translate(-1312.241 -1191.315)" fill="#fff"/>
          <path id="Path_27352-2" data-name="Path 27352" d="M1349.389,1200.078a.758.758,0,0,1-.091-.221l-.074-.414a1.637,1.637,0,0,1-.613.6,1.78,1.78,0,0,1-.885.213,1.425,1.425,0,0,1-1.166-.508,2.141,2.141,0,0,1-.417-1.4,2.068,2.068,0,0,1,.363-1.283,3.853,3.853,0,0,1,1.453-.97l.307-.136q.89-.375.891-.891a.638.638,0,0,0-.173-.477.689.689,0,0,0-.5-.17.769.769,0,0,0-.607.224,1.017,1.017,0,0,0-.2.689v.131H1346.2a2.106,2.106,0,0,1,.544-1.612,2.5,2.5,0,0,1,1.736-.505,2.4,2.4,0,0,1,1.678.466,2.19,2.19,0,0,1,.485,1.617v3.706a2.286,2.286,0,0,0,.051.494,1.775,1.775,0,0,0,.171.448Zm-.21-3.439a4,4,0,0,0-1.158.771,1.182,1.182,0,0,0-.306.806,1.042,1.042,0,0,0,.162.643.6.6,0,0,0,.508.207.647.647,0,0,0,.593-.346,2.11,2.11,0,0,0,.2-1.038Z" transform="translate(-1323.648 -1191.339)" fill="#fff"/>
          <path id="Path_27353-2" data-name="Path 27353" d="M1363.083,1202.57v-1.135h.1l.148.006a.823.823,0,0,0,.471-.105.385.385,0,0,0,.147-.337l-.017-.176c-.008-.045-.013-.08-.017-.1a.6.6,0,0,0-.028-.1l-1.686-6.77h1.606l.908,4.738.879-4.738h1.538l-1.708,7.184a2.355,2.355,0,0,1-.6,1.257,1.848,1.848,0,0,1-1.2.321h-.091c-.034,0-.065,0-.094,0a.654.654,0,0,1-.076-.008Z" transform="translate(-1334.477 -1191.68)" fill="#fff"/>
          <path id="Path_27354-2" data-name="Path 27354" d="M1379.91,1210.779v-1.566h1.464v1.566Z" transform="translate(-1346.423 -1202.04)" fill="#fff"/>
          <path id="Path_27355-2" data-name="Path 27355" d="M1391.473,1200.078a.75.75,0,0,1-.091-.221l-.073-.414a1.641,1.641,0,0,1-.613.6,1.778,1.778,0,0,1-.885.213,1.425,1.425,0,0,1-1.166-.508,2.141,2.141,0,0,1-.417-1.4,2.065,2.065,0,0,1,.363-1.283,3.848,3.848,0,0,1,1.453-.97l.306-.136q.891-.375.891-.891a.639.639,0,0,0-.173-.477.691.691,0,0,0-.5-.17.769.769,0,0,0-.607.224,1.016,1.016,0,0,0-.2.689v.131h-1.475a2.106,2.106,0,0,1,.544-1.612,2.5,2.5,0,0,1,1.736-.505,2.4,2.4,0,0,1,1.678.466,2.189,2.189,0,0,1,.485,1.617v3.706a2.262,2.262,0,0,0,.051.494,1.779,1.779,0,0,0,.17.448Zm-.21-3.439a4,4,0,0,0-1.158.771,1.18,1.18,0,0,0-.307.806,1.039,1.039,0,0,0,.162.643.6.6,0,0,0,.508.207.647.647,0,0,0,.592-.346,2.105,2.105,0,0,0,.2-1.038Z" transform="translate(-1352.033 -1191.339)" fill="#fff"/>
          <path id="Path_27356-2" data-name="Path 27356" d="M1405.235,1197.87h1.368v.188a1.437,1.437,0,0,0,.17.8.655.655,0,0,0,.579.244.7.7,0,0,0,.5-.17.609.609,0,0,0,.184-.471q0-.369-.732-.863l-.29-.193-.074-.051q-1.668-1.14-1.668-2.247a1.652,1.652,0,0,1,.542-1.331,2.361,2.361,0,0,1,1.574-.463,2.022,2.022,0,0,1,1.5.511,1.616,1.616,0,0,1,.374.633,2.9,2.9,0,0,1,.125.9v.136h-1.339v-.136a1.09,1.09,0,0,0-.182-.7.7.7,0,0,0-.573-.219.646.646,0,0,0-.451.156.527.527,0,0,0-.173.411.684.684,0,0,0,.153.437,3.241,3.241,0,0,0,.67.539l.346.233q1.651,1.089,1.651,2.185a1.683,1.683,0,0,1-.558,1.345,2.366,2.366,0,0,1-1.592.482,2.187,2.187,0,0,1-1.594-.511,2.16,2.16,0,0,1-.517-1.594l.006-.125Z" transform="translate(-1363.497 -1191.315)" fill="#fff"/>
          <path id="Path_27357-2" data-name="Path 27357" d="M1421.646,1188.538v-1.362h1.51v1.362Zm0,7.377v-6.566h1.51v6.566Z" transform="translate(-1374.574 -1187.176)" fill="#fff"/>
          <path id="Path_27358-2" data-name="Path 27358" d="M1433.139,1200.078a.752.752,0,0,1-.091-.221l-.074-.414a1.638,1.638,0,0,1-.613.6,1.78,1.78,0,0,1-.885.213,1.424,1.424,0,0,1-1.166-.508,2.141,2.141,0,0,1-.417-1.4,2.068,2.068,0,0,1,.363-1.283,3.853,3.853,0,0,1,1.453-.97l.306-.136q.89-.375.891-.891a.638.638,0,0,0-.173-.477.69.69,0,0,0-.5-.17.768.768,0,0,0-.607.224,1.016,1.016,0,0,0-.2.689v.131h-1.475a2.106,2.106,0,0,1,.544-1.612,2.5,2.5,0,0,1,1.736-.505,2.4,2.4,0,0,1,1.677.466,2.19,2.19,0,0,1,.485,1.617v3.706a2.263,2.263,0,0,0,.051.494,1.751,1.751,0,0,0,.17.448Zm-.21-3.439a4,4,0,0,0-1.158.771,1.182,1.182,0,0,0-.306.806,1.039,1.039,0,0,0,.162.643.6.6,0,0,0,.508.207.647.647,0,0,0,.593-.346,2.111,2.111,0,0,0,.2-1.038Z" transform="translate(-1380.136 -1191.339)" fill="#fff"/>
        </g>
        <path id="Path_27359-2" data-name="Path 27359" d="M1326.034,1227.571" transform="translate(-1309.579 -1214.243)" fill="none" stroke="#6b6b6b" stroke-miterlimit="10" stroke-width="0.429"/>
      </g>
    </g>
  </g>
</svg>
