<svg xmlns="http://www.w3.org/2000/svg" viewBox="0 0 338.17 130.19"><defs><style>.cls-1{fill:#fff;}</style></defs><title>edutek</title><g id="Layer_2" data-name="Layer 2"><g id="Layer_1-2" data-name="Layer 1"><path class="cls-1" d="M124.41,95.74a14.12,14.12,0,0,1-12-5.95Q108,83.83,108,73.3q0-10.69,4.45-16.66a14.47,14.47,0,0,1,12.27-6q8.21,0,12.52,6.38h.39a48.19,48.19,0,0,1-.9-8.68V34.45h11.9V95h-9.1l-2.29-5.64h-.51Q132.7,95.74,124.41,95.74Zm4.16-9.45q4.55,0,6.67-2.64c1.41-1.77,2.18-4.76,2.31-9V73.38q0-7-2.16-10c-1.44-2-3.78-3-7-3a7,7,0,0,0-6.16,3.37Q120,67,120,73.46c0,4.28.74,7.48,2.22,9.62A7.24,7.24,0,0,0,128.57,86.29Z"/><path class="cls-1" d="M191.84,95l-1.6-5.56h-.62a12.53,12.53,0,0,1-5.4,4.69,18.51,18.51,0,0,1-8,1.65q-7.65,0-11.55-4.1t-3.88-11.81V51.49h11.86V76.88c0,3.14.55,5.49,1.67,7.06s2.89,2.35,5.33,2.35q5,0,7.19-3.32t2.22-11V51.49h11.86V95Z"/><path class="cls-1" d="M231.7,86.29a25.58,25.58,0,0,0,7.46-1.36v8.83a26.61,26.61,0,0,1-10.88,2q-7.12,0-10.37-3.6t-3.24-10.79v-21H209v-5l6.53-4,3.42-9.18h7.59v9.26H238.7v8.9H226.53v21a4.63,4.63,0,0,0,1.41,3.73A5.59,5.59,0,0,0,231.7,86.29Z"/><path class="cls-1" d="M267.63,95.74q-10.5,0-16.41-5.79t-5.91-16.41q0-10.94,5.46-16.9t15.11-6q9.21,0,14.35,5.25t5.13,14.5v5.76h-28a11.34,11.34,0,0,0,3,7.89c1.87,1.9,4.48,2.84,7.86,2.84a32.83,32.83,0,0,0,7.42-.81,37.55,37.55,0,0,0,7.31-2.61v9.18A27.83,27.83,0,0,1,276.26,95,41.55,41.55,0,0,1,267.63,95.74ZM266,59.11a7.52,7.52,0,0,0-5.91,2.39,11,11,0,0,0-2.45,6.79h16.64A9.92,9.92,0,0,0,272,61.5,7.8,7.8,0,0,0,266,59.11Z"/><path class="cls-1" d="M306.4,71.32l5.17-6.61,12.17-13.22h13.38L319.86,70.35,338.17,95H324.48L312,77.35l-5.09,4.08V95H295V34.45h11.86v27l-.63,9.88Z"/><path class="cls-1" d="M65.1,34.45a30.65,30.65,0,1,0,24.51,49H65.1A18.39,18.39,0,1,1,82.44,59H65.1a6.13,6.13,0,1,0,0,12.26h30a30.69,30.69,0,0,0-30-36.78Z"/><path class="cls-1" d="M3.78,53,6.37,54a6.14,6.14,0,0,1,3.77,6.2l0-.08c-.05.62-.09,1.25-.13,1.87H22.32A42.87,42.87,0,0,1,62,22.32V10l-1.87.13.08,0A6.14,6.14,0,0,1,54,6.36L53,3.78A6.13,6.13,0,0,0,45,.47L33.64,5.16a6.12,6.12,0,0,0-3.32,8l1.07,2.58a6.14,6.14,0,0,1-1.72,7.05l.07,0a54.64,54.64,0,0,0-7,7l0-.07a6.14,6.14,0,0,1-7,1.72l-2.58-1.07a6.12,6.12,0,0,0-8,3.32L.47,45A6.13,6.13,0,0,0,3.78,53Z"/><path class="cls-1" d="M62,120.15V107.88A42.88,42.88,0,0,1,22.32,68.16H10c0,.63.08,1.25.13,1.87l0-.07a6.15,6.15,0,0,1-3.77,6.2L3.78,77.23a6.12,6.12,0,0,0-3.31,8L5.16,96.56a6.13,6.13,0,0,0,8,3.31l2.58-1.06a6.15,6.15,0,0,1,7.05,1.71l0-.06a55.22,55.22,0,0,0,7,7l-.07,0a6.13,6.13,0,0,1,1.72,7L30.32,117a6.13,6.13,0,0,0,3.32,8L45,129.73a6.14,6.14,0,0,0,8-3.32L54,123.83a6.16,6.16,0,0,1,6.2-3.78l-.08,0C60.78,120.08,61.41,120.12,62,120.15Z"/><path class="cls-1" d="M104.09,104.09l-8.67-8.67a42.7,42.7,0,0,1-27.26,12.46v12.27c.63,0,1.25-.07,1.87-.13l-.07,0a6.17,6.17,0,0,1,6.2,3.78l1.07,2.58a6.12,6.12,0,0,0,8,3.32L96.56,125a6.13,6.13,0,0,0,3.31-8l-1.06-2.58a6.14,6.14,0,0,1,1.71-7l-.06,0Q102.35,105.85,104.09,104.09Z"/><path class="cls-1" d="M104.09,26.1q-1.74-1.74-3.63-3.33l.06,0a6.15,6.15,0,0,1-1.71-7l1.06-2.58a6.13,6.13,0,0,0-3.31-8L85.23.47a6.12,6.12,0,0,0-8,3.31L76.16,6.37A6.15,6.15,0,0,1,70,10.14l.07,0L68.16,10V22.32A42.69,42.69,0,0,1,95.42,34.77Z"/></g></g></svg>