<svg width="224" height="102" viewBox="0 0 224 102" fill="none" xmlns="http://www.w3.org/2000/svg">
    <path
        d="M23.9951 58.8976C24.5308 58.8976 24.9429 59.1449 25.2314 59.6394C25.5611 60.1339 25.7259 60.8139 25.7259 61.6793C25.7259 63.3277 25.3344 64.6052 24.5514 65.5119C22.7794 67.696 20.8425 69.4886 18.7408 70.8898C16.6803 72.2909 14.3314 72.9915 11.6939 72.9915C8.06748 72.9915 5.36824 71.3431 3.59622 68.0463C1.86541 64.7495 1 60.4842 1 55.2505C1 50.2229 1.63875 44.4947 2.91626 38.0659C4.23497 31.6372 6.15123 26.115 8.66503 21.4995C11.22 16.8839 14.249 14.5762 17.7518 14.5762C19.7299 14.5762 21.2752 15.5034 22.3879 17.3579C23.5418 19.1711 24.1187 21.7879 24.1187 25.2084C24.1187 30.1124 22.7588 35.7994 20.0389 42.2694C17.3191 48.7393 13.6308 55.1475 8.9741 61.4939C9.26257 63.1835 9.73648 64.3992 10.3958 65.141C11.0552 65.8415 11.9206 66.1918 12.9921 66.1918C14.6817 66.1918 16.1652 65.7179 17.4427 64.7701C18.7202 63.781 20.348 62.112 22.3261 59.763C22.8206 59.1861 23.3769 58.8976 23.9951 58.8976ZM16.3919 20.6959C15.444 20.6959 14.3726 22.4061 13.1775 25.8265C11.9824 29.247 10.9316 33.4916 10.025 38.5605C9.11833 43.6293 8.62382 48.4921 8.5414 53.1488C11.4673 48.3272 13.7956 43.5057 15.5265 38.6841C17.2573 33.8213 18.1227 29.3912 18.1227 25.3938C18.1227 22.2619 17.5457 20.6959 16.3919 20.6959Z"
        fill="#7AC400" />
    <path
        d="M31.2998 39.7968C29.569 39.7968 28.2709 39.4053 27.4055 38.6223C26.5401 37.7981 26.1074 36.6648 26.1074 35.2224C26.1074 33.7801 26.6637 32.585 27.7764 31.6372C28.9303 30.6481 30.352 30.1536 32.0416 30.1536C33.5664 30.1536 34.8027 30.5245 35.7505 31.2663C36.6983 32.008 37.1722 33.0589 37.1722 34.4188C37.1722 36.0672 36.6365 37.386 35.5651 38.375C34.4936 39.3228 33.0719 39.7968 31.2998 39.7968ZM30.8053 72.9915C28.1267 72.9915 26.1692 72.0437 24.9329 70.148C23.7378 68.2523 23.1403 65.7385 23.1403 62.6065C23.1403 60.7521 23.367 58.3825 23.8203 55.4978C24.3148 52.5719 24.9329 49.852 25.6747 47.3382C26.0456 46.0195 26.5401 45.1129 27.1583 44.6183C27.7764 44.1238 28.7654 43.8766 30.1254 43.8766C32.2271 43.8766 33.2779 44.5771 33.2779 45.9783C33.2779 47.0085 32.8864 49.3987 32.1034 53.1488C31.1144 57.6819 30.6199 60.7521 30.6199 62.3593C30.6199 63.5956 30.7847 64.5434 31.1144 65.2028C31.4441 65.8621 32.0004 66.1918 32.7834 66.1918C33.5252 66.1918 34.4524 65.6767 35.5651 64.6464C36.6777 63.6162 38.1613 61.9884 40.0157 59.763C40.5102 59.1861 41.0666 58.8976 41.6847 58.8976C42.2204 58.8976 42.6325 59.1449 42.921 59.6394C43.2507 60.1339 43.4155 60.8139 43.4155 61.6793C43.4155 63.3277 43.024 64.6052 42.2411 65.5119C38.1613 70.4983 34.3494 72.9915 30.8053 72.9915Z"
        fill="#7AC400" />
    <path
        d="M42.8032 72.9915C41.2372 72.9915 40.1245 72.1673 39.4652 70.5189C38.847 68.8705 38.538 66.233 38.538 62.6065C38.538 57.2492 39.3003 52.1598 40.8251 47.3382C41.196 46.1431 41.7935 45.2777 42.6177 44.742C43.4831 44.165 44.6782 43.8766 46.203 43.8766C47.0272 43.8766 47.6041 43.9796 47.9338 44.1856C48.2635 44.3917 48.4283 44.7832 48.4283 45.3601C48.4283 46.0195 48.1192 47.503 47.5011 49.8108C47.089 51.4592 46.7593 52.9016 46.5121 54.1379C46.2648 55.3742 46.0588 56.8989 45.8939 58.7122C47.2538 55.1681 48.7786 52.2834 50.4682 50.0581C52.1578 47.8327 53.8062 46.2461 55.4134 45.2983C57.0618 44.3505 58.5659 43.8766 59.9259 43.8766C62.6045 43.8766 63.9438 45.2159 63.9438 47.8945C63.9438 49.5017 63.4905 52.407 62.5839 56.6105C61.8009 60.1958 61.4094 62.5653 61.4094 63.7192C61.4094 65.3676 62.007 66.1918 63.202 66.1918C64.0262 66.1918 64.9947 65.6973 66.1073 64.7083C67.2612 63.678 68.786 62.0296 70.6816 59.763C71.1761 59.1861 71.7325 58.8976 72.3506 58.8976C72.8863 58.8976 73.2984 59.1449 73.5869 59.6394C73.9166 60.1339 74.0814 60.8139 74.0814 61.6793C74.0814 63.3277 73.6899 64.6052 72.907 65.5119C71.1349 67.696 69.2187 69.4886 67.1582 70.8898C65.1389 72.2909 62.8312 72.9915 60.2349 72.9915C58.1332 72.9915 56.5467 72.3939 55.4752 71.1988C54.4037 69.9625 53.868 68.1905 53.868 65.8827C53.868 64.7289 54.1565 62.6684 54.7334 59.7012C55.2691 57.105 55.537 55.3124 55.537 54.3233C55.537 53.664 55.3104 53.3343 54.857 53.3343C54.3213 53.3343 53.5589 54.0348 52.5699 55.436C51.6221 56.7959 50.633 58.6092 49.6028 60.8757C48.6138 63.1423 47.8102 65.5325 47.192 68.0463C46.7387 69.9832 46.203 71.3019 45.5848 72.0025C45.0079 72.6618 44.0807 72.9915 42.8032 72.9915Z"
        fill="#7AC400" />
    <path
        d="M100.729 59.0213C101.265 59.0213 101.677 59.2891 101.966 59.8249C102.295 60.3194 102.46 60.9581 102.46 61.7411C102.46 62.689 102.316 63.4307 102.027 63.9665C101.739 64.5022 101.286 64.9761 100.668 65.3882C97.1235 67.7784 94.5273 69.5504 92.8789 70.7043L88.9228 73.3624C87.3568 81.8929 85.2963 88.5895 82.7413 93.4523C80.2275 98.3563 77.0131 100.808 73.0982 100.808C70.9965 100.808 69.2863 100.149 67.9676 98.8302C66.6488 97.5527 65.9895 95.8631 65.9895 93.7614C65.9895 90.8355 67.1434 87.6829 69.4511 84.3037C71.7589 80.9656 76.0859 76.8446 82.4322 71.9406L82.8031 69.5298C82.1025 70.6425 81.1753 71.5079 80.0214 72.1261C78.9088 72.703 77.7961 72.9915 76.6834 72.9915C74.1284 72.9915 72.0885 72.0643 70.5638 70.2098C69.039 68.3554 68.2766 65.924 68.2766 62.9156C68.2766 59.6188 69.039 56.5075 70.5638 53.5815C72.0885 50.6144 74.1078 48.2448 76.6216 46.4728C79.1766 44.6595 81.8759 43.7529 84.7194 43.7529C85.626 43.7529 86.2235 43.9384 86.512 44.3093C86.8417 44.6389 87.1095 45.2571 87.3156 46.1637C88.0986 45.9989 89.0052 45.9165 90.0354 45.9165C91.0657 45.9165 91.7868 46.0813 92.1989 46.411C92.6523 46.6994 92.8789 47.297 92.8789 48.2036C92.8789 48.6981 92.8583 49.0896 92.8171 49.3781C92.6523 50.6556 92.1371 53.8906 91.2717 59.0831C91.1069 60.0721 90.9214 61.1642 90.7154 62.3593C90.5506 63.5132 90.3651 64.7495 90.1591 66.0682C93.3322 63.5956 96.3817 61.4114 99.3076 59.5158C99.8434 59.1861 100.317 59.0213 100.729 59.0213ZM78.9088 66.7482C79.8566 66.7482 80.7632 66.1712 81.6286 65.0173C82.494 63.8635 83.1122 62.215 83.4831 60.0721L85.4611 49.5017C83.7715 49.5429 82.2056 50.2023 80.7632 51.4798C79.3209 52.7161 78.167 54.3645 77.3016 56.425C76.4362 58.4855 76.0035 60.6697 76.0035 62.9774C76.0035 64.2549 76.2507 65.2028 76.7453 65.8209C77.281 66.4391 78.0022 66.7482 78.9088 66.7482ZM73.7782 94.8122C74.8084 94.8122 75.9623 93.5759 77.2398 91.1033C78.5585 88.6307 79.8154 84.6952 81.0105 79.2966C77.8373 82.0165 75.5502 84.4685 74.149 86.6526C72.7479 88.8368 72.0473 90.753 72.0473 92.4015C72.0473 93.102 72.171 93.679 72.4182 94.1323C72.7067 94.5856 73.16 94.8122 73.7782 94.8122Z"
        fill="#7AC400" />
    <path
        d="M130.185 53.7052C130.721 53.7052 131.133 53.973 131.421 54.5088C131.71 55.0445 131.854 55.7245 131.854 56.5487C131.854 58.5267 131.257 59.7012 130.061 60.0721C127.589 60.9375 124.869 61.4321 121.902 61.5557C121.119 65.0173 119.574 67.799 117.266 69.9007C114.958 71.9612 112.341 72.9915 109.415 72.9915C106.943 72.9915 104.82 72.3939 103.048 71.1988C101.318 70.0038 99.9989 68.4172 99.0923 66.4391C98.1856 64.461 97.7323 62.3181 97.7323 60.0103C97.7323 56.8783 98.3299 54.0967 99.525 51.6653C100.72 49.1927 102.368 47.2764 104.47 45.9165C106.572 44.5153 108.9 43.8147 111.455 43.8147C114.587 43.8147 117.101 44.9068 118.997 47.0909C120.933 49.2339 122.067 51.8919 122.396 55.0651C124.333 54.9415 126.641 54.5294 129.32 53.8288C129.649 53.7464 129.938 53.7052 130.185 53.7052ZM109.91 66.4391C111.229 66.4391 112.362 65.9034 113.31 64.8319C114.299 63.7604 114.958 62.215 115.288 60.1958C114.01 59.3303 113.021 58.1971 112.321 56.7959C111.661 55.3948 111.332 53.9112 111.332 52.3452C111.332 51.6859 111.393 51.0265 111.517 50.3671H111.208C109.56 50.3671 108.179 51.1707 107.066 52.7779C105.995 54.3439 105.459 56.5693 105.459 59.454C105.459 61.7205 105.892 63.4514 106.757 64.6464C107.664 65.8415 108.715 66.4391 109.91 66.4391Z"
        fill="#7AC400" />
    <path
        d="M176 33.1207C176 36.6236 174.764 39.6525 172.292 42.2075C169.819 44.7214 166.213 46.5346 161.474 47.6473C164.029 48.3479 165.966 49.5017 167.285 51.1089C168.603 52.6749 169.263 54.4882 169.263 56.5487C169.263 59.8043 168.232 62.6271 166.172 65.0173C164.153 67.4075 161.185 69.262 157.271 70.5807C153.356 71.8582 148.637 72.497 143.115 72.497C141.054 72.497 139.406 72.4352 138.17 72.3115C138.129 73.4654 137.634 74.3308 136.686 74.9078C135.738 75.4847 134.523 75.7732 133.039 75.7732C131.556 75.7732 130.525 75.4435 129.948 74.7841C129.413 74.1248 129.186 73.1563 129.268 71.8788C129.639 66.1094 130.361 60.0721 131.432 53.767C132.503 47.4206 133.863 41.3009 135.512 35.4079C135.8 34.3776 136.377 33.6565 137.243 33.2444C138.108 32.8322 139.241 32.6262 140.642 32.6262C143.156 32.6262 144.413 33.3268 144.413 34.7279C144.413 35.3049 144.289 35.9642 144.042 36.706C142.971 39.9204 141.899 44.2887 140.828 49.8108C139.756 55.2918 138.994 60.5254 138.541 65.5119C140.519 65.6767 142.126 65.7591 143.362 65.7591C149.132 65.7591 153.356 64.9349 156.034 63.2865C158.754 61.5969 160.114 59.454 160.114 56.8577C160.114 55.0445 159.331 53.5197 157.765 52.2834C156.24 51.0471 153.665 50.3671 150.038 50.2435C149.214 50.2023 148.637 49.9963 148.307 49.6254C147.978 49.2545 147.813 48.6569 147.813 47.8327C147.813 46.6376 148.06 45.6692 148.555 44.9274C149.049 44.1856 149.956 43.7941 151.275 43.7529C154.2 43.6705 156.838 43.2378 159.187 42.4548C161.577 41.6718 163.452 40.5797 164.812 39.1786C166.172 37.7362 166.852 36.0672 166.852 34.1716C166.852 31.7814 165.677 29.9063 163.328 28.5464C160.979 27.1453 159.463 26.5252 154.6 26.5252C150.191 26.5252 147.708 27.4597 142.761 27.7532C132.375 28.3695 124.574 21.0851 138.951 22.6547C143.658 23.1685 147.534 20.9658 153.631 20.4136C161.195 19.7284 166.831 20.6547 170.499 23.1685C174.167 25.6823 176 28.9997 176 33.1207Z"
        fill="#7AC400" />
    <path
        d="M201.838 58.8976C202.374 58.8976 202.786 59.1449 203.075 59.6394C203.404 60.1339 203.569 60.8139 203.569 61.6793C203.569 63.3277 203.178 64.6052 202.395 65.5119C200.87 67.3663 198.707 69.0765 195.904 70.6425C193.143 72.2085 190.176 72.9915 187.003 72.9915C182.676 72.9915 179.317 71.817 176.927 69.468C174.537 67.1191 173.342 63.9047 173.342 59.8249C173.342 56.9814 173.939 54.3439 175.135 51.9125C176.33 49.4399 177.978 47.4824 180.08 46.0401C182.223 44.5977 184.633 43.8766 187.312 43.8766C189.702 43.8766 191.618 44.5977 193.061 46.0401C194.503 47.4412 195.224 49.3575 195.224 51.7889C195.224 54.6324 194.194 57.0844 192.134 59.1449C190.114 61.1642 186.673 62.7714 181.811 63.9665C182.841 65.8621 184.798 66.81 187.683 66.81C189.537 66.81 191.639 66.1712 193.988 64.8937C196.378 63.575 198.439 61.8648 200.169 59.763C200.664 59.1861 201.22 58.8976 201.838 58.8976ZM186.261 49.9344C184.736 49.9344 183.438 50.8205 182.367 52.5925C181.337 54.3645 180.821 56.5075 180.821 59.0213V59.1449C183.253 58.568 185.169 57.7025 186.57 56.5487C187.971 55.3948 188.672 54.0555 188.672 52.5307C188.672 51.7477 188.445 51.1295 187.992 50.6762C187.58 50.1817 187.003 49.9344 186.261 49.9344Z"
        fill="#7AC400" />
    <path
        d="M220.666 60.7521C221.202 60.7521 221.614 60.9994 221.902 61.4939C222.232 61.9884 222.397 62.6684 222.397 63.5338C222.397 65.0173 222.046 66.2949 221.346 67.3663C220.192 69.1383 218.667 70.5189 216.772 71.5079C214.917 72.497 212.692 72.9915 210.096 72.9915C206.139 72.9915 203.069 71.817 200.885 69.468C198.701 67.0778 197.609 63.8635 197.609 59.8249C197.609 56.9814 198.207 54.3439 199.402 51.9125C200.597 49.4399 202.245 47.4824 204.347 46.0401C206.49 44.5977 208.9 43.8766 211.579 43.8766C213.969 43.8766 215.886 44.5977 217.328 46.0401C218.77 47.4412 219.491 49.3575 219.491 51.7889C219.491 54.6324 218.461 57.0844 216.401 59.1449C214.381 61.1642 210.92 62.7714 206.016 63.9665C207.005 65.8621 208.674 66.81 211.023 66.81C212.712 66.81 214.093 66.4185 215.164 65.6355C216.277 64.8525 217.555 63.5338 218.997 61.6793C219.491 61.0612 220.048 60.7521 220.666 60.7521ZM210.528 49.9344C209.003 49.9344 207.705 50.8205 206.634 52.5925C205.604 54.3645 205.089 56.5075 205.089 59.0213V59.1449C207.52 58.568 209.436 57.7025 210.837 56.5487C212.238 55.3948 212.939 54.0555 212.939 52.5307C212.939 51.7477 212.712 51.1295 212.259 50.6762C211.847 50.1817 211.27 49.9344 210.528 49.9344Z"
        fill="#7AC400" />
    <path
        d="M23.9951 58.8976C24.5308 58.8976 24.9429 59.1449 25.2314 59.6394C25.5611 60.1339 25.7259 60.8139 25.7259 61.6793C25.7259 63.3277 25.3344 64.6052 24.5514 65.5119C22.7794 67.696 20.8425 69.4886 18.7408 70.8898C16.6803 72.2909 14.3314 72.9915 11.6939 72.9915C8.06748 72.9915 5.36824 71.3431 3.59622 68.0463C1.86541 64.7495 1 60.4842 1 55.2505C1 50.2229 1.63875 44.4947 2.91626 38.0659C4.23497 31.6372 6.15123 26.115 8.66503 21.4995C11.22 16.8839 14.249 14.5762 17.7518 14.5762C19.7299 14.5762 21.2752 15.5034 22.3879 17.3579C23.5418 19.1711 24.1187 21.7879 24.1187 25.2084C24.1187 30.1124 22.7588 35.7994 20.0389 42.2694C17.3191 48.7393 13.6308 55.1475 8.9741 61.4939C9.26257 63.1835 9.73648 64.3992 10.3958 65.141C11.0552 65.8415 11.9206 66.1918 12.9921 66.1918C14.6817 66.1918 16.1652 65.7179 17.4427 64.7701C18.7202 63.781 20.348 62.112 22.3261 59.763C22.8206 59.1861 23.3769 58.8976 23.9951 58.8976ZM16.3919 20.6959C15.444 20.6959 14.3726 22.4061 13.1775 25.8265C11.9824 29.247 10.9316 33.4916 10.025 38.5605C9.11833 43.6293 8.62382 48.4921 8.5414 53.1488C11.4673 48.3272 13.7956 43.5057 15.5265 38.6841C17.2573 33.8213 18.1227 29.3912 18.1227 25.3938C18.1227 22.2619 17.5457 20.6959 16.3919 20.6959Z"
        stroke="#7AC400" stroke-width="1.37367" />
    <path
        d="M31.2998 39.7968C29.569 39.7968 28.2709 39.4053 27.4055 38.6223C26.5401 37.7981 26.1074 36.6648 26.1074 35.2224C26.1074 33.7801 26.6637 32.585 27.7764 31.6372C28.9303 30.6481 30.352 30.1536 32.0416 30.1536C33.5664 30.1536 34.8027 30.5245 35.7505 31.2663C36.6983 32.008 37.1722 33.0589 37.1722 34.4188C37.1722 36.0672 36.6365 37.386 35.5651 38.375C34.4936 39.3228 33.0719 39.7968 31.2998 39.7968ZM30.8053 72.9915C28.1267 72.9915 26.1692 72.0437 24.9329 70.148C23.7378 68.2523 23.1403 65.7385 23.1403 62.6065C23.1403 60.7521 23.367 58.3825 23.8203 55.4978C24.3148 52.5719 24.9329 49.852 25.6747 47.3382C26.0456 46.0195 26.5401 45.1129 27.1583 44.6183C27.7764 44.1238 28.7654 43.8766 30.1254 43.8766C32.2271 43.8766 33.2779 44.5771 33.2779 45.9783C33.2779 47.0085 32.8864 49.3987 32.1034 53.1488C31.1144 57.6819 30.6199 60.7521 30.6199 62.3593C30.6199 63.5956 30.7847 64.5434 31.1144 65.2028C31.4441 65.8621 32.0004 66.1918 32.7834 66.1918C33.5252 66.1918 34.4524 65.6767 35.5651 64.6464C36.6777 63.6162 38.1613 61.9884 40.0157 59.763C40.5102 59.1861 41.0666 58.8976 41.6847 58.8976C42.2204 58.8976 42.6325 59.1449 42.921 59.6394C43.2507 60.1339 43.4155 60.8139 43.4155 61.6793C43.4155 63.3277 43.024 64.6052 42.2411 65.5119C38.1613 70.4983 34.3494 72.9915 30.8053 72.9915Z"
        stroke="#7AC400" stroke-width="1.37367" />
    <path
        d="M42.8032 72.9915C41.2372 72.9915 40.1245 72.1673 39.4652 70.5189C38.847 68.8705 38.538 66.233 38.538 62.6065C38.538 57.2492 39.3003 52.1598 40.8251 47.3382C41.196 46.1431 41.7935 45.2777 42.6177 44.742C43.4831 44.165 44.6782 43.8766 46.203 43.8766C47.0272 43.8766 47.6041 43.9796 47.9338 44.1856C48.2635 44.3917 48.4283 44.7832 48.4283 45.3601C48.4283 46.0195 48.1192 47.503 47.5011 49.8108C47.089 51.4592 46.7593 52.9016 46.5121 54.1379C46.2648 55.3742 46.0588 56.8989 45.8939 58.7122C47.2538 55.1681 48.7786 52.2834 50.4682 50.0581C52.1578 47.8327 53.8062 46.2461 55.4134 45.2983C57.0618 44.3505 58.5659 43.8766 59.9259 43.8766C62.6045 43.8766 63.9438 45.2159 63.9438 47.8945C63.9438 49.5017 63.4905 52.407 62.5839 56.6105C61.8009 60.1958 61.4094 62.5653 61.4094 63.7192C61.4094 65.3676 62.007 66.1918 63.202 66.1918C64.0262 66.1918 64.9947 65.6973 66.1073 64.7083C67.2612 63.678 68.786 62.0296 70.6816 59.763C71.1761 59.1861 71.7325 58.8976 72.3506 58.8976C72.8863 58.8976 73.2984 59.1449 73.5869 59.6394C73.9166 60.1339 74.0814 60.8139 74.0814 61.6793C74.0814 63.3277 73.6899 64.6052 72.907 65.5119C71.1349 67.696 69.2187 69.4886 67.1582 70.8898C65.1389 72.2909 62.8312 72.9915 60.2349 72.9915C58.1332 72.9915 56.5467 72.3939 55.4752 71.1988C54.4037 69.9625 53.868 68.1905 53.868 65.8827C53.868 64.7289 54.1565 62.6684 54.7334 59.7012C55.2691 57.105 55.537 55.3124 55.537 54.3233C55.537 53.664 55.3104 53.3343 54.857 53.3343C54.3213 53.3343 53.5589 54.0348 52.5699 55.436C51.6221 56.7959 50.633 58.6092 49.6028 60.8757C48.6138 63.1423 47.8102 65.5325 47.192 68.0463C46.7387 69.9832 46.203 71.3019 45.5848 72.0025C45.0079 72.6618 44.0807 72.9915 42.8032 72.9915Z"
        stroke="#7AC400" stroke-width="1.37367" />
    <path
        d="M100.729 59.0213C101.265 59.0213 101.677 59.2891 101.966 59.8249C102.295 60.3194 102.46 60.9581 102.46 61.7411C102.46 62.689 102.316 63.4307 102.027 63.9665C101.739 64.5022 101.286 64.9761 100.668 65.3882C97.1235 67.7784 94.5273 69.5504 92.8789 70.7043L88.9228 73.3624C87.3568 81.8929 85.2963 88.5895 82.7413 93.4523C80.2275 98.3563 77.0131 100.808 73.0982 100.808C70.9965 100.808 69.2863 100.149 67.9676 98.8302C66.6488 97.5527 65.9895 95.8631 65.9895 93.7614C65.9895 90.8355 67.1434 87.6829 69.4511 84.3037C71.7589 80.9656 76.0859 76.8446 82.4322 71.9406L82.8031 69.5298C82.1025 70.6425 81.1753 71.5079 80.0214 72.1261C78.9088 72.703 77.7961 72.9915 76.6834 72.9915C74.1284 72.9915 72.0885 72.0643 70.5638 70.2098C69.039 68.3554 68.2766 65.924 68.2766 62.9156C68.2766 59.6188 69.039 56.5075 70.5638 53.5815C72.0885 50.6144 74.1078 48.2448 76.6216 46.4728C79.1766 44.6595 81.8759 43.7529 84.7194 43.7529C85.626 43.7529 86.2235 43.9384 86.512 44.3093C86.8417 44.6389 87.1095 45.2571 87.3156 46.1637C88.0986 45.9989 89.0052 45.9165 90.0354 45.9165C91.0657 45.9165 91.7868 46.0813 92.1989 46.411C92.6523 46.6994 92.8789 47.297 92.8789 48.2036C92.8789 48.6981 92.8583 49.0896 92.8171 49.3781C92.6523 50.6556 92.1371 53.8906 91.2717 59.0831C91.1069 60.0721 90.9214 61.1642 90.7154 62.3593C90.5506 63.5132 90.3651 64.7495 90.1591 66.0682C93.3322 63.5956 96.3817 61.4114 99.3076 59.5158C99.8434 59.1861 100.317 59.0213 100.729 59.0213ZM78.9088 66.7482C79.8566 66.7482 80.7632 66.1712 81.6286 65.0173C82.494 63.8635 83.1122 62.215 83.4831 60.0721L85.4611 49.5017C83.7715 49.5429 82.2056 50.2023 80.7632 51.4798C79.3209 52.7161 78.167 54.3645 77.3016 56.425C76.4362 58.4855 76.0035 60.6697 76.0035 62.9774C76.0035 64.2549 76.2507 65.2028 76.7453 65.8209C77.281 66.4391 78.0022 66.7482 78.9088 66.7482ZM73.7782 94.8122C74.8084 94.8122 75.9623 93.5759 77.2398 91.1033C78.5585 88.6307 79.8154 84.6952 81.0105 79.2966C77.8373 82.0165 75.5502 84.4685 74.149 86.6526C72.7479 88.8368 72.0473 90.753 72.0473 92.4015C72.0473 93.102 72.171 93.679 72.4182 94.1323C72.7067 94.5856 73.16 94.8122 73.7782 94.8122Z"
        stroke="#7AC400" stroke-width="1.37367" />
    <path
        d="M130.185 53.7052C130.721 53.7052 131.133 53.973 131.421 54.5088C131.71 55.0445 131.854 55.7245 131.854 56.5487C131.854 58.5267 131.257 59.7012 130.061 60.0721C127.589 60.9375 124.869 61.4321 121.902 61.5557C121.119 65.0173 119.574 67.799 117.266 69.9007C114.958 71.9612 112.341 72.9915 109.415 72.9915C106.943 72.9915 104.82 72.3939 103.048 71.1988C101.318 70.0038 99.9989 68.4172 99.0923 66.4391C98.1856 64.461 97.7323 62.3181 97.7323 60.0103C97.7323 56.8783 98.3299 54.0967 99.525 51.6653C100.72 49.1927 102.368 47.2764 104.47 45.9165C106.572 44.5153 108.9 43.8147 111.455 43.8147C114.587 43.8147 117.101 44.9068 118.997 47.0909C120.933 49.2339 122.067 51.8919 122.396 55.0651C124.333 54.9415 126.641 54.5294 129.32 53.8288C129.649 53.7464 129.938 53.7052 130.185 53.7052ZM109.91 66.4391C111.229 66.4391 112.362 65.9034 113.31 64.8319C114.299 63.7604 114.958 62.215 115.288 60.1958C114.01 59.3303 113.021 58.1971 112.321 56.7959C111.661 55.3948 111.332 53.9112 111.332 52.3452C111.332 51.6859 111.393 51.0265 111.517 50.3671H111.208C109.56 50.3671 108.179 51.1707 107.066 52.7779C105.995 54.3439 105.459 56.5693 105.459 59.454C105.459 61.7205 105.892 63.4514 106.757 64.6464C107.664 65.8415 108.715 66.4391 109.91 66.4391Z"
        stroke="#7AC400" stroke-width="1.37367" />
    <path
        d="M176 33.1207C176 36.6236 174.764 39.6525 172.292 42.2075C169.819 44.7214 166.213 46.5346 161.474 47.6473C164.029 48.3479 165.966 49.5017 167.285 51.1089C168.603 52.6749 169.263 54.4882 169.263 56.5487C169.263 59.8043 168.232 62.6271 166.172 65.0173C164.153 67.4075 161.185 69.262 157.271 70.5807C153.356 71.8582 148.637 72.497 143.115 72.497C141.054 72.497 139.406 72.4352 138.17 72.3115C138.129 73.4654 137.634 74.3308 136.686 74.9078C135.738 75.4847 134.523 75.7732 133.039 75.7732C131.556 75.7732 130.525 75.4435 129.948 74.7841C129.413 74.1248 129.186 73.1563 129.268 71.8788C129.639 66.1094 130.361 60.0721 131.432 53.767C132.503 47.4206 133.863 41.3009 135.512 35.4079C135.8 34.3776 136.377 33.6565 137.243 33.2444C138.108 32.8322 139.241 32.6262 140.642 32.6262C143.156 32.6262 144.413 33.3268 144.413 34.7279C144.413 35.3049 144.289 35.9642 144.042 36.706C142.971 39.9204 141.899 44.2887 140.828 49.8108C139.756 55.2918 138.994 60.5254 138.541 65.5119C140.519 65.6767 142.126 65.7591 143.362 65.7591C149.132 65.7591 153.356 64.9349 156.034 63.2865C158.754 61.5969 160.114 59.454 160.114 56.8577C160.114 55.0445 159.331 53.5197 157.765 52.2834C156.24 51.0471 153.665 50.3671 150.038 50.2435C149.214 50.2023 148.637 49.9963 148.307 49.6254C147.978 49.2545 147.813 48.6569 147.813 47.8327C147.813 46.6376 148.06 45.6692 148.555 44.9274C149.049 44.1856 149.956 43.7941 151.275 43.7529C154.2 43.6705 156.838 43.2378 159.187 42.4548C161.577 41.6718 163.452 40.5797 164.812 39.1786C166.172 37.7362 166.852 36.0672 166.852 34.1716C166.852 31.7814 165.677 29.9063 163.328 28.5464C160.979 27.1453 159.463 26.5252 154.6 26.5252C150.191 26.5252 147.708 27.4597 142.761 27.7532C132.375 28.3695 124.574 21.0851 138.951 22.6547C143.658 23.1685 147.534 20.9658 153.631 20.4136C161.195 19.7284 166.831 20.6547 170.499 23.1685C174.167 25.6823 176 28.9997 176 33.1207Z"
        stroke="#7AC400" stroke-width="1.37367" />
    <path
        d="M201.838 58.8976C202.374 58.8976 202.786 59.1449 203.075 59.6394C203.404 60.1339 203.569 60.8139 203.569 61.6793C203.569 63.3277 203.178 64.6052 202.395 65.5119C200.87 67.3663 198.707 69.0765 195.904 70.6425C193.143 72.2085 190.176 72.9915 187.003 72.9915C182.676 72.9915 179.317 71.817 176.927 69.468C174.537 67.1191 173.342 63.9047 173.342 59.8249C173.342 56.9814 173.939 54.3439 175.135 51.9125C176.33 49.4399 177.978 47.4824 180.08 46.0401C182.223 44.5977 184.633 43.8766 187.312 43.8766C189.702 43.8766 191.618 44.5977 193.061 46.0401C194.503 47.4412 195.224 49.3575 195.224 51.7889C195.224 54.6324 194.194 57.0844 192.134 59.1449C190.114 61.1642 186.673 62.7714 181.811 63.9665C182.841 65.8621 184.798 66.81 187.683 66.81C189.537 66.81 191.639 66.1712 193.988 64.8937C196.378 63.575 198.439 61.8648 200.169 59.763C200.664 59.1861 201.22 58.8976 201.838 58.8976ZM186.261 49.9344C184.736 49.9344 183.438 50.8205 182.367 52.5925C181.337 54.3645 180.821 56.5075 180.821 59.0213V59.1449C183.253 58.568 185.169 57.7025 186.57 56.5487C187.971 55.3948 188.672 54.0555 188.672 52.5307C188.672 51.7477 188.445 51.1295 187.992 50.6762C187.58 50.1817 187.003 49.9344 186.261 49.9344Z"
        stroke="#7AC400" stroke-width="1.37367" />
    <path
        d="M220.666 60.7521C221.202 60.7521 221.614 60.9994 221.902 61.4939C222.232 61.9884 222.397 62.6684 222.397 63.5338C222.397 65.0173 222.046 66.2949 221.346 67.3663C220.192 69.1383 218.667 70.5189 216.772 71.5079C214.917 72.497 212.692 72.9915 210.096 72.9915C206.139 72.9915 203.069 71.817 200.885 69.468C198.701 67.0778 197.609 63.8635 197.609 59.8249C197.609 56.9814 198.207 54.3439 199.402 51.9125C200.597 49.4399 202.245 47.4824 204.347 46.0401C206.49 44.5977 208.9 43.8766 211.579 43.8766C213.969 43.8766 215.886 44.5977 217.328 46.0401C218.77 47.4412 219.491 49.3575 219.491 51.7889C219.491 54.6324 218.461 57.0844 216.401 59.1449C214.381 61.1642 210.92 62.7714 206.016 63.9665C207.005 65.8621 208.674 66.81 211.023 66.81C212.712 66.81 214.093 66.4185 215.164 65.6355C216.277 64.8525 217.555 63.5338 218.997 61.6793C219.491 61.0612 220.048 60.7521 220.666 60.7521ZM210.528 49.9344C209.003 49.9344 207.705 50.8205 206.634 52.5925C205.604 54.3645 205.089 56.5075 205.089 59.0213V59.1449C207.52 58.568 209.436 57.7025 210.837 56.5487C212.238 55.3948 212.939 54.0555 212.939 52.5307C212.939 51.7477 212.712 51.1295 212.259 50.6762C211.847 50.1817 211.27 49.9344 210.528 49.9344Z"
        stroke="#7AC400" stroke-width="1.37367" />
    <path
        d="M131.777 26.0773C128.426 24.0535 126.384 21.4963 125.65 18.4058C124.973 15.3012 125.148 12.4423 127.087 9.23209C128.812 6.37465 130.847 4.57181 133.275 3.10159C135.704 1.63137 138.169 0.893884 140.671 0.816169C143.173 0.738456 145.122 1.25698 147.098 2.44992C149.038 3.62156 150.047 5.35567 150.402 7.1589C150.814 8.94814 150.653 10.9608 149.567 12.7599C148.46 14.5931 146.637 16.4127 144.474 15.4907C142.819 14.7851 141.997 13.0136 142.89 11.5342C143.653 10.2711 143.748 9.22705 142.89 8.41285C142.118 7.67919 140.967 7.5129 139.814 7.82767C138.682 8.10716 137.945 8.5484 136.776 9.52747C135.607 10.5065 135.169 11.0978 134.274 12.5794C133.06 14.5902 133.103 15.8296 133.275 17.3779C133.504 18.9122 134.185 19.9825 135.702 20.8985C136.902 21.6228 139.569 22.1412 140.983 22.0321C146.25 21.7131 149.818 23.8556 143.786 26.758C141.939 27.6645 139.973 28.09 137.888 28.0346C135.825 27.944 133.788 27.2915 131.777 26.0773Z"
        fill="#7AC400" />
</svg>