<svg width="149" height="40" viewBox="0 0 149 40" fill="none" xmlns="http://www.w3.org/2000/svg">
<path d="M35.6291 11.6088V12.2625C36.5636 11.0081 37.586 10.0871 38.6961 9.49959C39.8062 8.91203 41.0825 8.61779 42.525 8.61688C43.9269 8.61688 45.1797 8.92727 46.2832 9.54804C47.3868 10.1688 48.2108 11.0468 48.7552 12.182C49.1073 12.8475 49.3381 13.5723 49.4366 14.3214C49.5402 15.0872 49.5924 16.0644 49.593 17.2529V27.3148C49.593 28.3972 49.3495 29.2158 48.8626 29.7704C48.3757 30.3251 47.7429 30.6026 46.9642 30.6029C46.1722 30.6029 45.5295 30.3187 45.036 29.7503C44.5425 29.182 44.2959 28.37 44.2962 27.3143V18.302C44.2962 16.5195 44.0528 15.1562 43.5659 14.2121C43.079 13.268 42.1086 12.7956 40.6548 12.795C39.7225 12.7898 38.8137 13.0922 38.0646 13.6567C37.2856 14.2312 36.7143 15.0202 36.3509 16.0237C36.0908 16.8289 35.9609 18.3342 35.9612 20.5397V27.3138C35.9612 28.4109 35.7113 29.2338 35.2115 29.7823C34.7117 30.3309 34.0659 30.6052 33.274 30.6052C32.5075 30.6052 31.8783 30.3213 31.3863 29.7535C30.8943 29.1858 30.6477 28.3736 30.6465 27.317V11.6865C30.6465 10.6564 30.8673 9.88723 31.309 9.37891C31.7506 8.87058 32.3542 8.61627 33.1198 8.61596C33.564 8.60971 34.0015 8.72598 34.3859 8.95241C34.7604 9.17762 35.0614 9.51452 35.2888 9.96312C35.5163 10.4117 35.6297 10.9603 35.6291 11.6088Z" fill="#6CA4C9"/>
<path d="M56.4414 27.3142V3.86356C56.4414 2.78108 56.6783 1.96236 57.152 1.40741C57.6257 0.852459 58.2651 0.575135 59.0702 0.57544C59.875 0.57544 60.5242 0.849716 61.0177 1.39827C61.5112 1.94682 61.7578 2.76874 61.7575 3.86401V27.3146C61.7575 28.4117 61.5076 29.2335 61.0078 29.7799C60.508 30.3263 59.862 30.6006 59.0698 30.6028C58.2907 30.6028 57.6579 30.319 57.1713 29.7516C56.6847 29.1841 56.4414 28.3717 56.4414 27.3142Z" fill="#FDC214"/>
<path d="M78.59 27.5513V26.8583C77.9536 27.6772 77.2849 28.364 76.5841 28.9186C75.896 29.4661 75.118 29.8852 74.2861 30.1565C73.4555 30.4262 72.5079 30.5615 71.4433 30.5624C70.1579 30.5624 69.0055 30.2918 67.9861 29.7506C66.9668 29.2093 66.1782 28.4627 65.6202 27.5107C64.958 26.3627 64.627 24.7121 64.627 22.559V11.8444C64.627 10.7623 64.8667 9.95361 65.3461 9.41847C65.8255 8.88333 66.4618 8.61591 67.2549 8.61621C68.0597 8.61621 68.7087 8.88683 69.2019 9.42807C69.6951 9.96931 69.9418 10.7748 69.9421 11.8444V20.5006C69.9421 21.7553 70.046 22.8082 70.2536 23.6594C70.4612 24.5105 70.8346 25.1775 71.3736 25.6602C71.913 26.142 72.6432 26.3829 73.5642 26.3829C74.4601 26.3829 75.3041 26.112 76.096 25.5701C76.8673 25.0541 77.4705 24.3166 77.8291 23.4514C78.1287 22.6861 78.2785 21.01 78.2785 18.423V11.8444C78.2785 10.7751 78.5253 9.96977 79.0188 9.42853C79.5123 8.88729 80.1548 8.61652 80.9464 8.61621C81.7384 8.61621 82.3746 8.88363 82.8553 9.41847C83.3359 9.95331 83.5756 10.7621 83.5744 11.8449V27.5111C83.5744 28.5415 83.344 29.314 82.8831 29.8287C82.4223 30.3435 81.8284 30.6008 81.1015 30.6008C80.374 30.6008 79.7734 30.3334 79.2997 29.7986C78.8259 29.2637 78.5894 28.5147 78.59 27.5513Z" fill="#FDC214"/>
<path d="M92.8606 31.2758L93.3464 30.0671L86.8034 13.3102C86.401 12.3466 86.2001 11.6467 86.2007 11.2106C86.198 10.7568 86.3192 10.3112 86.5508 9.92335C86.785 9.52639 87.1172 9.19861 87.5144 8.97253C87.901 8.74092 88.3412 8.61788 88.7899 8.61597C89.5561 8.61597 90.1336 8.86358 90.5226 9.3588C90.9115 9.85402 91.2561 10.5638 91.5563 11.4881L96.0562 24.7987L100.321 12.4193C100.658 11.416 100.963 10.6304 101.236 10.0623C101.509 9.49426 101.798 9.11134 102.103 8.91356C102.408 8.71547 102.84 8.61642 103.398 8.61642C103.806 8.61803 104.206 8.7309 104.557 8.94327C104.916 9.15179 105.211 9.45708 105.411 9.82553C105.609 10.1822 105.713 10.5848 105.713 10.9944C105.661 11.2455 105.577 11.6021 105.46 12.0641C105.343 12.5261 105.201 12.9946 105.032 13.4697L98.0985 31.929C97.5013 33.553 96.917 34.827 96.3456 35.751C95.7941 36.657 95.0103 37.3931 94.0786 37.8803C93.1363 38.3765 91.8667 38.6245 90.27 38.6245C88.7119 38.6245 87.5433 38.4528 86.7643 38.1094C85.9852 37.7659 85.5957 37.1389 85.5957 36.2283C85.5957 35.6069 85.7809 35.1281 86.1512 34.792C86.5216 34.4558 87.07 34.2882 87.7967 34.2891C88.0798 34.2887 88.3616 34.3284 88.634 34.4071C88.9207 34.4797 89.2145 34.5197 89.5099 34.5264C90.1208 34.5264 90.5999 34.435 90.9513 34.2485C91.3028 34.062 91.6165 33.7456 91.8952 33.2885C92.1738 32.8314 92.497 32.1598 92.8606 31.2758Z" fill="#FDC214"/>
<path d="M122.187 20.934H111.788C111.801 22.1627 112.044 23.2457 112.518 24.1828C112.993 25.1199 113.622 25.8263 114.406 26.302C115.192 26.778 116.091 27.0248 117.006 27.0156C117.595 27.0215 118.181 26.9446 118.749 26.787C119.29 26.628 119.805 26.3878 120.277 26.0744C120.755 25.7616 121.21 25.4139 121.639 25.0339C122.055 24.6646 122.594 24.1627 123.257 23.5282C123.53 23.2908 123.919 23.1721 124.426 23.1721C124.971 23.1721 125.412 23.3244 125.75 23.6292C126.087 23.9339 126.256 24.3632 126.257 24.9169C126.257 25.4045 126.069 25.9758 125.693 26.6307C125.317 27.2856 124.749 27.9128 123.989 28.5122C123.229 29.1129 122.275 29.6113 121.126 30.0075C119.977 30.4037 118.656 30.6018 117.163 30.6018C113.748 30.6018 111.093 29.6113 109.199 27.6304C107.305 25.6495 106.358 22.9622 106.355 19.5685C106.355 17.971 106.589 16.4889 107.056 15.1221C107.523 13.7552 108.205 12.5833 109.101 11.6063C109.997 10.6296 111.101 9.88033 112.412 9.35859C113.723 8.83686 115.177 8.5763 116.774 8.57691C118.85 8.57691 120.632 9.0226 122.119 9.914C123.606 10.8054 124.72 11.9575 125.459 13.3703C126.199 14.7835 126.569 16.2228 126.569 17.6884C126.569 19.0485 126.186 19.9298 125.42 20.3324C124.653 20.735 123.576 20.9355 122.187 20.934ZM111.788 17.8666H121.427C121.298 16.018 120.808 14.6348 119.958 13.7168C119.107 12.7989 117.987 12.34 116.598 12.34C115.274 12.34 114.187 12.8055 113.336 13.7365C112.485 14.6675 111.969 16.0442 111.788 17.8666Z" fill="#FDC214"/>
<path d="M134.762 11.6083V12.262C135.697 11.0077 136.719 10.0867 137.829 9.49913C138.939 8.91157 140.214 8.61779 141.655 8.61779C143.059 8.61779 144.311 8.92818 145.414 9.54896C146.517 10.1697 147.341 11.0477 147.886 12.1829C148.238 12.8485 148.469 13.5732 148.568 14.3223C148.671 15.0881 148.723 16.0653 148.723 17.2538V27.3143C148.723 28.3968 148.48 29.2153 147.994 29.77C147.507 30.3246 146.874 30.602 146.096 30.602C145.304 30.602 144.661 30.3181 144.168 29.7503C143.675 29.1826 143.428 28.3706 143.426 27.3143V18.302C143.426 16.5189 143.183 15.1555 142.696 14.2117C142.21 13.2678 141.239 12.7962 139.786 12.7968C138.853 12.7918 137.944 13.0942 137.195 13.6585C136.416 14.233 135.845 15.022 135.482 16.0255C135.222 16.8307 135.092 18.336 135.093 20.5415V27.3143C135.093 28.4114 134.843 29.2332 134.343 29.7796C133.843 30.326 133.197 30.6003 132.405 30.6024C131.638 30.6024 131.009 30.3186 130.517 29.7508C130.025 29.183 129.779 28.371 129.777 27.3148V11.686C129.777 10.6563 129.998 9.88723 130.439 9.37891C130.88 8.87058 131.484 8.61626 132.25 8.61596C132.694 8.60975 133.131 8.72602 133.515 8.9524C133.892 9.17701 134.194 9.51376 134.421 9.96266C134.647 10.4116 134.761 10.9601 134.762 11.6083Z" fill="#FDC214"/>
<path d="M116.972 39.1179C116.167 39.1179 115.472 38.8538 114.888 38.3257C114.304 37.7975 114.012 37.0581 114.012 36.1072C114.012 35.3021 114.291 34.6088 114.849 34.0273C115.407 33.4458 116.095 33.1554 116.913 33.156C117.731 33.156 118.429 33.4432 119.007 34.0177C119.585 34.5922 119.873 35.2887 119.873 36.1072C119.873 37.045 119.585 37.7811 119.007 38.3156C118.456 38.84 117.726 39.1274 116.972 39.1179V39.1179Z" fill="#FDC214"/>
<path d="M122.312 20.7396H111.913C111.926 21.9684 112.169 23.0513 112.643 23.9884C113.117 24.9255 113.746 25.6318 114.531 26.1072C115.317 26.5835 116.217 26.8304 117.132 26.8208C117.721 26.8266 118.308 26.7497 118.875 26.5922C119.417 26.4331 119.932 26.1926 120.403 25.8786C120.882 25.5662 121.338 25.2184 121.767 24.8382C122.182 24.4695 122.722 23.9677 123.385 23.3329C123.658 23.0955 124.047 22.9768 124.554 22.9768C125.099 22.9768 125.54 23.1292 125.877 23.4339C126.215 23.7387 126.384 24.1678 126.384 24.7212C126.384 25.2088 126.196 25.78 125.819 26.435C125.443 27.0899 124.875 27.7169 124.115 28.316C123.356 28.917 122.402 29.4157 121.252 29.8122C120.103 30.2087 118.782 30.4068 117.29 30.4065C113.874 30.4065 111.219 29.416 109.325 27.4352C107.431 25.4543 106.483 22.767 106.48 19.3733C106.48 17.7751 106.714 16.2928 107.182 14.9263C107.65 13.5598 108.331 12.3879 109.227 11.4106C110.123 10.4338 111.226 9.68459 112.538 9.16286C113.849 8.64112 115.303 8.38026 116.9 8.38026C118.976 8.38026 120.758 8.82596 122.245 9.71735C123.732 10.6088 124.846 11.7607 125.586 13.1732C126.325 14.5867 126.695 16.026 126.695 17.4913C126.695 18.8514 126.312 19.7327 125.546 20.1353C124.78 20.5379 123.702 20.7393 122.312 20.7396ZM117.754 4.71638L115.808 2.3992L113.86 4.71638C113.315 5.37678 112.945 5.77966 112.75 5.92503C112.555 6.07039 112.192 6.14308 111.659 6.14308H110.102C109.569 6.14308 109.303 6.05074 109.303 5.86606C109.303 5.72099 109.504 5.39095 109.907 4.87592L112.068 2.24149C112.25 2.01689 112.458 1.75618 112.691 1.45935C112.925 1.16252 113.129 0.951328 113.306 0.82577C113.481 0.700517 113.736 0.601321 114.075 0.528637C114.46 0.451569 114.851 0.415111 115.243 0.419841H116.335C117.191 0.419841 117.779 0.52559 118.097 0.737088C118.415 0.948585 118.886 1.45036 119.509 2.24241L121.748 4.91615C122.124 5.41838 122.312 5.71551 122.313 5.80754C122.313 6.03199 122.02 6.14399 121.436 6.14399H119.956C119.567 6.14399 119.258 6.08792 119.031 5.97577C118.782 5.84632 118.56 5.66797 118.379 5.45098C118.171 5.21236 117.963 4.9675 117.754 4.71638ZM111.912 17.6705H121.551C121.421 15.8215 120.931 14.4383 120.081 13.5207C119.231 12.603 118.111 12.1442 116.722 12.1442C115.397 12.1442 114.31 12.6098 113.46 13.5408C112.61 14.4718 112.094 15.8483 111.913 17.6705H111.912Z" fill="#FDC214"/>
<path d="M14.0043 30.7681C21.4614 30.7681 27.5066 24.8619 27.5066 17.5763C27.5066 10.2907 21.4614 4.38452 14.0043 4.38452C6.54716 4.38452 0.501953 10.2907 0.501953 17.5763C0.501953 24.8619 6.54716 30.7681 14.0043 30.7681Z" fill="url(#paint0_linear_3596_22856)"/>
<path d="M1.90779 23.981C1.90779 23.981 5.15865 22.6096 5.71327 19.6213C5.71327 19.6213 5.60226 23.2866 2.8305 25.3167L1.38867 25.825L1.90779 23.981Z" fill="white"/>
<path d="M26.243 23.981C26.243 23.981 22.9921 22.6096 22.4375 19.6213C22.4375 19.6213 22.5485 23.2866 25.3203 25.3167L26.7621 25.825L26.243 23.981Z" fill="white"/>
<path d="M20.3496 6.03923C20.3496 6.03923 22.2063 5.95558 22.7973 4.0105C22.7973 4.0105 23.8832 6.80583 22.6297 8.00534C22.6301 8.00534 20.5258 7.11851 20.3496 6.03923Z" fill="#8DC1E6"/>
<path d="M8.41156 5.98083C8.41156 5.98083 6.10409 6.07729 5.93959 3.98364C5.93959 3.98364 4.34719 6.28299 5.66408 7.97848C5.66183 7.97802 7.66952 8.5508 8.41156 5.98083Z" fill="#8DC1E6"/>
<path d="M7.82031 2.25179L13.2213 0.553103C13.2213 0.553103 14.0384 0.227628 14.8915 0.553103L20.577 2.43235C20.577 2.43235 17.6632 4.09493 16.5971 3.73334C16.5971 3.73334 14.0043 2.61292 11.5867 3.78454C11.5867 3.78499 8.95742 3.55414 7.82031 2.25179Z" fill="#3A3B3A"/>
<path d="M20.2342 2.52866V3.25732L20.0117 3.35926V4.61636H20.5434V3.36658L20.3209 3.25732L20.3254 2.49072L20.2342 2.52866Z" fill="#C92027"/>
<path d="M20.8169 17.9297C23.145 17.9297 25.0323 15.9641 25.0323 13.5394C25.0323 11.1148 23.145 9.14917 20.8169 9.14917C18.4889 9.14917 16.6016 11.1148 16.6016 13.5394C16.6016 15.9641 18.4889 17.9297 20.8169 17.9297Z" fill="white"/>
<path d="M7.58062 17.9985C9.90871 17.9985 11.796 16.0329 11.796 13.6083C11.796 11.1836 9.90871 9.21802 7.58062 9.21802C5.25253 9.21802 3.36523 11.1836 3.36523 13.6083C3.36523 16.0329 5.25253 17.9985 7.58062 17.9985Z" fill="white"/>
<path d="M7.58095 16.5724C9.19838 16.5724 10.5096 15.2145 10.5096 13.5394C10.5096 11.8643 9.19838 10.5063 7.58095 10.5063C5.96353 10.5063 4.65234 11.8643 4.65234 13.5394C4.65234 15.2145 5.96353 16.5724 7.58095 16.5724Z" fill="#3A3B3A"/>
<path d="M20.8388 16.5046C22.4562 16.5046 23.7674 15.1466 23.7674 13.4715C23.7674 11.7964 22.4562 10.4385 20.8388 10.4385C19.2213 10.4385 17.9102 11.7964 17.9102 13.4715C17.9102 15.1466 19.2213 16.5046 20.8388 16.5046Z" fill="#3A3B3A"/>
<path d="M8.75448 12.4363C9.28766 12.4363 9.71989 12.0043 9.71989 11.4713C9.71989 10.9384 9.28766 10.5063 8.75448 10.5063C8.22129 10.5063 7.78906 10.9384 7.78906 11.4713C7.78906 12.0043 8.22129 12.4363 8.75448 12.4363Z" fill="white"/>
<path d="M21.8033 12.3685C22.3365 12.3685 22.7687 11.9364 22.7687 11.4035C22.7687 10.8705 22.3365 10.4385 21.8033 10.4385C21.2701 10.4385 20.8379 10.8705 20.8379 11.4035C20.8379 11.9364 21.2701 12.3685 21.8033 12.3685Z" fill="white"/>
<path opacity="0.35" d="M14.033 12.2876C14.033 12.2876 16.3593 12.2876 15.8609 14.9709C15.8609 14.9709 15.1548 19.326 14.3655 19.0622C14.3655 19.0622 13.6177 19.4142 12.6208 15.2352C12.6208 15.2352 11.9561 12.7717 14.033 12.2876Z" fill="#010101"/>
<path d="M13.994 12.6455C13.994 12.6455 16.3729 12.6455 15.8632 14.4708C15.8632 14.4708 15.141 17.433 14.3351 17.2534C14.3351 17.2534 13.571 17.4929 12.5508 14.6505C12.5472 14.65 11.8699 12.9746 13.994 12.6455Z" fill="#F39120"/>
<path d="M13.994 12.1047C13.994 12.1047 16.3729 12.1047 15.8632 13.8121C15.8632 13.8121 15.141 16.5828 14.3351 16.415C14.3351 16.415 13.571 16.639 12.5508 13.9803C12.5472 13.9799 11.8699 12.4124 13.994 12.1047Z" fill="#FDC20F"/>
<path d="M14.2245 13.3403C14.5966 13.3403 14.8982 13.215 14.8982 13.0605C14.8982 12.906 14.5966 12.7808 14.2245 12.7808C13.8524 12.7808 13.5508 12.906 13.5508 13.0605C13.5508 13.215 13.8524 13.3403 14.2245 13.3403Z" fill="white"/>
<defs>
<linearGradient id="paint0_linear_3596_22856" x1="14.0043" y1="4.38452" x2="14.0043" y2="30.7681" gradientUnits="userSpaceOnUse">
<stop stop-color="#8EC1E5"/>
<stop offset="0.23" stop-color="#87BADE"/>
<stop offset="0.57" stop-color="#72A6CB"/>
<stop offset="0.97" stop-color="#5187AC"/>
<stop offset="0.99" stop-color="#4F85AB"/>
</linearGradient>
</defs>
</svg>
