                        <svg width="107" height="30" viewBox="0 0 107 30" fill="none" xmlns="http://www.w3.org/2000/svg">
                            <g clip-path="url(#clip0_283_1512)">
                            <path d="M19.2264 20.1989C19.2264 21.6462 18.9283 22.9539 18.3199 24.16C17.7238 25.3534 16.929 26.3944 15.9604 27.2704C14.9794 28.1464 13.8742 28.8193 12.6324 29.3017C11.3906 29.7715 10.124 30.0127 8.83251 30.0127C7.54104 30.0127 6.37374 29.7715 5.34305 29.2763C4.31236 28.7812 3.43068 28.121 2.71044 27.2704C1.99019 26.4325 1.4438 25.4422 1.07126 24.2996C0.698721 23.1697 0.512451 21.9509 0.512451 20.6686C0.512451 20.0592 0.574541 19.3864 0.711139 18.6627C0.847737 17.9391 1.05884 17.2662 1.36929 16.6314C1.66732 16.0093 2.0647 15.4761 2.56142 15.0444C3.05814 14.6128 3.67904 14.397 4.42412 14.397C4.78424 14.397 5.09469 14.5239 5.36789 14.7905C5.64108 15.0571 5.77768 15.3872 5.77768 15.7808C5.77768 16.3013 5.64108 16.6187 5.36789 16.7203C5.09469 16.8218 4.80908 16.9742 4.48621 17.1519C4.17576 17.3297 3.87773 17.6598 3.60453 18.1168C3.33134 18.5738 3.19474 19.4245 3.19474 20.6432C3.19474 21.5319 3.31892 22.3826 3.55486 23.1697C3.7908 23.9695 4.15092 24.6678 4.63523 25.2645C5.11953 25.8612 5.72801 26.3436 6.46067 26.6864C7.19333 27.0419 8.03776 27.2196 9.00636 27.2196C9.9998 27.2196 10.807 27.0419 11.4403 26.6864C12.0736 26.3309 12.5703 25.8866 12.9429 25.3534C13.3154 24.8201 13.5762 24.2234 13.7252 23.576C13.8742 22.9285 13.9487 22.3064 13.9487 21.6843C13.9487 20.0846 13.5638 18.7643 12.8063 17.7232C12.0364 16.6822 11.1298 15.7808 10.0867 15.0063C9.27956 14.397 8.42271 13.8129 7.5162 13.2797C6.60969 12.7465 5.80252 12.1625 5.05744 11.5531C4.33719 10.9818 3.72871 10.2962 3.24441 9.54718C2.76011 8.79814 2.52417 7.89674 2.52417 6.85569C2.52417 5.77655 2.78494 4.81168 3.29408 3.96107C3.80322 3.09776 4.46137 2.3868 5.28096 1.80279C6.07571 1.21879 6.96981 0.761743 7.95083 0.457046C8.91943 0.152349 9.8632 0 10.7573 0C12.4958 0 13.9363 0.545916 15.0539 1.63775C16.184 2.72958 16.7428 4.26576 16.7428 6.25899C16.7428 6.56369 16.7179 6.96995 16.6807 7.45239C16.631 7.94752 16.5317 8.41726 16.3826 8.87431C16.2336 9.33136 16.0349 9.73762 15.7742 10.0677C15.5134 10.4105 15.1781 10.5755 14.7559 10.5755C14.3958 10.5755 14.0853 10.4359 13.8121 10.1566C13.5389 9.87727 13.4023 9.55988 13.4023 9.1917C13.4023 8.76005 13.5017 8.303 13.7128 7.80787C13.9239 7.31274 14.0232 6.77952 14.0232 6.19551C14.0232 5.00212 13.7252 4.12611 13.1167 3.5675C12.5455 3.03428 11.7632 2.76767 10.807 2.76767C10.2109 2.76767 9.71419 2.86923 9.31681 3.07237C8.93185 3.2755 8.6214 3.52941 8.39788 3.83411C8.17435 4.13881 8.02534 4.46889 7.95083 4.82438C7.87632 5.17986 7.83907 5.49725 7.83907 5.76386C7.83907 6.43673 8.0005 7.04613 8.31095 7.57935C8.6214 8.11257 9.04361 8.6204 9.55275 9.07744C10.0619 9.52179 10.6455 9.96614 11.3037 10.3978C11.9618 10.8295 12.6448 11.2611 13.3278 11.6928C14.0481 12.1498 14.7559 12.6576 15.4637 13.1909C16.1715 13.7241 16.8049 14.3335 17.3512 15.0063C17.9101 15.6792 18.3571 16.441 18.7048 17.2789C19.0525 18.1295 19.2264 19.0944 19.2264 20.1989Z" fill="#00ACFF"/>
                            <path d="M30.0796 20.0592C29.7444 20.0592 29.4587 19.945 29.2228 19.7165C28.9869 19.4879 28.8378 19.2086 28.7757 18.8658C28.7137 18.3453 28.5274 18.0406 28.2169 17.9391C27.9065 17.8502 27.6705 17.7994 27.5215 17.7994C27.1614 17.7994 26.8634 18.0533 26.6399 18.5611C26.4163 19.069 26.2301 19.653 26.1059 20.3132C25.9693 20.9733 25.8699 21.6208 25.8078 22.2683C25.7458 22.9158 25.7209 23.3728 25.7209 23.6521C25.7209 23.9314 25.7458 24.2742 25.783 24.6932C25.8327 25.1121 25.9072 25.493 26.0065 25.8612C26.1059 26.2294 26.2673 26.5468 26.4784 26.8261C26.6895 27.1054 26.9627 27.245 27.2856 27.245C27.7326 27.245 28.1673 27.08 28.5895 26.7372C29.0117 26.3944 29.3718 25.9881 29.6698 25.493C29.9679 24.9979 30.2162 24.4774 30.3901 23.9314C30.5639 23.3855 30.6633 22.9031 30.6633 22.5095C30.6633 22.1413 30.7999 21.824 31.0731 21.5446C31.3463 21.2653 31.6567 21.1257 32.0168 21.1257C32.4018 21.1257 32.7247 21.2653 32.9855 21.5446C33.2462 21.824 33.3704 22.1413 33.3704 22.5095C33.3704 23.3347 33.209 24.1854 32.8985 25.0614C32.5881 25.9374 32.1534 26.7372 31.6195 27.4735C31.0855 28.2099 30.4398 28.8193 29.7071 29.289C28.9744 29.7588 28.1673 30 27.298 30C25.2863 30 23.6719 29.3906 22.4426 28.1591C21.2132 26.9276 20.5923 25.2899 20.5923 23.2332C20.5923 22.2556 20.7537 21.2653 21.0642 20.2878C21.3746 19.3102 21.8341 18.4342 22.4426 17.6598C23.0386 16.898 23.7589 16.2632 24.6033 15.7681C25.4477 15.273 26.3915 15.0317 27.4346 15.0317C27.9437 15.0317 28.4405 15.1206 28.9248 15.2857C29.4091 15.4507 29.8437 15.7046 30.2287 16.022C30.6136 16.3394 30.9241 16.733 31.1476 17.1773C31.3711 17.6217 31.4829 18.1168 31.4829 18.6754C31.4829 19.0436 31.3463 19.361 31.0731 19.6403C30.7999 19.9323 30.4646 20.0592 30.0796 20.0592Z" fill="#00ACFF"/>
                            <path d="M40.4735 2.52645C40.4735 2.76767 40.4735 3.04697 40.4735 3.35167C40.4735 3.65637 40.4611 4.01185 40.4238 4.40541C40.3617 5.26872 40.2996 6.24629 40.25 7.35082C40.1879 8.45535 40.1258 9.62336 40.0637 10.8421C39.9395 12.5942 39.8278 14.3969 39.7284 16.2759C39.6291 18.1422 39.5422 19.9069 39.4801 21.57C39.4801 21.9382 39.4676 22.281 39.4552 22.6111C39.4428 22.9285 39.4304 23.2332 39.4304 23.5125C39.6663 22.7507 39.9271 21.9763 40.2003 21.1892C40.4735 20.402 40.7715 19.6784 41.1068 19.0055C41.4669 18.2691 41.9388 17.5582 42.5225 16.8853C43.1061 16.2124 43.8512 15.8697 44.7453 15.8697C45.8008 15.8697 46.7073 16.0601 47.4897 16.441C48.272 16.8218 48.9177 17.3424 49.4517 18.0025C49.9733 18.6627 50.3706 19.4245 50.6438 20.3005C50.917 21.1765 51.0536 22.1033 51.0536 23.0808C51.0536 23.7283 50.9667 24.452 50.8053 25.2645C50.6438 26.077 50.3831 26.8261 50.0229 27.5243C49.6628 28.2099 49.2034 28.7939 48.6445 29.2763C48.0857 29.7461 47.4276 29.9873 46.6452 29.9873C46.2603 29.9873 45.9374 29.8476 45.6766 29.5683C45.4159 29.289 45.2917 28.9716 45.2917 28.6035C45.2917 28.4257 45.3041 28.2861 45.3414 28.1845C45.5152 27.6386 45.6518 26.9784 45.7511 26.204C45.8381 25.4422 45.8877 24.6551 45.8877 23.8553C45.8877 23.5506 45.8753 23.1316 45.8381 22.5857C45.8132 22.0525 45.7512 21.5066 45.6642 20.9479C45.5773 20.402 45.4531 19.8942 45.3041 19.4498C45.1551 19.0055 44.9688 18.7262 44.7577 18.5992C44.7329 18.5992 44.5963 18.6881 44.3727 18.8531C44.1492 19.0182 43.8636 19.4752 43.5407 20.2116C43.2055 20.8591 42.9074 21.5827 42.6466 22.3953C42.3735 23.2078 42.1251 24.0076 41.8767 24.8074C41.7029 25.3914 41.529 25.9374 41.3552 26.4452C41.1937 26.953 41.0199 27.4228 40.8336 27.8544C40.7715 28.0068 40.6846 28.2099 40.5604 28.4511C40.4362 28.6923 40.2996 28.9209 40.1382 29.1367C39.9768 29.3525 39.7657 29.5303 39.5049 29.6826C39.2441 29.835 38.9585 29.9111 38.6232 29.9111C38.2879 29.9111 37.9154 29.8096 37.4808 29.5937C37.0461 29.3779 36.6363 28.9082 36.239 28.1718C35.8788 27.4608 35.5808 26.5848 35.3573 25.5311C35.1338 24.4774 34.9723 23.3855 34.8606 22.2683C34.7612 21.1511 34.6867 20.0465 34.637 18.9547C34.5874 17.8629 34.575 16.9361 34.575 16.1744C34.575 15.7173 34.5874 14.9936 34.5998 14.0161C34.6122 13.0385 34.6619 11.9467 34.7612 10.7533C34.8481 9.55988 34.9847 8.32839 35.171 7.07152C35.3449 5.81464 35.6056 4.65933 35.9409 3.61828C36.2762 2.57723 36.686 1.72662 37.1827 1.06644C37.6795 0.406261 38.2879 0.0761719 39.0082 0.0761719C39.6415 0.0761719 40.0389 0.317391 40.2251 0.787133C40.399 1.25687 40.4983 1.7647 40.4983 2.28523V2.52645H40.4735Z" fill="#00ACFF"/>
                            <path d="M80.6208 13.394C80.6208 11.7308 80.6705 10.1693 80.7574 8.69657C80.8444 7.22387 80.9686 5.95429 81.1176 4.87516C81.1797 4.48159 81.2666 3.99915 81.3908 3.45323C81.5149 2.89462 81.6764 2.3741 81.8875 1.89166C82.0986 1.39653 82.3718 0.977568 82.7195 0.622088C83.0672 0.266607 83.5018 0.0888672 84.0482 0.0888672C84.5573 0.0888672 84.9299 0.304695 85.1782 0.736349C85.3024 0.91409 85.3893 1.54888 85.4763 2.62801C85.5508 3.70715 85.6129 5.01481 85.675 6.58908C85.737 8.15065 85.7743 9.83919 85.8116 11.6547C85.8364 13.4702 85.8612 15.1968 85.8736 16.8345C85.8861 18.4723 85.8985 19.9196 85.9233 21.1638C85.9357 22.408 85.9481 23.2332 85.9481 23.6267C85.9481 24.2361 85.9481 24.8455 85.9481 25.4422C85.9481 26.0389 85.9357 26.6483 85.8985 27.2577C85.8736 27.9306 85.8364 28.4003 85.7867 28.6669C85.737 28.9336 85.675 29.1367 85.588 29.289C85.29 29.7842 84.8802 30.0254 84.3711 30.0254C84.1972 30.0254 83.9489 29.9746 83.6508 29.8603C83.3528 29.7588 83.0548 29.5049 82.7443 29.0986C82.26 28.4511 81.8875 27.4228 81.6019 26.0135C81.3163 24.6043 81.1051 23.1062 80.9686 21.5319C80.832 19.9577 80.745 18.4088 80.6954 16.9107C80.6457 15.3872 80.6208 14.2192 80.6208 13.394Z" fill="#00ACFF"/>
                            <path d="M57.3496 15.6157C57.3496 15.6157 52.3824 17.2535 52.7177 23.4998C53.0405 28.3368 57.5358 29.8476 58.728 29.9873C59.9201 30.1269 58.3678 28.7431 57.7469 28.1972C57.1136 27.6513 55.847 25.4676 55.8718 24.0965C56.1947 25.6707 57.5358 28.9082 62.59 29.1875C63.3971 29.2509 63.5462 28.5273 62.888 28.248C62.2298 27.9687 56.7411 26.5341 57.9456 20.9479C58.2933 19.3102 60.3175 17.7994 62.0312 19.234C63.7448 20.6686 62.5403 24.49 62.056 25.2772C61.5717 26.0643 62.9625 25.9501 63.6952 25.1248C64.4278 24.2996 66.0918 21.3796 64.4775 17.9771C62.8756 14.5747 58.9267 14.9556 57.3496 15.6157Z" fill="#EC5F93"/>
                            <path d="M63.0743 15.3873C64.1236 15.3873 64.9742 14.5177 64.9742 13.4449C64.9742 12.3721 64.1236 11.5024 63.0743 11.5024C62.025 11.5024 61.1743 12.3721 61.1743 13.4449C61.1743 14.5177 62.025 15.3873 63.0743 15.3873Z" fill="#EC5F93"/>
                            <path d="M75.0452 15.2348C75.0452 15.2348 79.9751 16.9995 79.4908 23.2331C79.0562 28.0575 74.5236 29.4667 73.3315 29.5683C72.1394 29.6698 73.7165 28.3241 74.3622 27.8035C75.0079 27.283 76.3242 25.1247 76.3367 23.7536C75.9765 25.3279 74.5485 28.5272 69.4943 28.6796C68.6748 28.7176 68.5506 27.994 69.2211 27.7401C69.8917 27.4862 75.4053 26.1912 74.3374 20.567C74.0393 18.9165 72.04 17.355 70.2891 18.7515C68.5382 20.148 69.6558 23.9948 70.1152 24.782C70.5747 25.5818 69.1963 25.4294 68.4885 24.5915C67.7807 23.7536 66.1912 20.7828 67.88 17.4184C69.5688 14.0541 73.4805 14.5365 75.0452 15.2348Z" fill="#00ACFF"/>
                            <path d="M68.5381 15.3109C69.5875 15.3109 70.4381 14.4413 70.4381 13.3685C70.4381 12.2957 69.5875 11.426 68.5381 11.426C67.4888 11.426 66.6382 12.2957 66.6382 13.3685C66.6382 14.4413 67.4888 15.3109 68.5381 15.3109Z" fill="#00ACFF"/>
                            <path d="M97.3258 2.85654C97.5245 3.2501 97.6238 3.63098 97.6238 4.02454C97.6238 4.71011 97.5369 5.68768 97.3631 6.93186C97.1892 8.18874 97.0154 9.43292 96.8415 10.6898C96.5683 12.3275 96.1585 13.5717 95.6121 14.4223C94.9043 15.5523 93.8984 16.1109 92.607 16.1109C91.5018 16.1109 90.5704 15.0952 89.8129 13.0766C89.2044 11.4515 88.894 9.95345 88.894 8.56961C88.894 7.98561 88.9933 7.09691 89.192 5.90351C89.3907 4.71011 89.4901 3.82141 89.4776 3.19932V2.46297C89.4776 2.20905 89.279 2.00592 89.0306 2.00592H88.596C88.3476 2.00592 88.1489 1.80279 88.1489 1.54888V0.571306C88.1489 0.317392 88.3476 0.11426 88.596 0.11426C89.0058 0.11426 89.5522 0.101565 90.2103 0.0761731C90.8685 0.0634774 91.4024 0.0507817 91.8122 0.0380859C92.0606 0.0380859 92.2717 0.241218 92.2717 0.495132V1.46001C92.2717 1.71392 92.073 1.91705 91.8246 1.91705H91.775C91.5266 1.91705 91.3279 2.12019 91.3279 2.3741V2.79306C91.3403 3.46593 91.2534 4.43081 91.0547 5.67499C90.8436 6.95726 90.7443 7.92213 90.7443 8.54422C90.7443 9.43292 90.9181 10.4232 91.2534 11.5277C91.6384 12.683 92.0854 13.5844 92.607 14.2065C93.7618 14.2065 94.6311 12.7592 95.2148 9.85188C95.6121 7.88404 95.7984 5.9416 95.7984 3.99915L95.4631 3.2628L94.7801 3.59289C94.5566 3.70715 94.2958 3.60558 94.1841 3.37706L93.7743 2.52645C93.6625 2.28523 93.7618 2.00592 93.9978 1.90436C94.8546 1.53618 95.9847 1.21879 97.3506 0.939482C97.599 0.8887 97.8349 1.05374 97.8846 1.30766L98.046 2.23445C98.0957 2.48836 97.9343 2.72958 97.6859 2.76767L97.3258 2.85654Z" fill="#EC5F93"/>
                            <path d="M101.511 6.08135C102.007 5.84013 102.529 5.72587 103.075 5.72587C104.205 5.72587 105.099 6.24639 105.795 7.28744C106.391 8.20153 106.689 9.26798 106.689 10.4741C106.689 11.4389 106.403 12.3149 105.832 13.1021C105.199 13.9654 104.429 14.397 103.522 14.397C102.38 14.397 101.498 14.1812 100.865 13.7623L101.486 17.6979L102.368 18.0026C102.603 18.0788 102.715 18.3454 102.641 18.5739L102.256 19.6785C102.181 19.907 101.933 20.0213 101.709 19.9451L100.84 19.6658C100.728 19.6277 100.455 19.7673 100.021 20.072C99.8218 20.2117 99.5486 20.1609 99.412 19.9578L98.7911 19.0056C98.6545 18.8025 98.7166 18.5232 98.9153 18.3835L99.499 17.9899C99.4617 17.571 99.3127 16.5934 99.0395 15.0445C98.8284 13.8257 98.7291 12.8482 98.7291 12.0864C98.7291 11.6929 98.7911 11.1216 98.9277 10.3598C99.0519 9.59806 99.1264 9.02676 99.1264 8.63319C99.1264 8.3031 99.0892 8.0111 99.0147 7.73179L98.1578 7.82066C97.9095 7.84605 97.6984 7.65562 97.6859 7.4144L97.599 6.2337C97.5866 5.99248 97.7604 5.78935 97.984 5.76396C98.5055 5.70048 98.8781 5.59891 99.1264 5.45926C99.3127 5.35769 99.6107 5.10378 100.033 4.69751C100.207 4.53247 100.48 4.53247 100.641 4.69751L101.747 5.84013L101.511 6.08135ZM100.89 10.4487C101.275 11.1977 101.598 11.6802 101.858 11.896C102.219 12.188 102.765 12.3276 103.51 12.3276C103.845 12.3276 104.118 12.0991 104.354 11.6294C104.566 11.2104 104.665 10.8295 104.665 10.4614C104.665 9.83928 104.553 9.26798 104.317 8.76015C104.019 8.11266 103.609 7.78258 103.075 7.78258C102.467 7.78258 101.809 8.20153 101.113 9.05215C101.088 9.22989 101.014 9.68693 100.89 10.4487Z" fill="#EC5F93"/>
                            </g>
                            <defs>
                            <clipPath id="clip0_283_1512">
                            <rect width="106" height="30" fill="white" transform="translate(0.5)"/>
                            </clipPath>
                            </defs>
                        </svg>