<!-- <svg width="64" height="63" viewBox="0 0 64 63" fill="none" xmlns="http://www.w3.org/2000/svg">
<path d="M38.5857 0.140822L19.5606 0.145015C8.65178 0.0776426 0.0472338 5.31877 -0.000159291 16.4661L-0.000244575 59.466C-0.00386944 62.653 2.74311 63.705 4.05119 60.8584C7.17344 54.1101 14.6789 47.4206 40.9998 47.466C53.9519 47.446 63.0359 37.1128 63.0666 23.9336C63.1117 10.6848 51.4685 0.10653 38.5857 0.140822Z" fill="#11EE92"/>
</svg> -->
<svg width="29" height="29" viewBox="0 0 29 29" fill="none" xmlns="http://www.w3.org/2000/svg">
<path d="M17.7207 0.51885L9.22517 0.520722C4.3539 0.490637 0.021142 1.52228 -2.09824e-05 6.50002L-2.1066e-05 27.6319C-0.0016401 29.055 1.71543 28.903 2.29954 27.6319C3.69376 24.6184 7.24663 21.9797 19 22C24.7837 21.9911 28.6387 17.0284 28.6525 11.1433C28.6726 5.2272 23.4734 0.503538 17.7207 0.51885Z" fill="#11EE92"/>
</svg>
