<svg width="46" height="46" viewBox="0 0 46 46" fill="none" xmlns="http://www.w3.org/2000/svg">
<path d="M22.7701 0C10.189 0 0 10.189 0 22.7701C0 35.3512 10.189 45.5402 22.7701 45.5402C35.3512 45.5402 45.5402 35.3512 45.5402 22.7701C45.5402 10.189 35.3383 0 22.7701 0ZM17.3911 8.61152H17.4299C17.7661 8.52101 18.1282 8.5598 18.4256 8.74083C19.9643 9.68473 21.4124 10.745 22.7701 11.9087C24.1278 10.7321 25.5889 9.6718 27.1147 8.74083C27.4121 8.5598 27.7741 8.50808 28.1103 8.59859H28.1491C29.2352 8.89599 29.455 10.3571 28.4982 10.939C27.1535 11.7665 25.8734 12.6845 24.6708 13.706C24.0114 14.262 23.3778 14.8439 22.7701 15.4516C22.1624 14.8439 21.5288 14.262 20.8694 13.706C19.6669 12.6845 18.3868 11.7665 17.042 10.939C16.0852 10.3571 16.2921 8.88306 17.3911 8.61152ZM11.0683 11.5596C11.0683 11.5596 11.0812 11.5596 11.0941 11.5467C11.4562 11.2881 11.9475 11.2364 12.3613 11.4174C14.818 12.4906 17.0937 13.9129 19.1238 15.6197C19.7832 16.1757 20.4297 16.7705 21.0375 17.3782C21.6452 17.9989 22.227 18.6454 22.783 19.3177C23.339 18.6454 23.9209 17.9989 24.5286 17.3782C25.1363 16.7576 25.7699 16.1757 26.4423 15.6197C28.4723 13.9129 30.7481 12.4906 33.2048 11.4174C33.6186 11.2364 34.097 11.2751 34.472 11.5467C34.472 11.5467 34.4849 11.5467 34.4978 11.5596C35.3124 12.1415 35.1831 13.3828 34.278 13.7836C32.0152 14.7792 29.9205 16.0852 28.0586 17.6627C27.3862 18.2316 26.7526 18.8264 26.1449 19.46C25.5242 20.1065 24.9424 20.7789 24.3864 21.49C23.8175 22.227 23.2873 22.9899 22.796 23.7787C22.3046 22.9899 21.7745 22.2141 21.2056 21.49C20.6625 20.7789 20.0677 20.1065 19.447 19.46C18.8393 18.8264 18.2057 18.2316 17.5334 17.6627C15.6714 16.0852 13.5767 14.7663 11.3139 13.7836C10.3959 13.3828 10.2795 12.1415 11.0941 11.5596H11.0683ZM18.2963 36.9675H16.4731C16.2662 36.9675 16.0852 36.7994 16.0852 36.5796C16.0335 34.3814 15.4904 32.2997 14.5853 30.4377C14.0681 29.3774 13.4216 28.3818 12.6716 27.4767C10.7062 25.0975 8.02966 23.352 4.95227 22.5374C4.22818 22.3434 3.81441 21.5805 4.06009 20.8694V20.8435C4.2799 20.2229 4.97813 19.8608 5.61171 20.0289C8.70203 20.8435 11.4562 22.4727 13.6414 24.6838C14.3396 25.3949 14.9861 26.1578 15.555 26.9854C16.2403 27.981 16.8351 29.0413 17.3136 30.1662C18.154 32.1445 18.6324 34.3039 18.6842 36.5666C18.6842 36.7865 18.5161 36.9546 18.2963 36.9546V36.9675ZM24.2442 36.5925C24.2442 36.7994 24.0631 36.9804 23.8562 36.9804H21.671C21.4642 36.9804 21.2831 36.8123 21.2831 36.5925C21.2443 34.2909 20.8047 32.0799 20.0418 30.024C19.6151 28.8602 19.0721 27.7353 18.4385 26.688C17.9213 25.8087 17.3265 24.9812 16.68 24.2054C16.0852 23.4942 15.4516 22.8218 14.7663 22.1882C12.6458 20.2487 10.1244 18.7488 7.3185 17.8437C6.49097 17.5722 6.18064 16.5636 6.69785 15.8654V15.8395C7.04697 15.387 7.62883 15.2059 8.15897 15.374C11.0941 16.3309 13.7707 17.8696 16.0593 19.8479C16.7317 20.4297 17.3653 21.0633 17.973 21.7228C18.6066 22.4081 19.1884 23.1451 19.7315 23.908C20.3263 24.7484 20.8564 25.6148 21.3349 26.5328C21.9038 27.6189 22.3822 28.7568 22.7701 29.9464C23.158 28.7697 23.6364 27.6319 24.2054 26.5328C24.6838 25.6148 25.2139 24.7484 25.8087 23.908C26.3518 23.1451 26.9336 22.4081 27.5672 21.7228C28.162 21.0633 28.8085 20.4427 29.4809 19.8479C31.7566 17.8696 34.4332 16.3309 37.3812 15.374C37.9114 15.2059 38.4932 15.374 38.8294 15.8395V15.8654C39.3596 16.5636 39.0492 17.5722 38.2217 17.8437C35.4288 18.7488 32.8945 20.2487 30.7739 22.1882C30.0886 22.8089 29.455 23.4813 28.8602 24.2054C28.2137 24.9812 27.6319 25.8216 27.1017 26.688C26.4681 27.7482 25.938 28.8602 25.4984 30.024C24.7355 32.0799 24.3088 34.2909 24.2571 36.5925H24.2442ZM40.5621 22.5503C37.4976 23.352 34.8081 25.1105 32.8427 27.4896C32.0928 28.3948 31.4463 29.3904 30.9291 30.4507C30.011 32.3126 29.4809 34.3944 29.4292 36.5925C29.4292 36.7994 29.2481 36.9804 29.0413 36.9804H27.2181C26.9983 36.9804 26.8302 36.7994 26.8302 36.5925C26.8819 34.3297 27.3603 32.1704 28.2008 30.1921C28.6792 29.0671 29.274 28.0068 29.9593 27.0112C30.5282 26.1966 31.1747 25.4208 31.873 24.7096C34.0453 22.4986 36.8123 20.8694 39.9026 20.0548C40.5362 19.8867 41.2345 20.2487 41.4413 20.8694V20.8952C41.6999 21.6064 41.2862 22.3822 40.5621 22.5632V22.5503Z" fill="white"/>
</svg>
