<svg xmlns="http://www.w3.org/2000/svg" xmlns:xlink="http://www.w3.org/1999/xlink" width="16" height="16" viewBox="0 0 16 16">
  <defs>
    <clipPath id="clip-path">
      <rect id="Rectangle_2" data-name="Rectangle 2" width="16" height="16" transform="translate(375 12)" fill="#fd4980" stroke="#707070" stroke-width="1"/>
    </clipPath>
  </defs>
  <g id="Mask_Group_2" data-name="Mask Group 2" transform="translate(-375 -12)" clip-path="url(#clip-path)">
    <g id="phone_6_" data-name="phone (6)" transform="translate(375 12)">
      <g id="Group_2" data-name="Group 2">
        <path id="Path_2" data-name="Path 2" d="M12.719,0H3.281A3.285,3.285,0,0,0,0,3.281v9.438A3.285,3.285,0,0,0,3.281,16h9.438A3.285,3.285,0,0,0,16,12.719V3.281A3.285,3.285,0,0,0,12.719,0Zm-.49,11.559-.251.418c-.976.976-3.549-.013-5.745-2.21S3.046,5,4.023,4.023l.418-.251a.8.8,0,0,1,1.1.275l.592.987a.8.8,0,0,1-.12.978.937.937,0,0,0,0,1.326L8.663,9.989a.937.937,0,0,0,1.326,0,.8.8,0,0,1,.978-.12l.987.592A.8.8,0,0,1,12.229,11.559Z" fill="#fd4980"/>
      </g>
    </g>
  </g>
</svg>
