<svg width="40" height="40" viewBox="0 0 40 40" fill="none" xmlns="http://www.w3.org/2000/svg">
<path fill-rule="evenodd" clip-rule="evenodd" d="M8 12.9231C8 12.4133 8.41327 12 8.92308 12H31.0769C31.5868 12 32 12.4133 32 12.9231C32 13.4329 31.5868 13.8462 31.0769 13.8462H8.92308C8.41327 13.8462 8 13.4329 8 12.9231Z" fill="white"/>
<path fill-rule="evenodd" clip-rule="evenodd" d="M8 27.6924C8 27.1825 8.41327 26.7693 8.92308 26.7693H31.0769C31.5868 26.7693 32 27.1825 32 27.6924C32 28.2022 31.5868 28.6154 31.0769 28.6154H8.92308C8.41327 28.6154 8 28.2022 8 27.6924Z" fill="white"/>
<path fill-rule="evenodd" clip-rule="evenodd" d="M12.9219 20.3078C12.9219 19.798 13.3351 19.3848 13.845 19.3848H31.0757C31.5855 19.3848 31.9988 19.798 31.9988 20.3078C31.9988 20.8177 31.5855 21.2309 31.0757 21.2309H13.845C13.3351 21.2309 12.9219 20.8177 12.9219 20.3078Z" fill="white"/>
</svg>
