<svg xmlns="http://www.w3.org/2000/svg" viewBox="0 0 139 51.69"><g id="Layer_2" data-name="Layer 2"><g id="Layer_1-2" data-name="Layer 1"><path d="M11.39,29.63V25.12H25.9V16.78H11.39v-4H27.91V4H0V38.35H28.55V29.63Z" style="fill:#231f20"></path><path d="M53.08,4V19.62L40,4H30.53V38.35H41.8V22.76L54.85,38.35h9.51V4Z" style="fill:#231f20"></path><path d="M95,21.19c0-.31,0-.62,0-.93H89.77v8.68a10.79,10.79,0,0,1-4.21.83,7.8,7.8,0,0,1-6-2.35,8.65,8.65,0,0,1-2.23-6.22,8.61,8.61,0,0,1,2.25-6.28,8.1,8.1,0,0,1,6.08-2.31,9.83,9.83,0,0,1,7.7,3.78l2.84-2.51a22.6,22.6,0,0,1,2.93-5.75,17.07,17.07,0,0,0-5-3.19,23,23,0,0,0-9-1.69,21.69,21.69,0,0,0-10,2.28,17,17,0,0,0-6.91,6.37,17.62,17.62,0,0,0-2.47,9.3,17.63,17.63,0,0,0,2.47,9.29A17.16,17.16,0,0,0,75,36.86a21,21,0,0,0,9.86,2.28A29.2,29.2,0,0,0,92.76,38a23.37,23.37,0,0,0,6.87-3.11A22.71,22.71,0,0,1,95,21.19Z" style="fill:#231f20"></path><path d="M138.19,15.39a21.38,21.38,0,0,0-1.51-3.85c-.24-.45-.49-.9-.75-1.34a23.53,23.53,0,0,0-1.45-2.09,22,22,0,0,0-1.69-1.9,21.33,21.33,0,0,0-6.74-4.55c-.48-.2-1-.38-1.45-.55a21.24,21.24,0,0,0-23.15,6.6c-.21.25-.41.5-.61.76s-.38.53-.56.8l-.3.44c-.19.3-.37.6-.55.91s-.18.31-.26.47l-.23.41-.12.25L98.7,12c-.23.47-.44.94-.62,1.42-.13.32-.25.64-.36,1s-.15.47-.22.7c-.21.71-.39,1.43-.53,2.16a20,20,0,0,0-.34,3c0,.3,0,.62,0,.93a21.68,21.68,0,0,0,.28,3.44l.21,1.11.15.62c.14.55.3,1.1.48,1.63.11.33.23.65.36,1,.18.48.39.95.62,1.42.15.31.31.61.47.91s.42.75.65,1.12h0a21.24,21.24,0,0,0,18,10,20.94,20.94,0,0,0,6.8-1.12c.49-.16,1-.34,1.45-.55a21.13,21.13,0,0,0,6.74-4.54c.59-.6,1.16-1.24,1.69-1.9a23.69,23.69,0,0,0,1.45-2.1c.26-.44.51-.89.75-1.34A21.38,21.38,0,0,0,138.19,27a21.17,21.17,0,0,0,0-11.6ZM117.8,33.24a8.36,8.36,0,0,1-1,0,9.94,9.94,0,0,1-9.3,1.84,7.21,7.21,0,0,0,5-3,12.22,12.22,0,0,1-6.68-10.81,12,12,0,1,1,12,12Z" style="fill:#ffc70f"></path><path d="M2.1,44.59H0v-.76H5.06v.76H3v5.35H2.1Z" style="fill:#231f20"></path><path d="M6,44.27a.56.56,0,0,1,0-.78.58.58,0,0,1,.41-.16.55.55,0,0,1,.4.15.52.52,0,0,1,.17.38.54.54,0,0,1-.17.4.52.52,0,0,1-.4.16A.58.58,0,0,1,6,44.27Zm0,1h.84v4.63H6Z" style="fill:#231f20"></path><path d="M12.83,47.91H9.07a1.45,1.45,0,0,0,.54,1,1.72,1.72,0,0,0,1.14.37,1.71,1.71,0,0,0,1.33-.56l.47.54a2,2,0,0,1-.78.56,3,3,0,0,1-2.35-.11,2.16,2.16,0,0,1-.88-.84,2.48,2.48,0,0,1-.31-1.22,2.38,2.38,0,0,1,.31-1.22,2.14,2.14,0,0,1,.82-.84,2.4,2.4,0,0,1,1.2-.3,2.33,2.33,0,0,1,1.18.3,2,2,0,0,1,.81.84,2.52,2.52,0,0,1,.29,1.24C12.84,47.72,12.84,47.8,12.83,47.91Zm-1.49-3.27-.79-.49-.8.49H9l1.17-.87h.79l1.17.87Zm-1.79,1.7a1.53,1.53,0,0,0-.48,1h3a1.46,1.46,0,0,0-.48-.95,1.41,1.41,0,0,0-1-.37A1.45,1.45,0,0,0,9.55,46.34Zm2.89-3.45h1l-1.29,1h-.69Z" style="fill:#231f20"></path><path d="M18.1,45.78a2,2,0,0,1,.52,1.5v2.66h-.83V47.37a1.41,1.41,0,0,0-.33-1,1.19,1.19,0,0,0-.92-.34,1.44,1.44,0,0,0-1.08.4,1.54,1.54,0,0,0-.39,1.14v2.38h-.84V45.31H15V46a1.55,1.55,0,0,1,.68-.55,2.38,2.38,0,0,1,1-.19A1.9,1.9,0,0,1,18.1,45.78Z" style="fill:#231f20"></path><path d="M24.86,45.31v4a2.38,2.38,0,0,1-.61,1.8,2.52,2.52,0,0,1-1.79.58,4.24,4.24,0,0,1-1.25-.18,2.43,2.43,0,0,1-1-.51l.4-.65a2.28,2.28,0,0,0,.8.44,3,3,0,0,0,1,.16,1.63,1.63,0,0,0,1.2-.38A1.59,1.59,0,0,0,24,49.4V49a1.86,1.86,0,0,1-.73.54,2.42,2.42,0,0,1-.94.18,2.65,2.65,0,0,1-1.2-.28,2.09,2.09,0,0,1-.84-.8,2.34,2.34,0,0,1,0-2.33,2.07,2.07,0,0,1,.84-.79,2.53,2.53,0,0,1,1.2-.28,2.37,2.37,0,0,1,1,.19,1.82,1.82,0,0,1,.74.57v-.72Zm-1.6,3.51a1.33,1.33,0,0,0,.57-.53,1.47,1.47,0,0,0,.21-.78,1.4,1.4,0,0,0-.45-1.09A1.61,1.61,0,0,0,22.45,46a1.64,1.64,0,0,0-1.16.42,1.43,1.43,0,0,0-.44,1.09,1.47,1.47,0,0,0,.21.78,1.3,1.3,0,0,0,.56.53,1.73,1.73,0,0,0,.83.2A1.68,1.68,0,0,0,23.26,48.82Z" style="fill:#231f20"></path><path d="M33.27,48.41H30l-.68,1.53h-.9l2.77-6.11h.87l2.77,6.11H34Zm-.3-.7-1.32-3-1.32,3Z" style="fill:#231f20"></path><path d="M39.75,45.78a2,2,0,0,1,.52,1.5v2.66h-.84V47.37a1.46,1.46,0,0,0-.32-1,1.22,1.22,0,0,0-.93-.34,1.42,1.42,0,0,0-1.07.4,1.51,1.51,0,0,0-.4,1.14v2.38h-.83V45.31h.8V46a1.68,1.68,0,0,1,.68-.55,2.4,2.4,0,0,1,1-.19A1.93,1.93,0,0,1,39.75,45.78Z" style="fill:#231f20"></path><path d="M45.92,45.78a2,2,0,0,1,.52,1.5v2.66H45.6V47.37a1.46,1.46,0,0,0-.32-1,1.21,1.21,0,0,0-.93-.34,1.42,1.42,0,0,0-1.07.4,1.54,1.54,0,0,0-.39,1.14v2.38h-.84V43.46h.84V46a1.79,1.79,0,0,1,.68-.52,2.4,2.4,0,0,1,1-.18A1.91,1.91,0,0,1,45.92,45.78Z" style="fill:#231f20"></path><path d="M53.4,49.67a1.06,1.06,0,0,1-.46.24,1.7,1.7,0,0,1-.55.08,1.5,1.5,0,0,1-1.09-.37,1.46,1.46,0,0,1-.38-1.08V46h-.79v-.69h.79v-1h.84v1h1.32V46H51.76v2.51a.81.81,0,0,0,.18.57.7.7,0,0,0,.54.21,1,1,0,0,0,.66-.22Z" style="fill:#231f20"></path><path d="M56.09,45.48a2.32,2.32,0,0,1,1-.21v.81h-.2a1.39,1.39,0,0,0-1.06.41,1.61,1.61,0,0,0-.39,1.16v2.3h-.84V45.31h.8v.78A1.43,1.43,0,0,1,56.09,45.48Z" style="fill:#231f20"></path><path d="M62.76,45.31v4.63H62v-.7a1.64,1.64,0,0,1-.66.56,2.12,2.12,0,0,1-.91.19,2,2,0,0,1-1.46-.51A2,2,0,0,1,58.4,48V45.31h.84v2.57a1.47,1.47,0,0,0,.32,1,1.22,1.22,0,0,0,.93.34,1.39,1.39,0,0,0,1-.4,1.61,1.61,0,0,0,.38-1.13v-2.4Zm-2.49,6.22a.4.4,0,0,1-.13-.31.44.44,0,0,1,.13-.33.46.46,0,0,1,.31-.13.46.46,0,0,1,.32.13.44.44,0,0,1,.13.33.4.4,0,0,1-.13.31.45.45,0,0,1-.32.12A.45.45,0,0,1,60.27,51.53Zm1.92-6.22h.16a.57.57,0,0,0,.42-.15.64.64,0,0,0,.14-.41.87.87,0,0,0-.18-.55l.54-.2a1.28,1.28,0,0,1,.24.77,1.16,1.16,0,0,1-.31.86,1.15,1.15,0,0,1-.85.32h-.16Z" style="fill:#231f20"></path><path d="M65.23,49.69a2.34,2.34,0,0,1-.87-.84,2.38,2.38,0,0,1-.31-1.22,2.36,2.36,0,0,1,.31-1.22,2.2,2.2,0,0,1,.87-.84,2.61,2.61,0,0,1,1.26-.3,2.44,2.44,0,0,1,1.13.25,1.81,1.81,0,0,1,.76.74l-.64.41a1.36,1.36,0,0,0-.54-.5,1.52,1.52,0,0,0-.71-.17,1.69,1.69,0,0,0-.82.2,1.51,1.51,0,0,0-.57.58,1.78,1.78,0,0,0-.2.85,1.85,1.85,0,0,0,.2.86,1.49,1.49,0,0,0,.57.57,1.69,1.69,0,0,0,.82.2,1.52,1.52,0,0,0,.71-.17,1.34,1.34,0,0,0,.54-.49l.64.4a1.87,1.87,0,0,1-.76.74,2.44,2.44,0,0,1-1.13.25A2.61,2.61,0,0,1,65.23,49.69Z" style="fill:#231f20"></path><path d="M74.87,49.67a1.12,1.12,0,0,1-.46.24,1.73,1.73,0,0,1-.56.08,1.49,1.49,0,0,1-1.08-.37,1.46,1.46,0,0,1-.38-1.08V46H71.6v-.69h.79v-1h.84v1h1.32V46H73.23v2.51a.81.81,0,0,0,.18.57.7.7,0,0,0,.54.21,1,1,0,0,0,.66-.22Z" style="fill:#231f20"></path><path d="M80.42,45.31v4.63h-.79v-.7a1.74,1.74,0,0,1-.67.56,2.12,2.12,0,0,1-.91.19,2,2,0,0,1-1.45-.51,2,2,0,0,1-.54-1.5V45.31h.84v2.57a1.42,1.42,0,0,0,.33,1,1.19,1.19,0,0,0,.92.34,1.39,1.39,0,0,0,1-.4,1.61,1.61,0,0,0,.38-1.13v-2.4Z" style="fill:#231f20"></path><path d="M86.34,45.31,84.1,50.4a2.23,2.23,0,0,1-.7,1,1.58,1.58,0,0,1-1,.29,2.08,2.08,0,0,1-.66-.11,1.39,1.39,0,0,1-.53-.32l.36-.63a1.15,1.15,0,0,0,.83.34.8.8,0,0,0,.51-.16,1.46,1.46,0,0,0,.37-.55l.15-.33-2-4.62h.88L83.92,49l1.6-3.71Z" style="fill:#231f20"></path><path d="M91.39,47.91H87.63a1.49,1.49,0,0,0,.54,1,1.75,1.75,0,0,0,1.14.37,1.71,1.71,0,0,0,1.33-.56l.47.54a2,2,0,0,1-.78.56,2.69,2.69,0,0,1-1,.19,2.74,2.74,0,0,1-1.3-.3,2.16,2.16,0,0,1-.88-.84,2.56,2.56,0,0,1,0-2.44,2.1,2.1,0,0,1,.83-.84,2.49,2.49,0,0,1,2.37,0,2,2,0,0,1,.81.84,2.52,2.52,0,0,1,.29,1.24C91.4,47.72,91.4,47.8,91.39,47.91ZM89.9,44.64l-.79-.49-.8.49h-.76l1.17-.87h.78l1.17.87Zm-1.79,1.7a1.53,1.53,0,0,0-.48,1h3A1.44,1.44,0,0,0,89.12,46,1.47,1.47,0,0,0,88.11,46.34ZM91,42.89h1l-1.3,1H90Z" style="fill:#231f20"></path><path d="M96.67,45.78a2,2,0,0,1,.51,1.5v2.66h-.83V47.37a1.41,1.41,0,0,0-.33-1A1.19,1.19,0,0,0,95.1,46a1.44,1.44,0,0,0-1.08.4,1.54,1.54,0,0,0-.39,1.14v2.38h-.84V45.31h.81V46a1.61,1.61,0,0,1,.68-.55,2.38,2.38,0,0,1,1-.19A1.94,1.94,0,0,1,96.67,45.78Z" style="fill:#231f20"></path></g></g></svg>