<svg width="192" height="61" viewBox="0 0 192 61" fill="none" xmlns="http://www.w3.org/2000/svg">
<path d="M167.414 52.2221C166.813 52.2221 166.198 52.1992 165.585 52.1535C164.853 52.0976 164.184 51.7191 163.758 51.1195C163.333 50.52 163.199 49.7603 163.386 49.049L166.276 38.2087H162.259C162.041 38.4145 161.783 38.5821 161.496 38.6965C161.198 38.8184 160.883 38.8768 160.569 38.8768C160.126 38.8768 159.685 38.7574 159.295 38.5212C158.609 38.1045 157.788 37.8962 156.851 37.8962C154.67 37.8962 152.636 39.0115 151.268 40.955C150.804 41.613 150.052 42.0017 149.254 42.0017C149.228 42.0017 149.201 42.0017 149.175 42.0017C148.347 41.9763 147.587 41.5317 147.154 40.8254C144.871 37.0985 143.666 32.805 143.666 28.4049C143.666 26.6672 143.856 24.9295 144.228 23.2375C144.304 22.8895 144.454 22.5694 144.659 22.295C142.675 19.7164 141.811 17.1454 142.169 14.7167C142.549 12.1406 144.484 8.67283 151.541 6.74713C151.62 6.72172 151.701 6.69886 151.782 6.68108C153.555 6.29746 154.584 6.22633 154.695 6.2187C154.746 6.21616 154.796 6.21362 154.847 6.21362C156.01 6.21362 157.025 7.0342 157.261 8.19013C157.507 9.39687 156.83 10.6011 155.675 11.0152C155.622 11.0355 155.571 11.0558 155.521 11.0787C155.179 11.2159 154.91 11.3302 154.66 11.4496C154.302 11.6147 153.996 11.7722 153.735 11.9247C151.617 13.1365 151.86 13.8682 151.952 14.1451C151.974 14.2187 151.985 14.2467 151.997 14.2721C152.028 14.3483 152.05 14.394 152.073 14.4398C152.164 14.6176 152.268 14.7929 152.397 14.9733C152.461 15.0622 152.522 15.1435 152.582 15.2222C152.618 15.268 152.689 15.3467 152.757 15.428C152.846 15.5296 152.927 15.616 153.005 15.7024C157.593 20.5395 173.876 26.5046 188.781 27.2236C189.439 27.2566 190.057 27.5487 190.496 28.0416C190.936 28.5319 191.162 29.1798 191.121 29.8403C190.936 32.9422 190.166 35.9273 188.829 38.7143C186.919 42.7003 183.945 46.0715 180.226 48.4622C176.409 50.9214 171.978 52.2221 167.414 52.2221Z" fill="white"/>
<path fill-rule="evenodd" clip-rule="evenodd" d="M184.188 32.6501C173.022 32.6501 152.527 26.84 147.093 18.812C145.122 15.9006 145.472 13.3651 146.113 11.7494C147.146 9.13521 149.811 7.32891 154.031 6.38385C154.211 6.3432 154.394 6.32288 154.571 6.32288C155.63 6.32288 156.597 7.00881 156.924 8.06312C157.304 9.29272 156.681 10.6112 155.49 11.0914C153.175 12.0263 151.764 13.1441 151.898 13.9444C152.633 18.3064 170.768 26.3547 188.781 27.2236C189.989 27.282 190.977 28.2093 191.111 29.416C191.248 30.6202 190.491 31.7482 189.328 32.0759C187.957 32.457 186.23 32.6501 184.188 32.6501Z" fill="white"/>
<path fill-rule="evenodd" clip-rule="evenodd" d="M188.619 29.6929C187.279 29.6598 185.921 29.5862 184.586 29.4769C184.282 29.4515 183.993 29.3728 183.73 29.2457C183.527 29.2991 183.317 29.327 183.107 29.327C183.023 29.327 182.937 29.322 182.853 29.3143C181.217 29.1441 179.535 28.918 177.85 28.6436C176.566 28.4328 175.307 28.199 174.106 27.9526C173.863 27.9018 173.638 27.818 173.43 27.7062C173.367 27.7113 173.301 27.7138 173.237 27.7138C173.06 27.7138 172.883 27.696 172.708 27.6554C169.341 26.9136 166.117 25.999 163.125 24.9421C162.887 24.8583 162.667 24.7389 162.472 24.5941C162.228 24.5788 161.985 24.528 161.755 24.4391C160.291 23.8853 158.895 23.2959 157.611 22.6912C157.132 22.4651 156.164 21.9901 155.034 21.3448C154.832 21.2305 154.652 21.0882 154.495 20.9307C154.282 20.8672 154.077 20.7782 153.884 20.6588C151.192 18.9872 149.56 17.4121 148.897 15.8471C148.537 14.9986 148.676 14.0205 149.259 13.3092C150.262 12.0821 151.425 10.9414 152.714 9.92014C153.157 9.56701 153.699 9.38664 154.244 9.38664C154.345 9.38664 154.447 9.39426 154.548 9.40442L155.632 8.40093C156.098 7.96904 156.699 7.74548 157.307 7.74548C157.367 7.74548 157.426 7.74802 157.486 7.7531C157.725 7.13322 158.211 6.61241 158.87 6.3482C161.246 5.39297 163.688 4.83914 166.127 4.69433C166.157 4.69179 166.289 4.68417 166.325 4.68163C166.722 4.66131 167.122 4.65369 167.53 4.65369C168.612 4.65369 169.681 4.72482 170.709 4.86709C170.742 4.87217 170.904 4.89249 170.955 4.90011C171.743 5.01698 172.541 5.17449 173.326 5.37265C173.354 5.38027 173.455 5.40567 173.478 5.4133C174.235 5.61146 174.94 5.82994 175.631 6.08399C175.73 6.11956 175.826 6.16274 175.92 6.21101C176.014 6.23642 176.105 6.2669 176.196 6.30247C179.026 7.42029 181.589 9.064 183.818 11.1828C184.061 11.414 184.251 11.6883 184.381 11.9856C184.669 12.1228 184.933 12.3184 185.151 12.5648C186.919 14.5413 188.335 16.7897 189.361 19.2489C189.498 19.5791 189.561 19.9323 189.551 20.2828C189.781 20.5394 189.964 20.8494 190.073 21.1974C190.678 23.118 191.038 25.1047 191.142 27.1016C191.177 27.79 190.924 28.4607 190.445 28.9536C189.981 29.4312 189.343 29.7005 188.679 29.7005C188.662 29.6929 188.639 29.6929 188.619 29.6929Z" fill="white"/>
<path fill-rule="evenodd" clip-rule="evenodd" d="M154.616 14.4931C154.201 14.4931 153.781 14.3864 153.401 14.1704C152.473 13.642 151.987 12.575 152.202 11.5258L152.549 9.82872L151.05 8.97511C150.12 8.44669 149.636 7.37968 149.849 6.32791C150.062 5.27614 150.926 4.48605 151.987 4.36664L153.705 4.17102L154.052 2.47651C154.264 1.42728 155.128 0.634647 156.19 0.515243C156.283 0.505081 156.374 0.5 156.466 0.5C157.423 0.5 158.305 1.05891 158.71 1.95063L159.422 3.5232L161.139 3.33012C161.233 3.31996 161.324 3.31487 161.418 3.31487C162.375 3.31487 163.257 3.87379 163.662 4.7655C164.103 5.74105 163.87 6.88936 163.082 7.6134L161.805 8.78457L162.517 10.3571C162.961 11.3327 162.725 12.4835 161.937 13.205C161.471 13.6318 160.876 13.8529 160.273 13.8529C159.857 13.8529 159.437 13.7462 159.057 13.5302L157.557 12.6766L156.281 13.8453C155.812 14.2746 155.217 14.4931 154.616 14.4931Z" fill="white"/>
<path d="M4.1714 55.0826C3.38106 55.0826 2.64139 54.7041 2.17783 54.0639C1.71427 53.4237 1.58254 52.6006 1.82826 51.846L9.17433 29.1543C8.75383 29.4515 8.25734 29.6014 7.75831 29.6014C7.32768 29.6014 6.89451 29.4871 6.50695 29.2584C5.62542 28.7376 5.15679 27.724 5.32904 26.7129C5.3645 26.4995 5.72674 24.5534 7.0921 22.2111C7.15796 22.0942 7.40114 21.6928 7.40114 21.6928C7.4214 21.6573 7.4442 21.6217 7.467 21.5887C8.79183 19.6071 12.8626 14.9554 22.0502 14.5388C30.8554 14.1374 39.1716 13.5378 44.134 10.6569C44.5191 10.4333 44.9446 10.3241 45.3677 10.3241C45.968 10.3241 46.5608 10.5426 47.0269 10.9668C47.8223 11.6909 48.0553 12.8494 47.6095 13.8274C47.5588 13.9367 47.4904 14.206 47.4347 14.4219C47.3486 14.7547 47.2599 15.0825 47.1485 15.3899C46.0212 18.4842 44.4228 21.0247 42.3912 22.9478C40.1038 25.1174 37.5099 26.0295 34.9844 26.4233C35.4378 26.5808 35.8406 26.8704 36.1369 27.2642C36.603 27.879 36.755 28.6792 36.5499 29.4236C36.1547 30.8488 35.6658 32.1038 35.1009 33.1505C35.0756 33.1988 35.0452 33.247 35.0173 33.2953C32.9275 36.603 29.5255 37.3017 27.6814 37.4211C27.6282 37.4236 27.575 37.4262 27.5192 37.4262H19.2587L14.081 53.3805C13.7517 54.3992 12.8043 55.0877 11.7379 55.0877H4.1714V55.0826Z" fill="white"/>
<path d="M24.8569 55.4206C20.7482 55.4206 17.9871 52.5956 17.9871 48.391C17.9871 47.4333 18.1441 46.3713 18.4836 45.0427L20.7076 36.7428C20.9964 35.6631 21.9742 34.9111 23.0888 34.9111H28.4236C29.1911 34.9111 29.913 35.2693 30.3791 35.8791C30.4602 35.9858 30.5336 36.1001 30.597 36.217C31.0175 35.4269 31.8483 34.9111 32.7704 34.9111H38.1052C38.8702 34.9111 39.5921 35.2693 40.0607 35.8765C40.5268 36.4862 40.6864 37.2763 40.4888 38.0182L36.4485 53.2434C36.1623 54.3256 35.1845 55.0802 34.0674 55.0802H28.7351C28.3729 55.0802 28.0208 54.9989 27.6991 54.8515C26.777 55.2275 25.8195 55.4206 24.8569 55.4206Z" fill="white"/>
<path d="M43.4653 55.3951C38.2546 55.3951 36.3978 52.2551 36.3978 49.3182C36.3978 48.4646 36.5093 47.6568 36.7601 46.6965L37.5453 43.78C37.3022 43.625 37.0868 43.4294 36.9095 43.1956C36.4434 42.5859 36.2864 41.7933 36.484 41.0515L37.634 36.7479C37.9152 35.6986 38.8448 34.9593 39.9214 34.9162L40.4711 32.8837C40.7624 31.8066 41.7377 31.0571 42.8522 31.0571H48.187C48.9545 31.0571 49.679 31.4153 50.1451 32.0276C50.6112 32.6399 50.7683 33.4325 50.5681 34.1769L50.368 34.9162H50.6821C51.4497 34.9162 52.1716 35.2744 52.6377 35.8841C53.1038 36.4938 53.2609 37.2864 53.0633 38.0283L51.9132 42.3319C51.6245 43.4116 50.6467 44.1636 49.5321 44.1636H47.883L47.5284 45.4821C47.6171 45.4719 47.7057 45.4669 47.7944 45.4669C48.4049 45.4669 49.0052 45.693 49.4662 46.1223C50.1375 46.7447 50.4111 47.6872 50.1755 48.5739L48.9951 53.0223C48.7823 53.82 48.1895 54.4602 47.4093 54.727C46.1149 55.169 44.7875 55.3951 43.4653 55.3951Z" fill="white"/>
<path d="M54.6617 55.4206C50.553 55.4206 47.7893 52.5956 47.7893 48.391C47.7893 47.4333 47.9464 46.3713 48.2858 45.0427L50.5099 36.7428C50.7987 35.6631 51.7764 34.9111 52.891 34.9111H58.2258C58.9933 34.9111 59.7153 35.2693 60.1814 35.8791C60.265 35.9883 60.3359 36.1026 60.3992 36.2195C60.8197 35.4269 61.6506 34.9111 62.5752 34.9111H67.9074C68.6724 34.9111 69.3969 35.2693 69.863 35.8765C70.3291 36.4862 70.4861 37.2763 70.2911 38.0207L66.2482 53.2459C65.9594 54.3282 64.9842 55.0827 63.8671 55.0827H58.5348C58.1726 55.0827 57.8205 55.0014 57.4988 54.8541C56.5818 55.2275 55.6243 55.4206 54.6617 55.4206Z" fill="white"/>
<path d="M66.6764 55.0827C65.9089 55.0827 65.1869 54.7245 64.7208 54.1147C64.2547 53.505 64.0977 52.7124 64.2952 51.9706L68.366 36.7453C68.6548 35.6656 69.63 34.9136 70.7471 34.9136H76.0768C76.548 34.9136 77.004 35.0483 77.3941 35.2947C78.3668 34.8577 79.4028 34.6367 80.4971 34.6367C80.7125 34.6367 80.9303 34.6443 81.1532 34.6621C81.8853 34.718 82.5515 35.1016 82.9745 35.7012C83.3976 36.3033 83.5318 37.0604 83.3393 37.7717L81.8245 43.404C81.5332 44.4837 80.5579 45.2306 79.4434 45.2306H78.995C77.7588 45.2306 76.4796 45.4974 75.6209 48.6704L74.3872 53.2535C74.0959 54.3332 73.1207 55.0827 72.0061 55.0827H66.6764Z" fill="white"/>
<path d="M87.3593 55.4485C81.5534 55.4485 77.6523 51.7394 77.6523 46.2189C77.6523 40.617 82.0828 34.5681 89.2389 34.5681C95.3994 34.5681 98.158 38.9759 98.158 43.3455C98.158 44.6361 97.8996 46.0156 97.4107 47.3316C97.0764 48.236 96.2506 48.8559 95.3032 48.9346L95.44 49.0972C96.3164 50.1363 96.1923 51.6886 95.1613 52.5726C92.9448 54.4831 90.318 55.4485 87.3593 55.4485Z" fill="white"/>
<path d="M95.8656 55.0826C95.0981 55.0826 94.3761 54.7244 93.91 54.1147C93.4439 53.505 93.2869 52.7123 93.4845 51.968L98.7584 32.2638C99.0472 31.1841 100.025 30.4321 101.14 30.4321H106.611C107.379 30.4321 108.101 30.7903 108.567 31.4001C109.033 32.0098 109.19 32.8024 108.992 33.5442L105.841 45.3499H112.002C112.769 45.3499 113.494 45.7082 113.96 46.3204C114.426 46.9327 114.583 47.7253 114.38 48.4697L113.086 53.2534C112.794 54.3306 111.819 55.0801 110.707 55.0801H95.8656V55.0826Z" fill="white"/>
<path d="M117.782 55.3951C113.836 55.3951 111.08 52.6768 111.08 48.7822C111.08 45.792 112.572 43.4268 115.067 42.1058L114.38 38.5897C114.145 37.383 114.829 36.1864 115.986 35.7799C117.919 35.1042 120.396 34.7155 122.78 34.7155C131.342 34.7155 132.008 40.3122 132.008 42.027C132.008 42.8832 131.884 43.7977 131.628 44.8241L129.371 53.2535C129.083 54.3332 128.105 55.0852 126.99 55.0852H121.744C121.382 55.0852 121.027 55.0039 120.705 54.8565C119.864 55.1817 118.899 55.3951 117.782 55.3951Z" fill="white"/>
<path d="M139.395 55.0827C138.627 55.0827 137.905 54.7245 137.439 54.1148C137.351 53.9979 137.275 53.876 137.209 53.7489C136.791 54.5543 135.955 55.0827 135.02 55.0827H129.688C128.92 55.0827 128.198 54.7245 127.732 54.1148C127.266 53.5051 127.109 52.7124 127.307 51.9706L131.375 36.7454C131.664 35.6657 132.641 34.9137 133.756 34.9137H139.091C139.448 34.9137 139.795 34.9924 140.114 35.1372C141.034 34.7663 141.996 34.5732 142.964 34.5732C147.073 34.5732 149.834 37.4008 149.834 41.6079C149.834 42.7384 149.581 43.8842 149.307 44.9537L147.113 53.2485C146.827 54.3333 145.849 55.0878 144.73 55.0878H139.395V55.0827Z" fill="white"/>
<path d="M154.634 59.6455C151.212 59.6455 147.63 58.6928 145.287 57.1583C144.725 56.7899 144.334 56.2082 144.21 55.5451C144.086 54.882 144.236 54.1986 144.628 53.6499L147.014 50.3015C147.126 50.144 147.255 50.0017 147.394 49.8798C146.781 48.8001 146.417 47.5044 146.417 45.9979C146.417 39.7127 151.098 34.6012 156.853 34.6012C158.203 34.6012 159.432 34.8807 160.514 35.4269C160.934 35.1017 161.458 34.9111 162.021 34.9111H167.35C168.115 34.9111 168.84 35.2693 169.306 35.8765C169.772 36.4862 169.929 37.2789 169.732 38.0207L166.507 50.1211C165.651 53.1977 164.734 55.0141 163.232 56.6299C163.201 56.6629 163.171 56.6934 163.14 56.7239C161.081 58.7182 158.378 59.6455 154.634 59.6455ZM157.722 43.7699C157.137 43.7699 156.716 44.3567 156.658 44.9309C157.299 44.9283 157.75 44.3288 157.78 43.7699C157.763 43.7699 157.742 43.7699 157.722 43.7699Z" fill="white"/>
<path d="M188.659 29.6904C188.492 32.5256 187.772 35.2109 186.607 37.6396C184.89 41.2217 182.205 44.25 178.896 46.3764C175.583 48.5129 171.642 49.7476 167.414 49.7476C166.859 49.7476 166.309 49.7248 165.77 49.6841L169.488 35.7317H160.747L160.572 36.4024C159.5 35.7545 158.249 35.4217 156.853 35.4217C153.765 35.4217 151.012 37.0299 149.254 39.5297C147.27 36.2906 146.13 32.4798 146.13 28.4023C146.13 26.812 146.305 25.2597 146.634 23.7685L146.637 23.771C146.64 23.7735 146.64 23.7735 146.64 23.7735C146.89 24.0301 153.355 30.5186 165.701 33.1708C166.489 33.3512 167.29 33.5011 168.095 33.6205C168.098 33.6205 168.103 33.6205 168.103 33.6205C168.093 33.618 168.085 33.6129 168.072 33.6104C162.765 31.8269 158.082 29.6396 154.323 27.2972C143.349 20.4709 140.21 12.3464 152.283 9.0996C152.286 9.09706 152.293 9.09706 152.299 9.09198C153.94 8.73631 154.842 8.68042 154.842 8.68042C154.74 8.71599 154.644 8.75664 154.55 8.79728C154.219 8.92939 153.905 9.06404 153.608 9.20376C153.205 9.39176 152.833 9.5823 152.494 9.77792C149.806 11.3175 148.998 13.0831 149.608 14.9174C149.641 15.0241 149.682 15.1333 149.73 15.2425C149.773 15.3492 149.824 15.4585 149.879 15.5652C150.019 15.8396 150.186 16.1139 150.381 16.3883C150.457 16.4975 150.541 16.6093 150.627 16.7186C150.715 16.8278 150.809 16.9396 150.905 17.0488C151.002 17.1581 151.103 17.2699 151.204 17.3791C156.729 23.2172 174.066 28.9866 188.659 29.6904Z" fill="url(#paint0_radial_3534_686)"/>
<path fill-rule="evenodd" clip-rule="evenodd" d="M154.568 8.79736C137.543 15.6643 166.317 28.6133 188.659 29.6904C178.752 32.4774 144.365 22.854 148.403 12.6615C149.132 10.8171 151.346 9.51887 154.568 8.79736Z" fill="url(#paint1_linear_3534_686)"/>
<path fill-rule="evenodd" clip-rule="evenodd" d="M175.292 8.59666C176.748 9.99648 178.076 11.536 179.243 13.1873C180.226 13.1442 181.184 13.0705 182.121 12.9714C180.163 11.1041 177.85 9.60778 175.292 8.59666ZM183.319 14.2086C182.26 14.3026 181.171 14.3636 180.062 14.3839C181.359 16.4036 182.433 18.5757 183.258 20.8698C184.637 20.7225 185.918 20.4964 187.091 20.1966C186.169 17.9864 184.89 15.9641 183.319 14.2086ZM187.724 21.9343C186.501 22.1756 185.174 22.3408 183.773 22.4373C184.219 23.921 184.558 25.4453 184.788 27.0127C186.085 27.1195 187.385 27.188 188.682 27.2211C188.586 25.3894 188.254 23.6161 187.724 21.9343ZM160.308 11.8536L157.307 10.215L154.201 13.0908L154.244 11.8561C153.109 12.758 152.071 13.7691 151.164 14.8742C151.698 16.1318 153.454 17.4783 155.181 18.5529C155.931 17.2445 156.77 15.9997 157.684 14.8183C157.537 14.6507 157.395 14.4779 157.269 14.3052C157.423 14.4474 157.585 14.5897 157.755 14.7294C158.548 13.7208 159.401 12.758 160.308 11.8536ZM166.269 7.15874C164.078 7.28576 161.874 7.79894 159.784 8.63985L160.686 11.4827C161.134 11.0432 161.595 10.6265 162.066 10.2175C161.727 9.96853 161.415 9.70432 161.142 9.43756C161.479 9.66113 161.836 9.87707 162.218 10.0854C163.492 9.00822 164.848 8.02759 166.269 7.15874ZM174.788 8.40104C174.157 8.16986 173.514 7.9717 172.855 7.79894C173.481 9.53664 173.972 11.315 174.327 13.1264C175.492 13.2026 176.693 13.2356 177.921 13.2178C178.096 13.2178 178.276 13.2153 178.451 13.2102C177.382 11.4928 176.156 9.88469 174.788 8.40104ZM179.157 14.3941C177.556 14.3966 176.001 14.3204 174.519 14.1705C174.881 16.3655 175.046 18.5961 175 20.8317C177.447 21.0858 179.793 21.129 181.951 20.9816C181.262 18.6672 180.323 16.457 179.157 14.3941ZM182.362 22.4983C180.041 22.5669 177.544 22.4322 174.957 22.0689C174.892 23.2223 174.775 24.3783 174.603 25.5266C175.831 25.7806 177.05 26.0016 178.248 26.1998C179.856 26.464 181.478 26.6825 183.106 26.8527C182.957 25.3716 182.704 23.9159 182.362 22.4983ZM172.728 7.76846C172.027 7.59316 171.315 7.45089 170.595 7.34419C169.423 8.8253 168.381 10.408 167.48 12.0746C169.39 12.5649 171.52 12.913 173.79 13.0933C173.569 11.2871 173.21 9.51124 172.728 7.76846ZM173.901 14.1045C171.416 13.8225 169.134 13.3398 167.15 12.6945C166.198 14.5592 165.415 16.5205 164.83 18.5605C167.34 19.4725 170.2 20.1864 173.273 20.6234C173.493 20.6564 173.709 20.6818 173.924 20.7123C174.116 18.5021 174.109 16.2918 173.901 14.1045ZM164.62 19.3303C164.339 20.4049 164.113 21.4999 163.943 22.6101C166.96 23.6771 170.117 24.551 173.237 25.2395C173.478 24.1293 173.666 23.0115 173.8 21.8936C170.395 21.3296 167.267 20.4354 164.62 19.3303ZM158.353 15.5119C157.578 16.6805 156.873 17.9127 156.253 19.1931C157.246 19.7622 158.137 20.2042 158.657 20.4506C159.931 21.0527 161.261 21.6091 162.624 22.1248C162.874 21.0146 163.183 19.9222 163.548 18.8577C161.4 17.8619 159.629 16.7186 158.353 15.5119ZM162.467 10.5046C161.927 11.0406 161.403 11.597 160.904 12.1711C160.904 12.1737 160.901 12.1737 160.901 12.1737C160.035 13.167 159.232 14.2112 158.49 15.3061C159.913 16.3528 161.712 17.3284 163.794 18.1591C164.518 16.1699 165.43 14.2671 166.512 12.476C164.929 11.9171 163.563 11.254 162.467 10.5046ZM167.53 7.12317C167.166 7.12317 166.806 7.13079 166.454 7.14857C165.109 8.1038 163.842 9.16319 162.662 10.3166C163.87 10.9314 165.283 11.47 166.867 11.9069C167.898 10.2734 169.073 8.73385 170.372 7.31371C169.445 7.18414 168.495 7.12317 167.53 7.12317Z" fill="url(#paint2_radial_3534_686)"/>
<path d="M32.7704 37.3855L30.6122 45.4338C30.1638 47.2071 29.2924 48.1928 27.8055 48.1928C26.6807 48.1928 26.0931 47.5983 26.0931 46.5872C26.0931 46.2493 26.1767 45.7692 26.2906 45.35L28.4235 37.3855H23.0888L20.8723 45.6574C20.6215 46.6431 20.4518 47.5729 20.4518 48.3909C20.4518 51.2058 22.0781 52.9486 24.8569 52.9486C26.6554 52.9486 28.1398 51.9629 29.1784 50.8679L28.73 52.6107H34.0623L38.1026 37.3855H32.7704Z" fill="url(#paint3_linear_3534_686)"/>
<path d="M45.9908 41.6891H49.5271L50.6771 37.3855H47.1408L48.182 33.5265H42.8497L41.8086 37.3855H40.0152L38.8651 41.6891H40.6636L39.1488 47.3214C38.9512 48.081 38.8676 48.6704 38.8676 49.3182C38.8676 51.5717 40.3546 52.9232 43.4703 52.9232C44.5621 52.9232 45.6286 52.7251 46.6114 52.3872L47.7919 47.9387C47.0066 48.2182 46.3302 48.3605 45.773 48.3605C44.9573 48.3605 44.5647 48.048 44.5647 47.4052C44.5647 47.2071 44.6229 46.8971 44.7065 46.4754L45.9908 41.6891Z" fill="url(#paint4_linear_3534_686)"/>
<path d="M62.5777 37.3855L60.4144 45.4338C59.9661 47.2071 59.0947 48.1928 57.6077 48.1928C56.4856 48.1928 55.8953 47.5983 55.8953 46.5872C55.8953 46.2493 55.9789 45.7692 56.0929 45.35L58.2258 37.3855H52.8936L50.6771 45.6574C50.4238 46.6431 50.2566 47.5729 50.2566 48.3909C50.2566 51.2058 51.8854 52.9486 54.6617 52.9486C56.4602 52.9486 57.9446 51.9629 58.9832 50.8679L58.5349 52.6107H63.8671L67.91 37.3855H62.5777Z" fill="url(#paint5_linear_3534_686)"/>
<path d="M75.2661 40.452L76.0767 37.3856H70.747L66.6763 52.6108H72.006L73.2396 48.0227C74.2225 44.3923 76.0742 42.7588 78.9923 42.7588H79.4407L80.9555 37.1265C78.4908 36.9334 76.7227 38.2824 75.2661 40.452Z" fill="url(#paint6_linear_3534_686)"/>
<path d="M95.6958 43.3481C95.6958 40.0582 93.7301 37.0426 89.2414 37.0426C83.628 37.0426 80.1196 41.7171 80.1196 46.2189C80.1196 50.3294 82.8706 52.9741 87.3593 52.9741C90.0267 52.9741 91.9924 52.0443 93.5629 50.6953L91.0931 47.7686C89.9431 48.64 88.9602 48.9779 87.8634 48.9779C86.0396 48.9779 85.1428 48.0226 85.0288 46.4729H95.1031C95.4704 45.4898 95.6958 44.3923 95.6958 43.3481ZM90.812 43.7444H85.3936C86.0396 41.9153 87.4429 40.9855 88.8741 40.9855C90.3053 40.9855 90.9488 41.8873 90.9488 42.9264C90.9513 43.1805 90.8956 43.4624 90.812 43.7444Z" fill="url(#paint7_linear_3534_686)"/>
<path d="M102.629 47.827L106.611 32.9092H101.139L95.8655 52.6133H110.712L112.007 47.8295H102.629V47.827Z" fill="url(#paint8_linear_3534_686)"/>
<path d="M122.78 37.1874C120.564 37.1874 118.4 37.5532 116.799 38.1147L117.559 42.0016C118.651 41.5774 120.227 41.2395 121.658 41.2395C123.535 41.2395 124.267 41.8873 124.267 42.873C124.267 43.2389 124.211 43.5463 124.128 43.8003L124.069 43.9985C122.864 43.6326 121.6 43.4091 120.227 43.4091C116.212 43.4091 113.544 45.4338 113.544 48.7848C113.544 51.3456 115.282 52.9258 117.782 52.9258C119.581 52.9258 120.842 52.1941 122.162 50.9798L121.742 52.6133H126.988L129.235 44.2271C129.432 43.437 129.541 42.7079 129.541 42.0296C129.541 38.9886 127.355 37.1874 122.78 37.1874ZM123.368 46.8692C122.947 48.4443 121.63 49.6282 120.252 49.6282C119.358 49.6282 118.737 49.0922 118.737 48.2182C118.737 46.8413 119.834 46.0232 121.516 46.0232C122.276 46.0232 122.919 46.1655 123.51 46.3611L123.368 46.8692Z" fill="url(#paint9_linear_3534_686)"/>
<path d="M142.959 37.0426C141.16 37.0426 139.646 38.0283 138.607 39.1284L139.086 37.3856H133.754L129.683 52.6108H135.015L137.173 44.5625C137.652 42.7892 138.521 41.8035 140.008 41.8035C141.105 41.8035 141.692 42.3929 141.692 43.4091C141.692 43.747 141.637 44.2271 141.525 44.6463L139.392 52.6108H144.725L146.913 44.3338C147.164 43.3481 147.362 42.4208 147.362 41.6053C147.364 38.7905 145.735 37.0426 142.959 37.0426Z" fill="url(#paint10_linear_3534_686)"/>
<path d="M162.018 37.3855L161.456 39.55C160.587 38.1984 159.184 37.073 156.853 37.073C152.334 37.073 148.881 41.2674 148.881 45.9978C148.881 49.402 151.549 51.2592 154.3 51.2592C156.182 51.2592 157.555 50.6139 158.902 49.402L158.819 49.7399C158.507 50.84 158.117 51.6275 157.555 52.1915C156.797 52.9511 155.842 53.317 154.414 53.317C152.701 53.317 150.736 52.7809 149.021 51.7418L146.635 55.0902C148.57 56.3579 151.746 57.176 154.634 57.176C157.806 57.176 159.883 56.4443 161.425 54.953C162.631 53.6548 163.361 52.2195 164.121 49.491L167.345 37.3906H162.018V37.3855ZM156.656 47.4052C155.169 47.4052 154.186 46.5033 154.186 45.068C154.186 43.127 155.673 41.2979 157.722 41.2979C159.293 41.2979 160.248 42.2785 160.248 43.7164C160.245 45.6319 158.705 47.4052 156.656 47.4052Z" fill="url(#paint11_linear_3534_686)"/>
<path fill-rule="evenodd" clip-rule="evenodd" d="M159.151 8.90656L160.27 11.3785L157.418 9.75762L157.213 9.63822L156.542 10.2581L154.616 12.0212L154.725 11.4826L154.862 10.8221L155.326 8.56613L152.263 6.82589L155.759 6.42957L156.466 2.97449L157.92 6.18568L161.415 5.78936L158.816 8.16981L158.943 8.44927L159.151 8.90656Z" fill="url(#paint12_radial_3534_686)"/>
<path d="M22.1642 17.0083C13.9417 17.3817 10.4814 21.5202 9.51629 22.9632C9.4175 23.1283 9.31617 23.2909 9.21991 23.4586C8.03947 25.4808 7.7583 27.1296 7.7583 27.1296C8.23199 26.7485 8.73608 26.4157 9.26044 26.1109C10.0786 25.7222 11.3123 25.2801 13.1387 24.9092L4.17139 52.6108H11.7378L17.4703 34.9493H27.5243C28.8643 34.8604 31.4228 34.3675 32.9376 31.9667C33.3809 31.1487 33.8065 30.0995 34.1788 28.7581H19.4892L20.7178 24.9981C20.1149 24.8381 19.2055 24.6831 18.3949 24.5663C17.8224 24.4824 17.3209 24.4189 17.065 24.3859C16.9485 24.3706 16.8826 24.363 16.8826 24.363C17.5995 24.3198 18.3518 24.2868 19.0864 24.2639C19.7476 24.2411 29.3887 24.2893 29.9536 24.2716C33.9306 24.208 37.6771 24.0175 40.7042 21.1467C42.604 19.3481 43.944 16.993 44.8357 14.544C45.0358 13.9876 45.127 13.3271 45.3727 12.7936C40.1114 15.8498 32.1321 16.5535 22.1642 17.0083Z" fill="url(#paint13_linear_3534_686)"/>
<defs>
<radialGradient id="paint0_radial_3534_686" cx="0" cy="0" r="1" gradientUnits="userSpaceOnUse" gradientTransform="translate(166.607 29.2181) scale(21.2766 21.3386)">
<stop offset="0.3763" stop-color="#EECD22"/>
<stop offset="0.5034" stop-color="#ECC822"/>
<stop offset="0.6603" stop-color="#E5B924"/>
<stop offset="0.832" stop-color="#D9A026"/>
<stop offset="1" stop-color="#CB8028"/>
</radialGradient>
<linearGradient id="paint1_linear_3534_686" x1="148.075" y1="19.4879" x2="188.659" y2="19.4879" gradientUnits="userSpaceOnUse">
<stop stop-color="#EECD22"/>
<stop offset="0.2037" stop-color="#ECC822"/>
<stop offset="0.4552" stop-color="#E5B924"/>
<stop offset="0.7306" stop-color="#D9A026"/>
<stop offset="1" stop-color="#CB8028"/>
</linearGradient>
<radialGradient id="paint2_radial_3534_686" cx="0" cy="0" r="1" gradientUnits="userSpaceOnUse" gradientTransform="translate(169.923 17.172) scale(15.038 15.0818)">
<stop stop-color="#6BBFE6"/>
<stop offset="0.3091" stop-color="#4EA0CF"/>
<stop offset="0.9834" stop-color="#045094"/>
<stop offset="1" stop-color="#024E92"/>
</radialGradient>
<linearGradient id="paint3_linear_3534_686" x1="29.2771" y1="13.2198" x2="29.2771" y2="59.6206" gradientUnits="userSpaceOnUse">
<stop stop-color="#6BBFE6"/>
<stop offset="1" stop-color="#024E92"/>
</linearGradient>
<linearGradient id="paint4_linear_3534_686" x1="44.7697" y1="13.2128" x2="44.7697" y2="59.6246" gradientUnits="userSpaceOnUse">
<stop stop-color="#6BBFE6"/>
<stop offset="1" stop-color="#024E92"/>
</linearGradient>
<linearGradient id="paint5_linear_3534_686" x1="59.0841" y1="13.2198" x2="59.0841" y2="59.6206" gradientUnits="userSpaceOnUse">
<stop stop-color="#6BBFE6"/>
<stop offset="1" stop-color="#024E92"/>
</linearGradient>
<linearGradient id="paint6_linear_3534_686" x1="73.8186" y1="13.212" x2="73.8186" y2="59.6229" gradientUnits="userSpaceOnUse">
<stop stop-color="#6BBFE6"/>
<stop offset="1" stop-color="#024E92"/>
</linearGradient>
<linearGradient id="paint7_linear_3534_686" x1="87.9084" y1="13.2105" x2="87.9084" y2="59.6237" gradientUnits="userSpaceOnUse">
<stop stop-color="#6BBFE6"/>
<stop offset="1" stop-color="#024E92"/>
</linearGradient>
<linearGradient id="paint8_linear_3534_686" x1="103.934" y1="13.2042" x2="103.934" y2="59.6115" gradientUnits="userSpaceOnUse">
<stop stop-color="#6BBFE6"/>
<stop offset="1" stop-color="#024E92"/>
</linearGradient>
<linearGradient id="paint9_linear_3534_686" x1="121.544" y1="13.2139" x2="121.544" y2="59.6245" gradientUnits="userSpaceOnUse">
<stop stop-color="#6BBFE6"/>
<stop offset="1" stop-color="#024E92"/>
</linearGradient>
<linearGradient id="paint10_linear_3534_686" x1="138.525" y1="13.2113" x2="138.525" y2="59.623" gradientUnits="userSpaceOnUse">
<stop stop-color="#6BBFE6"/>
<stop offset="1" stop-color="#024E92"/>
</linearGradient>
<linearGradient id="paint11_linear_3534_686" x1="156.991" y1="13.2128" x2="156.991" y2="59.6238" gradientUnits="userSpaceOnUse">
<stop stop-color="#6BBFE6"/>
<stop offset="1" stop-color="#024E92"/>
</linearGradient>
<radialGradient id="paint12_radial_3534_686" cx="0" cy="0" r="1" gradientUnits="userSpaceOnUse" gradientTransform="translate(156.839 7.49808) scale(4.54268 4.5559)">
<stop stop-color="#EECD22"/>
<stop offset="0.2037" stop-color="#ECC822"/>
<stop offset="0.4552" stop-color="#E5B924"/>
<stop offset="0.7306" stop-color="#D9A026"/>
<stop offset="1" stop-color="#CB8028"/>
</radialGradient>
<linearGradient id="paint13_linear_3534_686" x1="28.0839" y1="4.06787" x2="21.3336" y2="62.0869" gradientUnits="userSpaceOnUse">
<stop stop-color="#6BBFE6"/>
<stop offset="1" stop-color="#024E92"/>
</linearGradient>
</defs>
</svg>
