<?xml version="1.0" encoding="UTF-8"?><svg id="Layer_1" xmlns="http://www.w3.org/2000/svg" width="680.98" height="160.92" xmlns:xlink="http://www.w3.org/1999/xlink" viewBox="0 0 680.98 160.92"><path id="type_CompoundPathItem_" d="m253.87,12.78c9.57,0,14.72,6.85,14.72,15.48,0,.96-.2,3.14-.2,3.14h-22.92c.52,5.69,5.01,8.64,9.96,8.64,5.34,0,9.57-3.58,9.57-3.58l3.19,5.82s-5.08,4.67-13.35,4.67c-11,0-17.84-7.81-17.84-17.08,0-10.04,6.97-17.08,16.87-17.08Zm6.38,13.05c-.13-4.41-2.93-6.78-6.58-6.78-4.23,0-7.16,2.56-7.94,6.78h14.52Z" style="fill:#f2f2f2; stroke-width:0px;"/><path id="type_CompoundPathItem_-2" d="m277.67,13.54h7.94v3.77c0,1.22-.13,2.24-.13,2.24h.13c1.43-2.75,5.08-6.78,11.79-6.78,7.36,0,11.53,3.77,11.53,12.41v20.98h-8.2v-19.32c0-3.97-1.04-6.65-5.27-6.65s-7.68,2.75-8.92,6.65c-.46,1.34-.59,2.82-.59,4.35v14.97h-8.27V13.54Z" style="fill:#f2f2f2; stroke-width:0px;"/><path id="type_CompoundPathItem_-3" d="m322.95,0h.93c2.24,0,4.06,1.79,4.06,3.99h0c0,2.2-1.82,3.99-4.06,3.99h-.93c-2.24,0-4.06-1.79-4.06-3.99h0c0-2.2,1.82-3.99,4.06-3.99Z" style="fill:#f2f2f2; stroke-width:0px;"/><path id="type_CompoundPathItem_-4" d="m353.28,12.78c9.57,0,14.72,6.85,14.72,15.48,0,.96-.2,3.14-.2,3.14h-22.92c.52,5.69,5.01,8.64,9.96,8.64,5.34,0,9.57-3.58,9.57-3.58l3.19,5.82s-5.08,4.67-13.35,4.67c-11,0-17.84-7.81-17.84-17.08,0-10.04,6.97-17.08,16.86-17.08Zm6.38,13.05c-.13-4.41-2.93-6.78-6.58-6.78-4.23,0-7.16,2.56-7.94,6.78h14.52Z" style="fill:#f2f2f2; stroke-width:0px;"/><path id="type_CompoundPathItem_-5" d="m377.08.75h8.27v14.01c0,1.6-.13,2.75-.13,2.75h.13s2.93-4.73,9.96-4.73c8.99,0,14.72,6.97,14.72,17.08s-6.45,17.08-15.24,17.08c-6.9,0-9.9-4.86-9.9-4.86h-.13s.13.96.13,2.24v1.86h-7.81V.75Zm16.28,39.35c4.56,0,8.33-3.65,8.33-10.11s-3.39-10.24-8.27-10.24c-4.3,0-8.33,3.07-8.33,10.3,0,5.05,2.73,10.04,8.27,10.04Z" style="fill:#f2f2f2; stroke-width:0px;"/><path id="type_CompoundPathItem_-6" d="m435.07,12.78c10.16,0,18.3,7.1,18.3,17.08s-8.14,17.08-18.23,17.08-18.3-7.04-18.3-17.08,8.14-17.08,18.23-17.08Zm.07,27.25c5.34,0,9.83-4.09,9.83-10.17s-4.49-10.17-9.83-10.17-9.9,4.16-9.9,10.17,4.49,10.17,9.9,10.17Z" style="fill:#f2f2f2; stroke-width:0px;"/><path id="type_CompoundPathItem_-7" d="m477.97,12.78c10.16,0,18.3,7.1,18.3,17.08s-8.14,17.08-18.23,17.08-18.3-7.04-18.3-17.08,8.14-17.08,18.23-17.08Zm.07,27.25c5.34,0,9.83-4.09,9.83-10.17s-4.49-10.17-9.83-10.17-9.9,4.16-9.9,10.17,4.49,10.17,9.9,10.17Z" style="fill:#f2f2f2; stroke-width:0px;"/><a xlink:href="82.4898039215686"><path id="type_PathItem_" d="m213.68,25.83l-5.94,5.83c2.82,0,6.35,0,9.25.55-1.82,2.56-4.45,4.97-7.33,6.22-2.61,1.13-5.65.82-8.32-.14-5.07-1.82-8.81-6.22-9.73-12.3-.15-1.01-.25-2.06-.25-3.16,0-1.4.22-2.75.52-4.04,0,0,0-.02,0-.03h0c1.48-6.09,6.2-10.68,13.86-11.2,0,0,7.87-.9,15.21,5.54l5.22-5.13C222.22,3.6,215.58-.23,205.79.02h-.05c-11.68.32-20.57,8.12-22.56,18.74h0s0,.02,0,.03c-.26,1.39-.44,2.83-.44,4.3,0,1.07.06,2.11.18,3.11h0c1.31,12.55,10.94,20.76,22.76,20.74,3.52.19,10.48-1.34,16.61-9.2.56,3.01.56,6.19.56,8.88v.11l5.95-5.87v-15.03h-15.13Z" style="fill:#f2f2f2; stroke-width:0px;"/></a><path id="type_CompoundPathItem_-8" d="m504.85.75h8.27v25.06l12.45-12.27h9.07l-12.49,12.28v.13l13.57,20.22h-9.51l-9.34-15.15-3.75,3.69v11.46h-8.27V.75Z" style="fill:#f2f2f2; stroke-width:0px;"/><path id="type_CompoundPathItem_-9" d="m319.29,13.54h8.27v32.63h-8.27V13.54Z" style="fill:#f2f2f2; stroke-width:0px;"/><path d="m180.39,112.76c0-6.41,1.13-12.38,3.39-17.89,2.26-5.51,5.43-10.3,9.5-14.37,4.07-4.07,8.94-7.28,14.62-9.62,5.67-2.34,11.92-3.52,18.75-3.52,3.37,0,6.5.27,9.38.8,2.88.54,5.51,1.22,7.89,2.04,2.38.82,4.48,1.73,6.29,2.71,1.81.99,3.37,1.94,4.69,2.84,1.72,1.23,2.69,2.65,2.9,4.25.21,1.6-.27,3.31-1.42,5.12l-3.08,5.06c-1.15,1.89-2.51,2.96-4.07,3.21-1.56.25-3.29-.2-5.18-1.36-2.06-1.15-4.48-2.26-7.28-3.33-2.79-1.07-5.84-1.6-9.13-1.6-4.44,0-8.22.72-11.35,2.16-3.13,1.44-5.7,3.33-7.71,5.67-2.02,2.34-3.5,5.02-4.44,8.02-.95,3-1.42,6.11-1.42,9.31s.49,6.52,1.48,9.69c.98,3.17,2.51,6,4.56,8.51,2.06,2.51,4.65,4.53,7.77,6.05,3.13,1.52,6.83,2.28,11.1,2.28,3.7,0,7.09-.68,10.18-2.04,3.08-1.36,5.69-2.77,7.83-4.25,3.87-2.72,7.03-2.3,9.5,1.23l3.46,4.81c1.15,1.73,1.66,3.42,1.54,5.06-.12,1.65-1.01,3.13-2.65,4.44-1.4,1.07-3.08,2.22-5.06,3.46-1.97,1.23-4.25,2.36-6.85,3.39-2.59,1.03-5.47,1.9-8.63,2.59-3.17.7-6.6,1.05-10.3,1.05-7.07,0-13.46-1.15-19.18-3.45-5.72-2.3-10.59-5.51-14.62-9.62-4.03-4.11-7.11-8.94-9.25-14.5-2.14-5.55-3.21-11.62-3.21-18.19Z" style="fill:#f2f2f2; stroke-width:0px;"/><path d="m289.81,74.39c1.23-3.7,3.78-5.55,7.65-5.55h11.1c3.87,0,6.41,1.85,7.65,5.55l25.54,74.88c.82,2.38.72,4.28-.31,5.67-1.03,1.4-2.78,2.1-5.25,2.1h-8.14c-3.87,0-6.42-1.89-7.65-5.67l-3.7-12.83h-27.51l-3.7,12.83c-1.07,3.78-3.58,5.67-7.52,5.67h-8.14c-2.47,0-4.22-.7-5.24-2.1-1.03-1.4-1.13-3.29-.31-5.67l25.54-74.88Zm21.83,46.88l-4.93-17.15c-.42-1.4-.8-2.96-1.17-4.69-.37-1.73-.76-3.37-1.17-4.93-.42-1.81-.82-3.66-1.23-5.55h-.25c-.42,1.9-.82,3.74-1.23,5.55-.42,1.56-.8,3.21-1.17,4.93-.37,1.73-.76,3.29-1.17,4.69l-5.06,17.15h17.39Z" style="fill:#f2f2f2; stroke-width:0px;"/><path d="m355.44,75.38c.41-4.36,2.76-6.54,7.03-6.54h11.1c3.87,0,6.41,1.85,7.65,5.55l10.98,31.71c.5,1.4,1.01,2.94,1.54,4.63.53,1.69,1,3.27,1.42,4.75.5,1.73.99,3.45,1.48,5.18h.25c.5-1.73.98-3.45,1.48-5.18.41-1.48.88-3.06,1.42-4.75.53-1.68,1.05-3.23,1.54-4.63l10.98-31.71c1.23-3.7,3.78-5.55,7.65-5.55h11.1c4.27,0,6.62,2.18,7.03,6.54l6.04,74.64c.16,2.22-.31,3.95-1.42,5.18-1.11,1.23-2.77,1.85-4.99,1.85h-8.02c-4.28,0-6.62-2.18-7.03-6.54l-2.22-33.18c-.16-1.64-.27-3.35-.31-5.12s-.02-3.35.06-4.75c0-1.64.08-3.29.24-4.93h-.24c-.58,1.81-1.15,3.58-1.72,5.31-.5,1.48-1.03,3.08-1.61,4.81s-1.11,3.29-1.6,4.69l-7.28,20.11c-1.32,3.62-3.91,5.43-7.77,5.43h-6.91c-3.87,0-6.46-1.81-7.77-5.43l-7.28-20.11c-.49-1.4-1.02-2.96-1.6-4.69s-1.11-3.33-1.6-4.81c-.58-1.73-1.15-3.5-1.72-5.31h-.25c0,1.64.04,3.29.12,4.93,0,1.4.02,2.98.06,4.75.04,1.77-.02,3.48-.18,5.12l-2.22,33.18c-.41,4.36-2.75,6.54-7.03,6.54h-8.15c-2.22,0-3.89-.62-4.99-1.85-1.11-1.24-1.58-2.96-1.42-5.18l6.17-74.64Z" style="fill:#f2f2f2; stroke-width:0px;"/><path d="m458.57,75.63c0-4.52,2.26-6.79,6.78-6.79h29.85c4.27,0,8.18.74,11.72,2.22,3.53,1.48,6.55,3.58,9.07,6.29,2.51,2.72,4.46,5.92,5.86,9.62,1.39,3.7,2.1,7.77,2.1,12.21s-.7,8.53-2.1,12.28c-1.4,3.74-3.36,6.97-5.86,9.68-2.51,2.72-5.53,4.83-9.07,6.35-3.54,1.52-7.45,2.28-11.72,2.28h-15.05v20.48c0,4.53-2.26,6.79-6.78,6.79h-8.02c-4.53,0-6.78-2.26-6.78-6.79v-74.63Zm32.19,35.65c3.78,0,6.6-1.13,8.45-3.39,1.85-2.26,2.78-5.16,2.78-8.7s-.91-6.39-2.71-8.57c-1.81-2.18-4.53-3.27-8.15-3.27h-10.98v23.93h10.61Z" style="fill:#f2f2f2; stroke-width:0px;"/><path d="m533.69,75.63c0-4.52,2.26-6.79,6.78-6.79h8.02c4.53,0,6.79,2.26,6.79,6.79v48.98c0,4.69,1.38,8.22,4.13,10.61,2.75,2.38,6.48,3.58,11.17,3.58s8.41-1.19,11.16-3.58c2.76-2.38,4.13-5.92,4.13-10.61v-48.98c0-4.52,2.26-6.79,6.79-6.79h8.02c4.52,0,6.79,2.26,6.79,6.79v48.98c0,4.93-.88,9.48-2.65,13.63-1.77,4.15-4.26,7.73-7.46,10.73-3.21,3-7.07,5.35-11.6,7.03-4.53,1.68-9.54,2.53-15.05,2.53s-10.67-.84-15.23-2.53c-4.57-1.68-8.45-4.03-11.66-7.03-3.21-3-5.7-6.58-7.46-10.73-1.77-4.15-2.65-8.7-2.65-13.63v-48.98Z" style="fill:#f2f2f2; stroke-width:0px;"/><path d="m622.02,149.77c-.66-.49-1.24-1.05-1.72-1.66-.5-.62-.84-1.32-1.05-2.1-.2-.78-.2-1.62,0-2.53.21-.9.72-1.93,1.54-3.08l3.83-5.55c1.24-1.81,2.59-2.81,4.07-3.02,1.48-.2,3.25.27,5.31,1.42.74.41,1.62.9,2.65,1.48,1.02.58,2.22,1.17,3.58,1.79,1.35.62,2.85,1.13,4.5,1.54,1.64.41,3.41.62,5.31.62,3.21,0,5.57-.6,7.09-1.79,1.52-1.19,2.28-2.65,2.28-4.38,0-2.06-.96-3.8-2.9-5.25-1.93-1.44-4.34-2.79-7.22-4.07-2.88-1.27-6-2.63-9.37-4.07-3.38-1.44-6.5-3.23-9.38-5.37-2.88-2.14-5.29-4.75-7.21-7.83-1.94-3.08-2.9-6.93-2.9-11.54,0-4.03.8-7.71,2.4-11.04,1.6-3.33,3.8-6.19,6.6-8.57,2.8-2.38,6.13-4.21,9.99-5.49,3.87-1.27,8.02-1.91,12.46-1.91,5.18,0,9.91.72,14.19,2.16,4.27,1.44,7.48,2.9,9.62,4.38,1.81,1.32,2.84,2.74,3.08,4.26.25,1.52-.08,3.19-.99,4.99l-2.96,5.8c-1.23,2.39-2.65,3.6-4.25,3.64-1.6.04-3.27-.39-5-1.3-2.06-.98-4.17-1.91-6.35-2.77-2.18-.86-4.71-1.3-7.59-1.3-3.45,0-5.92.6-7.4,1.79-1.48,1.19-2.22,2.65-2.22,4.38,0,2.14.96,3.91,2.9,5.31,1.93,1.4,4.34,2.71,7.22,3.95,2.88,1.23,6,2.53,9.38,3.89,3.37,1.36,6.49,3.08,9.38,5.18,2.88,2.1,5.29,4.69,7.21,7.77,1.93,3.08,2.9,6.93,2.9,11.54,0,3.7-.68,7.21-2.04,10.55-1.36,3.33-3.35,6.25-5.98,8.76-2.63,2.51-5.88,4.5-9.75,5.98-3.87,1.48-8.26,2.22-13.2,2.22-3.13,0-6.11-.29-8.94-.86-2.84-.58-5.47-1.3-7.9-2.16-2.42-.86-4.61-1.81-6.54-2.84-1.93-1.03-3.48-2-4.63-2.9Z" style="fill:#f2f2f2; stroke-width:0px;"/><path d="m86.11,104.73l21.67-21.72v-31.88s-31.93,0-31.93,0l-21.68,21.67c15.64,5.81,26.09,16.24,31.94,31.93Z" style="fill:#f2f2f2; stroke-width:0px;"/><path d="m145.91.75h-70.75v.17C33.23,3.46,0,38.26,0,80.83s35.86,80.09,80.09,80.09,80.09-35.85,80.09-80.09V15.01c0-7.88-6.38-14.26-14.26-14.26Zm-27.8,86.51l-36.13,36.13s-2.62-40.48-46.47-46.45l36.13-36.14h46.46v46.47Z" style="fill:#f2f2f2; stroke-width:0px;"/></svg>