<?xml version="1.0" encoding="utf-8"?>
<!-- Generator: Adobe Illustrator 22.1.0, SVG Export Plug-In . SVG Version: 6.00 Build 0)  -->
<svg version="1.1" id="Layer_1" xmlns="http://www.w3.org/2000/svg" xmlns:xlink="http://www.w3.org/1999/xlink" x="0px" y="0px"
	 viewBox="0 0 1067.8 319.8" style="enable-background:new 0 0 1067.8 319.8;" xml:space="preserve">
<style type="text/css">
	.st0{fill:#FFFFFF;}
	.st1{fill:#EA2227;}
	.st2{fill:#BE2227;}
	.st3{fill:#A31E23;}
	.st4{fill:#EF4F5A;}
	.st5{fill:#FFFFFF;stroke:#FFFFFF;stroke-width:0.25;stroke-miterlimit:10;}
</style>
<title>logo-halozend</title>
<path class="st0" d="M543.1,165.1c-0.3,4.2,1.5,6.3,5.7,6.3l-1,11.5H538c-5.6,0-10.1-1.5-13.3-4.5c-3.3-3-4.7-7.4-4.3-13.3l3.4-39.5
	H502l-5,57.3h-22.9l10.1-114.7h-6.5l1-11.5H508l-5,57.3h21.6l5-57.3h22.9L543.1,165.1z M630.6,171.4l-1,11.5h-8
	c-8,0-13.8-2.3-17.5-7c-4.7,4.6-11.1,7.1-17.6,7h-3.7c-7.8,0-14.4-2.1-19.9-6.2c-5.8-4.1-8.9-11.1-8-18.1l3.3-38.3
	c0.7-7.4,4.4-13.5,11.3-18.1c6.2-4.1,13.4-6.3,20.9-6.2h39.5l-5.8,67.8C623.6,168.6,625.8,171.2,630.6,171.4z M605.9,107.4h-16.4
	c-4.9,0-7.6,2.9-8,8.6l-3.8,44c-0.7,7.6,2.6,11.5,9.8,11.5c3.5,0,6.9-1.3,9.4-3.8c2.6-2.3,4.3-5.6,4.6-9.1L605.9,107.4z M673.7,56.7
	h-28.9l-1,11.5h6.2l-8.2,93.3c-0.6,6.6,1.4,11.8,6,15.7s11,5.7,19.3,5.7h3.8l0.9-11.5c-5.2-0.5-7.6-3.8-7-9.9L673.7,56.7z
	 M744.9,120.2l-3.4,38.3c-0.6,6.7-4,12.5-10.3,17.2c-6.3,4.7-14,7.2-21.9,7.1h-3.4c-7.9,0-14.5-2.1-20-6.2c-5.8-4.1-8.9-11.1-8-18.1
	l3.4-38.3c0.7-7.5,4.4-13.6,11.3-18.1c6.1-4.1,13.4-6.3,20.8-6.2h3.6c7.8,0,14.4,2.1,19.8,6.2C742.9,106.8,745.6,112.8,744.9,120.2
	L744.9,120.2z M720.2,110.8c-1.3-2.1-3.6-3.3-6.1-3.3c-2.5,0.1-4.9,1.2-6.5,3.1c-2.2,2.7-3.4,6.1-3.6,9.6l-3.2,38.3
	c-0.4,3.9,0.3,7,1.9,9.2c1.3,2.1,3.5,3.5,6,3.6c2.4,0.1,4.6-0.9,6.6-3.2s3.2-5.5,3.5-9.7l3.3-38.3
	C722.3,116.1,721.7,113,720.2,110.8L720.2,110.8z M752.8,95.9l-1,11.5h38.8l-48.5,75.5h73.8l1-11.5h-39.1l48.4-75.5H752.8z
	 M971.4,164l3.6-43.3c0.7-8.4-2-14.8-7.9-19.2c-5.2-3.8-12.6-5.6-22.1-5.6h-38.7l-1,11.5h6.4l-6.6,75.5h22.9l6.7-75.5h9.3
	c2.7,0,5.2,1.3,6.7,3.6c1.4,2.1,2,4.5,1.7,7l-4.1,47.4c-0.5,5.7,1.3,10.1,5.1,13.4c3.4,2.7,8,4.1,13.7,4.1h9.8l1-11.5
	c-2.9,0-4.6-0.4-5.3-1C971.6,169.5,971.2,167.4,971.4,164L971.4,164z M1060.6,171.4l-1,11.5h-8.6c-7.9,0-13.8-2.3-17.6-7
	c-5,4.7-11.5,7-19.3,7c-8.3,0-15.3-1.9-20.9-5.6c-6.5-4.3-9.4-10.6-8.7-18.7l3.3-38.3c0.7-7.4,4.4-13.5,11.3-18.1
	c6.2-4.1,13.4-6.2,20.8-6.2h16.4l2.6-27.7h-6.5l1-11.5h29.5l-9.4,107C1052.9,168.8,1055.3,171.4,1060.6,171.4L1060.6,171.4z
	 M1035.4,107.4h-16.6c-4.8,0-7.4,2.9-7.9,8.6l-3.8,44c-0.7,7.6,2.5,11.5,9.6,11.5c3.5,0,6.9-1.3,9.4-3.8c2.6-2.3,4.3-5.6,4.6-9.1
	L1035.4,107.4z M893.7,120.2l-2.2,24.8h-40.8l-1.2,13.5c-0.3,3.9,0.3,7,1.9,9.2c1.3,2.1,3.5,3.5,6,3.6c2.4,0.1,4.6-0.9,6.6-3.2
	s3.2-5.4,3.5-9.6h22.8c-0.6,6.7-4,12.4-10.3,17.1c-6.3,4.7-14,7.2-21.9,7.1h-3.4c-7.9,0-14.5-2.1-20-6.2c-5.8-4.1-8.9-11.1-8-18.1
	l3.4-38.3c0.7-7.5,4.4-13.6,11.3-18.1c6.2-4.1,13.5-6.3,20.9-6.2h3.5c7.8,0,14.4,2.1,19.8,6.2C891.7,106.8,894.4,112.8,893.7,120.2z
	 M869,110.8c-1.3-2.1-3.6-3.3-6.1-3.3c-2.5,0.1-4.9,1.2-6.5,3.1c-2.2,2.7-3.5,6.1-3.6,9.6l-1.1,13.5h18l1.1-13.5
	C871.1,116.1,870.5,113,869,110.8L869,110.8z"/>
<g id="_Group_">
	<path id="_Path_" class="st1" d="M0,234.1c0,0,0-28.4,29.2-70c8.7-12.5,18.2-24.3,28.5-35.5c0,0,2.8-50.7,54.8-92.9
		c67.7-54.9,142-30.1,142-30.1c-45.1,18.5-73,34.8-133.7,81.9C41.6,148.9,13.7,199.7,0,234.1z"/>
	<path id="_Compound_Path_" class="st1" d="M173.4,124c-17.4-13.4-49.8,6.1-78.2,29.5c-21.5,17.6-57.6,51.1-74.6,77.8
		c-32.4,50.8-0.1,55.1,34.9,42.3c13.2-4.8,32.5-15.9,32.5-15.9l9.2,9.8l11.6,12.2c0,0,37.6-23.4,58.6-72.2
		C178.2,182.3,184.7,132.7,173.4,124z M43,247.6c-13,3.5-24,3.6-12.1-18.9c6.2-11.7,26.9-34.1,26.9-34.1s4.4,16.1,6.4,21.3
		s8.2,16.9,8.2,16.9S55.9,244.2,43,247.6z"/>
	<path id="_Compound_Path_2" class="st2" d="M144.9,126.4c5-3.1,15.3-6.8,15.3-6.8c-18-0.3-42.7,15.5-65,33.8
		c-21.5,17.6-57.6,51.1-74.6,77.8c-32.4,50.8-0.1,55.1,34.9,42.3c13.2-4.8,32.5-15.9,32.5-15.9s-3.3-5.4-10-16.2
		c-9.1-14.8-8.7-54.1,10.3-73.3C112.1,144,131.1,134.9,144.9,126.4z M43,247.6c-13,3.5-24,3.6-12.1-18.9
		c6.2-11.7,26.9-34.1,26.9-34.1s4.4,16.1,6.4,21.3s8.2,16.9,8.2,16.9S55.9,244.2,43,247.6z"/>
	<path id="_Compound_Path_3" class="st3" d="M57.9,194.5c-6.9,7.7-28.6,32-33.1,45.2c-5,14.8-1.2,23.4,23.8,17.3
		c13.7-3.3,31.7-11.8,31.7-11.8l-2.4-3.8c-9.1-14.8-5.4-36.3-5.4-45.8C72.6,192.5,63.1,188.8,57.9,194.5z M43,247.6
		c-13,3.5-24,3.6-12.1-18.9c6.2-11.7,26.9-34.1,26.9-34.1s4.4,16.1,6.4,21.3s8.2,16.9,8.2,16.9S55.9,244.2,43,247.6z"/>
	<path id="_Path_2" class="st4" d="M81.3,246.7c0,0-8.8-26.8-6.9-41.6c2.1-16.6,8.1-24.4,29.2-46c25.1-25.8,56.6-39.4,56.6-39.4
		s-20.9,1-54.5,27.1c-27.3,21.2-47.7,47.7-47.7,47.7s2.9,14.8,6.5,22.8C69.1,227.9,81.3,246.7,81.3,246.7z"/>
	<path id="_Path_3" class="st4" d="M64.7,100.5c0,0,18.2-14.4,34.5-23.1c31.3-16.8,64.3-24.5,64.3-24.5S126,73.7,99.3,93
		c-14,10.1-41.6,35.6-41.6,35.6c0.5-5.1,1.4-10.1,2.8-15C61.6,109.2,63,104.8,64.7,100.5z"/>
</g>
<g id="_Group_2">
	<path id="_Path_4" class="st1" d="M427.3,86.3c0,0-0.1,28.4-29.3,69.9c-8.7,12.4-18.3,24.3-28.6,35.4c0,0-2.9,50.7-55.1,92.8
		c-67.8,54.7-142,29.7-142,29.7c45.1-18.4,73.1-34.6,134-81.5C385.5,171.3,413.5,120.6,427.3,86.3z"/>
	<path id="_Compound_Path_4" class="st1" d="M253.6,195.9c17.3,13.4,49.8-6,78.3-29.2c21.6-17.5,57.7-50.9,74.8-77.6
		c32.5-50.7,0.3-55.1-34.8-42.4c-13.3,4.8-32.5,15.8-32.5,15.8l-9.2-9.8l-11.5-12.2c0,0-37.7,23.3-58.8,72
		C248.9,137.5,242.3,187.2,253.6,195.9z M384.3,72.7c13.1-3.4,24.1-3.5,12,19c-6.3,11.7-27,34.1-27,34.1s-4.4-16.2-6.4-21.3
		c-2.1-5.3-8.2-17-8.2-17S371.4,76,384.3,72.7z"/>
	<path id="_Compound_Path_5" class="st2" d="M282.1,193.5c-5,3-15.3,6.7-15.3,6.7c18,0.4,42.7-15.4,65-33.6
		c21.6-17.5,57.7-50.9,74.8-77.6c32.5-50.7,0.3-55.1-34.8-42.4c-13.3,4.8-32.5,15.8-32.5,15.8s3.3,5.4,9.9,16.3
		c9.1,14.9,8.5,54.1-10.5,73.3C315,176.1,295.9,185.2,282.1,193.5z M384.3,72.7c13.1-3.4,24.1-3.5,12,19c-6.3,11.7-27,34.1-27,34.1
		s-4.4-16.2-6.4-21.3c-2.1-5.3-8.2-17-8.2-17S371.4,76,384.3,72.7z"/>
	<path id="_Compound_Path_6" class="st3" d="M369.3,125.7c6.9-7.7,28.7-32,33.2-45.2c5-14.8,1.3-23.4-23.8-17.4
		C365,66.4,347,74.9,347,74.9l2.3,3.8c9.1,14.9,5.3,36.3,5.3,45.8C354.6,127.7,364.1,131.5,369.3,125.7z M384.3,72.7
		c13.1-3.4,24.1-3.5,12,19c-6.3,11.7-27,34.1-27,34.1s-4.4-16.2-6.4-21.3c-2.1-5.3-8.2-17-8.2-17S371.4,76,384.3,72.7L384.3,72.7z"
		/>
	<path id="_Path_5" class="st4" d="M346,73.4c0,0,8.7,26.9,6.8,41.6c-2.1,16.6-8.2,24.4-29.3,46c-25.2,25.7-56.7,39.2-56.7,39.2
		s20.9-1,54.6-27c27.3-21.1,47.9-47.6,47.9-47.6s-2.8-14.8-6.4-22.8C358.2,92.3,346,73.4,346,73.4z"/>
	<path id="_Path_6" class="st4" d="M362.2,219.7c0,0-18.2,14.3-34.5,23c-31.3,16.7-64.4,24.3-64.4,24.3s37.5-20.7,64.3-39.9
		c14-10,41.7-35.5,41.7-35.5c-0.5,5.1-1.4,10.1-2.8,15C365.4,211,363.9,215.4,362.2,219.7z"/>
</g>
<polygon id="_Path_7" class="st1" points="438.8,285.2 1044.8,285.2 1067.8,219.8 461,219.8 "/>
<path class="st5" d="M513.6,263.5c-5.9,5.8-15.3,5.8-21.2,0c-5.6-6.3-5.6-15.7,0-22c5.9-5.8,15.3-5.8,21.2,0
	C519.1,247.8,519.1,257.2,513.6,263.5z M511.4,243.5c-4.5-4.6-11.9-4.8-16.5-0.3c-0.1,0.1-0.2,0.2-0.3,0.3c-4.4,5.2-4.4,12.9,0,18.1
	c4.5,4.6,11.9,4.8,16.5,0.3c0.1-0.1,0.2-0.2,0.3-0.3C515.8,256.4,515.8,248.7,511.4,243.5z M537.4,267.5V265c-0.4,0.4-0.9,0.7-1.4,1
	c-0.5,0.3-1,0.6-1.6,0.8c-1.4,0.6-2.9,1-4.4,0.9c-2.8,0.2-5.2-1.9-5.4-4.7c0-0.2,0-0.5,0-0.7v-13.3h-3.5v-2.6h6.4V262
	c-0.1,0.8,0.2,1.7,0.8,2.3c0.6,0.6,1.4,0.9,2.2,0.8c1.3,0,2.6-0.4,3.7-1c0.6-0.3,1.2-0.7,1.8-1.1c0.5-0.4,1-0.8,1.5-1.3v-15.2h2.9
	v18.5h3.5v2.6H537.4z M559.4,248.8c-2.8,0-4.8,0.6-6.2,1.8s-1.9,3-1.9,5.6v8.8h4.1v2.6h-7v-18.4h-3.7v-2.6h6.7v2.8
	c0.3-0.4,0.6-0.8,0.9-1.2c0.4-0.4,0.8-0.7,1.2-1c0.4-0.2,0.9-0.4,1.3-0.6c0.5-0.2,1-0.3,1.5-0.4c0.5-0.1,1.1-0.2,1.6-0.2
	c0.5,0,1,0,1.5,0h1.1v2.8L559.4,248.8z M592.8,265.5c-1.9,1.6-4.3,2.5-6.8,2.4c-1.6,0-3.3-0.4-4.7-1.1c-1.2-0.6-2.2-1.5-3-2.5v3.2
	h-2.6v-10.7h2.6v1.4c0,1.9,0.8,3.6,2.3,4.9c1.5,1.4,3.5,2.2,5.5,2.1c1.7,0.1,3.4-0.5,4.6-1.7c1.2-1.1,1.9-2.6,1.8-4.2
	c0.1-1.4-0.6-2.8-1.7-3.6c-1.9-1.2-4-2-6.2-2.5c-1.3-0.4-2.7-0.8-3.9-1.4c-1-0.4-1.9-1-2.8-1.7c-1.5-1.4-2.3-3.4-2.2-5.5
	c0-2.1,0.9-4,2.5-5.3c1.7-1.4,3.9-2.2,6.2-2.2c0.7,0,1.5,0,2.2,0.1c0.7,0.1,1.5,0.3,2.2,0.6c0.6,0.3,1.2,0.6,1.7,0.9
	c0.6,0.4,1.1,0.8,1.6,1.4c0.3,0.3,0.5,0.6,0.8,0.9c0.2,0.3,0.4,0.7,0.6,1.1c0.2,0.4,0.3,0.8,0.4,1.2c0.1,0.5,0.1,0.9,0.2,1.3
	s0.1,0.9,0.1,1.5h-2.9v-0.9c0-0.3,0-0.6-0.1-0.8c-0.1-0.4-0.2-0.7-0.3-1.1c-0.1-0.4-0.3-0.8-0.5-1.2c-0.2-0.4-0.5-0.7-0.9-1
	c-0.7-0.5-1.5-0.9-2.3-1c-0.9-0.2-1.9-0.2-2.8-0.2c-1.5,0-2.9,0.4-4.1,1.4c-1,0.8-1.6,2.1-1.6,3.4c-0.1,1.4,0.6,2.7,1.7,3.5
	c1.5,1,3.2,1.6,4.9,2c3.9,1,6.6,2.2,8,3.5c1.5,1.5,2.3,3.6,2.2,5.8C595.7,261.8,594.6,264,592.8,265.5L592.8,265.5z M617.6,264.9
	c-3.7,4.1-10,4.3-14,0.6c-0.2-0.2-0.4-0.4-0.6-0.6c-3.9-4.5-3.9-11.2,0-15.7c3.8-4.1,10.1-4.3,14.1-0.5c0.2,0.2,0.4,0.4,0.5,0.5
	C621.6,253.7,621.6,260.4,617.6,264.9z M615.6,251c-2.7-2.9-7.2-3.2-10.1-0.5c-0.2,0.2-0.3,0.3-0.5,0.5c-2.7,3.5-2.7,8.5,0,12
	c2.6,2.9,7.1,3.2,10.1,0.5c0.2-0.2,0.4-0.4,0.5-0.5C618.3,259.5,618.3,254.5,615.6,251z M625.3,267.5v-27.3h-3.6v-2.6h6.5v27.3h3.6
	v2.6H625.3z M649.8,267.5V265c-0.4,0.4-0.9,0.7-1.4,1c-0.5,0.3-1,0.6-1.6,0.8c-1.4,0.6-2.9,1-4.4,0.9c-2.8,0.2-5.2-1.8-5.4-4.6
	c0-0.3,0-0.5,0-0.8v-13.3h-3.5v-2.6h6.3V262c-0.1,0.8,0.2,1.6,0.8,2.3c0.6,0.6,1.4,0.9,2.2,0.8c1.3,0,2.6-0.4,3.7-1
	c0.6-0.3,1.2-0.7,1.8-1.1c0.5-0.4,1-0.8,1.5-1.3v-15.2h2.9v18.5h3.5v2.6H649.8z M664.9,268c-1.1,0.1-2.2-0.3-3-1.1
	c-0.3-0.4-0.6-0.8-0.7-1.3c-0.2-0.6-0.2-1.2-0.2-1.8v-14.8h-3.5v-2.6h3.5v-4.5h2.9v4.6h4.2v2.6h-4.1v14.3c0,0.5,0.1,1,0.3,1.5
	c0.3,0.3,0.7,0.4,1.1,0.4l2.7-0.4v2.6L664.9,268z M674.2,267.5v-1.9l0,0v-16.5h-3.5v-2.6h6.4v18.5h3.4v2.6H674.2z M676.5,240.7
	c-0.8,0.8-2,0.8-2.8,0c0,0,0,0,0,0c-0.4-0.4-0.6-0.9-0.6-1.5c0-0.6,0.2-1.1,0.6-1.5c0.8-0.8,2-0.8,2.8,0c0,0,0,0,0,0
	c0.4,0.4,0.6,0.9,0.6,1.5C677,239.8,676.8,240.3,676.5,240.7L676.5,240.7z M699.5,264.9c-3.8,4.1-10.1,4.3-14.1,0.5
	c-0.2-0.2-0.4-0.4-0.5-0.5c-3.9-4.5-3.9-11.2,0-15.7c3.8-4.1,10.1-4.3,14.1-0.5c0.2,0.2,0.4,0.4,0.5,0.5
	C703.4,253.7,703.4,260.4,699.5,264.9L699.5,264.9z M697.5,251c-2.6-2.9-7.2-3.2-10.1-0.5c-0.2,0.2-0.4,0.3-0.5,0.5
	c-2.7,3.5-2.7,8.5,0,12c2.6,2.9,7.1,3.2,10.1,0.6c0.2-0.2,0.4-0.4,0.6-0.6C700.2,259.5,700.2,254.5,697.5,251z M720.5,267.5v-15.7
	c0.1-0.9-0.2-1.7-0.8-2.4c-0.6-0.6-1.5-0.9-2.3-0.8c-1.3,0.1-2.5,0.4-3.6,1c-0.6,0.3-1.2,0.6-1.8,1c-0.6,0.4-1.1,0.8-1.6,1.3v13h3.2
	v2.6h-6.1v-18.4h-3.7v-2.6h6.5v2.4c1-0.8,2-1.5,3.2-2c1.3-0.6,2.7-0.9,4.1-0.9c1.5-0.1,3,0.5,4.1,1.5c1.1,1.1,1.6,2.6,1.6,4.1v13.3
	h3.2v2.6H720.5z M740.8,256.7v-2.6H753v2.6H740.8z M790.7,240.2l-8.6,13.8v13.4h-7v-2.6h4V254l-8.6-13.8h-3.9v-2.6h5.7l1.2,1.9l0,0
	l7.3,11.7l6.8-11h-3.4v-2.6h10.1v2.6L790.7,240.2z M805.1,264.9c-3.8,4.1-10.1,4.3-14.1,0.5c-0.2-0.2-0.4-0.4-0.5-0.5
	c-3.9-4.5-3.9-11.2,0-15.7c3.8-4.1,10.1-4.3,14.1-0.5c0.2,0.2,0.4,0.4,0.5,0.5C809.1,253.7,809.1,260.4,805.1,264.9z M803.1,251
	c-2.6-2.9-7.2-3.2-10.1-0.5c-0.2,0.2-0.4,0.3-0.5,0.5c-2.7,3.5-2.7,8.5,0,12c2.6,2.9,7.1,3.2,10.1,0.6c0.2-0.2,0.4-0.4,0.6-0.6
	C805.9,259.5,805.9,254.5,803.1,251z M825.9,267.5V265c-0.4,0.4-0.9,0.7-1.4,1c-0.5,0.3-1,0.6-1.6,0.8c-1.4,0.6-2.9,1-4.4,0.9
	c-2.8,0.2-5.2-1.8-5.4-4.6c0-0.3,0-0.5,0-0.8v-13.3h-3.5v-2.6h6.4V262c-0.1,0.8,0.2,1.6,0.8,2.3c0.6,0.6,1.4,0.9,2.2,0.8
	c1.3,0,2.6-0.4,3.7-1c0.6-0.3,1.2-0.7,1.8-1.1c0.5-0.4,1-0.8,1.5-1.3v-15.2h2.9v18.5h3.5v2.6H825.9z M848,248.8
	c-2.8,0-4.8,0.6-6.2,1.8s-1.9,3-1.9,5.6v8.8h4.1v2.6h-7v-18.4h-3.8v-2.6h6.7v2.8c0.3-0.4,0.6-0.8,0.9-1.2c0.4-0.4,0.8-0.7,1.2-1
	c0.4-0.2,0.9-0.4,1.3-0.6c0.5-0.2,1-0.3,1.5-0.4c0.5-0.1,1.1-0.2,1.6-0.2c0.5,0,1,0,1.5,0h1.1v2.8L848,248.8z M881.4,265.5
	c-1.9,1.6-4.3,2.5-6.8,2.4c-1.6,0-3.3-0.4-4.7-1.1c-1.2-0.6-2.2-1.5-3-2.5v3.2h-2.6v-10.7h2.6v1.4c0,1.9,0.8,3.6,2.3,4.9
	c1.5,1.4,3.4,2.2,5.5,2.1c1.7,0.1,3.4-0.5,4.6-1.7c1.2-1.1,1.8-2.6,1.8-4.2c0.1-1.4-0.6-2.7-1.7-3.6c-1.9-1.2-4-2-6.2-2.5
	c-1.4-0.3-2.7-0.8-4-1.3c-1-0.4-1.9-1-2.8-1.7c-1.5-1.4-2.3-3.4-2.2-5.5c0-2.1,0.9-4,2.5-5.3c1.7-1.4,3.9-2.2,6.2-2.2
	c0.7,0,1.5,0,2.2,0.1c0.7,0.1,1.5,0.3,2.2,0.6c0.7,0.3,1.2,0.6,1.7,0.9c0.6,0.4,1.1,0.8,1.6,1.4c0.3,0.3,0.5,0.6,0.8,0.9
	c0.2,0.3,0.4,0.7,0.6,1.1c0.2,0.4,0.3,0.8,0.4,1.2c0.1,0.5,0.2,0.9,0.2,1.3s0.1,0.9,0.1,1.5h-2.9v-0.9c0-0.3,0-0.6-0.1-0.8
	c-0.1-0.4-0.1-0.7-0.3-1.1c-0.1-0.4-0.3-0.8-0.6-1.2c-0.2-0.4-0.5-0.7-0.9-1c-0.7-0.5-1.5-0.9-2.3-1c-0.9-0.2-1.9-0.2-2.8-0.2
	c-1.5,0-2.9,0.4-4.1,1.4c-1,0.8-1.6,2.1-1.6,3.4c-0.1,1.4,0.6,2.7,1.7,3.5c1.5,1,3.2,1.6,4.9,2c3.9,1,6.6,2.2,8.1,3.5
	c3.1,3.4,2.9,8.6-0.5,11.7C881.4,265.4,881.3,265.5,881.4,265.5L881.4,265.5z M901.2,267.5v-2.5c-0.4,0.4-0.9,0.7-1.4,1
	c-0.5,0.3-1,0.6-1.6,0.8c-1.4,0.6-2.9,1-4.4,0.9c-2.8,0.2-5.2-1.8-5.4-4.6c0-0.3,0-0.5,0-0.8v-13.4h-3.5v-2.6h6.4V262
	c-0.1,0.8,0.2,1.6,0.8,2.3c0.6,0.6,1.4,0.9,2.2,0.8c1.3,0,2.6-0.4,3.7-1c0.6-0.3,1.2-0.7,1.8-1.1c0.5-0.4,1-0.8,1.5-1.3v-15.2h2.9
	v18.5h3.5v2.6L901.2,267.5z M926.8,264.5c-3.4,4.2-9.6,4.9-13.9,1.5c-0.4-0.3-0.8-0.7-1.1-1c-3.8-4.6-3.8-11.2,0-15.8
	c1.8-2.1,4.4-3.3,7.1-3.2c1.3,0,2.7,0.3,3.9,0.9c0.8,0.4,1.6,1,2.2,1.7v-0.8h2.5v7.2H925c0-1-0.2-2-0.6-2.9
	c-0.3-0.7-0.8-1.4-1.3-1.9c-1.2-1-2.6-1.5-4.1-1.5c-2-0.1-3.8,0.8-5.1,2.3c-1.4,1.7-2.1,3.9-2,6.1c-0.1,2.2,0.6,4.4,2,6.1
	c1.3,1.5,3.3,2.4,5.3,2.3c1.4,0,2.9-0.4,4-1.3c0.5-0.4,1-1,1.4-1.5c0.5-0.7,0.9-1.4,1.2-2.2l2.4,1.1
	C927.8,262.5,927.3,263.5,926.8,264.5L926.8,264.5z M949.8,264.5c-3.4,4.2-9.6,4.9-13.9,1.5c-0.4-0.3-0.8-0.7-1.1-1
	c-3.8-4.6-3.8-11.2,0-15.8c1.8-2.1,4.4-3.3,7.1-3.2c1.3,0,2.7,0.3,3.9,0.9c0.8,0.4,1.6,1,2.2,1.7v-0.8h2.5v7.2H948
	c0-1-0.2-2-0.6-2.9c-0.3-0.7-0.8-1.4-1.3-1.9c-1.2-1-2.6-1.5-4.1-1.5c-2-0.1-3.8,0.8-5.1,2.3c-1.4,1.7-2.1,3.9-2,6.1
	c-0.1,2.2,0.6,4.4,2,6.1c1.3,1.5,3.3,2.4,5.3,2.3c1.4,0,2.9-0.4,4-1.3c0.5-0.4,1-1,1.4-1.5c0.5-0.7,0.9-1.4,1.2-2.2l2.4,1.1
	C950.8,262.5,950.3,263.5,949.8,264.5L949.8,264.5z M957.8,257.9c0.1,2,0.9,3.9,2.3,5.3c1.5,1.6,3.6,2.5,5.8,2.5
	c0.5,0,1-0.1,1.4-0.2c0.6-0.1,1.1-0.3,1.7-0.5s1-0.3,1.4-0.5c0.3-0.1,0.5-0.2,0.7-0.3l0.7,2.3c-0.9,0.3-1.7,0.6-2.3,0.8
	s-1.3,0.4-2,0.6c-0.6,0.2-1.3,0.2-1.9,0.3c-2.9,0.1-5.6-1.1-7.6-3.1c-4-4.6-4-11.3,0-15.9c1.9-2.1,4.7-3.2,7.6-3.1
	c2.8-0.1,5.4,1,7.3,3.1c1,1.1,1.7,2.3,2.2,3.7c0.5,1.7,0.8,3.4,0.9,5.1L957.8,257.9z M970.4,250.5c-1.3-1.4-3.2-2.1-5.1-2
	c-2.1,0-4.1,0.8-5.4,2.4c-0.5,0.6-0.9,1.2-1.2,1.9c-0.3,0.8-0.6,1.6-0.7,2.4h14.8C972.5,253.4,971.7,251.7,970.4,250.5L970.4,250.5z
	 M991.8,266.5c-1.6,1.2-3.7,1.8-5.7,1.7c-1.2,0-2.4-0.2-3.6-0.7c-0.9-0.4-1.6-1-2.2-1.8v1.8h-2.6v-7.7h2.6c0,0.9,0.2,1.8,0.4,2.7
	c0.3,0.7,0.7,1.3,1.2,1.8c1.2,1,2.8,1.6,4.3,1.5c1.3,0,2.5-0.4,3.6-1.1c0.9-0.6,1.5-1.6,1.5-2.7c0.1-0.9-0.3-1.9-1.1-2.5
	c-1.4-0.8-2.8-1.2-4.4-1.4c-1.9-0.2-3.7-0.9-5.3-1.9c-1.3-1-1.9-2.5-1.8-4.1c-0.1-1.7,0.6-3.3,1.9-4.4c1.3-1.1,3-1.7,4.7-1.6
	c1,0,1.9,0.2,2.8,0.5c0.9,0.4,1.7,0.9,2.4,1.6v-1h2.5v6.5h-2.5c0-0.7-0.2-1.5-0.4-2.2c-0.3-0.6-0.6-1.1-1.1-1.6
	c-1-0.9-2.3-1.4-3.6-1.3c-1.1-0.1-2.2,0.3-3,1c-0.7,0.6-1.1,1.5-1.1,2.4c-0.1,0.8,0.3,1.7,1,2.2c1.3,0.7,2.7,1.1,4.1,1.3
	c1.3,0.2,2.6,0.6,3.8,1c0.8,0.3,1.6,0.7,2.2,1.3c1,1.1,1.6,2.6,1.5,4.1c0,1.8-0.8,3.5-2.2,4.6L991.8,266.5z M1012.1,266.5
	c-1.6,1.2-3.7,1.8-5.7,1.7c-1.2,0-2.4-0.2-3.6-0.7c-0.9-0.4-1.6-1-2.2-1.8v1.8H998v-7.7h2.6c0,0.9,0.2,1.8,0.4,2.7
	c0.3,0.7,0.7,1.3,1.3,1.8c1.2,1,2.8,1.6,4.3,1.5c1.3,0,2.5-0.4,3.6-1.1c0.9-0.6,1.5-1.6,1.5-2.7c0.1-1-0.3-1.9-1.1-2.5
	c-1.3-0.8-2.8-1.2-4.4-1.4c-1.9-0.2-3.7-0.9-5.4-1.9c-1.3-1-1.9-2.5-1.8-4.1c-0.1-1.7,0.6-3.3,1.9-4.4c1.3-1.1,3-1.7,4.7-1.6
	c1,0,1.9,0.2,2.8,0.5c0.9,0.4,1.7,0.9,2.4,1.6v-1h2.5v6.5h-2.5c0-0.7-0.2-1.5-0.4-2.2c-0.3-0.6-0.6-1.1-1.1-1.6
	c-1-0.9-2.3-1.4-3.6-1.3c-1.1-0.1-2.2,0.3-3,1c-0.7,0.6-1,1.5-1,2.4c-0.1,0.8,0.3,1.7,1,2.2c1.3,0.7,2.7,1.1,4.1,1.3
	c1.3,0.2,2.6,0.6,3.8,1c0.8,0.3,1.6,0.7,2.2,1.3c1,1.1,1.6,2.6,1.5,4.1c0,1.8-0.8,3.5-2.3,4.6L1012.1,266.5z"/>
</svg>
