<?xml version="1.0" encoding="utf-8"?>
<!-- Generator: Adobe Illustrator 24.0.0, SVG Export Plug-In . SVG Version: 6.00 Build 0)  -->
<svg version="1.1" id="Layer_1" xmlns="http://www.w3.org/2000/svg" xmlns:xlink="http://www.w3.org/1999/xlink" x="0px" y="0px"
	 width="170px" height="70px" viewBox="0 0 170 70" enable-background="new 0 0 170 70" xml:space="preserve">
<g>
	<g>
		<path fill="#FFFFFF" d="M169.9,18.2c0-4.9-4-8.9-8.9-8.9c-4.9,0-8.9,4-8.9,8.9c0,1.7,0.5,3.3,1.4,4.7c-0.4-0.2-0.8-0.4-1.2-0.5
			c-9.1-3.7-16.8-0.8-21.3,8c-0.4,0.8-1.1,2.2-1.8,3.8c-0.4-8.3-4.9-10.6-6.9-11.2c-3.7-1.1-8.2,0.4-10.1,3.5c-0.4,0.6-0.7,1.3-1,2
			c-1.1-1.9-3-3-5.1-3.2c-3-0.2-5.9,1.5-8,4.4c-1.4,2.1-2.1,4.6-2.4,7c-0.5-0.4-1.1-0.8-1.7-1.1c-3.1-1.5-7.7-1.2-11.1,1
			c0-0.2,0.1-0.3,0.1-0.5c0-0.6,0.1-1.1,0-1.7c0.1-3.2-0.5-5.6-2-7.1c-1.2-1.3-3-2-5.1-2.1c-2-0.1-4.1,0.9-5.7,2.6
			c-1.9,1.9-3,4.5-3.2,7.5c-0.4-0.5-1-1-1.7-1.4c-0.5-0.3-1-0.6-1.5-0.7c0.2-0.4,0.4-0.9,0.6-1.3v-0.1c0.2-0.5,0.4-1.2,0.5-1.9
			c0.1-1.3-0.5-2.3-0.9-3c-0.1-0.2-0.3-0.5-0.4-0.7c0.4-0.1,0.7-0.4,1.1-0.6c0.6-0.5,1.1-1.1,1.4-1.9c0.4-0.9,0.1-2-0.6-2.7
			c-0.1-0.1-0.1-0.1-0.2-0.2c-0.2-0.2-0.5-0.4-0.8-0.4c-0.2-0.1-0.4-0.1-0.6-0.1c-0.2-0.7-0.4-1.4-0.6-2.2c-0.2-0.7-0.3-1.4-0.6-2.2
			c-0.4-1.4-1-2.7-1.7-3.9c-0.2-0.4-0.6-0.9-0.8-1.3c0.1-0.1,0.2-0.1,0.2-0.2c2-1.4,2.9-3.6,2.5-5.7c-0.1-0.6-0.3-1-0.6-1.4
			c-0.7-1.1-1.7-1.2-2.2-1.2c-0.7,0-1.5,0.3-2,1.1c-0.1,0-0.3,0.1-0.4,0.1c-0.7,0.1-1.7,0.1-2.7,0.1c-0.9,0.1-1.7,0.1-2.5,0.2
			c-0.1-0.4-0.2-0.7-0.3-1.2c0,0,0-0.1-0.1-0.1c-0.5-1.1-1.2-1.8-2.1-2.2c-1.1-0.5-2.3-0.5-3.5,0l-0.1,0.1c-0.2,0.1-0.4,0.2-0.6,0.3
			c0,0-0.1,0-0.1,0.1c-0.2,0.1-0.5,0.3-0.7,0.5c-0.7-0.4-1.5-0.4-2.3-0.2c-0.1,0-0.1,0-0.1,0c-0.5,0.1-1,0.4-1.3,0.7
			C41,2.1,40.8,2.5,40.7,3c-0.2,0.2-0.6,0.5-0.9,0.8L39.5,4c-0.5,0.4-1,0.8-1.5,1.2c-0.7,0.5-1.3,1-1.9,1.5
			c-0.4,0.4-0.7,0.7-1.1,1.2c-0.8-0.2-1.7-0.2-2.5,0.1c-1.3,0.5-2.2,1.5-2.6,2.8c-0.2,0.7-0.2,1.4-0.1,2.2c0,0-0.1,0-0.1,0.1
			c-1.4,0.9-2,2.5-1.7,4c0,0.1,0,0.1,0.1,0.2c0.1,0.5,0.4,0.9,0.7,1.3c-0.4,0.9-0.7,1.8-0.7,2.7c0,0.2-0.1,0.5-0.1,0.7
			c-0.9-0.1-1.8-0.1-2.7,0.1c-3.3,0.7-5.9,2.8-7.7,5.3c-0.9-1.3-2-2.5-3.6-3.5c-2.2-1.2-4.7-1.4-7.3-0.7C3.4,24-0.2,26.7,0,33.8
			c-0.2,4.3,1.3,9.1,2.4,12.7l0.1,0.2c0.9,2.8,8.6,21.6,16.3,21.6c0.3,0,0.6,0,0.9-0.1c4.6-0.9,4.8-7.6,4.8-10.6
			c0.6,2.4,1.8,4.9,4,6.5c1.9,1.3,4.1,1.7,6.7,1.2c2.9-0.6,5.2-2,6.8-4c0.2,0.4,0.4,0.9,0.7,1.4c1.4,2,3.8,3,6.5,2.7
			c2.9-0.4,5.4-2.2,6.7-4.8c1.5,3,4,5.3,7.2,6.3c2.8,0.9,5.7,0.7,8.2-0.4c1.1,1.8,3,3.3,6.4,3.3c0.4,0,0.7,0,1.1-0.1
			c1.6-0.1,3.9-1.2,5.1-3.1c0.6-0.9,0.9-2,0.8-3c0.8,0.1,1.6,0.2,2.5,0.2c0.4,0,0.9,0,1.4-0.1c4.9-0.5,8.4-3.7,9.7-8.8
			c0.8,1.6,1.9,3.2,3.2,4.4c2.4,2.5,5.4,3.8,8.5,3.8c0.1,0,0.1,0,0.1,0c5.9-0.1,10.7-2.6,14-7.2c0,2.5,0.3,4.7,1.1,6.5
			c1.7,4.2,5.3,6.7,9.5,6.7c0.1,0,0.2,0,0.4,0c4.5-0.2,8.5-3.3,9.9-7.8c0.7-2.2,1.1-4.4,1.1-6.7c3,1.7,5.7,1.7,7.4,1.4
			c4.3-0.9,8-4.6,9.7-9.9c0.7-2.3,1.1-4.6,0.9-6.8c0.2-4.9-1.5-9.5-4.8-12.9c0.7,0.1,1.3,0.2,2,0.2C166,27.1,169.9,23.2,169.9,18.2z
			 M111.4,46.1c-0.1-0.2-0.2-0.7-0.2-1.5c0.1-0.8,0.2-1.7,0.4-2.6c0.1,0.2,0.1,0.4,0.1,0.6l0.1,0.8c0.1,0.4,0.1,0.8,0.1,1.2
			C111.8,45.4,111.6,45.9,111.4,46.1z"/>
		<g id="XMLID_1772_">
			<g id="XMLID_1865_">
				<path fill="#FFB900" d="M98.2,44.9c-0.1,4.2,3.5,15.1,11.7,15.1c9.5-0.1,15.9-7.6,16.9-22.2c0.9-14.7-9.8-13.4-12.4-9.4
					c-2.2,3.5-0.9,9.5-0.1,13.7c0.9,5-1,7.2-2.8,7.2c-2,0-2.9-1.9-2.7-5.7c0.2-3.9,2.5-9,0.6-13c-1.5-3.1-6.1-3.2-9,1.2
					C97.1,36.6,98.2,44.9,98.2,44.9z"/>
			</g>
			<g id="XMLID_1862_">
				<path fill="#FFB900" d="M151.4,25.3c-8-3.3-14.4-0.6-18.1,6.8s-9,21.1-5.9,28.8c3,7.7,12.8,6.4,15.1-0.9
					c2.2-7.2-0.1-12.5-0.1-12.5c7.3,9.8,15.6,5.6,18.2-2.6C163.1,36.5,159.5,28.5,151.4,25.3z M143,41.4c-1.2-1.1,0.3-5.8,2-6.4
					c2-0.7,4,2.1,3.2,4.5C147.5,41.9,144.4,42.7,143,41.4z"/>
			</g>
			<g id="XMLID_1861_">
				<path fill="#00D623" d="M47,43.9c2.3-1.1,5.3,1.5,6.4,4.4c1.1,2.8,1.9,5.9,0.4,10c-1.5,4.1-7,5.2-9.1,2.2
					c-2.3-3.3,0.6-5.7,0.8-8.6C45.9,48,44.3,45.2,47,43.9z"/>
			</g>
			<g id="XMLID_1858_">
				<g>
					<path fill="#00D623" d="M81.8,61.9c-1.6-2.4-6-1.4-5.3-9.5s4-11.7,4.2-17.2c0.3-5.5-2.1-6.8-4.7-6.9c-2.6-0.1-7,3.1-6.4,10
						c0.3,3.5,2.2,7.2,1.6,7.4c-0.3,0.1-3.3-2.6-7-2.5c-3.7,0.1-9,3-7.2,12c1.8,9,10.8,11.1,15.5,6.6c1.1,4.7,4.3,4.7,6.1,4.6
						C80.1,66.4,83.4,64.3,81.8,61.9z M66.8,52.9c-1.2-2-0.4-4.5,1.5-4.8c1.2-0.2,2.7,1.2,2.6,4C70.8,54.9,68,54.9,66.8,52.9z"/>
				</g>
			</g>
			<g id="XMLID_1857_">
				<path fill="#00D623" d="M17.5,33.3c0,0-2.4-9.6-10.1-7.3S3.1,38.9,5,45.1c1.9,6.2,9.6,20.8,14.3,19.8c4.8-0.9,2-17.5,1.3-20.8
					c3.8,1,4.9,4.6,5.4,6.8s0.7,12.7,8.7,11.1s8.3-9.9,6-15.2c-2.3-5.2-10-11.4-17.8-10.3c2-2.7,6.7-2.3,8.2-5.4S30,24.1,25.8,25
					C21.6,25.8,18.7,29.7,17.5,33.3z"/>
			</g>
			<g id="XMLID_1856_">
				<path fill="#00D623" d="M88.2,44.9c0.2-0.3,0.8-0.2,1.2,0.4c0.6,0.8,3.3,2.3,5.3-0.1c1.4-1.7,1.4-5.1-1.6-6.5
					c-3-1.4-8.7-0.7-10.9,3.1c-2.2,3.8,0.5,8,3.9,8c2.2,0,3.1-0.1,3.5,0.9c0.4,1.1-0.9,2.3-2.9,0.9c-2-1.4-3.9-2.2-6.1-1.4
					c-2.2,0.8-2.5,3.6-1.8,5.9s4.6,5,9.4,4.5c4.9-0.5,6.9-4,7.6-7.1c0.7-3.1-0.9-5.7-3.9-6.2C89,46.7,87.3,45.9,88.2,44.9z"/>
			</g>
			<g id="XMLID_1773_">
				<g id="XMLID_1793_">
					<path id="XMLID_1855_" fill="#FBC199" d="M36.5,31c0,0-1.8-1.2-2.3-0.5c-0.6,0.7-1.5,2.7-1,4c0.6,1.3,3.6,3.7,4.4,3.2
						s1.2-1.7,1.1-2C38.8,35.2,36.5,31,36.5,31z"/>
					<path id="XMLID_1854_" fill="#FDDDC5" d="M33.7,35.2c0,0,1.4,0.8,1.9-0.3c0.6-1.1-0.6-2.2-0.6-2.2s-0.9-0.2-0.7-0.2
						c0.2-0.1,0.9,0.1,0.9-0.7c0-0.8-0.6-1.4-1.1-1C33.8,31,32.5,33.2,33.7,35.2z"/>
					<path id="XMLID_1851_" fill="#DF884A" d="M36.5,31c-0.4-0.1-0.7-0.2-1.1-0.4c-0.2-0.1-0.6-0.1-0.8-0.1
						c-0.2,0.1-0.2,0.2-0.4,0.3c-0.5,0.8-1,1.9-0.9,2.8s0.9,1.8,1.7,2.4c0.4,0.3,0.7,0.6,1.2,0.9c0.2,0.1,0.4,0.2,0.7,0.4
						c0.2,0.1,0.4,0.2,0.6,0.1c0.4-0.3,0.9-0.9,1-1.5c0.1-0.2-0.1-0.5-0.1-0.7c-0.2-0.4-0.4-0.9-0.6-1.2C37.3,32.9,37,31.9,36.5,31
						C36.5,31,36.5,31.1,36.5,31z M36.5,31c0.6,0.9,1.1,1.8,1.5,2.7c0.3,0.6,0.6,1.1,0.9,1.7c0.2,0.5,0.1,1-0.1,1.4
						c-0.2,0.5-0.6,1-1,1.2c-0.4,0.3-1,0.1-1.4-0.1c-1.1-0.6-2.2-1.4-3-2.3c-0.6-0.6-0.8-1.4-0.7-2.2c0.1-0.8,0.4-1.6,0.7-2.3
						c0.2-0.2,0.3-0.6,0.6-0.7c0.2-0.3,0.7-0.3,1.1-0.2c0.3,0.1,0.6,0.2,0.9,0.4C36.2,30.6,36.5,30.8,36.5,31z"/>
					<g id="XMLID_1847_">
						<g id="XMLID_1848_">
							<path id="XMLID_1850_" fill="#DF884A" d="M34.6,32.4C34.6,32.4,34.7,32.4,34.6,32.4L34.6,32.4z"/>
							<path id="XMLID_1849_" fill="#DF884A" d="M36.9,33.7c0.2-0.2,0.6-0.6,0.2-0.8c-0.7-0.6-1.7-0.7-2.6-0.5
								c-0.1,0.1,0.2,0.1,0.1,0.1c0.1,0,0.2,0,0.3,0c0.2,0,0.5,0.1,0.7,0.2c0.4,0.1,0.6,0.3,0.9,0.6c-0.5,0.5-0.9,1.3-0.2,1.8
								c0.3,0.2,0.6,0.2,1,0.2c0.1,0-0.1-0.1-0.1-0.1c-0.1-0.1-0.2-0.1-0.2-0.1c-0.1-0.1-0.2-0.2-0.3-0.2
								C36.4,34.4,36.7,34,36.9,33.7z"/>
						</g>
					</g>
					<path id="XMLID_1846_" fill="#FBC199" d="M57.1,32.9c0,0,1.4,2.3,2.6,2c1.1-0.3,2.7-4.1,2.6-4.8c0-0.7-1.5-3.3-3-3.1
						c-1.4,0.2-1.7,2.2-1.7,2.2L57.1,32.9z"/>
					<path id="XMLID_1845_" fill="#FDDDC5" d="M57.9,31.2c0,0,0.1,1.5,1.5,1.4c1.4-0.1,2.5-1.4,2.6-2.2s-1.3-3-1.3-3
						s-1.3-1.1-2.3,0.2C57.2,28.9,57.9,31.2,57.9,31.2z"/>
					<path id="XMLID_1842_" fill="#DF884A" d="M57.2,32.9c0.4,0.4,0.8,0.8,1.2,1.2c0.2,0.2,0.5,0.4,0.8,0.5c0.1,0.1,0.2,0.1,0.4,0.1
						c0,0,0.1,0,0,0c0.2-0.1,0.4-0.3,0.6-0.5c0.3-0.4,0.6-0.7,0.7-1.2c0.4-0.8,0.9-1.7,1.1-2.6c0.1-0.3-0.1-0.6-0.2-0.8
						c-0.2-0.4-0.4-0.8-0.7-1.2c-0.2-0.4-0.6-0.7-0.9-0.9c-0.2-0.1-0.6-0.2-0.8-0.2c-1.2,0.2-1.5,1.4-1.7,2.5
						C57.5,30.8,57.4,31.9,57.2,32.9L57.2,32.9z M57.1,32.9c0.1-0.9,0.2-1.9,0.3-2.8c0.1-1.1,0.2-2.3,1.2-3c0.8-0.6,1.7-0.2,2.3,0.3
						c0.5,0.4,0.9,0.9,1.2,1.4c0.2,0.4,0.6,1,0.5,1.5c-0.1,0.5-0.2,0.9-0.4,1.4c-0.2,0.5-0.4,0.9-0.6,1.4c-0.2,0.4-0.4,0.9-0.7,1.2
						c-0.2,0.4-0.6,0.7-0.9,0.9c-0.6,0.3-1.2,0-1.7-0.4c-0.3-0.3-0.6-0.6-0.9-1.1c-0.1-0.2-0.2-0.3-0.2-0.5
						C57.2,33.2,57.1,33.1,57.1,32.9z"/>
					<path id="XMLID_1841_" fill="#DF884A" d="M60.9,29.7c-0.1,0-0.2,0-0.4,0c-0.2,0-0.5,0-0.7,0.1c-0.3,0.1-0.6,0.2-0.9,0.3
						c-0.2,0.1-0.1,0.6-0.2,0.8c-0.1,0.2,0.1,0.3,0.2,0.4c0.3,0.1,0.8,0.3,0.6,0.7c-0.1,0.3-0.4,0.5-0.7,0.6
						c-0.2,0.1,0.2,0.1,0.3,0.1c0.2,0,0.4-0.1,0.6-0.2c0.3-0.2,0.4-0.7,0.3-1.1c-0.1-0.3-0.6-0.7-0.8-0.9
						C59.6,30,60.3,29.8,60.9,29.7C61,29.7,60.9,29.7,60.9,29.7z"/>
					<path id="XMLID_1840_" fill="#FDDDC5" d="M57.8,22.8c0,0,0.5,5.6-0.1,9.3c-0.5,2.8,0.2,3.7-8.1,7.5c-4.1,0.2-9.4-0.6-10.8-2.6
						c-1-1.9-4-7.7-3.8-11.6c0.2-3.9,1-7.7,6.2-9.5c5.2-1.8,10.9-1.8,14.6,1.7C57.5,19.4,57.8,22.8,57.8,22.8z"/>
					<path id="XMLID_1839_" opacity="0.5" fill="#FBC199" enable-background="new    " d="M44.9,39.3c0,0-3.4-1-4.2-3.2
						c-0.8-2.2,1.4-3.7,3.5-3.8c2.1-0.1,2.3,0.6,3.4,0.3c1.1-0.2,1.7-0.4,1.7-0.7s-0.2-1.1-0.7-0.7c-0.6,0.4-1.9,0.9-2-0.2
						c0.2-0.2,0.4-0.2,0.4-0.2s-0.4-3-1.7-5.1s-2.6-3.8-3.5-4.6c-0.9-0.9-4.1-3.8-5.1-2c-1,1.8-2.8,6.7-1.2,10.7s2.6,7.2,4.1,8.1
						C41.2,38.7,43,39.2,44.9,39.3z"/>
					<path id="XMLID_1838_" fill="#DF884A" d="M38.1,34.9c0.2,1.1,0.7,2.2,1.7,2.7c1.1,0.7,2.3,1,3.5,1.2c1.3,0.2,2.7,0.4,4,0.5
						c0.7,0.1,1.4,0.1,2-0.1c0.6-0.1,1.3-0.4,1.9-0.7c1.2-0.6,2.4-1.4,3.5-2c0.6-0.3,1.1-0.7,1.5-1.1c0.4-0.4,0.7-0.9,0.9-1.4
						c0.4-1.2,0.4-2.4,0.5-3.6c0-0.4,0.1-0.9,0.1-1.2c0-0.1,0.1,0.1,0.1,0.1c0.1,0.2,0.1,0.6,0.1,0.8c0.1,1.2,0.2,2.5-0.1,3.7
						c-0.1,0.6-0.3,1.2-0.7,1.7s-0.9,0.9-1.4,1.3c-1.1,0.7-2.2,1.4-3.4,2.1c-1.2,0.7-2.4,1.2-3.8,1.2c-1.1,0-2.3-0.2-3.5-0.3
						c-1.2-0.2-2.3-0.4-3.5-0.7c-1-0.3-2-0.8-2.7-1.7c-0.3-0.4-0.5-0.9-0.6-1.5c-0.1-0.2-0.1-0.4-0.1-0.6C38.1,35.1,38,35,38.1,34.9
						C38.1,34.9,38.1,34.8,38.1,34.9z"/>
					<path id="XMLID_1837_" fill="#F8A46D" d="M47.3,36.5c0,0,0.8,0.4,2.6-0.5C49.3,36.9,48,37.2,47.3,36.5z"/>
					<path id="XMLID_1836_" fill="#DF884A" d="M48.1,32.3c0,0.1,0.2-0.4,0.3-0.2c0.1,0.1,0.2,0.1,0.3-0.1
						C48.8,31.6,48.1,31.4,48.1,32.3z"/>
					<path id="XMLID_1835_" fill="#DF884A" d="M47.2,32.4c0,0.1-0.3-0.2-0.4-0.1c-0.1,0.1-0.2,0.2-0.4-0.1
						C46.2,32.1,46.8,31.6,47.2,32.4z"/>
					<path id="XMLID_1834_" fill="#F8A46D" d="M45.9,32.4c0,0-0.1-0.9,1.2-1.5C46.1,31,45.4,31.5,45.9,32.4z"/>
					<path id="XMLID_1833_" fill="#F8A46D" d="M48.3,30.7c0,0,1.1,0.6,1,1.4C49.7,31.6,49.3,30.7,48.3,30.7z"/>
					<path id="XMLID_1832_" fill="#F7F7F7" d="M50.2,28.7c0,0-0.2,0.4,0.1,1.1c0.3,0.6,0.8,0.9,1.9,1.1c1.1,0.2,1.9-0.2,2.3-0.6
						c0.4-0.3,1-1.9,0.6-2.8c-0.5-0.9-2.6-1.3-3.7-0.6C50.9,27.4,50.6,27.8,50.2,28.7z"/>
					<path id="XMLID_1831_" fill="#1E1E1E" d="M51.5,27.7c0,0,0.6-0.1,0.7,0.7c0.1,0.6-0.7,0.6-0.7,0.6s0.1,1.3,1.4,1.2
						c1.3-0.1,0.9-2,0.7-2.6c-0.2-0.6-0.5-1.2-1.2-1C51.7,26.8,51.5,27.6,51.5,27.7z"/>
					<path id="XMLID_1830_" fill="#3E3D40" d="M50.2,29c0.1,0,0.4-1.8,2.2-2.2c1.8-0.3,2.6,0.9,2.8,0.9c0.2,0,0.3-0.3-0.8-1.1
						c-1.1-0.7-2.5-0.4-3,0.1c-0.6,0.4-1.1,1.3-1.2,1.9C50.1,28.9,50.1,29,50.2,29z"/>
					<path id="XMLID_1829_" fill="#DF884A" d="M50.7,30.3c0,0,1.9,0.9,4-0.2C54,31.1,52.2,31.4,50.7,30.3z"/>
					<path id="XMLID_1828_" fill="#DF884A" d="M44.3,35.5c-0.1,0.1,1.7,1,4.8,0.1c3.1-0.9,4.4-2,4.4-2c0.2-0.1,0.1-0.4-0.3-0.2
						c-0.4,0.2-3.3,1.8-5.1,2.1s-2.9,0.2-3.6,0.1C44.3,35.5,44.3,35.5,44.3,35.5z"/>
					<path id="XMLID_1827_" fill="#DF884A" d="M53.4,33.4c0.2,0.2,0.4,0.5,0.5,0.4c0.1-0.1-0.1-0.6-0.4-0.8c-0.4-0.2-0.7,0-0.6,0.1
						C53,33.3,53.3,33.3,53.4,33.4z"/>
					<path id="XMLID_1826_" fill="#E5E8E7" d="M39.1,29.6c0,0,0.1,1.9,1.5,2.6c0.8,0.2,2.8-0.1,3.5-1c0.3-0.6,0.2-1.3,0-1.8
						c-0.2-0.5-1.4-1.8-3.1-1.4C39.7,28.5,39.2,29.3,39.1,29.6z"/>
					<path id="XMLID_1825_" fill="#F7F7F7" d="M40.1,28.5c0,0-0.2,1.4,0.7,2.2c0.4,0.8,0.6,1.1,1.4,1c0.5-0.1,0.7-0.3,0.9-0.5
						c0.4-0.1,1.2-1.1,0.8-2.2C42.5,27.9,41.7,27.6,40.1,28.5z"/>
					<path id="XMLID_1824_" fill="#1E1E1E" d="M40.8,29.3c0,0,0.1-1.1,0.9-1.2c0.8-0.1,1.4,1.1,1.5,2.1c0.1,1-0.6,1.4-1.2,1.5
						c-0.6,0.1-1-0.6-1.2-1.1c0.2,0.3,1,0.1,0.9-0.7C41.5,29.2,40.9,29.2,40.8,29.3z"/>
					<path id="XMLID_1823_" fill="#F8A46D" d="M46.9,30.3c0,0-0.7-2.3-1.5-3.7C46.2,27.2,46.7,28.5,46.9,30.3z"/>
					<path id="XMLID_1822_" fill="#DF884A" d="M40.2,32.1c0,0,2,0.5,4-0.9C43.4,32.3,41.7,32.9,40.2,32.1z"/>
					<path id="XMLID_1821_" fill="#3E3D40" d="M44.3,29.8c0.1,0-0.3-1.4-1.8-2c-1.4-0.6-3,0.6-3.4,1.5c-0.2,0.6,0.1,0.5,0.3,0.1
						c0.2-0.4,1.1-1.4,2.5-1.2c1.4,0.1,1.7,0.7,1.9,0.9C43.9,29.4,44.1,29.8,44.3,29.8z"/>
					<path id="XMLID_1818_" fill="#5C5C5C" d="M63.1,23.8c-0.3,0-0.6-0.2-0.8-0.5c-0.4-0.6-0.7-1.2-0.9-1.8c-0.4-1.1-0.6-2.3-1-3.5
						c-0.3-1.1-0.7-2-1.2-3c-1-1.9-2.4-3.8-4.3-4.9h0.1c0.1,0,0.2,0,0.4,0c1.7-0.1,3.5-0.6,4.5-1.9c0.5-0.7,1-1.9,0.4-2.7
						c0,0.6-0.7,0.9-1.2,1.1c-0.7,0.2-1.4,0.4-2.2,0.4c-0.5,0-1,0-1.5,0c-0.6,0-1.2,0.1-1.9,0.1c-1.2,0.1-2.5,0.4-3.7,0.6
						C49,8,48.2,8.3,47.5,8.5c0.4-0.2,0.9-0.6,1.2-0.9c0.5-0.5,1-1.1,1.2-1.7c0.2-0.7,0.1-1.5-0.4-2c-0.7-0.7-1.8-0.4-2.5,0
						c0.1,0,0.1,0,0.2,0c0.5,0,1.1,0.1,1.1,0.7c0.1,0.7-0.5,1.4-1,1.8c-1.2,1-2.7,1.7-4.2,2.3c0.7-0.8,1.4-1.9,1.4-3
						c0-0.4,0-0.7-0.2-1.1c-0.2-0.3-0.7-0.3-1.1-0.2c0.1,0.6-0.3,1.1-0.7,1.5c-0.6,0.7-1.4,1.3-2.2,1.9c-1,0.7-2,1.4-2.8,2.3
						c-0.7,0.7-1.3,1.5-1.8,2.3c-0.6,0.9-1,1.9-1.4,3c-0.1-0.2-0.2-0.4-0.4-0.7c-0.2-0.4-0.4-0.9-0.4-1.4c0-0.8,0.7-1.4,1.5-1.2
						c-0.2-0.6-0.8-1-1.5-0.8c-0.5,0.1-1.1,0.5-1.2,1c-0.1,0.5-0.1,1,0.1,1.4c0.3,0.8,1,1.4,1.7,1.9c-0.5-0.1-0.9-0.2-1.4-0.2
						c-0.4,0-0.7,0.1-1,0.2c-0.3,0.1-0.7,0.2-0.9,0.4c-0.7,0.7-0.1,1.9,0.9,1.8c-0.1-0.2-0.2-0.5-0.2-0.8c0.1-0.2,0.3-0.3,0.5-0.4
						c0.7-0.3,1.4-0.5,2-0.9c-0.7,1.5-1.9,2.7-2.7,4.2c-0.9,1.9-0.9,4.1-0.1,6.1c0.4,1,1.1,2,1.9,2.7l0,0c0.2,0.4,0.4,0.9,0.6,1.4
						c0.1,0.1,0.1,0.4,0.1,0.5c0,0.2,0,0.6-0.2,0.8c-0.1,0.2-0.4,0.2-0.6,0.2c0.2,0.3,0.6,0.5,0.9,0.4c0.2-0.1,0.5-0.2,0.6-0.5
						c0.3,0.5,0.7,1,1,1.5c0.2,0.4,0.6,0.7,0.7,1.1c0.2,0.3,0.2,0.8,0,1.1c-0.2,0.2-0.7,0.2-1,0c0.3,0.4,0.9,0.6,1.4,0.4
						c0.6-0.2,0.8-0.7,0.8-1.4c0-0.6-0.2-1.1-0.4-1.5c-0.2-0.6-0.3-1.2-0.4-1.8c-0.2-0.8-0.2-1.7-0.2-2.5c0.1-0.1,0.2-0.1,0.4-0.2
						c0.7-0.4,0.7-1.3,0.6-2c-0.1-0.9-0.2-1.7-0.4-2.5l0.2-0.4c0.4,0.7,0.9,1.3,1.5,1.8c0.5,0.4,1.1,0.7,1.8,0.4
						c0.4-0.2,0.7-0.6,0.7-1c-1.1,0.6-1.8-1-2.2-1.9c-0.2-0.4-0.3-0.9-0.4-1.4l-0.3-1.6l0.8,1c0.5,0.7,1,1.5,1.5,2.2
						c0.5,0.6,1.1,1.3,1.9,1.5c0.5,0.2,1.1,0.1,1.4-0.3c-1,0.2-1.9-0.9-2.4-1.6c-0.4-0.6-0.8-1.2-1.2-1.9c0,0,1.2,0.9,2,1.4
						c0.8,0.5,1.6,1,2.5,1.4c0.6,0.2,1.2,0.4,1.8,0.4l-0.2-0.1l0.2,0.1c0.7,0.7,1.7,1.4,2.7,0.7c-0.7,0-1.1-0.8-1.3-1.3
						c-0.4-0.9-0.6-1.9-0.9-2.7c-0.2-0.7-0.6-1.4-0.9-2.1c0.5,0.5,1.1,0.9,1.7,1.2c0.8,0.4,1.6,0.8,2.3,1.4c0.9,0.7,1.6,1.7,2.6,2.4
						c0.6,0.4,1.3,0.7,2,0.6c0.4-0.1,0.9-0.4,1.1-0.7c-0.2,0.1-0.4,0.1-0.6,0.1c-0.2-0.1-0.4-0.2-0.6-0.5c-0.6-0.9-0.6-1.9-0.8-2.8
						c-0.1-0.4-0.2-0.7-0.3-1.1h0.1c0.2,0.2,0.3,0.4,0.5,0.6c1,1.2,2.1,2.8,1.9,4.5c-0.1,0.8-0.2,1.8,0.6,2.3
						c0.4,0.2,0.9,0.3,1.4,0.1c0,1.1-0.2,2.1-0.2,3.2c0,0.6,0,1.2,0.2,1.8c0.1,0.4,0.2,0.7,0.5,1c0.4,0.4,1,0.4,1.5,0.2
						c0.4-0.2,0.9-0.6,1-1c-0.2,0.2-0.7,0.3-1,0.2c-0.2-0.2-0.4-0.6-0.4-0.8c-0.1-0.5,0-1,0.1-1.4c0.2-1,0.5-2,0.9-2.9
						c0.2-0.7,0.6-1.5,0.7-2.2c0.3,0.6,0.9,0.9,1.5,0.7c0.5-0.2,0.9-0.6,1.1-1.1C63.7,23.7,63.4,23.8,63.1,23.8z M58,25.5
						c0,0.1,0,0.2,0,0.2c-0.1,0-0.2,0-0.4-0.1c-0.8-0.3-0.4-1.4-0.1-2c0.1-0.1,0.1-0.2,0.2-0.4l0,0C58,24,58,24.7,58,25.5z"/>
					<path id="XMLID_1817_" fill="#444545" d="M30.8,22.8c0,0,1,1.8,1.5-0.7c0.2-2.1,0.9-4.3,2.4-6.3c-1.7,3.8-1.6,6.4-0.4,10.8
						c0.5-0.4,0.8-1.8,0.7-2.4c0.6,1.1,1.4,2,1.9-0.2c-0.2-0.9-0.4-1.7-0.6-2.3c-0.2-0.6-1.4-2.2-0.6-4.4c0.1,1.9,2,6.1,3.8,7.6
						c0.6,0.4,1.5,0.1,1.6-0.2c-0.2,0.6-2.1,2.5-4.4-2.1c0.6,3.3,1.2,5.2-0.2,5.8c0,1.4,0.5,3.5,1.1,5.6c0.1,1.1-0.7,2-1.9,1.3
						c0.7,0,1.4-0.6,0.5-1.8c-0.9-1.2-1.5-2.2-1.5-2.2s-0.6,1-1.4,0.2c0.4,0.1,1.2,0.3,0.7-1.5c-0.6-1.4-1.4-2.3-2.2-3.4
						C30.9,25.3,30.8,22.8,30.8,22.8z"/>
					<path id="XMLID_1816_" fill="#444545" d="M36.7,14.1c0,0,2.9-3,8-6.1C43,9,41.3,9.3,41.3,9.2c-0.1-0.1,1.5-2,2.2-3
						c0.7-1,0.2-1.9-0.2-2c1.2,0.1,1.8,1.3-0.1,4.1c-0.1,0.1,5.2-1.1,5.9-3c0.2-0.5,0.1-1,0.1-1s-0.2-0.7-0.9-1
						c1.4,0.4,3,1.8-0.4,4.9c-1.5,0.6-2,0.9-2,0.9s3.5-0.8,5.6-1.1c2-0.3,6.5-0.6,7.7-1.4c0.7-0.4,1.1-0.9,1.1-0.9s1,1.8-0.8,3
						c-1.8,1.2-4.4,1.5-4.4,1.5l0.6,0.6c0,0-2.8-1.2-7.6-0.4C43.2,11.2,38.7,12.7,36.7,14.1z"/>
					<path id="XMLID_1815_" fill="#444545" d="M38.1,14.3c0,0,8.5-4.6,12.1,1.3C48.5,14.4,43.4,12.7,38.1,14.3z"/>
					<path id="XMLID_1814_" fill="#444545" d="M50.5,14c0,0,1.6,0.9,3.1,4.3c0.2,0.6,1.6,1.9,2.2,3.5c0.6,1.6-0.7,4.3,1.9,4.2
						c0.4-0.2,0.4-0.2,0.4-0.2s-1.1,0.4-1.2-1.1c0.1-0.6,0.6-1.9-0.7-5.1C55.1,16.3,53.1,14.7,50.5,14z"/>
					<path id="XMLID_1813_" fill="#444545" d="M56.4,13.2c0,0,1.5,2.7,2.1,6.3c-0.1,1.9-0.7,4.1-0.7,4.1s0.6,1.4,0.1,4.4
						c0,1.9-0.2,4.3,1.8,4.1c0.6-0.2,1-0.4,1.2-0.9c-0.5,0.3-2,1-1.9-1.7c0.2-2.6,1.2-6.4,0-10.7C57.8,14.6,56.4,13.2,56.4,13.2z"/>
					<path id="XMLID_1812_" fill="#444545" d="M45.1,16.4c0,0,1.9-0.6,4.2,1.1c3,2.2,4.2,6.5,6.5,5.6c-0.6,0.7-2.2,1.1-3.8-0.6
						c-1.7-1.7-3.4-2.8-5.6-3.8C45.9,17.7,45.1,16.4,45.1,16.4z"/>
					<path id="XMLID_1811_" fill="#444545" d="M49.1,24.3c0,0-1,0.5-2-1.5s-3-7.1-10-6.3c0.2,1.1,1.2,2.5,3.1,4.1
						c0.2,0.8,0.8,1.7,1.2,2.2c-1-0.7-2.3-2.2-2.8-2.8c1.5,2.2,3.6,5.5,5.1,4c-0.9-0.2-1.9-0.7-3.3-3.3c1.3,0.7,4.9,3.2,6.1,2.7
						c-1.3-1.4-1.8-1.2-3.8-2.6c-2-1.4-2.8-2.4-3.5-3.5c0.9,0.8,5.1,3.6,6.1,4.7C46.3,23.2,48.2,25.3,49.1,24.3z"/>
					<path id="XMLID_1810_" fill="#2C2C2C" d="M33.3,28.5c-0.2,0.1-0.4-0.1-0.6-0.2c-0.2-0.2-0.5-0.5-0.7-0.7
						c-0.3-0.4-0.6-0.9-0.8-1.3c-0.4-0.7-0.6-1.6-0.7-2.5c-0.1-0.6-0.1-1.2,0-1.9c0.1-1.1,0.6-2.2,1.2-3.2c0.7-1.1,1.7-2.1,2.3-3.2
						c0,0,0,0,0.1,0.1c-0.4,0.3-0.9,0.6-1.4,0.7c-0.4,0.2-1.1,0.4-0.9,1c0.1,0.1,0.2,0.3,0.1,0.5C32,18,31.8,18,31.6,18
						c-0.6,0-1-0.5-1.1-1c-0.1-0.6,0.2-1.1,0.6-1.4c0.2-0.2,0.6-0.2,0.8-0.3c0.5-0.1,1-0.2,1.5-0.1c0.1,0,0.2,0.1,0.4,0.1
						c0.1,0,0.2,0.1,0.2,0.1c0.1,0,0.2,0,0.2,0.1c-0.7-0.4-1.4-1-1.8-1.8c-0.2-0.5-0.3-1.1-0.1-1.6c0.1-0.6,0.6-0.9,1.1-1.1
						c0.6-0.2,1.2-0.1,1.6,0.3c0.1,0.2,0.4,0.5,0.3,0.7s-0.4,0.1-0.6,0.1c-0.6,0-1.1,0.6-1,1.2c0,0.2,0.1,0.6,0.2,0.9
						c0.1,0.3,0.2,0.7,0.4,1h-0.1c0.4-1.3,0.9-2.5,1.5-3.6c0.5-0.9,1.1-1.7,1.9-2.3c0.6-0.5,1.2-1,1.8-1.4C40,7.4,40.5,7,41,6.5
						c0.6-0.4,1.1-0.8,1.5-1.3c0.2-0.2,0.4-0.5,0.5-0.7c0-0.1,0-0.2,0.1-0.3c0,0,0.1-0.1,0.2-0.1C43.9,4,44.4,4.4,44.6,5
						c0.1,0.7-0.1,1.4-0.4,1.9c-0.3,0.6-0.7,1.2-1.2,1.6c0,0,0,0-0.1-0.1c1.2-0.6,2.3-1.2,3.5-2c0.5-0.4,1.1-0.7,1.4-1.4
						c0.2-0.4,0.2-1-0.2-1.2c-0.1,0-0.7-0.1-0.7-0.2s0.2-0.2,0.2-0.2c0.2-0.1,0.3-0.2,0.5-0.2C48.1,3,48.7,3,49.2,3.2
						c0.4,0.2,0.7,0.6,0.9,1c0.2,0.4,0.2,0.9,0.1,1.3c-0.2,1.1-1.2,2-2,2.5c-0.1,0.1-0.6,0.4-0.6,0.3c0-0.1,0.6-0.5,0.6-0.6
						c0.4-0.4,0.9-0.8,1.2-1.3C49.6,6,49.9,5.5,49.9,5c0-0.4-0.1-0.7-0.2-1C49.2,3,47.8,3.2,47,3.6V3.5c0.6-0.2,1.3-0.1,1.5,0.5
						c0.2,0.4,0,1-0.3,1.4c-0.4,0.6-0.9,0.9-1.4,1.3c-0.6,0.4-1.2,0.7-1.8,0.9C44.6,7.7,44.3,7.8,44,8c-0.2,0.1-0.3,0.1-0.4,0.2
						c-0.1,0-0.4,0.2-0.5,0.2c-0.1,0.1,0.1-0.2,0.1-0.2c0.1-0.1,0.2-0.2,0.2-0.4c0.2-0.2,0.3-0.6,0.4-0.8c0.4-0.9,1.1-2.8-0.4-2.9
						c-0.1,0-0.1,0-0.2,0c0,0,0,0,0-0.1c0.2,0.6-0.2,1.2-0.6,1.6c-0.4,0.5-0.9,0.9-1.4,1.4c-0.7,0.6-1.4,1.1-2.1,1.6
						c-0.7,0.6-1.4,1.1-2,1.8c-0.9,1.1-1.6,2.2-2.2,3.4c-0.2,0.3-0.3,0.7-0.5,1.1c-0.1,0.1-0.1,0.2-0.1,0.2
						c-0.1-0.2-0.2-0.3-0.3-0.5c-0.2-0.2-0.3-0.6-0.4-0.9c-0.2-0.4-0.2-0.9-0.1-1.3c0.3-0.6,0.9-0.9,1.5-0.9
						c-0.1,0.1-0.2,0.2-0.3,0.4c-0.1-0.2-0.2-0.4-0.4-0.6c-0.2-0.2-0.6-0.2-0.8-0.1c-0.2,0.1-0.5,0.2-0.7,0.4
						c-0.2,0.2-0.2,0.5-0.3,0.7c-0.2,1.1,0.6,2,1.4,2.7c0.1,0.1,0.2,0.2,0.3,0.2c0.1,0,0,0.1,0,0.1c-0.1,0-0.2-0.1-0.4-0.1
						c-0.4-0.1-0.9-0.1-1.3,0c-0.4,0.1-0.8,0.2-1.1,0.4c-0.5,0.2-0.9,0.9-0.4,1.4c0.2,0.2,0.5,0.4,0.8,0.4c-0.1,0.1-0.1,0.2-0.2,0.3
						c-0.1-0.2-0.2-0.5-0.2-0.8c0.1-0.3,0.3-0.5,0.6-0.6c0.6-0.2,1.2-0.4,1.8-0.7c0.1,0,0.3-0.2,0.4-0.2c0.1-0.1,0,0.2,0,0.2
						c-0.1,0.3-0.2,0.6-0.4,0.9c-0.3,0.6-0.6,1.1-1,1.7c-0.4,0.6-0.9,1.3-1.1,2c-0.4,0.9-0.4,1.8-0.4,2.7c0,1,0.2,1.9,0.6,2.8
						c0.1,0.4,0.4,0.7,0.6,1.1c0.2,0.3,0.4,0.6,0.7,0.9c0.1,0.1,0.2,0.2,0.3,0.3C33.4,28.3,33.4,28.5,33.3,28.5
						C33.1,28.7,33.3,28.5,33.3,28.5z"/>
					<path id="XMLID_1809_" fill="#2C2C2C" d="M44.8,9.6c1.2-0.7,2.5-1.2,3.8-1.7c2.2-0.7,4.4-1.1,6.7-1.2c1-0.1,2,0.1,3-0.1
						c0.6-0.1,1.3-0.2,1.8-0.6c0.1-0.1,0.2-0.2,0.2-0.2c0-0.1,0.1-0.2,0.1-0.2c0.1,0,0.2,0.2,0.2,0.2c0.1,0.1,0.2,0.3,0.2,0.5
						c0.2,1.2-0.6,2.5-1.5,3.2c-1.1,0.8-2.3,1-3.6,1c-0.1,0-0.7-0.1-0.5-0.2c0.2-0.2,0.7-0.1,1-0.2c0.8-0.1,1.5-0.4,2.3-0.7
						c0.7-0.4,1.3-0.9,1.7-1.6c0.3-0.6,0.6-1.4,0.2-2h0.1c0.1,0.6-0.6,1.1-1.1,1.2c-0.6,0.3-1.3,0.4-1.9,0.6c-0.7,0.1-1.4,0-2.1,0.1
						c-2.2,0.1-4.4,0.4-6.6,1c-0.5,0.1-1,0.2-1.4,0.4C46.8,9,46.6,9,46.3,9.1c-0.3,0.1-0.6,0.2-0.9,0.3c-0.2,0.1-0.3,0.1-0.4,0.2
						C44.9,9.6,44.9,9.6,44.8,9.6C44.8,9.6,44.7,9.6,44.8,9.6C45.1,9.5,44.8,9.6,44.8,9.6z"/>
					<path id="XMLID_1808_" fill="#2C2C2C" d="M53.5,9.5c1.3,0.1,2.4,0.8,3.3,1.7c0.9,0.8,1.6,1.8,2.2,2.8s1.1,2.2,1.5,3.4
						c0.6,1.8,0.7,3.6,1.5,5.4c0.2,0.4,0.6,1.1,1.2,1c0.1,0,0.2-0.1,0.4-0.2c0,0,0.2-0.1,0.2-0.1c0,0.1-0.1,0.2-0.2,0.3
						c-0.1,0.1-0.2,0.2-0.2,0.4c-0.2,0.3-0.7,0.6-1.1,0.6c-0.6,0-0.9-0.4-1.2-0.9c0.1,0,0.1,0,0.1,0c-0.1,0.9-0.4,1.8-0.7,2.7
						c-0.3,0.9-0.6,1.9-0.8,2.8c-0.1,0.4-0.1,0.9,0,1.4c0.1,0.2,0.2,0.5,0.6,0.6c0.1,0,0.2,0,0.4-0.1c0.1,0,0.3-0.2,0.3-0.1
						c0.1,0.1-0.2,0.5-0.3,0.6c-0.2,0.2-0.5,0.4-0.8,0.6c-0.6,0.2-1.2,0.1-1.6-0.4c-0.3-0.4-0.4-0.9-0.6-1.4
						c-0.1-0.6-0.1-1.1-0.1-1.7c0-1.4,0.2-2.7,0.1-4c0-0.2-0.1-0.6-0.1-0.9c0-0.1-0.2-0.7,0.1-0.6C58,23.5,58,23.8,58,24
						c0.1,0.3,0.1,0.6,0.2,1c0.1,1.4-0.2,2.7-0.2,4c0,0.5,0,0.9,0.1,1.4c0.1,0.4,0.1,0.9,0.4,1.2c0.3,0.4,0.9,0.6,1.4,0.4
						c0.4-0.1,1-0.5,1.1-1c0,0,0,0,0.1,0c-0.5,0.4-1.1,0.4-1.4-0.2c-0.2-0.4-0.2-1-0.2-1.4c0.1-1.2,0.5-2.5,1-3.6
						c0.2-0.5,0.4-0.9,0.6-1.4c0.1-0.2,0.1-0.4,0.2-0.6c0.1-0.3,0.3,0.1,0.4,0.2c0.3,0.3,0.7,0.5,1.2,0.3c0.5-0.2,0.8-0.6,1.1-1
						c0,0,0,0,0.1,0.1c-1.8,1.5-2.9-2.9-3.2-4c-0.3-1.1-0.6-2.1-1.1-3.1c-0.5-1.2-1.1-2.3-1.9-3.3c-0.6-0.9-1.4-1.6-2.2-2.3
						c-0.2-0.2-0.5-0.4-0.7-0.6c-0.2-0.1-0.4-0.2-0.6-0.4C54.1,9.6,54,9.6,54,9.5c-0.1-0.1-0.1-0.1-0.2-0.1
						C53.6,9.6,53.4,9.5,53.5,9.5C53.9,9.5,53.5,9.5,53.5,9.5z"/>
					<path id="XMLID_1807_" fill="#2C2C2C" d="M57.7,16.2c0.9,1.7,1.2,3.7,0.8,5.6c-0.1,0.6-0.4,1.2-0.7,1.9c-0.2,0.4-0.6,1-0.4,1.5
						l0,0c0.1,0.2,0.2,0.4,0.4,0.4c0.1,0.1,0.2,0.1,0.4,0.1c0.1,0,0.1,0,0.1,0.1c-0.4,0.4-1.1,0.6-1.7,0.2c-0.9-0.4-1-1.5-0.9-2.5
						c0,0.1,0-0.1,0-0.2c0-0.2,0-0.4,0-0.6c-0.1-0.6-0.2-1.1-0.4-1.6c-0.2-0.6-0.6-1.2-0.9-1.7c-0.2-0.2-0.4-0.6-0.6-0.8
						c-0.1-0.1-0.2-0.2-0.2-0.3c0-0.1,0.3,0.2,0.4,0.2c1,0.9,1.8,2,2.2,3.3c0.2,0.7,0.2,1.3,0.1,2c-0.1,0.4,0,0.9,0.2,1.4
						c0.4,0.6,1.2,0.7,1.8,0.3v0.1c-0.4,0.2-1,0.2-1.2-0.2c-0.2-0.2-0.2-0.6-0.2-0.8c0-0.6,0.2-1,0.5-1.4c0.2-0.4,0.4-0.9,0.6-1.4
						c0.2-0.7,0.3-1.5,0.2-2.3c0-0.6-0.1-1.2-0.2-1.8c-0.1-0.3-0.1-0.6-0.2-0.9c-0.1-0.1-0.1-0.2-0.1-0.4
						C57.7,16.4,57.7,16.3,57.7,16.2C57.7,16.2,57.7,16.2,57.7,16.2C58,16.6,57.7,16.2,57.7,16.2z"/>
					<path id="XMLID_1806_" fill="#2C2C2C" d="M51.7,14.9c0.6,0.4,1.2,1.2,1.5,2c0.2,0.3,0.3,0.7,0.4,1c0.1,0.2,0.2,0.6,0.2,0.8
						c0.3,0.9,0.4,1.8,0.6,2.7c0.1,0.2,0.1,0.6,0.2,0.7c0.1,0.2,0.2,0.6,0.4,0.7c0.1,0.1,0.2,0.1,0.3,0.2c0.1,0,0.3-0.1,0.4,0
						c0.1-0.1,0,0.2,0,0.2c-0.1,0.1-0.1,0.2-0.2,0.3c-0.2,0.2-0.5,0.4-0.8,0.5c-0.5,0.1-1,0.1-1.4-0.1c-1-0.4-1.7-1.1-2.3-1.8
						c-0.6-0.6-1.2-1.2-2-1.6c-0.6-0.4-1.2-0.7-1.8-1c-0.3-0.2-0.6-0.4-0.9-0.7c-0.2-0.1-0.2-0.3-0.4-0.5c-0.1-0.1-0.1-0.1-0.1-0.2
						c0,0,0-0.1,0.1-0.1c0.6,0.6,1.2,0.9,1.9,1.2c0.9,0.4,1.7,0.7,2.5,1.3c0.7,0.5,1.2,1.1,1.8,1.7c0.9,1,2.6,2.1,3.8,0.8
						c0,0,0,0,0.1,0.1c-0.2,0.1-0.5,0.2-0.7,0.1c-0.2-0.1-0.4-0.3-0.6-0.6c-0.2-0.2-0.2-0.6-0.4-0.9c-0.2-0.8-0.4-1.7-0.6-2.5
						c-0.3-1.2-0.7-2.3-1.4-3.4c-0.1-0.1-0.2-0.2-0.2-0.4c-0.1-0.1-0.1-0.2-0.2-0.2C51.7,15,51.6,14.8,51.7,14.9
						C51.9,15,51.7,14.9,51.7,14.9z"/>
					<path id="XMLID_1805_" fill="#2C2C2C" d="M45,16.2c0.7,0.8,1.4,1.7,1.9,2.7c0.6,1,0.9,2,1.2,3.2c0.2,0.6,0.4,1.3,0.7,1.8
						c0.1,0.1,0.1,0.2,0.2,0.3c0.1,0.1,0.2,0.1,0.2,0.2c0.1,0-0.1,0.1-0.1,0.1c-0.1,0.1-0.2,0.2-0.4,0.2c-1.1,0.6-2.2-0.4-2.8-1.2
						c-0.1-0.2-0.2-0.3-0.4-0.4l0,0c-0.3-0.4-0.7-0.8-1.1-1.1c-0.3-0.2-0.6-0.5-0.9-0.7c-0.1-0.1-0.2-0.2-0.1-0.1
						c0.2,0,0.3,0.1,0.4,0.1c0.2,0.1,0.6,0.2,0.7,0.4c0.6,0.3,1,0.7,1.4,1.2c0.7,0.7,1.4,1.6,2.5,1.6c0.1,0,0.2,0,0.2,0
						s0.2-0.1,0.2,0c-0.5,0.2-1-0.2-1.2-0.6c-0.4-0.5-0.6-1.1-0.7-1.7c-0.2-0.6-0.3-1.1-0.5-1.6c-0.2-0.6-0.4-1.2-0.7-1.8
						c-0.2-0.4-0.3-0.7-0.5-1.1c-0.1-0.2-0.2-0.6-0.4-0.8c-0.1-0.2-0.2-0.3-0.2-0.4C45,16.4,44.9,16.4,45,16.2
						C44.9,16.2,44.9,16.2,45,16.2C45.1,16.4,45,16.2,45,16.2z"/>
					<path id="XMLID_1804_" fill="#2C2C2C" d="M46.6,24c-1.2-0.2-2.3-0.6-3.3-1.2c-1.1-0.7-2.2-1.4-3.3-2.2
						c-0.9-0.7-1.9-1.6-2.5-2.7c-0.1-0.1-0.1-0.2-0.1-0.2s0.1-0.1,0.1,0c0.1,0.2,0.2,0.4,0.4,0.7c0.4,0.5,0.8,0.9,1.2,1.3
						c0.7,0.6,1.4,1.1,2.1,1.5c0.7,0.5,1.5,0.9,2.3,1.4c0.7,0.4,1.5,0.7,2.3,0.9c0.2,0.1,0.6,0.1,0.9,0.2C47,23.4,47,24,46.6,24z"/>
					<path id="XMLID_1803_" fill="#2C2C2C" d="M40.2,20.5c0.4,0.5,0.7,1.1,1.1,1.6s0.8,1.1,1.3,1.4c0.2,0.2,0.5,0.3,0.8,0.4
						c0.1,0,0.4,0,0.4,0c0.1,0-0.1,0.2-0.1,0.2c-0.4,0.5-1.1,0.4-1.7,0.2c-0.8-0.4-1.4-1.1-1.9-1.9c-0.4-0.6-0.7-1.1-1.1-1.7
						c-0.4-0.6-0.7-1.1-1.1-1.5c-0.1-0.1-0.2-0.2-0.2-0.2s-0.1-0.1-0.2-0.1c0,0-0.1-0.1-0.1-0.1c0.2,0.1,0.5,0.3,0.7,0.5
						c0.3,0.4,0.6,0.7,0.9,1.1c0.3,0.4,0.6,0.9,1,1.4c0.4,0.6,0.7,1.1,1.2,1.5c0.6,0.7,1.7,1.4,2.6,0.7V24c-0.9,0.2-1.7-0.6-2.2-1.2
						c-0.3-0.4-0.6-0.8-0.9-1.2c-0.1-0.2-0.2-0.4-0.4-0.6c-0.1-0.1-0.1-0.2-0.1-0.4C40.2,20.7,40.2,20.5,40.2,20.5
						C40.5,20.9,40.2,20.5,40.2,20.5z"/>
					<path id="XMLID_1802_" fill="#2C2C2C" d="M38.1,19.4c0.4,1.2,0.7,2.5,1.2,3.6c0.1,0.2,0.2,0.5,0.4,0.7c0.2,0.2,0.4,0.5,0.6,0.6
						c0.1,0.1,0.2,0.1,0.4,0.1c0.1,0,0.3-0.1,0.4-0.1c0.1,0.2,0,0.5-0.1,0.6c-0.2,0.2-0.4,0.5-0.7,0.6c-0.6,0.2-1.2,0.1-1.7-0.3
						c-0.8-0.6-1.5-1.5-1.9-2.3c-0.3-0.6-0.6-1.2-0.8-1.9c-0.1-0.2-0.1-0.3-0.1-0.4c0-0.1-0.1-0.2,0-0.2c0.2,0.3,0.3,0.6,0.4,0.9
						c0.2,0.4,0.4,0.8,0.7,1.2c0.4,0.7,0.9,1.4,1.5,1.9c0.4,0.4,0.9,0.9,1.6,0.8c0.4-0.1,1-0.4,1-0.9c0,0,0,0,0.1,0
						c-0.7,0.7-1.5-0.1-1.8-0.7c-0.2-0.4-0.4-0.7-0.5-1.2c-0.1-0.4-0.2-0.8-0.4-1.2c-0.1-0.2-0.1-0.6-0.2-0.8
						c-0.1-0.2-0.1-0.5-0.1-0.7C38.2,19.6,38.1,19.6,38.1,19.4C38.1,19.5,38.1,19.5,38.1,19.4C38.1,19.4,38.1,19.4,38.1,19.4z"/>
					<path id="XMLID_1801_" fill="#2C2C2C" d="M36.5,22.1c0.4,1.1,0.7,2.2,0.9,3.4c0.1,0.7,0.2,1.4,0.1,2.1c-0.2,0.5-0.6,0.9-1.1,1
						c-0.3,0.1-0.6,0-0.9-0.1c-0.1-0.1-0.2-0.1-0.4-0.2c-0.1-0.1-0.3-0.2-0.2-0.3c-0.1-0.1,0.2-0.1,0.2-0.1c0.2,0,0.3,0,0.5-0.1
						c0.3-0.1,0.4-0.2,0.4-0.6c-0.1-0.4-0.3-0.7-0.5-1.1c-0.4-0.8-0.6-1.7-0.6-2.5c0-0.2,0-0.3,0-0.5s0-0.3,0-0.5c0,0,0.1-0.1,0.1,0
						v0.2c0.1,0.4,0.1,0.7,0.2,1.1c0.2,0.9,0.5,1.8,0.9,2.6c0.2,0.3,0.4,0.7,0.2,1.1c-0.2,0.6-0.9,0.4-1.4,0.3v-0.1
						c0.4,0.2,0.9,0.5,1.4,0.2c0.6-0.2,0.7-0.9,0.7-1.5l0,0c-0.1-0.7-0.2-1.5-0.3-2.3c-0.1-0.3-0.1-0.6-0.2-0.9
						c0-0.1-0.1-0.2-0.1-0.4s-0.1-0.4-0.1-0.6C36.5,22.3,36.5,22.2,36.5,22.1C36.5,22.2,36.5,21.9,36.5,22.1
						C36.8,22.7,36.5,22.1,36.5,22.1z"/>
					<g id="XMLID_1797_">
						<path id="XMLID_1800_" fill="#2C2C2C" d="M34.1,31.6c-0.4,0.1-0.6,0-0.9-0.2c0.1,0,0.3,0,0.4-0.1c0.2-0.1,0.3-0.4,0.4-0.6
							c0.1-0.6-0.1-1.1-0.3-1.5c-0.2-0.4-0.3-0.7-0.4-1.2c-0.2-0.4-0.2-0.9-0.4-1.3c-0.2-0.5-0.2-1.1-0.4-1.6
							c-0.2-0.9-0.2-1.7-0.2-2.6c0-0.1-0.1-0.1-0.1,0c0,0.1,0,0.2,0,0.2c0,0.2,0,0.3,0,0.5s0,0.3,0,0.5c0,0.4,0,0.8,0.1,1.2
							c0.1,0.6,0.2,1.1,0.3,1.7c0.1,0.6,0.3,1.2,0.5,1.8c0.1,0.3,0.2,0.6,0.3,0.9c0.2,0.5,0.7,1.6-0.1,2c-0.2,0.1-0.3,0-0.2,0.2
							s0.3,0.4,0.6,0.4c0.4,0.1,0.9-0.2,0.9-0.6C34.5,31.4,34.3,31.5,34.1,31.6z"/>
						<path id="XMLID_1799_" fill="#2C2C2C" d="M34.6,31.3L34.6,31.3L34.6,31.3L34.6,31.3z"/>
						<path id="XMLID_1798_" fill="#2C2C2C" d="M36.5,28.6c0-0.1,0-0.6-0.2-0.3c-0.1,0.1,0,0.3,0,0.4c0.1,1.3,0.2,2.6,0.6,3.8
							c0.2,0.6,0.4,1.3,0.4,1.9c0,0.2-0.2,0.6-0.4,0.7c-0.2,0.2-0.6,0.2-0.9,0.1c-0.1,0-0.2-0.1-0.2-0.1c0.1,0.1,0.3,0.1,0.4,0
							c0.4-0.1,0.6-0.6,0.5-1c-0.1-0.6-0.6-1.1-0.9-1.5c-0.3-0.4-0.6-0.7-0.9-1.1c-0.1-0.1-0.2-0.4-0.3-0.4c0.1,0.3,0.3,0.7,0.6,1
							c0.2,0.2,0.3,0.6,0.5,0.8c0.3,0.4,0.7,0.9,0.7,1.5c0,0.5-0.4,0.7-0.9,0.6c-0.1,0-0.1-0.1-0.2,0c0.1,0.2,0.2,0.3,0.4,0.4
							c0.4,0.2,0.8,0.2,1.2,0.1c0.2-0.1,0.6-0.4,0.6-0.6c0.2-0.6,0.1-1.3-0.1-1.9s-0.4-1.2-0.5-1.8c-0.1-0.6-0.2-1.2-0.4-1.7
							C36.5,29.2,36.5,28.9,36.5,28.6z"/>
					</g>
					<path id="XMLID_1796_" fill="#2C2C2C" d="M41.3,9.2c0.6-0.3,1.3-0.6,2-0.9C43.6,8.2,44,8,44.4,7.8c0.1-0.1,0.2-0.1,0.4-0.1
						c0,0,0.1,0,0.1,0.1c-0.6,0.4-1.2,0.7-1.8,0.9c-0.4,0.2-0.7,0.3-1.2,0.4c-0.2,0.1-0.3,0.1-0.5,0.2C41.3,9.3,41.2,9.3,41.3,9.2z"
						/>
					<path id="XMLID_1795_" fill="#2C2C2C" d="M55.4,25.1c0,0.2-1-0.5-2.2-1s-2.7-0.3-3.3-0.6c-0.6-0.2-0.6-1.2-0.4-1.3
						c0.1-0.1,2-0.4,3.9,0.9C54.2,23.8,55.4,24.8,55.4,25.1z"/>
					<path id="XMLID_1794_" fill="#2C2C2C" d="M37,28.2c0.1,0.2,0.7-1.5,2-2.7c1.3-1.2,3.1-1.9,3.3-2.1c0.1-0.2-0.4-1.1-0.8-1.1
						c-0.4-0.1-2.3,1.1-3.1,2.2S36.8,27.9,37,28.2z"/>
				</g>
				<g id="XMLID_1790_">
					<g id="XMLID_1791_">
						<path id="XMLID_1792_" fill="#FDDDC5" d="M48.9,40.8c0,0-3.5-2.8-6.7-3.6c-3.2-0.8-7.1-0.8-8.6,2c-1.6,3,3.5,4.3,5.7,4.3
							s8.1-0.2,9.1-1C49.4,41.8,48.9,40.8,48.9,40.8z"/>
					</g>
				</g>
				<path id="XMLID_1789_" opacity="0.5" fill="#FBC199" enable-background="new    " d="M48.9,42.1c-1.1-0.4-2.6-0.6-2.6-0.6
					s0.1,0.5-6.7,0.5c-3.6,0-5.3-1.2-6.2-2.3c-0.9,2.6,3.8,3.8,5.9,3.8c2.3,0,8.1-0.2,9.1-1C48.7,42.4,48.8,42.3,48.9,42.1z"/>
				<g id="XMLID_1784_">
					<g id="XMLID_1785_">
						<path id="XMLID_1786_" fill="#DF884A" d="M39.6,43.8L39.6,43.8c-0.1,0-0.1,0-0.2,0c-1.9,0-5.1-0.8-6.1-2.5
							c-0.4-0.7-0.4-1.4,0.1-2.2c0.9-1.7,2.8-2.6,5.4-2.6c1.1,0,2.3,0.2,3.5,0.4c3.2,0.8,6.6,3.6,6.8,3.7c0.1,0,0.1,0.1,0.1,0.1
							c0.2,0.4,0.4,1.4-0.6,2C47.5,43.6,41.1,43.8,39.6,43.8z M38.9,37.1c-1.7,0-3.9,0.4-4.9,2.3c-0.4,0.6-0.4,1.2-0.1,1.7
							c0.8,1.4,3.8,2.2,5.6,2.2c0.1,0,0.1,0,0.2,0c2.7,0,7.9-0.3,8.8-0.9c0.7-0.5,0.5-1.1,0.4-1.3c-0.4-0.3-3.6-2.8-6.5-3.5
							C41,37.2,39.9,37.1,38.9,37.1z"/>
					</g>
				</g>
				<g id="XMLID_1781_">
					<g id="XMLID_1782_">
						<path id="XMLID_1783_" fill="#FDDDC5" d="M48.6,39.8c0,0-1.5,0.4-2.4,1.4c-0.7,0.6-1.4,1.3-1.5,1.9c-0.1,0.6,0.2,1.7,0.7,1.6
							c0.4-0.1,0.6-0.4,0.6-0.4s0.2,0.8,0.9,0.8c0.2,0.6,0.6,0.8,1.4,0.7c0.4,0.7,1.4,1.2,1.7,0.8c0.3-0.4-0.2-1.1-0.3-1.3
							c0,0,0.9-0.7,1.6-1.9c1.9,0.2,4,0.8,7.4,0.7C61.7,44,66,42.7,66,40s-3.3-4-5.4-4.1c-2.1-0.2-5.3,0.4-8,1.7
							C49.9,38.9,48.6,39.8,48.6,39.8z"/>
					</g>
				</g>
				<path id="XMLID_1780_" opacity="0.5" fill="#FBC199" enable-background="new    " d="M66,40c0-0.2,0-0.4-0.1-0.6
					c-0.3,0.2-0.7,0.3-0.9,0.7c-2.2,3-11.6,2.3-12.5,2.2c-0.9-0.1-1.2-0.2-2.1,0c-3.3,0.9-3.5-0.3-3.7-0.4c-0.4-0.1-0.6-0.4-0.6-0.6
					c-0.7,0.6-1.4,1.2-1.5,1.9c-0.1,0.6,0.2,1.7,0.7,1.6c0.4-0.1,0.6-0.4,0.6-0.4s0.2,0.8,0.9,0.8c0.2,0.6,0.6,0.8,1.4,0.7
					c0.4,0.7,1.4,1.2,1.7,0.8c0.3-0.4-0.2-1.1-0.3-1.3c0,0,0.9-0.7,1.6-1.9c1.9,0.2,4,0.8,7.4,0.7C61.7,43.9,66,42.6,66,40z"/>
				<path id="XMLID_1777_" fill="#FBC199" d="M48.1,45.7c-0.7,0.1-1.1-0.1-1.4-0.7c0,0,0,0-0.1,0c0.1-0.2,0.1-0.4,0.1-0.7
					c0.1-0.3,0.8-0.2,1.1,0.6c0.3-0.7,1.1,0.2,2.5-0.4c-0.4,0.6-0.9,0.8-0.9,0.8c0.1,0.2,0.6,0.9,0.3,1.3S48.5,46.4,48.1,45.7z
					 M45.3,44.7c0.3-0.1,0.5-0.2,0.6-0.4c0-0.3,0-0.6-0.1-0.8c-0.6-0.2-0.9-0.6-1-0.9c-0.1,0.2-0.2,0.3-0.2,0.5
					C44.6,43.7,44.9,44.8,45.3,44.7z"/>
				<path id="XMLID_1774_" fill="#DF884A" d="M64.2,36.8c-1-0.6-2.3-1.1-3.6-1.2c-0.2,0-0.6-0.1-0.8-0.1c-1.9,0-4.8,0.5-7.4,1.8
					c-2.5,1.2-3.7,2.1-4,2.3c-0.2,0.1-1.6,0.5-2.5,1.4c-0.7,0.5-1.5,1.3-1.6,2c-0.1,0.5,0.1,1.3,0.4,1.7c0.2,0.2,0.4,0.2,0.5,0.2
					c0.1,0,0.1,0,0.1,0c0.2-0.1,0.3-0.1,0.4-0.2c0.2,0.2,0.4,0.6,0.7,0.6c0.2,0.6,0.7,0.7,1.4,0.7c0.4,0.5,1,0.9,1.5,0.9
					c0.2,0,0.4-0.1,0.6-0.2c0.4-0.4,0.1-1.1-0.1-1.4c0.3-0.2,0.9-0.9,1.4-1.7c0.3,0.1,0.7,0.1,1,0.2c1.5,0.2,3.2,0.6,5.4,0.6
					c0.2,0,0.6,0,0.8,0c1.9-0.1,3.7-0.4,5.1-1.1c1.8-0.8,2.7-1.9,2.7-3.3C66.2,38.7,65.6,37.6,64.2,36.8z M63.3,42.8
					c-1.4,0.6-3.2,1-4.9,1.1c-0.2,0-0.6,0-0.8,0c-2.2,0-3.8-0.2-5.3-0.5c-0.4-0.1-0.8-0.1-1.2-0.2c-0.1,0-0.2,0.1-0.2,0.1
					c-0.6,1.2-1.5,1.9-1.5,1.9c-0.1,0.1-0.1,0.2-0.1,0.4c0,0,0,0.1,0.1,0.1c0.4,0.6,0.4,0.8,0.2,0.9c0,0-0.1,0.1-0.1,0.1
					c-0.3,0-0.9-0.4-1.2-0.8l0,0l0,0c-0.1-0.1-0.1-0.2-0.1-0.2c-0.1-0.2-0.1-0.3-0.2-0.5c-0.1-0.1-0.1-0.2-0.2-0.2
					c-0.2,0-0.1,0.2-0.1,0.2c0,0.2,0.1,0.4,0.1,0.6c0,0,0,0-0.1,0c-0.4,0-0.6-0.2-0.7-0.5c-0.1-0.4-0.1-0.7,0-1.1
					c0-0.1,0.1-0.3-0.1-0.3c-0.1,0-0.1,0.1-0.1,0.1c-0.1,0.1-0.1,0.2-0.1,0.2c-0.1,0.2-0.1,0.5-0.2,0.7c-0.2-0.1-0.4-0.5-0.4-0.6
					l0,0l0,0c-0.1-0.4-0.1-0.9,0-1.2c0-0.1,0.1-0.1,0.1-0.2S46,42.8,46,42.8c-0.1,0-0.1,0.1-0.1,0.2c-0.1,0.1-0.1,0.2-0.1,0.3
					c-0.1,0.4-0.2,0.7-0.2,1.1c-0.1,0.1-0.2,0.2-0.4,0.2c-0.2-0.1-0.4-0.8-0.3-1.3c0.1-0.5,0.7-1.2,1.4-1.7c0,0,0,0,0.1-0.1
					c0.9-0.9,2.3-1.3,2.3-1.3c0.1,0,0.1,0,0.1-0.1c0,0,1.3-0.9,4-2.3c2.5-1.3,5.3-1.7,7.1-1.7c0.2,0,0.6,0,0.7,0
					c2.2,0.2,5.2,1.5,5.2,3.8C65.8,41.3,64.4,42.2,63.3,42.8z"/>
			</g>
			<path fill="#FFFFFF" d="M143,27.1c0.2,0.4-0.2,1.1-1.1,1.5c-0.8,0.4-1.7,0.4-1.9,0c-0.2-0.4,0.2-1.1,1.1-1.5
				C142,26.7,142.8,26.7,143,27.1z"/>
			<path fill="#FFFFFF" d="M7.7,28.1c0.3,0.4,0.1,1.2-0.6,1.8s-1.5,0.9-1.8,0.5C5,30,5.2,29.2,5.9,28.6S7.3,27.8,7.7,28.1z"/>
			<path fill="#FFFFFF" d="M104,30.8c0.2,0.2,0.1,0.9-0.5,1.4c-0.5,0.5-1.1,0.7-1.4,0.4c-0.2-0.2-0.1-0.9,0.5-1.4
				S103.7,30.5,104,30.8z"/>
		</g>
		<path fill="#00D623" d="M161,11.4c-3.8,0-6.8,3-6.8,6.8s3,6.8,6.8,6.8c3.8,0,6.8-3,6.8-6.8C167.8,14.5,164.8,11.4,161,11.4z
			 M161,23.7c-3,0-5.5-2.5-5.5-5.5s2.5-5.5,5.5-5.5s5.5,2.5,5.5,5.5S164,23.7,161,23.7z M162.6,18.8c0.4-0.1,0.7-0.3,0.9-0.6
			c0.3-0.4,0.4-0.8,0.4-1.3c0-0.3-0.1-0.6-0.2-0.8s-0.2-0.5-0.5-0.7c-0.2-0.2-0.5-0.4-0.8-0.5c-0.3-0.1-0.7-0.2-1.1-0.2h-2.1
			c-0.2,0-0.4,0.1-0.4,0.2c-0.1,0.1-0.2,0.2-0.2,0.4V21c0,0.2,0.1,0.4,0.2,0.4c0.1,0.1,0.2,0.1,0.4,0.1c0.1,0,0.2-0.1,0.4-0.1
			c0.1-0.1,0.2-0.2,0.2-0.4v-2h1.3l1.7,2.3c0.2,0.2,0.3,0.2,0.4,0.2l0,0c0.2,0,0.2-0.1,0.4-0.2c0.1-0.1,0.2-0.2,0.2-0.4
			c0-0.1,0-0.3-0.2-0.5L162.6,18.8z M162.1,17.9c-0.2,0.1-0.4,0.1-0.7,0.1h-1.5V16h1.5c0.2,0,0.4,0,0.6,0.1c0.2,0.1,0.3,0.1,0.4,0.2
			c0.1,0.1,0.2,0.2,0.2,0.3c0.1,0.1,0.1,0.2,0.1,0.4c0,0.2,0,0.2-0.1,0.4s-0.1,0.2-0.2,0.2C162.4,17.7,162.2,17.8,162.1,17.9z"/>
	</g>
</g>
</svg>
