<?xml version="1.0" standalone="no"?>
<!DOCTYPE svg PUBLIC "-//W3C//DTD SVG 20010904//EN"
 "http://www.w3.org/TR/2001/REC-SVG-20010904/DTD/svg10.dtd">
<svg version="1.0" xmlns="http://www.w3.org/2000/svg"
 width="795.000000pt" height="496.000000pt" viewBox="0 0 795.000000 496.000000"
 preserveAspectRatio="xMidYMid meet">

<g transform="translate(0.000000,496.000000) scale(0.100000,-0.100000)"
fill="#14928e" stroke="none">
<path d="M6937 4610 l-327 -329 331 -332 331 -332 332 332 331 331 -330 330
c-181 181 -332 330 -335 329 -3 0 -152 -148 -333 -329z m449 -27 c67 -23 154
-110 177 -177 9 -27 17 -79 17 -116 0 -97 -23 -155 -89 -221 -66 -66 -124 -89
-221 -89 -97 0 -155 23 -221 89 -66 66 -89 124 -89 221 0 37 8 89 17 116 22
64 110 154 173 177 60 21 174 21 236 0z"/>
<path d="M0 2602 l0 -1848 153 -57 c517 -193 1181 -380 1762 -496 835 -167
1575 -225 2310 -180 924 55 2050 287 3113 641 l272 90 0 1339 0 1339 -355 0
-355 0 0 -1304 0 -1303 -182 -52 c-867 -246 -1759 -405 -2526 -452 -250 -15
-886 -7 -1122 15 -392 36 -830 101 -1220 181 -235 48 -733 172 -955 238 l-180
54 -3 1822 -2 1821 -355 0 -355 0 0 -1848z"/>
<path d="M2309 3490 c-459 -35 -722 -189 -889 -520 -39 -77 -92 -224 -82 -227
20 -6 600 -113 613 -113 10 0 32 33 57 83 53 107 99 159 172 196 90 44 153 54
320 48 178 -6 259 -28 325 -88 65 -60 87 -122 93 -255 l4 -111 -82 -27 c-124
-41 -280 -79 -550 -135 -495 -102 -674 -172 -820 -321 -151 -155 -218 -343
-207 -580 6 -137 24 -207 77 -315 127 -257 360 -404 692 -435 325 -31 619 69
890 302 l56 48 46 -145 47 -145 344 0 c190 0 345 4 345 9 0 4 -13 37 -29 72
-16 35 -41 102 -55 147 -58 185 -58 183 -66 1027 -7 831 -10 874 -59 1019 -27
77 -54 119 -121 190 -98 104 -245 188 -398 227 -167 42 -506 66 -723 49z m609
-1662 c-4 -190 -8 -232 -25 -285 -43 -132 -137 -234 -277 -302 -104 -50 -171
-65 -282 -59 -111 5 -187 37 -261 110 -77 76 -108 150 -108 258 0 101 21 156
84 219 76 76 170 111 516 192 121 28 245 59 275 69 30 10 61 18 69 19 11 1 12
-38 9 -221z"/>
<path d="M4140 3136 l0 -294 328 4 c180 2 466 6 635 8 l309 4 -74 -76 c-98
-102 -203 -222 -796 -905 l-502 -578 0 -274 0 -275 1195 0 1195 0 0 311 0 311
-652 -6 c-359 -4 -691 -9 -737 -12 l-83 -6 200 219 c110 120 423 477 696 793
l496 575 0 248 0 247 -1105 0 -1105 0 0 -294z"/>
</g>
</svg>
