<svg width="100" height="100" viewBox="0 0 100 100" fill="none" xmlns="http://www.w3.org/2000/svg">
<g clip-path="url(#clip0)">
<path d="M50.0161 90.488C25.0239 90.488 4.7002 70.1896 4.7002 45.2285C4.7002 20.2673 25.0239 0 50.0161 0C75.0083 0 95.332 20.2984 95.332 45.2596C95.332 70.2207 74.9772 90.488 50.0161 90.488ZM50.0161 0.652782C25.3974 0.652782 5.35379 20.6714 5.35379 45.2596C5.35379 69.8477 25.3974 89.8353 50.0161 89.8353C74.6348 89.8353 94.6473 69.8477 94.6473 45.2596C94.6473 20.6714 74.6348 0.652782 50.0161 0.652782Z" fill="#2E3192"/>
<path fill-rule="evenodd" clip-rule="evenodd" d="M50.0146 80.2922C69.4046 80.2922 85.122 64.5944 85.122 45.2285C85.122 25.8626 69.4046 10.1648 50.0146 10.1648C30.6246 10.1648 14.9072 25.8937 14.9072 45.2596C14.9072 64.5944 30.6246 80.2922 50.0146 80.2922Z" fill="#ED1C24"/>
<path d="M50.0143 80.6343C30.4687 80.6343 14.5957 64.7499 14.5957 45.2597C14.5957 25.7695 30.4687 9.854 50.0143 9.854C69.5599 9.854 85.4329 25.7384 85.4329 45.2286C85.4329 64.7188 69.5288 80.6343 50.0143 80.6343ZM50.0143 10.5068C30.8422 10.5068 15.2493 26.1114 15.2493 45.2597C15.2493 64.408 30.8422 79.9815 50.0143 79.9815C69.1864 79.9815 84.7793 64.408 84.7793 45.2597C84.7793 26.1114 69.1864 10.5068 50.0143 10.5068Z" fill="#2E3192"/>
<path fill-rule="evenodd" clip-rule="evenodd" d="M43.0113 9.35645C43.3225 9.35645 43.6026 9.60512 43.6026 9.94706C43.6026 10.2579 43.3536 10.5377 43.0113 10.5377C42.7 10.5377 42.4199 10.289 42.4199 9.94706C42.4199 9.60512 42.6689 9.35645 43.0113 9.35645Z" fill="#2E3192"/>
<path fill-rule="evenodd" clip-rule="evenodd" d="M75.2554 18.9617C75.5667 18.9617 75.8468 19.2103 75.8468 19.5523C75.8468 19.8942 75.5978 20.1429 75.2554 20.1429C74.9442 20.1429 74.6641 19.8942 74.6641 19.5523C74.6641 19.2103 74.9442 18.9617 75.2554 18.9617Z" fill="#2E3192"/>
<path fill-rule="evenodd" clip-rule="evenodd" d="M96.6702 28.2873C98.6621 33.7271 99.658 39.4778 99.658 45.2596C99.658 72.6453 77.4047 94.871 49.9848 94.871C22.565 94.871 0.342773 72.6453 0.342773 45.2596C0.342773 39.4778 1.36985 33.7271 3.33063 28.2873L9.33748 26.0181L13.3213 31.8931C11.7651 36.1828 10.9559 40.6901 10.9559 45.2285C10.9559 66.7703 28.4473 84.2089 49.9848 84.2089C71.5223 84.2089 89.0138 66.7392 89.0138 45.2285C89.0138 40.6901 88.2046 36.1517 86.6484 31.8931L90.6322 26.0181L96.6702 28.2873Z" fill="white"/>
<path d="M50.0156 95.1814C22.4401 95.1814 0 72.7693 0 45.2592C0 39.4152 1.02708 33.6645 3.01899 28.1625L3.08123 28.0071L9.49269 25.6135L13.6944 31.8616L13.6321 32.017C12.0759 36.2756 11.2979 40.7208 11.2979 45.2281C11.2979 66.5523 28.6648 83.8976 50.0156 83.8976C71.3663 83.8976 88.7333 66.5523 88.7333 45.2281C88.7333 40.6897 87.9552 36.2445 86.399 32.017L86.3368 31.8616L90.5384 25.6135L96.9499 28.0071L97.0122 28.1625C99.0041 33.6645 100.031 39.4152 100.031 45.2592C100 72.7693 77.591 95.1814 50.0156 95.1814ZM3.57921 28.5355C1.64955 33.9132 0.653595 39.5395 0.653595 45.2592C0.653595 72.4273 22.7824 94.5287 49.9844 94.5287C77.1864 94.5287 99.3464 72.4273 99.3464 45.2592C99.3464 39.5395 98.3505 33.9132 96.4208 28.5355L90.7874 26.4217L87.0526 31.9548C88.5777 36.2445 89.3558 40.6897 89.3558 45.2592C89.3558 66.9564 71.6776 84.5815 49.9844 84.5815C28.2602 84.5815 10.6131 66.9253 10.6131 45.2592C10.6131 40.7208 11.3912 36.2445 12.9163 31.9548L9.21257 26.4217L3.57921 28.5355Z" fill="#2E3192"/>
<path fill-rule="evenodd" clip-rule="evenodd" d="M50.0169 15.5425L51.9466 21.5729H58.3269L53.1604 25.3031L55.1523 31.3336L50.0169 27.5723L44.8504 31.3336L46.8423 25.3031L41.6758 21.5729H48.0561L50.0169 15.5425Z" fill="#FFF200"/>
<path fill-rule="evenodd" clip-rule="evenodd" d="M29.5972 43.6434C34.4524 45.3841 40.5215 43.146 45.6569 42.1824C50.8234 44.7002 51.4148 44.3583 59.6937 43.5501C63.7708 44.7935 67.7547 45.7882 70.6491 43.4879C71.1782 43.9853 71.7385 44.4827 72.2676 45.0111C72.2364 54.3987 72.2365 63.7863 72.2053 73.174C57.4839 73.205 42.7624 73.2672 28.041 73.2983C27.9476 63.7863 27.8854 54.2744 27.792 44.7624C28.3833 44.3894 28.9747 44.0164 29.5972 43.6434Z" fill="#2E3192"/>
<path fill-rule="evenodd" clip-rule="evenodd" d="M29.6611 72.925C29.6611 63.3819 29.6611 53.8699 29.6611 44.3269C33.5827 45.0107 38.9048 44.016 45.6586 42.182C45.8765 42.0577 46.0321 41.7779 45.752 41.3738C43.5422 40.1615 44.0091 38.514 45.0673 37.7991C46.9347 36.5246 50.6073 35.4366 52.6926 33.2917C54.9957 38.3586 49.6113 37.5504 50.2338 41.0941C50.4828 42.897 52.288 42.4307 52.4125 41.6225C51.79 38.6694 53.6263 36.1205 54.7778 35.5609C59.2596 34.6284 61.4383 37.9856 64.9241 37.768C65.2976 37.7058 65.6088 38.5451 63.6792 38.4829C62.5276 38.5762 59.0107 38.4518 57.5167 38.6383C56.8942 38.7938 56.6764 39.6331 56.8631 40.0993C58.1703 40.0061 63.368 38.3275 66.1691 40.4724C64.6129 41.1873 60.2556 43.2078 59.602 43.4876C63.2435 45.0418 66.6359 45.9122 70.2774 44.3269C70.2774 53.8078 70.2774 63.3197 70.2774 72.8006C65.2976 67.9825 56.6141 72.7385 49.9537 71.5572C41.8927 72.6452 35.2011 68.0136 29.6611 72.925Z" fill="white"/>
<path fill-rule="evenodd" clip-rule="evenodd" d="M50.9186 35.3748C51.4165 36.4006 51.4165 37.5196 50.3272 38.763C48.4287 40.4416 48.1174 43.4879 49.1134 44.5137C49.9537 45.353 50.9186 45.1976 51.6344 44.0474C53.0972 41.5917 51.8834 37.675 56.0851 36.8047C58.4505 36.7114 60.8159 38.1724 62.9634 38.2346C63.1813 38.2346 63.1812 38.5454 62.9323 38.5454C61.2516 38.5454 59.4775 38.5454 57.7969 38.5765C56.6764 38.7319 56.1473 39.2914 56.6453 40.1929C59.1974 40.224 61.7807 39.1982 63.4302 39.9442C63.866 40.0997 63.119 40.8146 62.1853 41.2498C60.1934 42.3067 57.6724 42.9905 56.1784 43.3014C54.7156 45.6328 53.0972 47.2181 50.6385 47.6533C48.8644 47.6844 47.7128 46.5964 47.1215 45.3841C46.6546 43.9542 47.495 41.6539 47.1526 41.0633C45.5031 40.1618 44.8806 39.1049 46.499 37.8615C47.6817 37.0223 49.5803 36.5249 50.9186 35.3748Z" fill="#FFF200"/>
<path fill-rule="evenodd" clip-rule="evenodd" d="M42.7627 48.8967H57.2351V50.8862H54.7141L54.8698 50.451H45.1281L45.3148 50.8862H42.7627V48.8967Z" fill="#2E3192"/>
<path fill-rule="evenodd" clip-rule="evenodd" d="M48.21 54.2119H51.7892V54.8336H48.21V54.2119Z" fill="#2E3192"/>
<path fill-rule="evenodd" clip-rule="evenodd" d="M55.8665 50.4507C55.1507 53.0307 52.7542 54.8336 50.0153 54.8336C47.2764 54.8336 44.8799 53.0307 44.1641 50.4507H45.1289C45.8136 52.5334 47.7744 53.9322 50.0153 53.9322C52.2251 53.9322 54.217 52.5334 54.9017 50.4818L55.8665 50.4507Z" fill="#2E3192"/>
<path fill-rule="evenodd" clip-rule="evenodd" d="M48.582 69.4433V54.7712H49.7647V69.4433H48.582Z" fill="#2E3192"/>
<path fill-rule="evenodd" clip-rule="evenodd" d="M50.2324 69.4433V54.7712H51.4151V69.4433H50.2324Z" fill="#2E3192"/>
<path d="M50.0153 71.8374C48.926 71.8374 47.9612 70.5318 47.3698 68.4491C44.6309 69.3195 42.4212 69.2573 41.7676 68.1383C41.5497 67.7653 41.4875 67.2679 41.6431 66.7395C41.8921 65.7758 42.7635 64.5946 44.0707 63.4134C42.888 62.3254 42.1099 61.2374 41.861 60.3049C41.7053 59.7764 41.7676 59.3413 41.9854 58.9682C42.6079 57.9114 44.631 57.8181 47.1831 58.5641C47.7744 56.0152 48.8015 54.3677 50.0465 54.3677C51.2603 54.3677 52.2874 55.9841 52.8787 58.4709C55.462 57.7248 57.4539 57.8181 58.1075 58.9061C58.3253 59.2791 58.3876 59.7764 58.232 60.3049C57.983 61.2374 57.1738 62.3876 55.9599 63.5066C57.1738 64.6257 57.983 65.7447 58.232 66.6462C58.3876 67.1746 58.3253 67.6098 58.1075 67.9829C57.4539 69.0708 55.3686 69.133 52.7231 68.3559C52.1006 70.4696 51.1358 71.8374 50.0153 71.8374ZM47.7744 68.2937C48.3347 70.252 49.175 71.4022 50.0153 71.4022C50.9179 71.4022 51.7583 70.1277 52.2874 68.1694C51.6026 67.9518 50.8868 67.672 50.1398 67.3301C49.3306 67.7342 48.5214 68.045 47.7744 68.2937ZM44.382 63.6621C43.1681 64.7811 42.3278 65.9002 42.0788 66.8327C41.9543 67.2679 41.9854 67.6098 42.1411 67.8896C42.7013 68.8221 44.7243 68.8221 47.2453 68.0139C47.0586 67.2679 46.903 66.4286 46.8096 65.5271C45.907 64.9365 45.0667 64.2838 44.382 63.6621ZM52.8165 67.8585C55.2441 68.5735 57.1738 68.6046 57.7029 67.7031C57.8585 67.4233 57.8896 67.1125 57.7651 66.7084C57.5472 65.838 56.738 64.8122 55.5865 63.7553C54.9017 64.377 54.0925 64.9987 53.1899 65.5893C53.0966 66.3975 52.9721 67.1746 52.8165 67.8585ZM47.2765 65.8069C47.3698 66.5529 47.4943 67.2368 47.6499 67.8585C48.2724 67.6409 48.926 67.3922 49.6107 67.0814C49.175 66.8638 48.7081 66.6151 48.2413 66.3664C47.9301 66.211 47.5877 65.9934 47.2765 65.8069ZM50.6378 67.0814C51.2292 67.3301 51.8205 67.5477 52.3807 67.7342C52.5052 67.1746 52.6297 66.5529 52.7231 65.9002C52.3807 66.1178 52.0384 66.3043 51.696 66.5219C51.3225 66.7084 50.9802 66.8949 50.6378 67.0814ZM47.2142 65.2474C47.6188 65.4961 48.0234 65.7447 48.4592 65.9934C49.0194 66.3043 49.5796 66.584 50.1087 66.8327C50.5444 66.6151 51.0113 66.3664 51.447 66.1178C51.9139 65.8691 52.3496 65.5893 52.7542 65.3096C52.8165 64.5946 52.8787 63.8175 52.8787 63.0404C52.8787 62.543 52.8787 62.0767 52.8476 61.6105C52.443 61.3307 52.0072 61.082 51.5404 60.8333C50.9802 60.5225 50.4199 60.2427 49.8597 59.994C49.3617 60.2427 48.8326 60.4914 48.3347 60.8022C47.9301 61.0198 47.5254 61.2685 47.152 61.5172C47.1208 62.0146 47.0897 62.5119 47.0897 63.0714C47.1208 63.8486 47.152 64.5635 47.2142 65.2474ZM53.3144 61.9524C53.3456 62.3254 53.3456 62.6984 53.3456 63.0714C53.3456 63.7242 53.3144 64.377 53.2522 64.9987C53.9992 64.5013 54.6839 63.9729 55.2752 63.4445C54.6839 62.9471 54.0303 62.4497 53.3144 61.9524ZM44.6932 63.3823C45.2845 63.9107 46.0004 64.4392 46.7474 64.9365C46.6851 64.3459 46.6851 63.6931 46.6851 63.0714C46.6851 62.6363 46.6851 62.2321 46.7162 61.828C45.9693 62.3254 45.2845 62.8538 44.6932 63.3823ZM53.2833 61.3929C54.1548 61.9524 54.9329 62.543 55.5865 63.1336C56.738 62.0456 57.5161 60.9888 57.7651 60.1184C57.8896 59.6832 57.8585 59.3413 57.7029 59.0615C57.1738 58.16 55.3063 58.1289 52.941 58.8439C53.0966 59.621 53.2211 60.4914 53.2833 61.3929ZM42.3278 59.1547C42.1722 59.4345 42.1411 59.7454 42.2656 60.1495C42.4834 60.9888 43.2615 62.0146 44.382 63.0714C45.0667 62.4497 45.8759 61.8591 46.7474 61.2685C46.8096 60.4292 46.903 59.6521 47.0586 58.9372C44.7243 58.2844 42.8569 58.2844 42.3278 59.1547ZM50.3888 59.7764C50.8245 59.994 51.2914 60.2427 51.7583 60.4914C52.1006 60.6779 52.4741 60.8955 52.8165 61.1131C52.7542 60.3671 52.6608 59.6521 52.5052 58.9682C51.8205 59.1858 51.1358 59.4656 50.3888 59.7764ZM47.4943 59.0926C47.3698 59.6832 47.2765 60.3049 47.2142 60.9888C47.5254 60.8022 47.8056 60.6157 48.1168 60.4292C48.5214 60.2116 48.926 59.994 49.3306 59.7764C48.7081 59.4967 48.0857 59.2791 47.4943 59.0926ZM47.5877 58.6574C48.3347 58.875 49.0816 59.1858 49.8908 59.5589C50.7623 59.1548 51.6338 58.8128 52.4118 58.5641C51.8827 56.2949 51.0113 54.7718 50.0153 54.7718C49.0816 54.7407 48.1168 56.2017 47.5877 58.6574Z" fill="#2E3192"/>
<path fill-rule="evenodd" clip-rule="evenodd" d="M43.9768 59.1547C44.4748 59.1547 44.8794 58.7506 44.8794 58.2533C44.8794 57.7559 44.4748 57.3518 43.9768 57.3518C43.4788 57.3518 43.0742 57.7559 43.0742 58.2533C43.1053 58.7506 43.51 59.1547 43.9768 59.1547Z" fill="#2E3192"/>
<path fill-rule="evenodd" clip-rule="evenodd" d="M42.0793 67.0815C42.5773 67.0815 42.9819 66.6774 42.9819 66.18C42.9819 65.6827 42.5773 65.2786 42.0793 65.2786C41.5814 65.2786 41.1768 65.6827 41.1768 66.18C41.1768 66.6774 41.5814 67.0815 42.0793 67.0815Z" fill="#2E3192"/>
<path fill-rule="evenodd" clip-rule="evenodd" d="M49.9219 72.428C55.0884 72.428 59.2901 76.6244 59.2901 81.7845C59.2901 86.9446 55.0884 91.1411 49.9219 91.1411C44.7554 91.1411 40.5537 86.9446 40.5537 81.7845C40.5537 76.6244 44.7554 72.428 49.9219 72.428Z" fill="white"/>
<path fill-rule="evenodd" clip-rule="evenodd" d="M43.3223 76.8415C45.4387 76.8415 47.5862 76.8415 49.7026 76.8415C49.7026 78.116 49.7026 79.3905 49.7026 80.6961C47.5862 80.6961 45.4698 80.6961 43.3534 80.6961C43.3534 81.1934 43.3534 81.7218 43.3534 82.2192C44.4738 82.2192 45.5943 82.2192 46.7147 82.2192C48.1153 82.8409 49.1735 83.8045 49.796 85.2033C50.2628 85.2033 50.7297 85.2033 51.2277 85.2033C51.2277 84.3641 51.2277 83.5559 51.2277 82.7166C51.6945 82.7166 52.1614 82.7166 52.5971 82.7166C52.5971 83.5248 52.5971 84.333 52.5971 85.1723C52.9394 85.1723 53.2507 85.2344 53.5619 85.2344C53.7175 84.0843 54.3089 83.0585 55.2426 82.3125C55.7717 82.3125 56.3008 82.3125 56.8299 82.3125C56.8299 81.8151 56.8299 81.3177 56.8299 80.8204C55.7717 80.8204 54.7446 80.8204 53.6864 80.8204C53.6864 79.5148 53.6864 78.2093 53.6864 76.9037C54.7446 76.9037 55.8339 76.9037 56.8921 76.9037C56.8921 76.5618 56.8921 76.2198 56.8921 75.909C56.7054 75.6603 56.4564 75.4116 56.2074 75.194C55.3982 74.9764 54.5579 74.7589 53.7487 74.5413C52.2547 74.5413 50.7608 74.5413 49.298 74.5413C47.3061 74.8521 45.3142 75.194 43.3534 75.5049C43.3223 75.8779 43.3223 76.3753 43.3223 76.8415Z" fill="#2E3192"/>
<path fill-rule="evenodd" clip-rule="evenodd" d="M46.7478 80.7586C47.8371 80.7586 48.7397 79.8572 48.7397 78.7692C48.7397 77.6812 47.8371 76.7798 46.7478 76.7798C45.6584 76.7798 44.7559 77.6812 44.7559 78.7692C44.7559 79.8572 45.6584 80.7586 46.7478 80.7586ZM46.7478 79.6396C47.2457 79.6396 47.6192 79.2355 47.6192 78.7692C47.6192 78.2719 47.2146 77.8988 46.7478 77.8988C46.2498 77.8988 45.8763 78.3029 45.8763 78.7692C45.8763 79.2355 46.2809 79.6396 46.7478 79.6396Z" fill="#2E3192"/>
<path d="M18.8595 21.2313L18.0192 20.5786L19.4198 18.8067L21.5984 20.5164L20.9448 21.3557L20.5091 21.107C20.6025 21.6354 20.478 22.1639 20.0734 22.6612C19.7621 23.0653 19.3887 23.3451 18.984 23.5005C18.5794 23.656 18.1437 23.687 17.7391 23.5938C17.3034 23.5005 16.9299 23.314 16.5564 23.0343C15.9339 22.568 15.5605 21.9774 15.436 21.3246C15.3737 20.9827 15.3737 20.6407 15.4671 20.3299C15.5605 19.9879 15.7472 19.646 15.9962 19.3352L16.0273 19.3041C16.1207 19.1797 16.214 19.0865 16.3074 18.9932C16.4008 18.9 16.5253 18.8067 16.6187 18.7446C16.8365 18.5891 17.0855 18.4648 17.3345 18.4026C17.5835 18.3404 17.8325 18.3094 18.0815 18.3715C18.3304 18.4026 18.6106 18.4959 18.9218 18.6513L17.957 19.8947C17.5524 19.7082 17.21 19.8014 16.9299 20.1745C16.7431 20.3921 16.712 20.6718 16.8054 20.9516C16.8365 21.0759 16.9299 21.2313 17.0544 21.3868C17.1789 21.5422 17.3345 21.6976 17.4901 21.822C17.8014 22.0706 18.1126 22.195 18.3927 22.2261C18.7039 22.2571 18.9529 22.1328 19.2019 21.822C19.3264 21.6665 19.3887 21.48 19.3887 21.2935C19.3887 21.107 19.3575 20.9205 19.2642 20.7962L18.8595 21.2313Z" fill="#2E3192"/>
<path d="M18.6133 16.3815L19.7337 15.1692L23.3752 18.5885L22.2547 19.8008L18.6133 16.3815Z" fill="#2E3192"/>
<path d="M21.9121 13.211L23.1571 12.123L27.7945 14.7342L26.5495 15.7911L25.9582 15.418L24.7443 16.4749L25.0245 17.0966L23.8106 18.1535L21.9121 13.211ZM24.3086 15.5113L25.0867 14.8274L23.4994 13.8327L24.3086 15.5113Z" fill="#2E3192"/>
<path d="M21.6306 12.5583L21.5684 11.346L22.7822 10.4756L22.4087 11.9987L21.6306 12.5583Z" fill="#2E3192"/>
<path d="M27.4814 8.85885C27.9483 8.548 28.4151 8.39258 28.8508 8.39258C29.2866 8.39258 29.6912 8.48583 30.0647 8.73451C30.2514 8.82777 30.407 8.98319 30.5938 9.13861C30.656 9.20078 30.7494 9.29404 30.8116 9.35621C30.8739 9.44946 30.9672 9.54272 31.0295 9.63597L31.0606 9.69814C31.4652 10.2888 31.5897 10.9415 31.5275 11.6254C31.4341 12.3093 31.0606 12.8688 30.3759 13.304C30.1891 13.4283 30.0024 13.5216 29.8157 13.5837C29.6289 13.6459 29.4422 13.7081 29.2554 13.7392C28.882 13.8013 28.5707 13.7703 28.2595 13.6459C27.9483 13.5216 27.6681 13.3662 27.4192 13.1486C27.2947 13.0242 27.1702 12.931 27.0768 12.8066C26.9834 12.6823 26.8589 12.5579 26.7656 12.4025C26.5788 12.0917 26.4232 11.7808 26.361 11.47C26.2987 11.1591 26.2676 10.8172 26.3298 10.4753C26.4232 9.85357 26.7967 9.29404 27.4814 8.85885ZM28.135 9.88465C27.886 10.0401 27.7615 10.2577 27.7615 10.5685C27.7304 10.8483 27.8549 11.1902 28.1039 11.5632L28.135 11.5943C28.384 11.9673 28.633 12.216 28.9131 12.3404C29.1932 12.4647 29.4733 12.4336 29.7223 12.2782C30.2514 11.9362 30.2825 11.3767 29.7845 10.6307L29.7534 10.5685C29.5356 10.2577 29.2866 10.009 29.0065 9.85357C28.6952 9.69814 28.4151 9.69814 28.135 9.88465Z" fill="#2E3192"/>
<path d="M33.5518 5.84399L35.6059 5.12904C36.1039 4.94253 36.5707 4.88036 37.0065 4.91144C37.4422 4.94253 37.8157 5.06687 38.1269 5.34663C38.4693 5.62639 38.7183 5.99941 38.905 6.52786C39.2162 7.39823 39.2162 8.11318 38.905 8.64163C38.5938 9.17007 38.0336 9.57417 37.2243 9.85394L35.2013 10.5378L33.5518 5.84399ZM35.4814 6.4346L36.3529 8.95248L36.6952 8.82814C37.4111 8.57946 37.6289 8.01993 37.3488 7.18064V7.14955C37.1932 6.71436 37.0065 6.4346 36.7886 6.31026C36.5707 6.18592 36.2284 6.21701 35.7615 6.37243L35.4814 6.4346Z" fill="#2E3192"/>
<path d="M39.2764 3.94785L40.8325 3.637L41.3928 6.59006C41.455 6.90091 41.5484 7.08742 41.6729 7.21176C41.7974 7.3361 41.9841 7.36718 42.2642 7.3361H42.2954C42.5443 7.27393 42.7311 7.18067 42.8245 6.99416C42.9178 6.83874 42.9178 6.59006 42.8556 6.3103L42.2954 3.35724L43.8515 3.04639L44.3806 5.84402C44.5363 6.62115 44.4429 7.24284 44.1316 7.67803C43.8204 8.11322 43.2913 8.39298 42.5132 8.54841C41.7663 8.70383 41.1438 8.64166 40.7081 8.3619C40.2412 8.08213 39.93 7.55369 39.7743 6.74549L39.2764 3.94785Z" fill="#2E3192"/>
<path d="M48.5208 4.56931C48.4585 4.25846 48.334 4.04087 48.1473 3.94761C48.0539 3.91653 47.9606 3.88544 47.8672 3.85436C47.7738 3.82327 47.6804 3.82327 47.5871 3.82327C47.2758 3.85436 47.0268 4.00978 46.9024 4.32063C46.7779 4.60039 46.7467 4.97341 46.7779 5.37751C46.8712 6.31006 47.2136 6.71416 47.8672 6.68308C48.3652 6.65199 48.6142 6.34114 48.6453 5.75053L50.2015 5.62619C50.2015 6.24789 50.0147 6.77633 49.6101 7.18044C49.4234 7.39803 49.2055 7.55345 48.9254 7.67779C48.6764 7.80213 48.3652 7.8643 48.0228 7.89539C47.4937 7.95756 46.9957 7.89539 46.5911 7.70888C46.1865 7.52237 45.8441 7.27369 45.5952 6.90067C45.4707 6.71416 45.3773 6.52765 45.2839 6.27898C45.1906 6.06138 45.1594 5.8127 45.1283 5.53294C45.0661 4.94233 45.1594 4.44497 45.3773 4.00978C45.5952 3.57459 45.8753 3.26374 46.2488 3.04615C46.6222 2.82856 46.9957 2.70422 47.3381 2.67313H47.4003C47.8361 2.64205 48.2095 2.64205 48.5519 2.7353C48.8631 2.79747 49.1433 2.9529 49.33 3.1394C49.7035 3.48134 49.9525 3.94761 50.077 4.50714L48.5208 4.56931Z" fill="#2E3192"/>
<path d="M54.0308 2.79761L56.1783 3.10846C56.7074 3.17063 57.1743 3.32605 57.5478 3.54364C57.9212 3.76124 58.1702 4.041 58.357 4.44511C58.5126 4.81812 58.5748 5.31548 58.4815 5.84392C58.357 6.77647 58.0146 7.39817 57.5166 7.7401C56.9875 8.08203 56.3339 8.17529 55.4625 8.08203L53.346 7.77118L53.6262 5.84392L53.1904 5.78175L53.3772 4.41402L53.8129 4.47619L54.0308 2.79761ZM55.5247 4.16534L55.4625 4.69378L56.0538 4.75595L55.8671 6.12369L55.2757 6.03043L55.1824 6.80755L55.5558 6.86972C56.3339 6.96298 56.7697 6.58996 56.8942 5.6885V5.65741C56.9564 5.19114 56.9253 4.84921 56.7697 4.63161C56.614 4.41402 56.3028 4.2586 55.8359 4.19643L55.5247 4.16534Z" fill="#2E3192"/>
<path d="M61.4055 4.13452L62.9928 4.60079L63.3351 9.91631L61.7789 9.48112V8.79725L60.2228 8.36206L59.8493 8.95267L58.3242 8.51749L61.4055 4.13452ZM60.783 7.39843L61.7789 7.6782V5.8131L60.783 7.39843Z" fill="#2E3192"/>
<path d="M68.1302 6.49672C68.6593 6.7454 69.0328 7.02516 69.2506 7.39818C69.4996 7.7712 69.6241 8.1753 69.6241 8.61049C69.6241 8.82809 69.593 9.04568 69.5619 9.26327C69.5308 9.35653 69.5308 9.44978 69.4685 9.57412C69.4374 9.66738 69.3751 9.79172 69.344 9.91605L69.3129 9.97822C69.0017 10.631 68.5348 11.0973 67.9123 11.377C67.2899 11.6568 66.6052 11.6257 65.8893 11.2838C65.6714 11.1905 65.5158 11.0973 65.3602 10.9729C65.2046 10.8486 65.0801 10.7243 64.9245 10.5688C64.7066 10.2891 64.551 9.97822 64.4576 9.66738C64.3954 9.35653 64.3643 9.01459 64.4265 8.70375C64.4576 8.54832 64.4888 8.3929 64.5199 8.23747C64.551 8.08205 64.6132 7.92662 64.7066 7.7712C64.8622 7.42927 65.049 7.18059 65.2668 6.93191C65.4847 6.71431 65.7648 6.52781 66.0761 6.37238C66.7296 6.1237 67.4144 6.15479 68.1302 6.49672ZM67.6322 7.61578C67.3832 7.49144 67.1031 7.49144 66.8541 7.64686C66.6052 7.80229 66.3873 8.05096 66.2005 8.45507V8.48615C66.0138 8.89025 65.9516 9.23219 65.9827 9.54304C66.0138 9.85389 66.2005 10.0715 66.4495 10.1958C67.0098 10.4756 67.5077 10.1958 67.8812 9.35653L67.9123 9.29436C68.068 8.95242 68.1613 8.61049 68.1302 8.29964C68.068 7.95771 67.9123 7.74012 67.6322 7.61578Z" fill="#2E3192"/>
<path d="M73.5748 9.66724L77.2785 12.3405L76.5004 13.4285L75.3177 12.5581L73.1391 15.5423L71.8008 14.5786L73.9794 11.5945L72.7967 10.7241L73.5748 9.66724Z" fill="#2E3192"/>
<path d="M79.3342 14.2683L80.548 15.4184L78.3693 20.2677L77.1866 19.1486L77.4979 18.5269L76.3152 17.4079L75.7238 17.7498L74.5723 16.6308L79.3342 14.2683ZM77.2489 16.8484L77.9959 17.5633L78.8673 15.9158L77.2489 16.8484Z" fill="#2E3192"/>
<path d="M84.0646 19.3662C84.407 19.8324 84.6248 20.2365 84.6559 20.6717C84.7182 21.1069 84.6248 21.511 84.4381 21.9151C84.3447 22.1016 84.2202 22.2881 84.0957 22.4747C84.0335 22.5368 83.9712 22.6301 83.8779 22.7233C83.7845 22.8166 83.7222 22.8788 83.5977 22.972L83.5355 23.0031C82.9753 23.4383 82.3528 23.6559 81.6681 23.6248C80.9834 23.5937 80.392 23.2518 79.8941 22.6301C79.7696 22.4436 79.6451 22.2881 79.5517 22.1016C79.4583 21.9462 79.3961 21.7597 79.3649 21.5421C79.2716 21.2002 79.2716 20.8582 79.3649 20.5474C79.4583 20.2365 79.5828 19.9257 79.7696 19.677C79.8629 19.5527 79.9874 19.4283 80.0808 19.304C80.1742 19.1797 80.2987 19.0864 80.4543 18.9621C80.7344 18.7445 81.0456 18.589 81.3569 18.4647C81.6681 18.3714 81.9793 18.3093 82.3217 18.3404C82.9753 18.3714 83.5666 18.7134 84.0646 19.3662ZM83.0998 20.1122C82.913 19.8946 82.6952 19.7703 82.3839 19.8014C82.1038 19.8014 81.7615 19.9568 81.4191 20.2365L81.388 20.2676C81.0456 20.5474 80.8278 20.8272 80.7344 21.1069C80.641 21.3867 80.6721 21.6664 80.8589 21.884C81.2635 22.3814 81.7926 22.3503 82.5084 21.7908L82.5707 21.7597C82.8819 21.511 83.0998 21.2623 83.2243 20.9515C83.3488 20.6406 83.3176 20.3609 83.0998 20.1122Z" fill="#2E3192"/>
<path d="M62.9936 3.97921L62.0911 3.76162L61.1885 2.45605L62.589 2.82907L62.9936 3.97921Z" fill="#2E3192"/>
<path fill-rule="evenodd" clip-rule="evenodd" d="M52.2886 93.0373C53.5958 92.7575 54.8096 92.2913 55.899 91.6074L56.9572 92.6643C58.42 91.7007 59.696 90.5816 60.6297 89.1206L59.5715 88.0637C60.2874 86.9758 60.8165 85.7945 61.1277 84.489H62.5905C62.964 82.7793 63.0574 81.0696 62.6839 79.3911H61.2211C60.941 78.0855 60.4741 76.8732 59.7894 75.7852L60.8476 74.7283C59.8828 73.2673 58.7623 71.9929 57.2995 71.0603L56.2413 72.1172C55.152 71.4022 53.9693 70.8738 52.6621 70.5629V69.102C50.9503 68.7289 49.2385 68.6357 47.5578 69.0087V70.4697C46.2507 70.7495 45.0368 71.2157 43.9475 71.8996L42.8893 70.8427C41.4265 71.8063 40.1504 72.9254 39.2167 74.3864L40.2749 75.4433C39.5591 76.5312 39.03 77.7125 38.7187 79.018H37.2559C36.8825 80.7277 36.7891 82.4374 37.1626 84.116H38.6254C38.9055 85.4215 39.3723 86.6338 40.0571 87.7218L38.9989 88.7787C39.9637 90.2397 41.0841 91.5141 42.5469 92.4467L43.6051 91.3898C44.6945 92.1048 45.8772 92.6332 47.1844 92.9441V94.405C48.8962 94.7781 50.608 94.8713 52.2886 94.4983V93.0373ZM49.9232 90.9546C54.9964 90.9546 59.1047 86.8514 59.1047 81.7846C59.1047 76.7178 54.9964 72.6146 49.9232 72.6146C44.8501 72.6146 40.7418 76.7178 40.7418 81.7846C40.7729 86.8514 44.8812 90.9546 49.9232 90.9546Z" fill="#2E3192"/>
<path d="M94.5209 38.0793L94.0852 37.7063C91.9999 35.8412 91.4708 33.572 92.5601 30.7433L92.7468 30.2148L93.1203 30.65C94.6765 32.5151 95.1745 34.7843 94.6454 37.5198L94.5209 38.0793ZM92.9647 31.5515C92.3422 33.6342 92.6846 35.3128 94.0852 36.7738C94.3653 34.7222 93.9918 33.0436 92.9647 31.5515Z" fill="#2E3192"/>
<path fill-rule="evenodd" clip-rule="evenodd" d="M92.8399 30.8672C94.2405 32.5458 94.8318 34.6284 94.2716 37.4572C92.0618 35.4677 91.9684 33.1985 92.8399 30.8672Z" fill="#FFF200"/>
<path d="M50.0156 90.3946V89.9594C74.6966 89.9594 94.7713 69.9097 94.7713 45.2594C94.7713 42.6794 94.5534 40.0682 94.0866 37.4882L94.5223 37.426C94.9892 40.0061 95.207 42.6483 95.207 45.2594C95.207 70.1273 74.9145 90.3946 50.0156 90.3946Z" fill="#2E3192"/>
<path d="M90.5081 36.6803C91.5663 37.1466 92.4689 37.7994 93.247 38.7319C93.9939 39.6334 94.5853 40.7835 94.9899 42.2445L95.2077 42.9905L94.4608 42.804C92.9046 42.3688 91.8464 41.6228 91.1306 40.6592C90.4147 39.6956 90.0724 38.4832 89.9167 37.1777L89.8545 36.4316L90.5081 36.6803ZM92.5622 39.2604C92.0643 38.6698 91.504 38.2035 90.8816 37.8305C91.0372 38.6697 91.3484 39.4469 91.8153 40.0686C92.2821 40.7213 92.9669 41.2498 93.9006 41.6228C93.5271 40.6903 93.0913 39.9131 92.5622 39.2604Z" fill="#2E3192"/>
<path fill-rule="evenodd" clip-rule="evenodd" d="M90.3213 37.0532C92.3132 37.9547 93.776 39.54 94.5541 42.3066C91.6596 41.5294 90.5703 39.5711 90.3213 37.0532Z" fill="#FFF200"/>
<path d="M97.1661 36.9292C96.6992 37.4888 96.3258 38.1105 96.0456 38.8254C95.7655 39.6025 95.6099 40.504 95.5788 41.4987C96.3258 40.8459 96.7926 40.0999 97.0416 39.3228C97.2906 38.6078 97.2906 37.7996 97.1661 36.9292ZM95.2364 38.5456C95.641 37.4266 96.2946 36.5251 97.135 35.7169L97.6641 35.1885L97.8508 35.9034C98.162 37.209 98.2243 38.4524 97.8819 39.6025C97.5396 40.7527 96.7615 41.8096 95.4543 42.7421L94.8318 43.1773L94.7696 42.4002C94.6451 40.9081 94.8318 39.6336 95.2364 38.5456Z" fill="#2E3192"/>
<path fill-rule="evenodd" clip-rule="evenodd" d="M97.4472 36.0273C95.8599 37.5194 95.0196 39.5089 95.2063 42.3998C97.6651 40.6901 98.0386 38.4831 97.4472 36.0273Z" fill="#FFF200"/>
<path fill-rule="evenodd" clip-rule="evenodd" d="M91.2848 42.3374C92.2807 42.928 93.09 43.7051 93.7436 44.6998C94.366 45.6945 94.8018 46.9068 95.0196 48.3989C95.0507 48.6476 95.0819 48.8963 95.1441 49.145C94.8951 49.0517 94.6773 48.9585 94.4283 48.8652C92.9343 48.2435 91.9695 47.3731 91.3782 46.3162C90.7868 45.2594 90.6001 44.047 90.6312 42.7104C90.6312 42.4617 90.6312 42.213 90.6623 41.9644C90.8491 42.0887 91.0669 42.213 91.2848 42.3374ZM92.9966 45.1661C92.592 44.5133 92.094 43.9849 91.5027 43.5497C91.5649 44.4201 91.7516 45.1972 92.1251 45.8811C92.5297 46.596 93.1211 47.2177 93.9925 47.684C93.7747 46.7203 93.4323 45.8811 92.9966 45.1661Z" fill="#2E3192"/>
<path fill-rule="evenodd" clip-rule="evenodd" d="M91.0344 42.7107C92.9018 43.8297 94.1468 45.6016 94.5825 48.4614C91.8125 47.3113 90.9722 45.2286 91.0344 42.7107Z" fill="#FFF200"/>
<path fill-rule="evenodd" clip-rule="evenodd" d="M97.8526 43.4569C97.3235 43.9543 96.8566 44.5449 96.5143 45.1977C96.1408 45.9437 95.8607 46.783 95.7362 47.8088C96.5765 47.2493 97.1056 46.5965 97.448 45.8504C97.7592 45.1044 97.8837 44.3273 97.8526 43.4569ZM95.7362 44.7936C96.2964 43.7367 97.0434 42.8974 97.9771 42.2135C98.1638 42.0581 98.3817 41.9337 98.5684 41.7783C98.5996 42.027 98.6307 42.2757 98.6618 42.5244C98.8174 43.861 98.7241 45.0733 98.2261 46.1924C97.7281 47.3114 96.8255 48.244 95.425 48.99C95.2071 49.1143 94.9581 49.2387 94.7402 49.3319C94.7402 49.0833 94.7714 48.8346 94.7714 48.5548C94.8647 47.0938 95.2071 45.8504 95.7362 44.7936Z" fill="#2E3192"/>
<path fill-rule="evenodd" clip-rule="evenodd" d="M98.226 42.5862C96.4831 43.8607 95.3626 45.7258 95.207 48.6166C97.8836 47.2178 98.5061 45.073 98.226 42.5862Z" fill="#FFF200"/>
<path fill-rule="evenodd" clip-rule="evenodd" d="M91.2253 48.0881C92.1279 48.803 92.8749 49.6734 93.3729 50.7303C93.8709 51.7872 94.1821 53.0306 94.2132 54.5537C94.2132 54.8024 94.2132 55.0511 94.2443 55.2998C94.0265 55.1754 93.8086 55.0511 93.5907 54.9268C92.1902 54.1496 91.3187 53.1549 90.883 52.0359C90.4161 50.9168 90.3539 49.6734 90.5718 48.3679C90.6029 48.1192 90.634 47.8705 90.6651 47.6218C90.8519 47.7773 91.0386 47.9327 91.2253 48.0881ZM92.5948 51.1033C92.2524 50.4195 91.8167 49.8288 91.3187 49.3004C91.2565 50.1708 91.381 50.979 91.6611 51.6939C91.9723 52.44 92.5014 53.1238 93.3106 53.7144C93.2173 52.7197 92.9683 51.8494 92.5948 51.1033Z" fill="#2E3192"/>
<path fill-rule="evenodd" clip-rule="evenodd" d="M90.9743 48.4302C92.6861 49.7668 93.7132 51.663 93.8066 54.5539C91.1611 53.0929 90.6008 50.917 90.9743 48.4302Z" fill="#FFF200"/>
<path fill-rule="evenodd" clip-rule="evenodd" d="M97.634 49.9537C97.0426 50.3888 96.5135 50.9173 96.0778 51.539C95.611 52.2229 95.2375 53.0621 94.9885 54.0258C95.8911 53.5595 96.5135 52.9689 96.9181 52.285C97.3227 51.6012 97.5406 50.824 97.634 49.9537ZM95.362 51.0727C96.0156 50.1091 96.887 49.363 97.883 48.7724C98.1008 48.6481 98.3187 48.5238 98.5366 48.3994C98.5366 48.6481 98.5366 48.8968 98.5366 49.1455C98.5366 50.4821 98.2876 51.6944 97.6651 52.7202C97.0426 53.7771 96.0467 54.6164 94.5528 55.1759C94.3038 55.2692 94.0859 55.3624 93.8369 55.4557C93.868 55.207 93.9303 54.9583 93.9614 54.7096C94.2415 53.2176 94.7084 52.0363 95.362 51.0727Z" fill="#2E3192"/>
<path fill-rule="evenodd" clip-rule="evenodd" d="M98.102 49.145C96.2035 50.2019 94.8963 51.9426 94.3672 54.7714C97.1994 53.7145 98.102 51.6629 98.102 49.145Z" fill="#FFF200"/>
<path fill-rule="evenodd" clip-rule="evenodd" d="M90.5057 53.714C91.315 54.5533 91.9063 55.4858 92.2798 56.636C92.6221 57.755 92.7466 59.0295 92.591 60.5216C92.5599 60.7703 92.5288 61.0189 92.4977 61.2676C92.3109 61.1122 92.093 60.9568 91.9063 60.8014C90.6302 59.8377 89.9144 58.7497 89.6032 57.5685C89.2919 56.3873 89.4164 55.175 89.7899 53.9005C89.8521 53.6518 89.9144 53.4342 90.0078 53.1855C90.1634 53.3721 90.319 53.5275 90.5057 53.714ZM91.4394 56.8847C91.2216 56.1697 90.8481 55.5169 90.4124 54.9263C90.2568 55.7656 90.2256 56.5738 90.4124 57.3509C90.5991 58.128 91.0348 58.8741 91.7507 59.589C91.8129 58.5632 91.6884 57.6929 91.4394 56.8847Z" fill="#2E3192"/>
<path fill-rule="evenodd" clip-rule="evenodd" d="M90.1961 54.0256C91.69 55.611 92.4681 57.6315 92.1258 60.4913C89.7292 58.6573 89.4803 56.4192 90.1961 54.0256Z" fill="#FFF200"/>
<path fill-rule="evenodd" clip-rule="evenodd" d="M96.5753 56.4809C95.9217 56.8229 95.3303 57.2581 94.8324 57.8176C94.2721 58.4393 93.8053 59.1853 93.4007 60.1179C94.3344 59.7759 95.0502 59.2786 95.5482 58.6569C96.0462 58.0663 96.3574 57.3202 96.5753 56.4809ZM94.1788 57.227C94.988 56.3566 95.9217 55.7349 97.011 55.3308C97.2289 55.2375 97.4779 55.1443 97.6957 55.051C97.6646 55.2997 97.6335 55.5484 97.5712 55.7971C97.3845 57.1026 96.9488 58.2839 96.2018 59.2164C95.4237 60.149 94.3344 60.8639 92.7782 61.2058C92.5292 61.268 92.2802 61.3302 92.0312 61.3613C92.1246 61.1126 92.1869 60.8639 92.2802 60.6463C92.7471 59.2164 93.4007 58.0973 94.1788 57.227Z" fill="#2E3192"/>
<path fill-rule="evenodd" clip-rule="evenodd" d="M97.1683 55.7354C95.1453 56.5436 93.5891 58.0667 92.6865 60.7711C95.6121 60.1183 96.7949 58.2221 97.1683 55.7354Z" fill="#FFF200"/>
<path fill-rule="evenodd" clip-rule="evenodd" d="M88.9843 59.2168C89.669 60.1493 90.1359 61.1751 90.3226 62.3563C90.5094 63.5065 90.4471 64.812 90.0736 66.242C90.0114 66.4906 89.9491 66.7393 89.8869 66.988C89.7001 66.8015 89.5134 66.615 89.3578 66.4595C88.2373 65.3094 87.6771 64.1282 87.5215 62.9469C87.397 61.7657 87.6771 60.5534 88.2062 59.3411C88.2996 59.1235 88.4241 58.8748 88.5175 58.6572C88.7042 58.8127 88.8598 58.9992 88.9843 59.2168ZM89.4823 62.4807C89.3578 61.7346 89.1088 61.0508 88.7353 60.398C88.4552 61.2062 88.3307 62.0144 88.4241 62.7915C88.5175 63.5997 88.8287 64.4079 89.4512 65.1851C89.6068 64.1903 89.6379 63.2889 89.4823 62.4807Z" fill="#2E3192"/>
<path fill-rule="evenodd" clip-rule="evenodd" d="M88.6399 59.4653C89.9159 61.2372 90.3828 63.3509 89.667 66.1175C87.5506 64.0037 87.6128 61.7656 88.6399 59.4653Z" fill="#FFF200"/>
<path fill-rule="evenodd" clip-rule="evenodd" d="M94.6459 62.7602C93.9612 63.0089 93.3076 63.3819 92.7162 63.8482C92.0626 64.3766 91.5024 65.0605 90.9733 65.9309C91.9692 65.7444 92.7162 65.3403 93.3076 64.7807C93.8989 64.2523 94.3035 63.5684 94.6459 62.7602ZM92.156 63.1954C93.0586 62.4494 94.0857 61.952 95.2061 61.7034C95.4551 61.6412 95.7041 61.579 95.922 61.5168C95.8597 61.7655 95.7663 61.9831 95.7041 62.2318C95.3306 63.5063 94.7704 64.6253 93.8678 65.4335C92.9652 66.2728 91.7825 66.8012 90.1952 66.9256C89.9462 66.9567 89.6972 66.9567 89.4482 66.9878C89.5727 66.7702 89.6661 66.5215 89.7906 66.3039C90.4753 64.9672 91.2534 63.9415 92.156 63.1954Z" fill="#2E3192"/>
<path fill-rule="evenodd" clip-rule="evenodd" d="M95.3326 62.1074C93.2162 62.6048 91.4733 63.9103 90.1973 66.4904C93.1851 66.2417 94.6168 64.5321 95.3326 62.1074Z" fill="#FFF200"/>
<path fill-rule="evenodd" clip-rule="evenodd" d="M86.5551 64.5009C87.1465 65.4956 87.5199 66.5525 87.6133 67.7338C87.7067 68.915 87.5511 70.1895 87.0531 71.5883C86.9597 71.837 86.8975 72.0546 86.8041 72.3032C86.6485 72.1167 86.4929 71.8991 86.3061 71.7126C85.2791 70.4692 84.8122 69.2569 84.8122 68.0446C84.7811 66.8323 85.1857 65.6511 85.8082 64.5009C85.9327 64.2833 86.0572 64.0657 86.1816 63.8481C86.3061 64.0657 86.4306 64.2833 86.5551 64.5009ZM86.7419 67.7959C86.6796 67.0499 86.4929 66.3349 86.1816 65.6511C85.8393 66.4282 85.6214 67.2364 85.6526 68.0135C85.6837 68.8217 85.9327 69.661 86.4618 70.4692C86.7419 69.5367 86.8352 68.6352 86.7419 67.7959Z" fill="#2E3192"/>
<path fill-rule="evenodd" clip-rule="evenodd" d="M86.1806 64.7185C87.301 66.5836 87.5811 68.7285 86.6474 71.4328C84.7178 69.1636 84.9356 66.9255 86.1806 64.7185Z" fill="#FFF200"/>
<path fill-rule="evenodd" clip-rule="evenodd" d="M91.8448 68.542C91.129 68.7285 90.4754 69.0393 89.8218 69.4745C89.1371 69.9408 88.5146 70.5936 87.9232 71.4018C88.9192 71.2775 89.7284 70.9666 90.3509 70.4692C91.0045 69.9719 91.4713 69.3191 91.8448 68.542ZM89.3549 68.7596C90.3198 68.0757 91.378 67.7027 92.5295 67.5162C92.7785 67.4851 93.0275 67.454 93.2765 67.3918C93.1831 67.6094 93.0898 67.8581 92.9964 68.0757C92.4984 69.3191 91.8448 70.376 90.9111 71.122C89.9463 71.8681 88.7325 72.3033 87.114 72.3033C86.865 72.3033 86.616 72.3033 86.3359 72.3033C86.4604 72.0857 86.5849 71.8681 86.7405 71.6505C87.5186 70.376 88.3901 69.4124 89.3549 68.7596Z" fill="#2E3192"/>
<path fill-rule="evenodd" clip-rule="evenodd" d="M92.592 67.9517C90.4445 68.2625 88.6082 69.4126 87.1143 71.8683C90.1021 71.8994 91.6894 70.283 92.592 67.9517Z" fill="#FFF200"/>
<path fill-rule="evenodd" clip-rule="evenodd" d="M83.5983 69.35C84.0651 70.4069 84.283 71.526 84.2207 72.7072C84.1585 73.8884 83.8161 75.1318 83.1314 76.4685C83.0069 76.6861 82.9135 76.9348 82.7891 77.1524C82.6646 76.9348 82.5089 76.7172 82.3845 76.4996C81.513 75.1318 81.2329 73.8574 81.3885 72.6761C81.513 71.4949 82.0732 70.3758 82.8513 69.2879C83.0069 69.1014 83.1625 68.8838 83.287 68.6973C83.3804 68.8838 83.4738 69.1325 83.5983 69.35ZM83.3493 72.645C83.3804 71.8679 83.287 71.153 83.0692 70.438C82.6023 71.1841 82.3222 71.9301 82.2288 72.7072C82.1355 73.5154 82.2911 74.3547 82.6957 75.2562C83.1003 74.3547 83.3181 73.4843 83.3493 72.645Z" fill="#2E3192"/>
<path fill-rule="evenodd" clip-rule="evenodd" d="M83.1934 69.5366C84.0649 71.5261 84.0649 73.702 82.7577 76.251C81.1393 73.702 81.6684 71.5261 83.1934 69.5366Z" fill="#FFF200"/>
<path fill-rule="evenodd" clip-rule="evenodd" d="M88.298 74.044C87.5821 74.1373 86.8663 74.3549 86.1816 74.6968C85.4346 75.0698 84.7188 75.6294 84.0341 76.3754C85.03 76.4065 85.8704 76.1889 86.5551 75.7537C87.2709 75.3496 87.8311 74.759 88.298 74.044ZM85.8081 73.9508C86.8663 73.4223 87.9556 73.1737 89.1072 73.1426C89.3562 73.1426 89.6052 73.1426 89.8542 73.1426C89.7297 73.3602 89.6052 73.5778 89.4807 73.7954C88.8271 74.9455 88.049 75.9091 86.9908 76.5308C85.9326 77.1525 84.6565 77.4012 83.0692 77.1836C82.8202 77.1525 82.5713 77.1214 82.3223 77.0903C82.4779 76.9038 82.6335 76.6862 82.7891 76.4997C83.7539 75.2874 84.7499 74.4792 85.8081 73.9508Z" fill="#2E3192"/>
<path fill-rule="evenodd" clip-rule="evenodd" d="M89.1057 73.5781C86.9271 73.6092 84.9663 74.5107 83.1611 76.7488C86.1179 77.1529 87.8919 75.7541 89.1057 73.5781Z" fill="#FFF200"/>
<path fill-rule="evenodd" clip-rule="evenodd" d="M79.9873 73.7645C80.2986 74.8836 80.3919 76.0026 80.1741 77.1528C79.9562 78.3029 79.4582 79.4841 78.5868 80.7275C78.4312 80.9451 78.3067 81.1316 78.151 81.3492C78.0577 81.1316 77.9332 80.883 77.8398 80.6654C77.1862 79.2044 77.0617 77.8988 77.3418 76.7176C77.6219 75.5364 78.3067 74.5106 79.2404 73.578C79.4271 73.3915 79.5827 73.2361 79.7695 73.0496C79.8628 73.2672 79.9251 73.5158 79.9873 73.7645ZM79.3026 76.9973C79.4271 76.2513 79.4271 75.5053 79.3337 74.7903C78.7735 75.4742 78.4 76.1581 78.1822 76.9352C77.9954 77.7123 77.9954 78.5827 78.3067 79.5463C78.8358 78.6448 79.1781 77.8056 79.3026 76.9973Z" fill="#2E3192"/>
<path fill-rule="evenodd" clip-rule="evenodd" d="M79.5815 73.8889C80.1728 75.9716 79.8927 78.1164 78.2432 80.5099C76.9982 77.7434 77.8074 75.6607 79.5815 73.8889Z" fill="#FFF200"/>
<path fill-rule="evenodd" clip-rule="evenodd" d="M84.065 79.049C83.3181 79.049 82.6022 79.1733 81.8864 79.422C81.1083 79.7017 80.3302 80.1369 79.521 80.7897C80.5169 80.9451 81.3573 80.8208 82.1042 80.5099C82.8512 80.1991 83.4737 79.7017 84.065 79.049ZM81.5752 78.5827C82.6956 78.1786 83.8161 78.0853 84.9676 78.2407C85.2166 78.2718 85.4656 78.3029 85.7146 78.334C85.559 78.5205 85.4034 78.7381 85.2789 78.9246C84.4696 79.9815 83.5671 80.8208 82.4466 81.2871C81.3262 81.7534 80.019 81.8466 78.4628 81.4114C78.2138 81.3492 77.9648 81.2871 77.7158 81.1938C77.9026 81.0073 78.0893 80.8519 78.276 80.6654C79.3965 79.6707 80.4858 78.9868 81.5752 78.5827Z" fill="#2E3192"/>
<path fill-rule="evenodd" clip-rule="evenodd" d="M84.905 78.6757C82.7264 78.427 80.6722 79.0487 78.5869 81.0382C81.4814 81.8153 83.4111 80.6962 84.905 78.6757Z" fill="#FFF200"/>
<path fill-rule="evenodd" clip-rule="evenodd" d="M75.8487 77.6503C76.0043 78.8005 75.942 79.9195 75.5685 81.0386C75.1951 82.1576 74.5415 83.2767 73.5455 84.3647C73.3899 84.5512 73.2032 84.7377 73.0475 84.9242C72.9853 84.6755 72.8919 84.4268 72.8297 84.2092C72.3628 82.6861 72.4251 81.3805 72.8608 80.2304C73.2965 79.1113 74.1369 78.1788 75.1639 77.3706C75.3507 77.2151 75.5685 77.0597 75.7553 76.9043C75.7864 77.153 75.8175 77.4017 75.8487 77.6503ZM74.7282 80.7588C74.9772 80.0439 75.0706 79.2978 75.0394 78.5829C74.417 79.1735 73.919 79.8263 73.6389 80.5723C73.3276 81.3184 73.2343 82.1887 73.421 83.1524C74.0435 82.3442 74.4792 81.567 74.7282 80.7588Z" fill="#2E3192"/>
<path fill-rule="evenodd" clip-rule="evenodd" d="M75.4125 77.7119C75.7237 79.8568 75.1324 81.9705 73.2027 84.0843C72.3312 81.1934 73.4206 79.2351 75.4125 77.7119Z" fill="#FFF200"/>
<path fill-rule="evenodd" clip-rule="evenodd" d="M79.1773 83.4319C78.4615 83.3387 77.7145 83.3387 76.9675 83.4941C76.1583 83.6495 75.318 83.9915 74.4465 84.551C75.4114 84.8307 76.2828 84.8308 77.0609 84.6132C77.8079 84.3956 78.4926 83.9915 79.1773 83.4319ZM76.7808 82.6548C77.9324 82.4061 79.0839 82.4683 80.1733 82.7481C80.4223 82.8102 80.6712 82.8724 80.8891 82.9346C80.7024 83.1211 80.5468 83.2765 80.36 83.463C79.4263 84.4266 78.3992 85.1105 77.2476 85.4524C76.0649 85.7633 74.7578 85.7011 73.2949 85.0483C73.046 84.9551 72.8281 84.8618 72.5791 84.7375C72.797 84.5821 72.9837 84.4267 73.2016 84.3023C74.4465 83.4319 75.6292 82.9035 76.7808 82.6548Z" fill="#2E3192"/>
<path fill-rule="evenodd" clip-rule="evenodd" d="M80.0806 83.1518C77.9642 82.6234 75.8167 82.9653 73.4824 84.6439C76.2524 85.8251 78.3066 84.9547 80.0806 83.1518Z" fill="#FFF200"/>
<path d="M71.2116 80.9447C71.2116 82.0948 70.9937 83.2139 70.4957 84.2708C69.9978 85.3277 69.1886 86.3224 68.037 87.3171L67.4457 87.8144L67.3212 87.0684C67.0722 85.4831 67.29 84.2086 67.8814 83.1517C68.4727 82.0948 69.4064 81.2866 70.558 80.6027L71.2116 80.2297V80.9447ZM69.6865 83.8667C70.0289 83.1828 70.2156 82.4678 70.2779 81.7218C69.562 82.2192 69.0018 82.8098 68.5972 83.4936C68.1926 84.2086 68.0059 85.0479 68.037 86.0426C68.8151 85.3587 69.3442 84.6438 69.6865 83.8667Z" fill="#2E3192"/>
<path fill-rule="evenodd" clip-rule="evenodd" d="M70.7737 80.9451C70.7737 83.121 69.9334 85.1104 67.7236 86.9755C67.2568 83.9914 68.5951 82.1885 70.7737 80.9451Z" fill="#FFF200"/>
<path d="M73.7316 87.0995C73.0157 86.913 72.2999 86.8197 71.5218 86.8819C70.6815 86.9441 69.81 87.1617 68.8763 87.5658C69.7789 87.9699 70.6504 88.0942 71.4596 88.001C72.2377 87.9077 72.9846 87.5658 73.7316 87.0995ZM71.4596 86.0115C72.6423 85.9183 73.7627 86.1359 74.8209 86.5711L75.5056 86.8508L74.9143 87.3171C73.8561 88.1253 72.7668 88.7159 71.5529 88.8713C70.3391 89.0268 69.0631 88.7781 67.6936 87.9388L67.04 87.5347L67.7248 87.1617C69.0631 86.4778 70.2769 86.1048 71.4596 86.0115Z" fill="#2E3192"/>
<path fill-rule="evenodd" clip-rule="evenodd" d="M74.6651 86.976C72.642 86.1678 70.4634 86.1989 67.9424 87.5666C70.4945 89.1209 72.6732 88.5302 74.6651 86.976Z" fill="#FFF200"/>
<path d="M5.4778 38.1103L5.35331 37.5508C4.82421 34.8153 5.32219 32.5772 6.87837 30.681L7.25185 30.2458L7.43859 30.7743C8.49679 33.603 7.99881 35.8722 5.91353 37.7373L5.4778 38.1103ZM7.03398 31.5825C6.00691 33.0746 5.63342 34.7532 5.91353 36.8048C7.3141 35.3438 7.65645 33.6652 7.03398 31.5825Z" fill="#2E3192"/>
<path fill-rule="evenodd" clip-rule="evenodd" d="M7.15791 30.8982C5.75735 32.5768 5.166 34.6595 5.72622 37.4882C7.93599 35.4988 8.02937 33.2296 7.15791 30.8982Z" fill="#FFF200"/>
<path d="M49.9844 90.4256C25.0544 90.4256 4.79297 70.1894 4.79297 45.2904C4.79297 42.6793 5.01083 40.0371 5.47769 37.457L5.91342 37.5192C5.47769 40.0682 5.2287 42.6793 5.2287 45.2904C5.2287 69.9407 25.3034 89.9904 49.9844 89.9904V90.4256Z" fill="#2E3192"/>
<path d="M9.49263 36.7116C8.43443 37.1778 7.53184 37.8306 6.75375 38.7632C6.00679 39.6646 5.41544 40.8148 5.01083 42.2758L4.79297 43.0218L5.53993 42.8353C7.09611 42.4001 8.15431 41.6541 8.87016 40.6904C9.586 39.7268 9.92836 38.5145 10.084 37.2089L10.1462 36.4629L9.49263 36.7116ZM7.43847 39.2916C7.93645 38.701 8.49667 38.2347 9.11914 37.8617C8.96353 38.701 8.65229 39.4781 8.18544 40.0998C7.71858 40.7526 7.03387 41.281 6.10016 41.6541C6.44252 40.7215 6.90937 39.9444 7.43847 39.2916Z" fill="#2E3192"/>
<path fill-rule="evenodd" clip-rule="evenodd" d="M9.67812 37.0842C7.68621 37.9857 6.2234 39.571 5.44531 42.3376C8.3398 41.5604 9.398 39.6021 9.67812 37.0842Z" fill="#FFF200"/>
<path d="M2.80026 36.9597C3.26712 37.5193 3.6406 38.141 3.92071 38.8559C4.20082 39.633 4.35644 40.5345 4.38756 41.5292C3.6406 40.8764 3.17375 40.1304 2.92476 39.3533C2.70689 38.6383 2.67577 37.8301 2.80026 36.9597ZM4.76105 38.5762C4.35644 37.4571 3.70285 36.5556 2.86251 35.7474L2.33341 35.219L2.14667 35.9339C1.83543 37.2395 1.77319 38.4829 2.11555 39.633C2.4579 40.7832 3.23599 41.8401 4.54318 42.7726L5.16565 43.2078L5.2279 42.4307C5.32127 40.9386 5.16565 39.6641 4.76105 38.5762Z" fill="#2E3192"/>
<path fill-rule="evenodd" clip-rule="evenodd" d="M2.55265 36.0588C4.13995 37.5509 4.98028 39.5403 4.79354 42.4312C2.33478 40.7216 1.9613 38.5145 2.55265 36.0588Z" fill="#FFF200"/>
<path fill-rule="evenodd" clip-rule="evenodd" d="M8.71577 42.3686C7.71981 42.9592 6.9106 43.7364 6.25701 44.7311C5.63453 45.7258 5.1988 46.9381 4.98094 48.4302C4.94982 48.6788 4.91869 48.9275 4.85645 49.1762C5.10543 49.0829 5.3233 48.9897 5.57229 48.8964C7.06622 48.2747 8.03105 47.4044 8.6224 46.3475C9.21375 45.2906 9.40049 44.0783 9.36936 42.7416C9.36936 42.493 9.36936 42.2443 9.33824 41.9956C9.1515 42.1199 8.93363 42.2443 8.71577 42.3686ZM7.00397 45.1973C7.40858 44.5446 7.90655 44.0161 8.4979 43.5809C8.43566 44.4513 8.24891 45.2284 7.87543 45.9123C7.47082 46.6272 6.87948 47.2489 6.00802 47.7152C6.22588 46.7516 6.53712 45.9123 7.00397 45.1973Z" fill="#2E3192"/>
<path fill-rule="evenodd" clip-rule="evenodd" d="M8.93285 42.7417C7.06544 43.8608 5.8205 45.6326 5.38477 48.4924C8.18588 47.3423 8.9951 45.2596 8.93285 42.7417Z" fill="#FFF200"/>
<path fill-rule="evenodd" clip-rule="evenodd" d="M2.14753 43.4872C2.67663 43.9845 3.14348 44.5751 3.48584 45.2279C3.85932 45.974 4.13943 46.8133 4.26393 47.8391C3.42359 47.2795 2.89449 46.6268 2.55213 45.8807C2.2409 45.1347 2.1164 44.3576 2.14753 43.4872ZM4.26393 44.8238C3.7037 43.7669 2.95674 42.9276 2.02303 42.2438C1.83629 42.0884 1.61842 41.964 1.43168 41.8086C1.40056 42.0573 1.36944 42.3059 1.33831 42.5546C1.18269 43.8913 1.27607 45.1036 1.77404 46.2226C2.27202 47.3417 3.1746 48.2742 4.57516 49.0203C4.79303 49.1446 5.04202 49.269 5.25988 49.3622C5.25988 49.1135 5.22876 48.8649 5.22876 48.5851C5.13539 47.1241 4.79303 45.8807 4.26393 44.8238Z" fill="#2E3192"/>
<path fill-rule="evenodd" clip-rule="evenodd" d="M1.77351 42.6177C3.51643 43.8922 4.63688 45.7572 4.7925 48.6481C2.11587 47.2493 1.46227 45.1045 1.77351 42.6177Z" fill="#FFF200"/>
<path fill-rule="evenodd" clip-rule="evenodd" d="M8.74652 48.1191C7.84394 48.8341 7.09698 49.7044 6.599 50.7613C6.10102 51.8182 5.78979 53.0616 5.75866 54.5848C5.75866 54.8335 5.75866 55.0821 5.72754 55.3308C5.9454 55.2065 6.16327 55.0821 6.38113 54.9578C7.78169 54.1807 8.65315 53.186 9.08888 52.0669C9.55574 50.9478 9.61798 49.7044 9.40012 48.3989C9.369 48.1502 9.33787 47.9015 9.30675 47.6528C9.15113 47.8083 8.96439 47.9637 8.74652 48.1191ZM7.37709 51.1343C7.71945 50.4505 8.15518 49.8599 8.65315 49.3314C8.7154 50.2018 8.59091 51.01 8.31079 51.725C7.99956 52.471 7.47046 53.1549 6.66125 53.7455C6.78574 52.7508 7.03473 51.8804 7.37709 51.1343Z" fill="#2E3192"/>
<path fill-rule="evenodd" clip-rule="evenodd" d="M9.02658 48.4612C7.31478 49.7978 6.28771 51.694 6.19434 54.5849C8.80871 53.1239 9.40006 50.948 9.02658 48.4612Z" fill="#FFF200"/>
<path fill-rule="evenodd" clip-rule="evenodd" d="M2.36632 49.9847C2.95767 50.4199 3.48677 50.9484 3.9225 51.5701C4.38936 52.2539 4.76284 53.0932 5.01183 54.0569C4.10924 53.5906 3.48677 53 3.08217 52.3161C2.64644 51.6322 2.42857 50.8551 2.36632 49.9847ZM4.60722 51.0727C3.95363 50.1091 3.08217 49.363 2.08621 48.7724C1.86835 48.6481 1.65048 48.5238 1.43262 48.3994C1.43262 48.6481 1.43262 48.8968 1.43262 49.1455C1.43262 50.4821 1.68161 51.6944 2.30408 52.7202C2.92655 53.7771 3.9225 54.6164 5.41643 55.1759C5.66542 55.2692 5.88329 55.3624 6.13228 55.4557C6.10115 55.207 6.0389 54.9583 6.00778 54.7096C5.75879 53.2487 5.29194 52.0674 4.60722 51.0727Z" fill="#2E3192"/>
<path fill-rule="evenodd" clip-rule="evenodd" d="M1.86816 49.1765C3.7667 50.2334 5.07389 51.9741 5.60299 54.8029C2.80187 53.746 1.89929 51.6944 1.86816 49.1765Z" fill="#FFF200"/>
<path fill-rule="evenodd" clip-rule="evenodd" d="M9.49234 53.746C8.68313 54.5853 8.09178 55.5178 7.7183 56.668C7.37594 57.787 7.25144 59.0615 7.40706 60.5536C7.43818 60.8022 7.46931 61.0509 7.50043 61.2996C7.7183 61.1442 7.90504 60.9887 8.09178 60.8333C9.36785 59.8697 10.0837 58.7817 10.3949 57.6005C10.7062 56.4193 10.5817 55.207 10.2082 53.9325C10.1459 53.6838 10.0837 53.4662 9.99032 53.2175C9.8347 53.404 9.67908 53.5595 9.49234 53.746ZM8.55863 56.9166C8.7765 56.2017 9.14998 55.5489 9.58571 54.9583C9.74133 55.7976 9.77245 56.6058 9.58571 57.3829C9.39897 58.16 8.96324 58.9061 8.2474 59.621C8.18515 58.5952 8.30965 57.7248 8.55863 56.9166Z" fill="#2E3192"/>
<path fill-rule="evenodd" clip-rule="evenodd" d="M9.80357 54.0566C8.30964 55.642 7.53155 57.6625 7.87391 60.5223C10.2393 58.6883 10.5194 56.4502 9.80357 54.0566Z" fill="#FFF200"/>
<path fill-rule="evenodd" clip-rule="evenodd" d="M3.42221 56.5119C4.0758 56.8539 4.66715 57.2891 5.16513 57.8486C5.72535 58.4703 6.1922 59.2163 6.59681 60.1489C5.6631 59.8069 4.94726 59.3096 4.44928 58.6879C3.95131 58.0973 3.60895 57.3512 3.42221 56.5119ZM5.81872 57.258C5.00951 56.3876 4.0758 55.7659 2.98648 55.3618C2.76861 55.2685 2.51962 55.1753 2.30176 55.082C2.33288 55.3307 2.364 55.5794 2.42625 55.8281C2.61299 57.1336 3.04872 58.3149 3.79569 59.2474C4.57378 60.18 5.6631 60.8949 7.21928 61.2368C7.46827 61.299 7.71726 61.3612 7.96625 61.3923C7.87288 61.1436 7.81063 60.8949 7.71726 60.6773C7.25041 59.2474 6.59681 58.1283 5.81872 57.258Z" fill="#2E3192"/>
<path fill-rule="evenodd" clip-rule="evenodd" d="M2.83203 55.7664C4.85506 56.5746 6.41124 58.0977 7.31382 60.8021C4.35709 60.1493 3.20551 58.2531 2.83203 55.7664Z" fill="#FFF200"/>
<path fill-rule="evenodd" clip-rule="evenodd" d="M10.9872 59.2475C10.3024 60.1801 9.83559 61.2059 9.64885 62.3871C9.4621 63.5372 9.52435 64.8428 9.89783 66.2727C9.96008 66.5214 10.0223 66.77 10.0846 67.0187C10.2713 66.8322 10.4581 66.6457 10.6137 66.4903C11.7341 65.3401 12.2944 64.1589 12.45 62.9777C12.5745 61.7965 12.2944 60.5842 11.7652 59.3719C11.6719 59.1543 11.5474 58.9056 11.454 58.688C11.2984 58.8434 11.1428 59.0299 10.9872 59.2475ZM10.5203 62.5114C10.6448 61.7654 10.8938 61.0815 11.2673 60.4287C11.5474 61.2369 11.6719 62.0451 11.5785 62.8223C11.4851 63.6305 11.1739 64.4387 10.5514 65.2158C10.3647 64.2211 10.3647 63.3196 10.5203 62.5114Z" fill="#2E3192"/>
<path fill-rule="evenodd" clip-rule="evenodd" d="M11.3613 59.4966C10.0852 61.2684 9.61833 63.3822 10.3342 66.1488C12.4195 64.035 12.3883 61.7969 11.3613 59.4966Z" fill="#FFF200"/>
<path fill-rule="evenodd" clip-rule="evenodd" d="M5.35419 62.7912C6.03891 63.0399 6.6925 63.4129 7.28385 63.8792C7.93744 64.4077 8.49767 65.0915 9.02677 65.9619C8.03082 65.7754 7.28385 65.3713 6.6925 64.8118C6.10116 64.2833 5.66543 63.5995 5.35419 62.7912ZM7.84407 63.2264C6.94149 62.4804 5.91441 61.983 4.79397 61.7344C4.54498 61.6722 4.29599 61.61 4.07812 61.5479C4.14037 61.7965 4.23374 62.0141 4.29599 62.2628C4.66947 63.5373 5.2297 64.6563 6.13228 65.4646C7.03486 66.3038 8.21756 66.8323 9.80486 66.9566C10.0538 66.9877 10.3028 66.9877 10.5518 67.0188C10.4273 66.8012 10.334 66.5525 10.2095 66.3349C9.52475 64.9983 8.74666 63.9725 7.84407 63.2264Z" fill="#2E3192"/>
<path fill-rule="evenodd" clip-rule="evenodd" d="M4.66895 62.1384C6.78535 62.6358 8.52827 63.9414 9.80433 66.5214C6.81647 66.2727 5.38479 64.563 4.66895 62.1384Z" fill="#FFF200"/>
<path fill-rule="evenodd" clip-rule="evenodd" d="M13.4442 64.5324C12.8529 65.5271 12.4794 66.584 12.386 67.7652C12.2927 68.9465 12.4483 70.2209 12.9463 71.6198C13.0396 71.8684 13.1019 72.086 13.1952 72.3347C13.3509 72.1482 13.5065 71.9306 13.6932 71.7441C14.7203 70.5007 15.1872 69.2884 15.1872 68.0761C15.2183 66.8638 14.8137 65.6826 14.1912 64.5324C14.0667 64.3148 13.9422 64.0972 13.8177 63.8796C13.6932 64.0972 13.5687 64.3148 13.4442 64.5324ZM13.2264 67.8274C13.2886 67.0814 13.4754 66.3664 13.7866 65.6826C14.1289 66.4597 14.3468 67.2679 14.3157 68.045C14.2846 68.8532 14.0356 69.6925 13.5065 70.5007C13.2575 69.5682 13.1641 68.6667 13.2264 67.8274Z" fill="#2E3192"/>
<path fill-rule="evenodd" clip-rule="evenodd" d="M13.819 64.75C12.6985 66.6151 12.4184 68.7599 13.3521 71.4643C15.2818 69.1951 15.0328 66.957 13.819 64.75Z" fill="#FFF200"/>
<path fill-rule="evenodd" clip-rule="evenodd" d="M8.12322 68.5732C8.83906 68.7598 9.49265 69.0706 10.1462 69.5058C10.831 69.9721 11.4534 70.6249 12.0448 71.4331C11.0488 71.3087 10.2707 70.9979 9.61715 70.5005C8.99468 70.0032 8.52782 69.3504 8.12322 68.5732ZM10.6442 68.7908C9.6794 68.107 8.62119 67.7339 7.46962 67.5474C7.22063 67.5164 6.97164 67.4853 6.72266 67.4231C6.81603 67.6407 6.9094 67.8894 7.00277 68.107C7.50075 69.3504 8.15434 70.4073 9.08805 71.1533C10.0529 71.8993 11.2667 72.3345 12.8851 72.3345C13.1341 72.3345 13.3831 72.3345 13.6632 72.3345C13.5387 72.1169 13.4142 71.8993 13.2586 71.6817C12.4805 70.4073 11.6091 69.4436 10.6442 68.7908Z" fill="#2E3192"/>
<path fill-rule="evenodd" clip-rule="evenodd" d="M7.40625 67.9824C9.55377 68.2933 11.3901 69.4434 12.884 71.8991C9.86501 71.9302 8.30883 70.3138 7.40625 67.9824Z" fill="#FFF200"/>
<path fill-rule="evenodd" clip-rule="evenodd" d="M16.4024 69.3815C15.9356 70.4384 15.7177 71.5575 15.7799 72.7387C15.8422 73.9199 16.1846 75.1633 16.8693 76.5C16.9938 76.7176 17.0871 76.9663 17.2116 77.1838C17.3361 76.9663 17.4917 76.7487 17.6162 76.5311C18.4877 75.1633 18.7678 73.8888 18.6122 72.7076C18.4877 71.5264 17.9275 70.4073 17.1494 69.3194C16.9938 69.1329 16.8381 68.9153 16.7137 68.7288C16.5892 68.9153 16.4958 69.1639 16.4024 69.3815ZM16.6514 72.6765C16.6203 71.8994 16.7137 71.1845 16.9315 70.4695C17.3984 71.2155 17.6785 71.9616 17.7719 72.7387C17.8652 73.5469 17.7096 74.3862 17.305 75.2877C16.9004 74.3862 16.6825 73.5158 16.6514 72.6765Z" fill="#2E3192"/>
<path fill-rule="evenodd" clip-rule="evenodd" d="M16.8056 69.5676C15.9341 71.5571 15.9341 73.733 17.2413 76.2819C18.8598 73.733 18.2995 71.5571 16.8056 69.5676Z" fill="#FFF200"/>
<path fill-rule="evenodd" clip-rule="evenodd" d="M11.6735 74.0758C12.3893 74.169 13.1052 74.3866 13.7899 74.7286C14.5369 75.1016 15.2527 75.6611 15.9374 76.4071C14.9415 76.4382 14.1011 76.2206 13.4164 75.7855C12.7317 75.3813 12.1715 74.7907 11.6735 74.0758ZM14.1945 73.9825C13.1363 73.4541 12.047 73.2054 10.8954 73.1743C10.6464 73.1743 10.3974 73.1743 10.1484 73.1743C10.2729 73.3919 10.3974 73.6095 10.5219 73.8271C11.1755 74.9772 11.9536 75.9409 13.0118 76.5626C14.07 77.1843 15.3461 77.4329 16.9334 77.2154C17.1824 77.1843 17.4314 77.1532 17.6803 77.1221C17.5247 76.9356 17.3691 76.718 17.2135 76.5315C16.2175 75.3192 15.2527 74.511 14.1945 73.9825Z" fill="#2E3192"/>
<path fill-rule="evenodd" clip-rule="evenodd" d="M10.8613 73.6091C13.04 73.6402 15.0008 74.5417 16.8059 76.7798C13.8492 77.1839 12.1063 75.7851 10.8613 73.6091Z" fill="#FFF200"/>
<path fill-rule="evenodd" clip-rule="evenodd" d="M20.0106 73.7953C19.6993 74.9143 19.6059 76.0334 19.8238 77.1835C20.0417 78.3337 20.5397 79.5149 21.4111 80.7583C21.5667 80.9759 21.6912 81.1624 21.8468 81.38C21.9402 81.1624 22.0647 80.9137 22.1581 80.6961C22.8117 79.2351 22.9362 77.9296 22.6561 76.7483C22.3759 75.5671 21.6912 74.5413 20.7575 73.6088C20.5708 73.4223 20.4152 73.2668 20.2284 73.0803C20.135 73.2979 20.0728 73.5466 20.0106 73.7953ZM20.6642 77.0281C20.5397 76.2821 20.5397 75.536 20.633 74.8211C21.1933 75.5049 21.5667 76.1888 21.7846 76.9659C21.9713 77.7431 21.9713 78.6134 21.6601 79.5771C21.131 78.6756 20.8198 77.8363 20.6642 77.0281Z" fill="#2E3192"/>
<path fill-rule="evenodd" clip-rule="evenodd" d="M20.4167 73.9199C19.8253 76.0026 20.1055 78.1475 21.755 80.541C22.9999 77.7745 22.1907 75.6918 20.4167 73.9199Z" fill="#FFF200"/>
<path fill-rule="evenodd" clip-rule="evenodd" d="M15.9337 79.0802C16.6807 79.0802 17.3965 79.2045 18.1124 79.4532C18.8905 79.733 19.6686 80.1682 20.4778 80.8209C19.4818 80.9764 18.6415 80.852 17.8945 80.5412C17.1475 80.2303 16.5251 79.733 15.9337 79.0802ZM18.4236 78.6139C17.3032 78.2098 16.1827 78.1166 15.0311 78.272C14.7822 78.3031 14.5332 78.3342 14.2842 78.3652C14.4398 78.5518 14.5954 78.7693 14.7199 78.9559C15.498 80.0127 16.4317 80.852 17.5522 81.3183C18.6726 81.7846 19.9798 81.8778 21.536 81.4426C21.785 81.3805 22.0339 81.3183 22.2829 81.225C22.0962 81.0385 21.9095 80.8831 21.7227 80.6966C20.6023 79.7019 19.5129 79.018 18.4236 78.6139Z" fill="#2E3192"/>
<path fill-rule="evenodd" clip-rule="evenodd" d="M15.0625 78.7067C17.2411 78.458 19.2953 79.0797 21.3806 81.0692C18.5172 81.8463 16.5564 80.7272 15.0625 78.7067Z" fill="#FFF200"/>
<path fill-rule="evenodd" clip-rule="evenodd" d="M24.1528 77.6813C23.9972 78.8315 24.0594 79.9505 24.4329 81.0696C24.8064 82.1886 25.46 83.3077 26.4559 84.3957C26.6115 84.5822 26.7983 84.7687 26.9539 84.9552C27.0161 84.7065 27.1095 84.4578 27.1718 84.2402C27.6386 82.7171 27.5764 81.4115 27.1406 80.2614C26.7049 79.1423 25.8646 78.2098 24.8375 77.4016C24.6508 77.2462 24.4329 77.0907 24.2462 76.9353C24.215 77.184 24.1839 77.4327 24.1528 77.6813ZM25.2421 80.7898C24.9931 80.0749 24.8997 79.3288 24.9309 78.6139C25.5533 79.2045 26.0513 79.8573 26.3314 80.6033C26.6427 81.3493 26.736 82.2197 26.5493 83.1834C25.9268 82.3752 25.5222 81.598 25.2421 80.7898Z" fill="#2E3192"/>
<path fill-rule="evenodd" clip-rule="evenodd" d="M24.5882 77.7429C24.2769 79.8878 24.8683 82.0015 26.7979 84.1153C27.6694 81.2244 26.5801 79.2661 24.5882 77.7429Z" fill="#FFF200"/>
<path fill-rule="evenodd" clip-rule="evenodd" d="M20.8212 83.4629C21.537 83.3697 22.284 83.3697 23.0309 83.5251C23.8402 83.6805 24.6805 84.0225 25.552 84.582C24.5871 84.8618 23.7157 84.8618 22.9376 84.6442C22.1906 84.4266 21.4748 84.0225 20.8212 83.4629ZM23.2177 82.6858C22.0661 82.4371 20.9145 82.4993 19.8252 82.7791C19.5762 82.8412 19.3272 82.9034 19.1094 82.9656C19.2961 83.1521 19.4517 83.3075 19.6385 83.494C20.5722 84.4577 21.5993 85.1415 22.7508 85.4835C23.9335 85.7943 25.2407 85.7321 26.7035 85.0794C26.9525 84.9861 27.1704 84.8929 27.4194 84.7685C27.2015 84.6131 27.0148 84.4577 26.7969 84.3333C25.552 83.4629 24.3693 82.9345 23.2177 82.6858Z" fill="#2E3192"/>
<path fill-rule="evenodd" clip-rule="evenodd" d="M19.9189 83.1833C22.0353 82.6549 24.1829 82.9968 26.5171 84.6754C23.7471 85.8566 21.6619 84.9862 19.9189 83.1833Z" fill="#FFF200"/>
<path d="M28.79 80.9767C28.79 82.1268 29.0079 83.2459 29.5059 84.3028C30.0039 85.3596 30.8131 86.3544 31.9646 87.3491L32.556 87.8464L32.6805 87.1004C32.9295 85.5151 32.7116 84.2406 32.1203 83.1837C31.5289 82.1268 30.5952 81.3186 29.4436 80.6347L28.79 80.2617V80.9767ZM30.284 83.8986C29.9416 83.2148 29.7549 82.4998 29.6926 81.7538C30.4085 82.2511 30.9687 82.8418 31.3733 83.5256C31.7779 84.2406 31.9646 85.0799 31.9335 86.0746C31.1866 85.3907 30.6575 84.6447 30.284 83.8986Z" fill="#2E3192"/>
<path fill-rule="evenodd" clip-rule="evenodd" d="M29.2256 80.9761C29.2256 83.152 30.0659 85.1414 32.2757 87.0065C32.7425 84.0224 31.4042 82.2195 29.2256 80.9761Z" fill="#FFF200"/>
<path d="M26.2682 87.1312C26.984 86.9447 27.6999 86.8515 28.478 86.9137C29.3183 86.9758 30.1898 87.1934 31.1235 87.5975C30.2209 88.0016 29.3494 88.126 28.5402 88.0327C27.731 87.9395 26.984 87.5975 26.2682 87.1312ZM28.5402 86.0433C27.3575 85.95 26.2371 86.1676 25.1789 86.6028L24.4941 86.8826L25.0855 87.3488C26.1437 88.157 27.233 88.7477 28.4468 88.9031C29.6607 89.0585 30.9367 88.8098 32.3062 87.9705L32.9598 87.5664L32.275 87.1934C30.9367 86.5096 29.6918 86.1365 28.5402 86.0433Z" fill="#2E3192"/>
<path fill-rule="evenodd" clip-rule="evenodd" d="M25.333 87.0067C27.356 86.1985 29.5347 86.2296 32.0557 87.5974C29.4724 89.1516 27.3249 88.561 25.333 87.0067Z" fill="#FFF200"/>
<path fill-rule="evenodd" clip-rule="evenodd" d="M66.9462 100C66.9462 100 60.348 95.4618 50.015 95.6172C39.682 95.4618 33.0838 100 33.0838 100C32.2746 97.8242 31.9011 98.104 31.9011 98.104C30.7184 97.4512 30.8429 95.897 30.8429 95.897C28.4152 97.2958 26.0499 96.3633 26.0499 96.3633C26.0187 93.2237 22.7508 95.0577 22.7508 95.0577C23.062 93.7521 22.4395 92.4155 22.4395 92.4155C21.9415 92.0736 21.9415 91.5451 21.9415 91.5451C21.6614 91.6073 21.3191 90.9545 21.3191 90.9545C22.2528 88.934 20.8522 88.7475 20.8522 88.7475C20.043 88.1569 20.6966 87.5041 20.6966 87.5041C21.8171 87.8149 22.813 87.0378 22.813 87.0378C23.4977 86.1364 24.3692 86.2607 24.3692 86.2607C25.9254 86.5715 25.085 87.9393 25.085 87.9393C24.7427 88.2501 24.8672 88.934 24.8672 88.934C25.1784 89.1516 27.0458 89.6179 28.851 88.7164C30.6561 87.8149 32.4924 88.0325 32.4924 88.0325C33.9864 88.3745 32.9904 89.5868 32.9904 89.5868L33.0215 90.2395H36.165C40.4912 88.4055 49.9839 88.4366 49.9839 88.4366C49.9839 88.4366 59.5077 88.4055 63.8027 90.2395H66.9462L66.9773 89.5868C66.9773 89.5868 65.9814 88.3745 67.4753 88.0325C67.4753 88.0325 69.3116 87.8149 71.1168 88.7164C72.9219 89.6179 74.7894 89.1205 75.1006 88.934C75.1006 88.934 75.2251 88.2501 74.8827 87.9393C74.8827 87.9393 74.0424 86.5715 75.5986 86.2607C75.5986 86.2607 76.47 86.1364 77.1547 87.0378C77.1547 87.0378 78.1507 87.8149 79.2711 87.5041C79.2711 87.5041 79.9247 88.1569 79.1155 88.7475C79.1155 88.7475 77.7461 88.934 78.6487 90.9545C78.6487 90.9545 78.3063 91.6073 78.0262 91.5451C78.0262 91.5451 78.0262 92.0736 77.5282 92.4155C77.5282 92.4155 76.9058 93.7521 77.217 95.0577C77.217 95.0577 73.949 93.1926 73.9179 96.3633C73.9179 96.3633 71.5525 97.2958 69.1249 95.897C69.1249 95.897 69.2494 97.4512 68.0667 98.104C68.0978 98.104 67.7554 97.8242 66.9462 100Z" fill="#2E3192"/>
<path fill-rule="evenodd" clip-rule="evenodd" d="M66.9462 97.9172C66.9462 97.9172 60.348 92.8503 50.015 93.0368C39.682 92.8503 33.0838 97.9172 33.0838 97.9172C32.2746 95.4925 31.9011 95.8034 31.9011 95.8034C30.7184 95.0884 30.8429 93.3477 30.8429 93.3477C28.4152 94.9019 26.0499 93.8761 26.0499 93.8761C26.0187 90.3635 22.7508 92.4151 22.7508 92.4151C23.062 90.9541 22.4395 89.4621 22.4395 89.4621C21.9415 89.089 21.9415 88.4984 21.9415 88.4984C21.6614 88.5606 21.3191 87.8456 21.3191 87.8456C22.2528 85.5765 20.8522 85.3899 20.8522 85.3899C20.043 84.7372 20.6966 84.0222 20.6966 84.0222C21.8171 84.3641 22.813 83.4938 22.813 83.4938C23.4977 82.499 24.3692 82.6234 24.3692 82.6234C25.9254 82.9653 25.085 84.4885 25.085 84.4885C24.7427 84.8304 24.8672 85.6075 24.8672 85.6075C25.1784 85.8251 27.0458 86.3847 28.851 85.3899C30.6561 84.3952 32.4924 84.6128 32.4924 84.6128C33.9864 84.9858 32.9904 86.3225 32.9904 86.3225L33.0215 87.0374H36.165C40.4912 84.9858 49.9839 85.0169 49.9839 85.0169C49.9839 85.0169 59.5077 84.9858 63.8027 87.0374H66.9462L66.9773 86.3225C66.9773 86.3225 65.9814 84.9858 67.4753 84.6128C67.4753 84.6128 69.3116 84.3952 71.1168 85.3899C72.9219 86.3847 74.7894 85.8562 75.1006 85.6075C75.1006 85.6075 75.2251 84.8304 74.8827 84.4885C74.8827 84.4885 74.0424 82.9653 75.5986 82.6234C75.5986 82.6234 76.47 82.499 77.1547 83.4938C77.1547 83.4938 78.1507 84.3641 79.2711 84.0222C79.2711 84.0222 79.9247 84.7372 79.1155 85.3899C79.1155 85.3899 77.7461 85.5765 78.6487 87.8456C78.6487 87.8456 78.3063 88.5606 78.0262 88.4984C78.0262 88.4984 78.0262 89.058 77.5282 89.4621C77.5282 89.4621 76.9058 90.9541 77.217 92.4151C77.217 92.4151 73.949 90.3324 73.9179 93.8761C73.9179 93.8761 71.5525 94.9019 69.1249 93.3477C69.1249 93.3477 69.2494 95.0573 68.0667 95.8034C68.0978 95.8034 67.7554 95.4925 66.9462 97.9172Z" fill="#ED1C24"/>
<path d="M34.6709 95.9281V93.5656L35.0755 93.4102V94.3738L36.6317 93.6588V92.6952L37.0363 92.5398V94.8712L36.6317 95.0577V93.9386L35.0755 94.6536V95.7415L34.6709 95.9281Z" fill="white"/>
<path d="M37.5664 93.4412C37.5664 93.0682 37.722 92.6952 38.0021 92.3843C38.3134 92.0735 38.6869 91.8559 39.1537 91.7005C39.4649 91.6072 39.7451 91.5761 39.994 91.6072C40.243 91.6383 40.4298 91.7316 40.5543 91.8559C40.6788 92.0113 40.741 92.1978 40.741 92.4154C40.741 92.6641 40.6788 92.8817 40.5231 93.0993C40.3986 93.3169 40.1808 93.5345 39.9318 93.6899C39.6828 93.8453 39.4027 94.0007 39.1226 94.0629C38.8113 94.1562 38.5312 94.1873 38.2822 94.1562C38.0333 94.1251 37.8465 94.0318 37.722 93.8764C37.6287 93.8142 37.5664 93.6277 37.5664 93.4412ZM38.0021 93.2858C38.0021 93.5656 38.0955 93.7521 38.3134 93.8453C38.5312 93.9386 38.8113 93.9386 39.1226 93.8453C39.4649 93.7521 39.7451 93.5966 39.9318 93.348C40.1497 93.1304 40.243 92.8506 40.243 92.5398C40.243 92.3533 40.1808 92.1978 40.1185 92.0735C40.0252 91.9492 39.9007 91.887 39.7139 91.8559C39.5272 91.8248 39.3404 91.8559 39.1226 91.9181C38.8113 92.0113 38.5312 92.1668 38.3134 92.3843C38.1266 92.6641 38.0021 92.9439 38.0021 93.2858ZM39.1537 91.5761L38.8425 91.7627L38.4379 91.887L38.9047 91.5451L39.3404 91.4207L39.8073 91.4829L39.4027 91.6072L39.1537 91.5761ZM39.3716 91.3585L39.0603 91.4518L38.5312 91.3585L39.0603 91.2031L39.3716 91.3585Z" fill="white"/>
<path d="M45.2548 91.9179H45.7216C45.6282 92.1976 45.4415 92.4152 45.1925 92.5706C44.9435 92.7571 44.6323 92.8504 44.2588 92.9126C43.8853 92.9747 43.5741 92.9747 43.3251 92.9126C43.0761 92.8504 42.8894 92.7261 42.7649 92.5396C42.6404 92.3531 42.5781 92.1665 42.5781 91.949C42.5781 91.7003 42.6404 91.4827 42.796 91.2651C42.9516 91.0475 43.1383 90.8921 43.4185 90.7677C43.6675 90.6434 43.9787 90.5502 44.2899 90.488C44.6634 90.4258 44.9435 90.4569 45.1925 90.5191C45.4415 90.6123 45.5971 90.7367 45.6905 90.9543L45.2236 91.1097C45.1303 90.9543 45.0058 90.861 44.8501 90.7988C44.6945 90.7367 44.5078 90.7367 44.2588 90.7677C43.9787 90.7988 43.7608 90.8921 43.5741 91.0164C43.3873 91.1408 43.2628 91.2651 43.1695 91.4205C43.1072 91.5759 43.045 91.7314 43.045 91.8868C43.045 92.0733 43.0761 92.2598 43.1695 92.3841C43.2628 92.5085 43.3873 92.6017 43.5741 92.6639C43.7608 92.695 43.9787 92.7261 44.1966 92.6639C44.4767 92.6328 44.6945 92.5396 44.8813 92.4152C45.068 92.2909 45.1925 92.1044 45.2548 91.9179Z" fill="white"/>
<path d="M46.2812 92.5709V90.2395L46.7792 90.2084V91.172L48.6778 91.0477V90.0841L49.1757 90.053V92.3844L48.6778 92.4154V91.3275L46.7792 91.4518V92.5398L46.2812 92.5709Z" fill="white"/>
<path d="M50.0776 92.4154V90.084H50.5756V92.4154H50.0776ZM49.9531 89.9286L50.2955 89.4934H50.8868L50.3266 89.9286H49.9531Z" fill="white"/>
<path d="M52.8477 92.5394V90.208L53.5635 90.3013L54.435 92.042C54.5283 92.1974 54.5595 92.3218 54.6217 92.415C54.6528 92.3218 54.7151 92.2285 54.8084 92.0731L55.6799 90.5499L56.3335 90.6121V92.9435L55.8666 92.8813V90.923L54.8084 92.757L54.3727 92.6948L53.3145 90.581V92.5705L52.8477 92.5394Z" fill="white"/>
<path d="M57.1123 93.1924V90.8611L57.5792 90.9543V93.2857L57.1123 93.1924Z" fill="white"/>
<path d="M58.3877 93.4726V91.1101L58.8545 91.2655L60.5975 93.628V91.7629L61.0332 91.9183V94.2497L60.5663 94.0943L58.8234 91.7629V93.5969L58.3877 93.4726Z" fill="white"/>
<path d="M61.748 94.5286V92.1973L62.1527 92.3527V93.3163L63.7711 93.9691V93.0055L64.2068 93.1609V95.5233L63.7711 95.3368V94.2489L62.1527 93.5961V94.7151L61.748 94.5286Z" fill="white"/>
<path d="M37.8771 90.9543V89.1514L36.9434 89.4933V89.2446L39.1843 88.4675V88.6851L38.2506 89.0271V90.83L37.8771 90.9543Z" fill="white"/>
<path d="M39.5264 90.3322V88.2806L39.931 88.1873V89.0266L41.4872 88.6536V87.8143L41.8918 87.6899V89.7415L41.4872 89.8348V88.8712L39.931 89.2442V90.2078L39.5264 90.3322Z" fill="white"/>
<path d="M42.2031 89.6172L43.4169 87.3791L43.8527 87.3169L45.1287 89.1509L44.6619 89.2131L44.2884 88.6536L42.9812 88.8712L42.6389 89.524L42.2031 89.6172ZM43.1057 88.6225L44.1639 88.4671L43.8527 87.9386C43.7593 87.7832 43.6659 87.6589 43.6348 87.5656C43.6037 87.69 43.5414 87.8454 43.4792 87.9697L43.1057 88.6225ZM43.9772 87.1615L43.6659 87.2237L43.168 86.9128L43.6659 86.8196L43.9772 87.1615Z" fill="white"/>
<path d="M45.4102 89.0266V87.0061L45.8459 86.975L47.5266 88.4671V86.8507L47.9312 86.8196V88.8712L47.5266 88.9023L45.8148 87.4102V88.9955L45.4102 89.0266Z" fill="white"/>
<path d="M48.6777 88.8094V86.7578L49.1135 86.7889V87.6282L50.7941 87.6593V86.82H51.1987V88.8716H50.7941V87.9079L49.1135 87.8458V88.8094H48.6777Z" fill="white"/>
<path d="M53.1592 88.9962V86.9446L54.3419 87.0689C54.5597 87.1 54.7154 87.1311 54.8087 87.1311C54.9643 87.1622 55.0888 87.2243 55.2133 87.2554C55.3067 87.3176 55.4001 87.3798 55.4623 87.473C55.5246 87.5663 55.5557 87.6595 55.5557 87.7528C55.5557 87.9393 55.4623 88.0636 55.3067 88.1569C55.12 88.2501 54.8398 88.2812 54.373 88.2191L53.5638 88.1258V88.9651L53.1592 88.9962ZM53.5949 87.9704L54.4041 88.0636C54.6842 88.0947 54.871 88.0947 54.9955 88.0326C55.12 87.9704 55.1511 87.9082 55.1511 87.7839C55.1511 87.6906 55.12 87.6284 55.0577 87.5663C54.9955 87.5041 54.9021 87.4419 54.7776 87.4109C54.7154 87.3798 54.5909 87.3798 54.373 87.3487L53.5638 87.2554V87.9704H53.5949Z" fill="white"/>
<path d="M56.0859 89.3998V87.3481L56.4905 87.4414V88.2807L58.0778 88.5915V87.7522L58.4824 87.8455V89.866L58.0778 89.8039V88.8402L56.4905 88.4983V89.4619L56.0859 89.3998Z" fill="white"/>
<path d="M59.0107 89.0585C59.0107 88.7166 59.1352 88.499 59.4153 88.3746C59.6643 88.2503 60.0067 88.2503 60.4113 88.3746C60.6914 88.4679 60.9093 88.5611 61.1272 88.7166C61.345 88.872 61.5006 89.0585 61.6251 89.245C61.7496 89.4315 61.7808 89.6491 61.7808 89.8356C61.7808 90.0532 61.7185 90.2086 61.594 90.333C61.4695 90.4573 61.3139 90.5195 61.096 90.5506C60.8782 90.5817 60.6292 90.5506 60.3802 90.4573C60.1001 90.3641 59.8511 90.2708 59.6332 90.1154C59.4154 89.96 59.2597 89.7735 59.1352 89.587C59.0419 89.4315 59.0107 89.245 59.0107 89.0585ZM59.3842 89.1828C59.3842 89.4315 59.4776 89.6491 59.6643 89.8356C59.8511 90.0221 60.1001 90.1776 60.3802 90.2708C60.6603 90.3641 60.9093 90.3641 61.096 90.2708C61.2828 90.1776 61.3761 90.0221 61.3761 89.7424C61.3761 89.587 61.345 89.4315 61.2517 89.2761C61.1583 89.1207 61.0649 88.9963 60.9093 88.872C60.7537 88.7477 60.5669 88.6855 60.3802 88.6233C60.1001 88.5301 59.8822 88.5301 59.6643 88.6233C59.5087 88.6855 59.3842 88.872 59.3842 89.1828ZM60.4113 88.2814L60.1623 88.3125L59.82 88.2192L60.2246 88.1571L60.5981 88.2814L61.0027 88.5611L60.6603 88.4679L60.4113 88.2814ZM60.4736 87.9395L60.9093 88.0638L60.4424 88.1571L60.1934 88.0949L60.4736 87.9395Z" fill="white"/>
</g>
<defs>
<clipPath id="clip0">
<rect width="100" height="100" fill="white"/>
</clipPath>
</defs>
</svg>
