<svg id="Layer_1" data-name="Layer 1" xmlns="http://www.w3.org/2000/svg" xmlns:xlink="http://www.w3.org/1999/xlink" viewBox="0 0 514.73 350.89"><defs><style>.cls-1{fill:none;}.cls-2{clip-path:url(#clip-path);}.cls-3{fill:#f1ffff;}.cls-4{fill:#fff;}</style><clipPath id="clip-path"><rect class="cls-1" x="-1100.73" y="-1372.65" width="1924.43" height="1084.16"/></clipPath></defs><title>KYNA_Summer_Camp (1)</title><g class="cls-2"><path class="cls-3" d="M1010-875.63c15.23,5.94,29,10.79,42.42,16.64,98.14,42.87,151.42,118.44,161.39,224.44,1.54,16.32,6.75,26.35,20.61,35.91,55.42,38.2,80.06,93.48,79.4,159.41-1.33,132.63-106.24,246.15-238.27,260.77-7.91.87-18.18,6.41-22.1,12.93-21.77,36.28-53.09,62.07-92.94,71.16-42.26,9.64-86.32,12.79-129.79,15-16.88.86-34.29-8.63-53.6-14-1,1.33-4.49,4.53-6.51,8.45-72,140.46-215.86,211.76-369.3,174.66C332.61,73.1,267,42.59,201.05,15.91,147.28-5.82,94.81-30.81,42.26-55.44c-8.09-3.79-15.71-12.28-19.71-20.47-16.16-33.11-50-45-82.75-29.61-10.44,4.92-23.8,7.81-35,6.21C-348.52-135.45-590.37-210.64-824-313.69c-143.73-63.39-284-133.37-414.65-221.08-108.43-72.76-211.11-152.38-293.38-255.2-44-55-80.31-114.67-94.2-184.82-25-126,22.32-226.13,116.38-306.84,27.75-23.81,60.61-41.61,90.65-62.85,25.37-17.93,51.92-34.82,74.6-55.78,39.44-36.46,82.35-64.73,135.64-75.91,38-8,74.77-6.57,110.22,10.6,10.14,4.9,18.35,8.43,28.13-4.14,48.91-62.86,138-71.72,200.59-19.35,15.28,12.78,23.83,12.4,39.12.49,48.64-37.85,110.38-33.78,160.32,6.75,7.12,5.77,20,10.53,28,8.16,57.24-17,106.15-1.2,152.49,32.61,13.15,9.59,29.64,17.64,45.54,20,234.58,34.4,468.44,74.67,693.74,149,131.33,43.31,257.16,103.84,384.05,159.82,58.56,25.84,116.31,49.8,181.08,54.81,52.78,4.08,104,17.5,149.65,45.27a201.83,201.83,0,0,1,49.31,42.62c20.36,24.46,23.38,52.46,4.21,80.37C1015-885.54,1013.13-881.37,1010-875.63ZM389.86-131.7,356.55-59.2l6,4,62.32-48.53c14.58,20.94,27.39,39.36,40.2,57.78l6.49-3.39c-1.94-25.24-3.89-50.48-6-78.16,21.26-1.67,39.09-2.78,56.87-4.52,96.63-9.49,193.93-14.78,289.67-29.94,98.21-15.55,191.24-49.88,271.81-111.15,50-38,87.76-85.41,102.85-147.62,22.66-93.43-3.2-177.13-55.78-253.9C1058.42-780.48,957-854,849.69-920.27c-154.23-95.3-320-165.66-490.73-225-15.06-5.24-23.87-11.12-26.81-29.6-6.28-39.48-53.18-54.27-81.27-25.64-12.85,13.11-22.81,11.31-37,6.81a3890.68,3890.68,0,0,0-597.33-139c-242.15-36.51-484.86-51.8-728.59-16-102.75,15.11-203.68,36.91-297.89,83.14-7,3.44-17.78,2-26-.24-26.38-7.23-47.25,6.4-51.75,32.52-1.91,11.07-7.26,23.61-15.15,31.26-65.54,63.62-93.51,139.59-78.51,230.27,9.7,58.66,37,109.65,71.26,157.13,59.33,82.3,134.6,148.4,215.51,208.4,168.24,124.78,357,208.08,555,272,296.07,95.56,600.61,149.61,909.13,183.34C241.24-143,313.15-138.27,389.86-131.7ZM125.69-76.09C120.38-61,122.9-46.87,138.6-38.92c15.4,7.8,29.89,3.44,37.93-12s3.57-29.56-12.07-37.73S135.83-91.65,125.69-76.09Z"/></g><path class="cls-4" d="M.46,321.09V237.63H52.8v14.55H15v16.93H45v14.54H15v22.89H52.8v14.55Z"/><path class="cls-4" d="M121.11,283.41v37.68H106.56V287.23a12.27,12.27,0,0,0-1.72-6.41,13,13,0,0,0-4.62-4.59,12.93,12.93,0,0,0-12.82,0,12.63,12.63,0,0,0-4.59,4.59,12.44,12.44,0,0,0-1.7,6.41v33.86H66.57l-.06-59.61H81.05l.06,5.3a22.47,22.47,0,0,1,16.39-7A22.76,22.76,0,0,1,109.37,263a24.31,24.31,0,0,1,8.55,8.52A22.8,22.8,0,0,1,121.11,283.41Z"/><path class="cls-4" d="M177.86,261.48H192.4v60.74a25.89,25.89,0,0,1-2.62,11.71,27.8,27.8,0,0,1-7.16,9.06,33,33,0,0,1-10.37,5.84A36.48,36.48,0,0,1,160,350.89a29.4,29.4,0,0,1-12-2.56,33.66,33.66,0,0,1-10.22-7,30.58,30.58,0,0,1-6.77-10.1l13.3-6a15.81,15.81,0,0,0,3.6,5.75,17.89,17.89,0,0,0,5.58,3.88,16,16,0,0,0,6.55,1.4,23,23,0,0,0,6.65-1,19.39,19.39,0,0,0,5.75-2.77,13.54,13.54,0,0,0,4-4.41,11.78,11.78,0,0,0,1.46-5.87v-8.4a22.16,22.16,0,0,1-7,6.37,19.18,19.18,0,0,1-9.77,2.45,29.76,29.76,0,0,1-12-2.45,31.27,31.27,0,0,1-9.87-6.76,31.9,31.9,0,0,1-6.68-10,31.88,31.88,0,0,1,0-24.32,32,32,0,0,1,6.68-10,31.3,31.3,0,0,1,9.87-6.77,29.75,29.75,0,0,1,12-2.44,19.36,19.36,0,0,1,9.77,2.41,21.87,21.87,0,0,1,7,6.35Zm-16.64,47.15a14.37,14.37,0,0,0,8.14-2.36,16.26,16.26,0,0,0,5.58-6.31,18.83,18.83,0,0,0,2-8.68,18.48,18.48,0,0,0-2.05-8.7,16.89,16.89,0,0,0-5.61-6.32,14.11,14.11,0,0,0-8.08-2.38,14.88,14.88,0,0,0-8.16,2.35,17.4,17.4,0,0,0-5.9,6.29,18.49,18.49,0,0,0,0,17.53,17.12,17.12,0,0,0,5.9,6.25A15,15,0,0,0,161.22,308.63Z"/><path class="cls-4" d="M207.3,321.09V231.67h14.55v89.42Z"/><path class="cls-4" d="M244.14,253.79a7.52,7.52,0,0,1-5.42-2.12,7.51,7.51,0,0,1,0-10.64,7.39,7.39,0,0,1,5.36-2.14,7.29,7.29,0,0,1,5.33,2.14,7.63,7.63,0,0,1,0,10.64A7.29,7.29,0,0,1,244.14,253.79Zm-7.39,7.69h14.54v59.61H236.75Z"/><path class="cls-4" d="M283.78,322.16a32.09,32.09,0,0,1-9-1.88,25.87,25.87,0,0,1-7.66-4.32A18.54,18.54,0,0,1,262,309.4l12.28-5.24a10.65,10.65,0,0,0,2.32,2.53,14.28,14.28,0,0,0,3.85,2.24,13.25,13.25,0,0,0,4.92.89,15,15,0,0,0,4.32-.62,7.81,7.81,0,0,0,3.34-1.94,4.69,4.69,0,0,0,1.28-3.4,4.17,4.17,0,0,0-1.52-3.43,10.48,10.48,0,0,0-3.82-1.85c-1.53-.41-3-.8-4.44-1.16A43.09,43.09,0,0,1,274,293.91a22,22,0,0,1-7.81-6.17,14.5,14.5,0,0,1-3-9.15,16.88,16.88,0,0,1,3.13-10.2,20.6,20.6,0,0,1,8.17-6.61,25.64,25.64,0,0,1,10.88-2.33,28.89,28.89,0,0,1,13,2.95,23.18,23.18,0,0,1,9.39,8.32l-11.5,6.79a10.21,10.21,0,0,0-2.33-2.65,14,14,0,0,0-3.4-2,12.09,12.09,0,0,0-4-.92,15.88,15.88,0,0,0-4.89.48,7.37,7.37,0,0,0-3.55,2,5.39,5.39,0,0,0-1.34,3.82,3.7,3.7,0,0,0,1.79,3.37,14.54,14.54,0,0,0,4.32,1.69q2.53.6,4.86,1.32a59.85,59.85,0,0,1,9.87,4.23,23.14,23.14,0,0,1,7.42,6.14,13.26,13.26,0,0,1,2.68,8.7,15.65,15.65,0,0,1-3.46,10.1,21.83,21.83,0,0,1-8.91,6.59A24.92,24.92,0,0,1,283.78,322.16Z"/><path class="cls-4" d="M373.19,283.41v37.68H358.65V287.23a12.27,12.27,0,0,0-1.73-6.41,12.86,12.86,0,0,0-4.62-4.59,12.93,12.93,0,0,0-12.82,0,12.63,12.63,0,0,0-4.59,4.59,12.44,12.44,0,0,0-1.7,6.41v33.86H318.65l-.06-89.42h14.55l.05,35.11a22.51,22.51,0,0,1,16.4-7A22.75,22.75,0,0,1,361.45,263a24.15,24.15,0,0,1,8.55,8.52A22.7,22.7,0,0,1,373.19,283.41Z"/><path class="cls-4" d="M204.24,91.85h33.29V126.5a52.5,52.5,0,0,1-4,20.81A46.6,46.6,0,0,1,222,163.58,51,51,0,0,1,204.12,174a75,75,0,0,1-46.28,0,51.12,51.12,0,0,1-17.78-10.46,48.19,48.19,0,0,1-11.6-16.15,50.07,50.07,0,0,1-4.17-20.68V91.85h33.55v31.63q0,10.59,6.3,17.65t16.9,7.06q10.59,0,16.9-7.06t6.3-17.65Z"/><path class="cls-4" d="M256,91.26h29l2.77,13.87A26.07,26.07,0,0,1,293,99.46a42.23,42.23,0,0,1,8.07-5.3,51.54,51.54,0,0,1,10.47-3.91,49.76,49.76,0,0,1,12.61-1.51,59.72,59.72,0,0,1,20.81,3.4A40.4,40.4,0,0,1,360.3,102a43.37,43.37,0,0,1,9.46,15.51A58.44,58.44,0,0,1,373,137.42v72.13H339.49V144.73q0-12.36-6.3-19T316,119a28.82,28.82,0,0,0-10.22,1.77,24.89,24.89,0,0,0-8.19,5,24.54,24.54,0,0,0-5.68,8.07,25.68,25.68,0,0,0-2.14,10.6l-.25,65.07H256Z"/><path class="cls-4" d="M485.22,91.27l3.35,21.47a48.22,48.22,0,0,0-5.62-7.87,46.51,46.51,0,0,0-15.63-11.71Q458,88.75,444.1,88.74a56.7,56.7,0,0,0-22.82,4.54A54.54,54.54,0,0,0,403.12,106a58.85,58.85,0,0,0-12,19.43A68.54,68.54,0,0,0,386.86,150a70.73,70.73,0,0,0,4.28,24.85,58.2,58.2,0,0,0,12,19.66,55.32,55.32,0,0,0,41,17.54c9.26,0,17-1.49,23.22-4.42A46.82,46.82,0,0,0,483,195.93a49.1,49.1,0,0,0,5.62-7.83l-3.1,21.45h29.26V91.27Zm-5.17,71.87a32.32,32.32,0,0,1-6.56,10.46,30,30,0,0,1-10,7,32.1,32.1,0,0,1-12.86,2.51,31.22,31.22,0,0,1-12.74-2.51,30.42,30.42,0,0,1-9.84-7,31,31,0,0,1-6.43-10.46A37.34,37.34,0,0,1,419.39,150a35.61,35.61,0,0,1,2.27-12.74,30.22,30.22,0,0,1,6.43-10.21,30.7,30.7,0,0,1,22.58-9.34,31.77,31.77,0,0,1,12.86,2.53,30.67,30.67,0,0,1,10,6.81,31.48,31.48,0,0,1,6.56,10.21A33.81,33.81,0,0,1,482.44,150,35.44,35.44,0,0,1,480.05,163.14Z"/><rect class="cls-4" y="91.62" width="35.06" height="117.93"/><path class="cls-4" d="M76.9,150.58a72.28,72.28,0,0,0,30.51-59H73.94A38.93,38.93,0,0,1,35.06,130.5v40.17a38.92,38.92,0,0,1,38.88,38.88h33.47A72.32,72.32,0,0,0,76.9,150.58Z"/><rect class="cls-4" x="164.18" y="165.37" width="33.47" height="44.17"/><rect class="cls-4" x="256.01" y="39.33" width="258.63" height="28.22"/><path class="cls-4" d="M514.73,66.85c-12.83,0-74-13.94-74-66.85h31c0,16.81,28.94,35.93,43,35.93Z"/></svg>