<svg width="183" height="37" viewBox="0 0 183 37" fill="none" xmlns="http://www.w3.org/2000/svg">
<path fill-rule="evenodd" clip-rule="evenodd" d="M26.542 0C22.1989 0 17.855 1.63846 14.5412 4.91247C12.5501 6.87983 11.1688 9.21588 10.3742 11.6971C8.15089 12.1928 6.0353 13.2825 4.30449 14.9923C-0.570246 19.8086 -0.570246 27.6188 4.30449 32.4351C7.06031 35.1579 10.7857 36.3374 14.3834 35.9815H41.7706C45.9559 36.3773 50.2805 34.9929 53.486 31.8262C59.1835 26.1968 59.1835 17.0679 53.486 11.4383C50.6366 8.62362 46.9024 7.21822 43.1681 7.21846C42.3215 7.21846 41.4785 7.29821 40.6417 7.44287C40.0353 6.55033 39.3415 5.70127 38.5429 4.91247C35.2291 1.63846 30.8852 0 26.542 0ZM35.4424 7.97559C32.9849 5.54736 29.7632 4.33032 26.542 4.33032C23.3208 4.33032 20.0994 5.54748 17.6417 7.97559C16.5623 9.042 15.7358 10.259 15.1306 11.5524L15.1094 11.597L15.1093 11.5972L15.1093 11.5973C15.0982 11.6204 15.0872 11.6434 15.0766 11.6666C14.5357 12.854 14.186 14.1024 14.0406 15.3734C13.7381 15.3401 13.4306 15.323 13.1192 15.323C8.54051 15.323 4.82877 19.0197 4.82877 23.5797C4.82877 28.1398 8.54051 31.8365 13.1192 31.8365C13.4897 31.8365 13.8546 31.8123 14.2123 31.7654H41.9665C42.5063 31.8275 43.0461 31.8441 43.5884 31.8225C46.0915 31.7224 48.5674 30.7388 50.4777 28.8507C54.5139 24.8631 54.5139 18.3977 50.4777 14.4101C48.4602 12.4163 45.8129 11.4231 43.1681 11.4231C43.0411 11.4231 42.9141 11.4314 42.7871 11.4397L42.7866 11.4397C42.7314 11.4433 42.6762 11.4469 42.6209 11.4498C42.6012 11.4508 42.5812 11.4511 42.5611 11.4514L42.561 11.4514C42.5373 11.4517 42.5136 11.452 42.4903 11.4536C41.073 11.5451 39.6705 11.9175 38.3814 12.5837C37.9233 11.3163 37.2614 10.1055 36.3745 9.01059C36.3623 8.99556 36.3509 8.98023 36.3394 8.9649L36.3393 8.96474L36.3392 8.96452L36.3391 8.96448C36.3269 8.94802 36.3146 8.93156 36.3013 8.91549C36.0335 8.59135 35.7483 8.27793 35.4424 7.97559ZM89.7221 11.106L89.7219 11.1103L89.7218 15.966H88.9844C88.6162 15.966 88.295 16.0722 88.0443 16.3026C87.7901 16.5363 87.6697 16.8466 87.6697 17.2072C87.6697 17.5459 87.7959 17.8379 88.0443 18.0663C88.295 18.2967 88.6162 18.4029 88.9844 18.4029H89.7218V29.5846C89.7218 29.6202 89.7229 29.6554 89.725 29.6902C89.6648 30.1823 89.2723 30.5838 88.7615 30.668H87.2774V30.6707C86.5296 30.7084 85.9247 31.309 85.9247 32.0577C85.9247 32.8311 86.5702 33.4465 87.3521 33.4465C87.391 33.4465 87.4296 33.445 87.4678 33.442H88.2934V33.443H88.5364C88.5661 33.443 88.5957 33.4427 88.6253 33.442H88.9217V33.4252C90.9482 33.2374 92.5427 31.5827 92.5427 29.557C92.5427 29.507 92.5417 29.4573 92.5398 29.4077L92.5336 29.2487V18.4029H96.0568C96.4249 18.4029 96.7461 18.2967 96.9968 18.0663C97.2452 17.8379 97.3714 17.5459 97.3714 17.2072C97.3714 16.8466 97.251 16.5363 96.9968 16.3026C96.7461 16.0722 96.4249 15.966 96.0568 15.966H92.5336V11.1028C92.7212 9.79671 93.8823 8.78206 95.2969 8.78206C96.7208 8.78206 97.8879 9.8102 98.0638 11.1288L98.0613 17.1113C98.0593 17.14 98.0583 17.1689 98.0583 17.198C98.0583 17.2267 98.0593 17.2553 98.0612 17.2836L98.0585 23.783C98.0585 24.6504 98.2409 25.439 98.6105 26.1433C98.9787 26.8447 99.4854 27.4065 100.13 27.8237L100.132 27.8249L100.134 27.826C100.783 28.23 101.512 28.4305 102.314 28.4305H102.725C103.164 28.4305 103.543 28.3121 103.84 28.0551C104.152 27.7975 104.313 27.4573 104.313 27.053C104.313 26.6706 104.199 26.3374 103.955 26.0744C103.728 25.8127 103.435 25.6756 103.09 25.6756H102.314C101.908 25.6756 101.565 25.5096 101.272 25.1516C100.978 24.7923 100.825 24.3416 100.825 23.783V23.7826L100.815 18.4783H102.967C103.677 18.4783 104.253 17.9051 104.253 17.198C104.253 16.4909 103.677 15.9176 102.967 15.9176H100.81L100.801 10.8504L100.785 10.8506C100.55 8.08642 98.1612 5.92396 95.2612 5.92396C92.2724 5.92396 89.8264 8.22083 89.7221 11.106ZM172.629 27.6696L172.631 27.6708L172.633 27.6719C173.63 28.2394 174.743 28.5213 175.968 28.5213C177.193 28.5213 178.3 28.2394 179.282 27.6711L179.284 27.6704L179.285 27.6696C179.452 27.5701 179.614 27.4645 179.769 27.3528C179.825 28.0643 180.422 28.6244 181.151 28.6244C181.916 28.6244 182.537 28.0065 182.537 27.2443V11.6063C182.537 11.144 182.308 10.7348 181.959 10.4848C181.712 10.2976 181.412 10.2112 181.076 10.2112C180.684 10.2112 180.343 10.3372 180.066 10.5942L180.063 10.597L180.06 10.6C179.794 10.8647 179.67 11.2102 179.67 11.6113V17.1157C179.218 16.6727 178.696 16.3095 178.104 16.0264C177.309 15.6308 176.444 15.4341 175.512 15.4341C174.36 15.4341 173.319 15.7255 172.396 16.3114C171.477 16.8797 170.749 17.6609 170.214 18.6495L170.213 18.6508C169.69 19.6286 169.432 20.7357 169.432 21.9664C169.432 23.2006 169.715 24.3175 170.285 25.311L170.286 25.3123L170.286 25.3135C170.869 26.3019 171.651 27.0884 172.629 27.6696ZM179.265 24.0322C178.935 24.6466 178.486 25.129 177.916 25.4841C177.35 25.8221 176.703 25.9935 175.968 25.9935C175.25 25.9935 174.602 25.8227 174.019 25.4834C173.449 25.1281 172.992 24.6452 172.647 24.0302C172.319 23.4178 172.153 22.7316 172.153 21.9664C172.153 21.1851 172.319 20.5 172.646 19.9046C172.991 19.3042 173.448 18.836 174.018 18.4951L174.019 18.4947L174.02 18.4942C174.603 18.1399 175.251 17.9619 175.968 17.9619C176.702 17.9619 177.348 18.1404 177.914 18.4928L177.916 18.494L177.918 18.4951C178.488 18.8358 178.937 19.3034 179.266 19.9026C179.594 20.4984 179.761 21.1842 179.761 21.9664C179.761 22.7324 179.594 23.4193 179.265 24.0322ZM151.872 15.9108L151.875 15.9079C152.151 15.651 152.493 15.5249 152.884 15.5249C153.287 15.5249 153.634 15.649 153.9 15.9137C154.166 16.1784 154.29 16.5239 154.29 16.9251V24.5674C154.29 24.6723 154.281 24.7744 154.262 24.8734C154.311 25.3803 154.754 25.7872 155.305 25.7872C155.89 25.7872 156.352 25.3299 156.352 24.7802C156.352 24.7405 156.349 24.7014 156.345 24.6631L156.312 24.3924H156.353V16.9251C156.353 16.5239 156.477 16.1784 156.743 15.9137L156.746 15.9108L156.749 15.9079C157.025 15.651 157.367 15.5249 157.758 15.5249C158.161 15.5249 158.508 15.649 158.774 15.9137C158.976 16.115 159.096 16.3629 159.143 16.6466C159.396 16.4432 159.671 16.2609 159.967 16.0996C160.812 15.6394 161.757 15.4114 162.797 15.4114C163.882 15.4114 164.857 15.6463 165.718 16.1219C166.596 16.5839 167.283 17.2691 167.775 18.1705C168.287 19.0778 168.535 20.1804 168.535 21.4668V27.053C168.535 27.4476 168.398 27.7901 168.122 28.0644C167.859 28.327 167.521 28.4532 167.13 28.4532C166.738 28.4532 166.397 28.3272 166.12 28.0702L166.114 28.0645L166.108 28.0584C165.85 27.7831 165.724 27.4426 165.724 27.053V21.4668C165.724 20.6316 165.569 19.9737 165.278 19.4768C164.982 18.972 164.585 18.6057 164.084 18.3702L164.081 18.3685L164.077 18.3666C163.585 18.1144 163.008 17.9846 162.341 17.9846C161.737 17.9846 161.197 18.1063 160.717 18.3451C160.234 18.5857 159.856 18.9078 159.577 19.3106L159.576 19.3123L159.575 19.3139C159.303 19.6936 159.164 20.1356 159.164 20.6493V24.5674C159.164 24.5872 159.164 24.607 159.163 24.6267L159.163 24.628C159.164 24.6608 159.165 24.6937 159.165 24.7268C159.165 26.7846 157.444 28.4412 155.335 28.4412C153.283 28.4412 151.599 26.872 151.51 24.8905C151.489 24.7862 151.479 24.6783 151.479 24.5674V16.9251C151.479 16.5239 151.603 16.1784 151.869 15.9137L151.872 15.9108ZM151.637 14.8206L151.641 14.8251L151.645 14.8294C151.994 15.1588 152.41 15.3274 152.884 15.3274C153.359 15.3274 153.771 15.1584 154.105 14.8251C154.452 14.4793 154.632 14.0629 154.632 13.5867C154.632 13.112 154.453 12.7024 154.105 12.3709C153.772 12.0241 153.361 11.8459 152.884 11.8459C152.406 11.8459 151.988 12.0252 151.641 12.3709C151.306 12.7042 151.137 13.1141 151.137 13.5867C151.137 14.0589 151.306 14.474 151.637 14.8206ZM126.504 28.2697L126.499 28.2636C126.241 27.9883 126.114 27.6478 126.114 27.2583V21.4668C126.114 20.6316 125.959 19.9737 125.668 19.4769C125.373 18.972 124.976 18.6057 124.475 18.3702L124.471 18.3685L124.468 18.3666C123.975 18.1145 123.399 17.9846 122.732 17.9846C122.127 17.9846 121.587 18.1063 121.108 18.3451C120.624 18.5857 120.247 18.9079 119.968 19.3107L119.967 19.3123L119.965 19.3139C119.693 19.6936 119.555 20.1356 119.555 20.6493V22.2107C119.555 22.2996 119.548 22.3865 119.535 22.4712C119.516 22.7902 119.477 23.1085 119.419 23.4244C119.213 24.5455 118.765 25.6087 118.105 26.54C117.446 27.4714 116.591 28.2487 115.599 28.8181C114.608 29.3875 113.504 29.7353 112.364 29.8373C111.224 29.9394 110.076 29.7934 108.999 29.4093C107.921 29.0252 106.94 28.4123 106.124 27.6131C105.309 26.8139 104.677 25.8475 104.273 24.7809C104.011 24.0857 103.849 23.3588 103.791 22.6222C103.786 22.5616 103.786 22.5019 103.79 22.4432L103.767 21.9952V21.9891C103.767 20.7135 104.033 19.5823 104.572 18.6027L104.573 18.6015C105.126 17.6107 105.886 16.8368 106.852 16.2845C107.821 15.7155 108.928 15.4341 110.166 15.4341C111.389 15.4341 112.453 15.7074 113.349 16.2648C114.241 16.8044 114.918 17.5589 115.378 18.5222C115.853 19.4691 116.087 20.5587 116.087 21.7847C116.087 22.1341 115.964 22.4386 115.719 22.6825L115.716 22.6859L115.712 22.6892C115.464 22.9176 115.151 23.0259 114.795 23.0259H106.666C106.72 23.2884 106.795 23.547 106.89 23.7991C107.151 24.4878 107.558 25.1117 108.085 25.6277C108.612 26.1437 109.245 26.5395 109.941 26.7874C110.636 27.0354 111.378 27.1297 112.114 27.0638C112.85 26.9979 113.562 26.7733 114.203 26.4057C114.843 26.0381 115.395 25.5362 115.821 24.9349C116.247 24.3336 116.536 23.6472 116.669 22.9233C116.708 22.7122 116.733 22.4995 116.745 22.2863C116.743 22.2612 116.743 22.236 116.743 22.2107V16.9251C116.743 16.5239 116.868 16.1785 117.133 15.9138L117.136 15.9108L117.139 15.908C117.416 15.651 117.758 15.525 118.149 15.525C118.552 15.525 118.898 15.6491 119.164 15.9138C119.366 16.115 119.487 16.363 119.533 16.6466C119.787 16.4433 120.062 16.261 120.358 16.0997C121.202 15.6394 122.148 15.4114 123.188 15.4114C124.272 15.4114 125.248 15.6463 126.108 16.1219C126.987 16.5839 127.673 17.2692 128.166 18.1705C128.677 19.0779 128.926 20.1804 128.926 21.4668V27.2583C128.926 27.6529 128.788 27.9953 128.513 28.2696C128.249 28.5322 127.911 28.6584 127.52 28.6584C127.129 28.6584 126.787 28.5324 126.511 28.2754L126.504 28.2697ZM106.76 19.8689L106.759 19.8699C106.612 20.1707 106.54 20.4488 106.505 20.6508C106.5 20.6769 106.496 20.7018 106.493 20.7252H113.514C113.503 20.5812 113.485 20.4809 113.462 20.3982C113.426 20.2748 113.375 20.1786 113.287 20.0142L113.286 20.014L113.286 20.0135C113.238 19.9249 113.182 19.8197 113.117 19.688L113.117 19.6869L113.116 19.6858C112.845 19.1179 112.464 18.6761 111.971 18.3536C111.486 18.036 110.888 17.8711 110.166 17.8711C109.337 17.8711 108.638 18.0519 108.059 18.4028C107.493 18.7559 107.06 19.2423 106.76 19.8679L106.76 19.8689ZM78.4468 27.6807L78.448 27.6814L78.4493 27.6821C79.433 28.2352 80.5621 28.5082 81.8293 28.5082C83.0966 28.5082 84.2257 28.2352 85.2093 27.6821L85.2106 27.6814L85.2119 27.6807C86.1915 27.1142 86.9597 26.3413 87.5132 25.3649L87.514 25.3635C88.0685 24.3695 88.3426 23.2381 88.3426 21.9759C88.3426 20.6989 88.061 19.5665 87.4901 18.5864C86.9369 17.5955 86.1685 16.8221 85.1879 16.2705C84.2045 15.7021 83.0826 15.421 81.8293 15.421C80.5614 15.421 79.4319 15.7018 78.4481 16.2704C77.4673 16.8221 76.6916 17.5954 76.1233 18.5858L76.1227 18.5869C75.5671 19.567 75.2933 20.6992 75.2933 21.9759C75.2933 23.2381 75.5674 24.3695 76.1219 25.3635L76.123 25.3655L76.1241 25.3675C76.6926 26.3425 77.4678 27.1145 78.4468 27.6807ZM78.5083 19.8895L78.5089 19.8884L78.5095 19.8874C78.8393 19.2731 79.2881 18.7991 79.8567 18.4593C80.4227 18.121 81.0778 17.9488 81.8293 17.9488C82.5809 17.9488 83.2359 18.121 83.802 18.4593C84.3696 18.7985 84.8099 19.2713 85.1243 19.8834L85.1259 19.8865L85.1275 19.8895C85.4548 20.4847 85.6221 21.1778 85.6221 21.9759C85.6221 22.774 85.4548 23.4672 85.1275 24.0624L85.1264 24.0644L85.1254 24.0663C84.8114 24.6635 84.3711 25.1298 83.802 25.4699C83.2359 25.8081 82.5809 25.9804 81.8293 25.9804C81.0778 25.9804 80.4227 25.8081 79.8567 25.4699C79.2867 25.1292 78.8378 24.6616 78.5083 24.0624C78.1811 23.4672 78.0138 22.774 78.0138 21.9759C78.0138 21.1778 78.1811 20.4847 78.5083 19.8895ZM147.201 28.2991C146.934 28.0142 146.803 27.6619 146.803 27.2583V20.4893C146.803 19.5305 146.566 18.8724 146.14 18.4621L146.139 18.4608L146.137 18.4594C145.698 18.0221 145.122 17.7966 144.384 17.7966C143.624 17.7966 143.008 18.0554 142.518 18.5715C142.044 19.0882 141.799 19.7522 141.799 20.584V27.2583C141.799 27.6619 141.668 28.0142 141.401 28.2991L141.398 28.3022L141.395 28.3051C141.121 28.5788 140.762 28.7074 140.344 28.7074C139.939 28.7074 139.585 28.5768 139.299 28.3109L139.293 28.3052L139.287 28.2991C139.02 28.0142 138.889 27.6619 138.889 27.2583V20.4893C138.889 19.5305 138.652 18.8724 138.227 18.4621L138.225 18.4608L138.224 18.4594C137.785 18.0221 137.208 17.7966 136.471 17.7966C135.71 17.7966 135.094 18.0558 134.604 18.5727C134.113 19.0899 133.862 19.7535 133.862 20.584V27.2583C133.862 27.6619 133.731 28.0142 133.464 28.2991L133.461 28.3022L133.458 28.3051C133.184 28.5788 132.825 28.7074 132.407 28.7074C132.002 28.7074 131.648 28.5768 131.362 28.3109L131.356 28.3052L131.35 28.2991C131.083 28.0142 130.952 27.6619 130.952 27.2583V16.7262C130.952 16.3103 131.081 15.953 131.356 15.6793L131.359 15.6764L131.362 15.6735C131.648 15.4076 132.002 15.2771 132.407 15.2771C132.825 15.2771 133.184 15.4057 133.458 15.6793C133.612 15.8321 133.72 16.0111 133.785 16.2121C133.955 16.0744 134.135 15.9481 134.325 15.833C135.095 15.366 135.971 15.1351 136.946 15.1351C137.886 15.1351 138.728 15.3407 139.466 15.7584C139.952 16.0329 140.364 16.3938 140.704 16.8391C141.068 16.4383 141.495 16.1014 141.984 15.8286L141.985 15.8281L141.986 15.8276C142.834 15.364 143.794 15.1351 144.86 15.1351C145.799 15.1351 146.642 15.3407 147.38 15.7584C148.122 16.1783 148.693 16.7992 149.093 17.6112C149.51 18.4108 149.713 19.3734 149.713 20.4893V27.2583C149.713 27.6619 149.582 28.0142 149.315 28.2991L149.312 28.3022L149.309 28.3051C149.034 28.5788 148.675 28.7074 148.258 28.7074C147.853 28.7074 147.499 28.5768 147.213 28.3109L147.207 28.3052L147.201 28.2991ZM66.0317 28.0425L66.034 28.0434L66.0363 28.0442C66.9915 28.3772 68.023 28.5424 69.1289 28.5424C70.2485 28.5424 71.1975 28.37 71.9652 28.0123C72.739 27.6589 73.3338 27.1784 73.734 26.5648C74.1474 25.9547 74.3537 25.2694 74.3537 24.5157C74.3537 23.8614 74.1973 23.2776 73.8771 22.7731C73.5539 22.2482 73.0283 21.8069 72.3243 21.4402C71.6308 21.071 70.6941 20.773 69.5247 20.54C68.6974 20.3722 68.0815 20.2067 67.6687 20.0456C67.2583 19.8701 67.0165 19.6951 66.8991 19.5364C66.7869 19.3467 66.7304 19.1389 66.7304 18.908C66.7304 18.729 66.776 18.5813 66.8619 18.4559C66.9489 18.3288 67.0865 18.2112 67.2898 18.1097C67.7276 17.8991 68.2682 17.7885 68.9203 17.7885C69.4888 17.7885 69.9811 17.8556 70.4008 17.9853C70.8079 18.1111 71.1929 18.3434 71.5557 18.6903L71.557 18.6915L71.5582 18.6926C71.827 18.9425 72.1565 19.1001 72.5379 19.1692C72.9305 19.2403 73.2914 19.18 73.5996 18.969L73.6037 18.9661L73.6077 18.9632C73.901 18.7441 74.078 18.4598 74.0984 18.1145L74.0984 18.1137C74.118 17.7639 73.9886 17.4435 73.7405 17.1598C73.248 16.5561 72.5881 16.0888 71.7702 15.7534C70.9479 15.4162 70.0118 15.2505 68.9667 15.2505C68.152 15.2505 67.3678 15.3857 66.6154 15.6565C65.8548 15.9147 65.2241 16.3208 64.7307 16.8773C64.2216 17.4357 63.9736 18.1423 63.9736 18.9772C63.9736 19.9416 64.3531 20.7603 65.0978 21.4197L65.0988 21.4206L65.0998 21.4214C65.8574 22.0775 67.0417 22.5499 68.6182 22.8608L68.6204 22.8613L68.6225 22.8616C69.8241 23.0764 70.5997 23.3461 70.9979 23.647L70.9995 23.6482L71.0011 23.6494C71.4173 23.9534 71.586 24.2839 71.5738 24.6461C71.5617 25.0085 71.3744 25.3185 70.9483 25.5786L70.9467 25.5796L70.9452 25.5805C70.5381 25.8373 69.9124 25.9814 69.0362 25.9814C68.3557 25.9814 67.7406 25.8639 67.1877 25.6326C66.6323 25.3782 66.2502 25.1187 66.0197 24.862L66.018 24.8602L66.0162 24.8583C65.7622 24.5872 65.4477 24.429 65.0817 24.391C64.7035 24.3339 64.3384 24.4694 63.9973 24.7405C63.6859 24.9785 63.4984 25.2959 63.4431 25.6815L63.4423 25.6866L63.4418 25.6917C63.4033 26.0757 63.5328 26.4202 63.8076 26.7121L63.8103 26.7149L63.813 26.7177C64.3544 27.2569 65.0985 27.696 66.0317 28.0425ZM17.4468 28.4637L17.4444 28.4628C16.489 28.1094 15.7269 27.6615 15.172 27.111L15.1691 27.1081L15.1663 27.1051C14.8838 26.8062 14.7503 26.453 14.79 26.0591L14.7905 26.0537L14.7913 26.0484C14.8482 25.6535 15.0411 25.3281 15.3613 25.0844C15.7112 24.8073 16.0869 24.668 16.4766 24.7266C16.8529 24.7656 17.1763 24.9277 17.4374 25.2052L17.4393 25.2072L17.4411 25.2092C17.6758 25.4695 18.0655 25.7332 18.633 25.9923C19.1974 26.2274 19.8254 26.3469 20.5204 26.3469C21.4159 26.3469 22.0541 26.2001 22.4686 25.9397L22.4702 25.9387L22.4718 25.9378C22.9059 25.6738 23.0955 25.3602 23.1077 24.9944C23.12 24.6288 22.9494 24.2943 22.5252 23.9858L22.5236 23.9845L22.5219 23.9833C22.1163 23.678 21.3247 23.4035 20.0958 23.1846L20.0935 23.1842L20.0913 23.1838C18.4782 22.8669 17.2651 22.3853 16.4886 21.7154L16.4876 21.7145L16.4865 21.7136C15.7231 21.0404 15.3338 20.204 15.3338 19.219C15.3338 18.3667 15.588 17.6447 16.1103 17.074C16.616 16.506 17.2624 16.0915 18.0415 15.828C18.812 15.5518 19.6151 15.4139 20.4493 15.4139C21.5192 15.4139 22.4777 15.5828 23.32 15.9269C24.1576 16.269 24.8338 16.7459 25.3385 17.3621C25.5933 17.6524 25.7266 17.9808 25.7065 18.3397L25.7065 18.3405C25.6854 18.6951 25.5028 18.9869 25.2013 19.2112L25.197 19.2144L25.1927 19.2174C24.8754 19.4337 24.504 19.4954 24.1006 19.4227C23.7091 19.352 23.3706 19.1908 23.0944 18.935L23.0931 18.9338L23.0918 18.9326C22.7215 18.5799 22.3287 18.344 21.9137 18.2162C21.4854 18.0844 20.9827 18.0161 20.4019 18.0161C19.7357 18.0161 19.1841 18.1287 18.7377 18.3426C18.5307 18.4455 18.3913 18.5644 18.3033 18.6925C18.2164 18.8188 18.1701 18.9676 18.1701 19.1485C18.1701 19.3821 18.2275 19.5923 18.3414 19.7842C18.4602 19.944 18.7059 20.1214 19.1248 20.2999C19.5463 20.4638 20.1757 20.6322 21.0215 20.8032C22.2181 21.0406 23.177 21.3444 23.8874 21.7211C24.608 22.095 25.1468 22.5452 25.4785 23.0813C25.8072 23.5969 25.9676 24.1936 25.9676 24.8618C25.9676 25.6313 25.7561 26.3311 25.3324 26.954C24.922 27.5807 24.3124 28.0712 23.5198 28.4317C22.7331 28.7968 21.7611 28.9726 20.6152 28.9726C19.4832 28.9726 18.4272 28.804 17.4493 28.4645L17.4468 28.4637ZM158.921 24.5894L158.921 24.5858C158.921 24.5969 158.921 24.608 158.92 24.619L158.92 24.6203C158.921 24.6101 158.921 24.5997 158.921 24.5894ZM43.0047 28.5711L42.9985 28.5646L42.9927 28.5577C42.7503 28.269 42.6316 27.9118 42.6316 27.5045V20.8096C42.6316 19.8664 42.4227 19.2264 42.0539 18.8296L42.0525 18.8281L42.0511 18.8265C41.6688 18.4015 41.1664 18.1812 40.52 18.1812C39.8547 18.1812 39.3177 18.4335 38.8898 18.9364C38.4752 19.44 38.261 20.0879 38.261 20.9032V27.5045C38.261 27.9118 38.1423 28.269 37.8998 28.5577L37.8969 28.5612L37.8939 28.5645C37.6436 28.8428 37.3173 28.9726 36.9404 28.9726C36.5741 28.9726 36.2527 28.8406 35.993 28.5711L35.9868 28.5646L35.981 28.5577C35.7386 28.269 35.6199 27.9118 35.6199 27.5045V20.8096C35.6199 19.8664 35.411 19.2264 35.0422 18.8296L35.0408 18.8281L35.0394 18.8265C34.6571 18.4015 34.1547 18.1812 33.5083 18.1812C32.8424 18.1812 32.3049 18.434 31.8768 18.9379C31.4485 19.442 31.2282 20.0894 31.2282 20.9032V27.5045C31.2282 27.9118 31.1095 28.269 30.8671 28.5577L30.8642 28.5612L30.8612 28.5645C30.6109 28.8428 30.2845 28.9726 29.9077 28.9726C29.5413 28.9726 29.22 28.8406 28.9603 28.5711L28.954 28.5646L28.9482 28.5577C28.7058 28.269 28.5871 27.9118 28.5871 27.5045V17.0876C28.5871 16.6686 28.7038 16.3058 28.9541 16.0275L28.9571 16.0242L28.9603 16.021C29.22 15.7515 29.5413 15.6195 29.9077 15.6195C30.2845 15.6195 30.6109 15.7493 30.8612 16.0275C30.9901 16.1708 31.0836 16.3365 31.1439 16.5208C31.2849 16.3959 31.4336 16.2804 31.5902 16.1745C32.2782 15.7089 33.0604 15.479 33.9294 15.479C34.7668 15.479 35.5186 15.6836 36.1779 16.1C36.6015 16.3676 36.9626 16.7169 37.2612 17.145C37.5798 16.7599 37.9524 16.4344 38.378 16.1694L38.3789 16.1689L38.3798 16.1683C39.1362 15.7066 39.9921 15.479 40.9411 15.479C41.7785 15.479 42.5303 15.6836 43.1896 16.1C43.853 16.5191 44.3629 17.1384 44.7198 17.9471C45.0924 18.744 45.2727 19.7019 45.2727 20.8096V27.5045C45.2727 27.9118 45.154 28.269 44.9115 28.5577L44.9086 28.5612L44.9056 28.5645C44.6553 28.8428 44.329 28.9726 43.9521 28.9726C43.5857 28.9726 43.2644 28.8406 43.0047 28.5711Z" fill="url(#paint0_radial_127_1010)"/>
<defs>
<radialGradient id="paint0_radial_127_1010" cx="0" cy="0" r="1" gradientUnits="userSpaceOnUse" gradientTransform="translate(0.648432 20.646) scale(181.888 59.6658)">
<stop stop-color="#2474EC"/>
<stop offset="1" stop-color="#64D3DA"/>
</radialGradient>
</defs>
</svg>
