<svg xmlns="http://www.w3.org/2000/svg" viewBox="0 0 266.055 64" xml:space="preserve" width="266.055" height="64">
  <path fill="#0000" d="M193.756 64.16H.171V.175H266.21V64.16zm42.918-33.266-11.336 18.423c3.778 0 7.439.008 11.1-.02.211-.002.488-.247.619-.452.665-1.047 1.284-2.122 1.934-3.179 1.151-1.872 2.313-3.737 3.562-5.55 1.98 3.165 3.957 6.331 5.94 9.494 1.692 2.699 3.418 5.378 5.058 8.108.326.543.623.714 1.218.71 3.43-.026 6.861-.013 10.292-.013h.919c-1.158-1.862-2.227-3.562-3.277-5.273-2.39-3.895-4.762-7.8-7.157-11.692-2.189-3.558-4.397-7.105-6.546-10.758l15.228-24.787h-.908c-2.897 0-5.798.099-8.688-.038-1.7-.08-2.815.275-3.684 1.908-1.405 2.642-3.096 5.134-4.683 7.678-1.273 2.039-2.571 4.063-3.951 6.037-1.69-2.697-3.43-5.364-5.036-8.109-.458-.783-.936-.959-1.751-.948-3.029.041-6.06.016-9.09.016h-1.13c3.859 6.203 7.633 12.269 11.367 18.445M78.205 29.127V12.503h-6.912v24.574c-3.498-5.159-6.918-10.193-10.326-15.233-2.001-2.96-3.981-5.936-5.985-8.895-.141-.208-.4-.474-.609-.478-1.985-.036-3.971-.022-5.971-.022V49.27h6.857V25.268c3.257 4.685 6.472 9.296 9.673 13.918 2.242 3.237 4.465 6.488 6.702 9.728.108.156.276.382.419.384 2.037.025 4.073.017 6.151.017zm31.051-.392c-.564-1.605-1.131-3.209-1.691-4.815-1.274-3.653-2.537-7.309-3.832-10.954-.077-.217-.394-.493-.603-.495-2.79-.033-5.58-.022-8.427-.022L82 49.317c2.347 0 4.579.014 6.81-.024.201-.004.499-.306.58-.531.844-2.349 1.654-4.711 2.485-7.105 4.694 0 9.398.004 14.101-.008.426-.001.555.166.686.56.789 2.368 1.625 4.719 2.451 7.091h7.225c-1.154-3.326-2.304-6.612-3.433-9.905-1.205-3.512-2.391-7.03-3.648-10.658m96.073-10.223h15.98v-6.003h-24.643v36.764h24.813v-6.052h-17.931v-9.755h15.546V27.6H203.54v-9.086zm-19.864 14.957q1.752-5.003 3.508-10.005c.949-2.702 1.914-5.398 2.851-8.104.323-.932.583-1.885.891-2.89h-7.18l-9.916 29.516c-.092-.161-.174-.262-.213-.378-2.188-6.532-4.369-13.067-6.558-19.599-1-2.985-2.006-5.969-3.033-8.945-.082-.238-.347-.586-.532-.589-2.255-.041-4.511-.027-6.886-.027.425 1.236.814 2.379 1.21 3.52 1.643 4.728 3.299 9.451 4.93 14.183 1.665 4.829 3.31 9.665 4.959 14.499.433 1.27.832 2.552 1.29 3.813.133.367.146.872.801.865 2.659-.028 5.32 0 7.979-.033.212-.003.53-.271.611-.487.513-1.351.978-2.719 1.449-4.085 1.278-3.707 2.552-7.416 3.837-11.253m-41.663-18.549v-2.421h-29.469v6.033h11.274v30.74h6.876V18.494h11.319zm-115.49.088c-6.555-3.589-13.12-3.572-19.441.386-4.71 2.949-7.371 7.412-8.275 12.942 1.368.246 2.637.498 3.916.676.172.024.503-.284.579-.501.43-1.241.703-2.545 1.221-3.745.913-2.116 2.485-3.753 4.304-5.115 2.278-1.704 4.891-2.594 7.727-2.723 2.133-.097 4.173.33 6.146 1.208 2.997 1.333 5.286 3.4 6.783 6.297 1.284 2.484 1.952 5.105 1.627 7.955-.23 2.023-.692 3.954-1.89 5.6-1.048 1.44-2.27 2.753-3.436 4.147.715.921 1.494 1.955 2.321 2.949.103.124.545.141.693.028 1.967-1.495 3.491-3.395 4.605-5.57 2.033-3.97 2.649-8.152 1.698-12.567-1.122-5.208-4.012-9.103-8.581-11.967m-2.446 29.417c-.578-.675-1.096-1.416-1.747-2.011-1.585-1.449-3.159-2.928-4.871-4.217-2.527-1.904-5.275-3.484-8.28-4.514-2.263-.776-4.574-1.43-6.893-2.02-1.141-.29-2.351-.314-3.543-.459-.171 6.204 3.6 13.039 10.226 16.291 6.049 2.969 13.085 2.073 17.068-.599a498 498 0 0 1-1.96-2.47m121.769-17.696v22.534h6.976V12.499h-6.976zM15.073 25.047c1.705-1.27 3.632-1.596 5.637-1.082 3.141.804 5.03 3.253 5.272 6.306.19 2.394-.75 4.423-2.708 5.912-.373.284-.727.594-1.122.918l3.305 2.874c.866-.838 1.844-1.567 2.543-2.504 1.987-2.662 2.65-5.656 2.021-8.957-.684-3.585-2.71-6.128-5.876-7.794-2.078-1.094-4.291-1.44-6.654-1.112-2.613.363-4.813 1.506-6.622 3.324-1.702 1.709-2.612 3.893-3.023 6.265-.037.214.11.622.27.683 1.257.481 2.539.9 3.856 1.352.081-2.547.994-4.623 3.101-6.184"/>
  <path fill="#1336B6" d="M78.205 29.207v20.107c-2.078 0-4.115.008-6.151-.017-.143-.002-.311-.228-.419-.384-2.238-3.24-4.46-6.491-6.702-9.728-3.202-4.621-6.417-9.233-9.673-13.918v24.002h-6.857v-36.82c2 0 3.986-.015 5.971.022.209.004.468.27.609.478 2.004 2.959 3.984 5.934 5.985 8.895 3.408 5.041 6.828 10.074 10.326 15.233V12.503h6.911zm31.082-.415c1.226 3.572 2.412 7.09 3.617 10.602 1.13 3.293 2.28 6.58 3.434 9.905h-7.225c-.826-2.372-1.662-4.724-2.451-7.091-.131-.394-.26-.561-.686-.56-4.704.012-9.407.008-14.101.008-.832 2.394-1.641 4.756-2.485 7.105-.081.226-.378.528-.58.531-2.231.038-4.463.024-6.81.024l12.703-36.867c2.847 0 5.637-.011 8.427.022.208.002.526.279.603.495 1.295 3.645 2.558 7.301 3.832 10.954a598 598 0 0 0 1.723 4.872m-5.365 6.799c.61.044.442-.246.316-.623-1.683-5.037-3.347-10.081-5.057-15.246l-5.316 15.869zM205.25 18.514h-1.711V27.6h15.555v5.868h-15.546v9.755h17.931v6.052h-24.813V12.511h24.643v6.003zm-19.789 15.021a2423 2423 0 0 1-3.833 11.188c-.471 1.366-.937 2.735-1.449 4.086-.082.216-.4.484-.611.487-2.66.033-5.32.006-7.979.033-.655.007-.667-.498-.801-.865-.457-1.261-.856-2.543-1.29-3.813-1.65-4.834-3.294-9.67-4.959-14.499-1.632-4.732-3.287-9.455-4.93-14.183-.396-1.14-.785-2.283-1.21-3.52 2.375 0 4.631-.014 6.886.026.185.003.45.351.532.589 1.027 2.976 2.033 5.96 3.033 8.945 2.188 6.532 4.37 13.067 6.558 19.599.039.116.121.217.213.378l9.915-29.515h7.18c-.308 1.005-.568 1.958-.891 2.89-.937 2.706-1.902 5.402-2.852 8.104-1.172 3.334-2.339 6.67-3.513 10.069m-41.659-18.531v3.491h-11.318v30.782h-6.877v-30.74h-11.274v-6.034h29.469z"/>
  <path fill="#F7B82C" d="M248.951 30.792c2.2 3.552 4.408 7.098 6.597 10.657 2.394 3.892 4.767 7.797 7.157 11.692 1.05 1.711 2.119 3.411 3.277 5.273h-.919c-3.431 0-6.862-.013-10.292.013-.596.004-.892-.167-1.218-.71-1.641-2.73-3.367-5.408-5.058-8.108-1.982-3.163-3.96-6.329-5.998-9.579a1114 1114 0 0 1-2.824-4.586c-.947-1.547-1.888-3.098-2.757-4.653 4.062-.004 8.05-.001 12.037.001"/>
  <path fill="#1336B6" d="M248.977 30.742c-4.013.048-8 .046-12.058.053-.071.009-.065.017-.058-.04 1.271-2.111 2.543-4.16 3.798-6.22.6-.986 1.167-1.992 1.75-2.989 1.287-2.03 2.585-4.054 3.858-6.093 1.588-2.544 3.278-5.035 4.683-7.678.869-1.633 1.984-1.988 3.684-1.908 2.89.137 5.791.038 8.688.038h.908a58286 58286 0 0 0-15.252 24.836M28.359 15.046c4.52 2.829 7.41 6.724 8.532 11.932.951 4.415.335 8.597-1.698 12.567-1.114 2.175-2.638 4.076-4.605 5.57-.149.113-.59.097-.693-.028-.827-.994-1.606-2.029-2.321-2.949 1.166-1.394 2.388-2.707 3.436-4.147 1.198-1.646 1.66-3.578 1.89-5.6.324-2.85-.344-5.471-1.627-7.955-1.497-2.897-3.786-4.964-6.783-6.297-1.974-.877-4.014-1.305-6.146-1.208-2.836.129-5.45 1.019-7.727 2.723-1.82 1.361-3.391 2.998-4.304 5.115-.518 1.2-.791 2.504-1.221 3.745-.075.217-.406.525-.579.501-1.279-.178-2.548-.43-3.916-.676.904-5.53 3.565-9.992 8.275-12.942 6.321-3.958 12.886-3.976 19.49-.352"/>
  <path fill="#1336B6" d="M25.897 44.476c.663.838 1.293 1.628 1.927 2.423-3.983 2.672-11.019 3.568-17.068.599C4.13 44.246.359 37.412.53 31.207c1.192.146 2.402.169 3.543.459 2.319.59 4.63 1.244 6.893 2.02 3.005 1.03 5.753 2.61 8.28 4.514 1.712 1.29 3.286 2.768 4.871 4.217.651.595 1.168 1.336 1.78 2.059m121.734-17.823V12.499h6.976v36.768h-6.976zM15.015 25.055c-2.048 1.553-2.962 3.629-3.043 6.176-1.317-.453-2.598-.871-3.856-1.352-.16-.061-.307-.469-.27-.683.411-2.372 1.322-4.556 3.023-6.265 1.81-1.818 4.01-2.961 6.622-3.324 2.364-.328 4.576.018 6.654 1.112 3.166 1.666 5.192 4.209 5.876 7.794.629 3.301-.034 6.295-2.021 8.957-.7.937-1.677 1.666-2.543 2.505L22.152 37.1c.394-.324.748-.634 1.122-.918 1.958-1.49 2.898-3.518 2.708-5.912-.242-3.052-2.13-5.502-5.272-6.306-2.006-.513-3.933-.188-5.695 1.091M236.843 30.8q1.409 2.32 2.828 4.644c.919 1.502 1.844 3.001 2.778 4.558-1.145 1.926-2.307 3.791-3.458 5.663-.65 1.057-1.269 2.132-1.934 3.179-.131.205-.408.451-.619.452-3.661.028-7.322.02-11.1.02 3.812-6.194 7.574-12.309 11.392-18.475.056-.052.124-.03.124-.03z"/>
  <path fill="#F7B82C" d="M236.86 30.754c-.007.057-.074.035-.11.033a5303 5303 0 0 1-11.443-18.338h1.13c3.03 0 6.06.024 9.09-.016.815-.011 1.293.165 1.751.948 1.606 2.746 3.347 5.413 5.083 8.137a53 53 0 0 1-1.703 3.016c-1.254 2.06-2.526 4.109-3.798 6.22"/>
  <path fill="#0000" d="M103.847 35.591h-9.981l5.314-15.869c1.71 5.165 3.374 10.208 5.057 15.246.126.377.294.667-.39.624"/>
</svg>
