<svg width="408" height="150" viewBox="0 0 408 150" fill="none" xmlns="http://www.w3.org/2000/svg">
<path d="M160.552 46.5517C151.966 46.5517 145.035 53.4828 145.035 62.069C145.035 63.3621 145.19 64.6552 145.5 65.8448L119.173 72.4138L95.5863 29.1207C100.397 26.4828 103.655 21.3621 103.655 15.5172C103.655 6.93103 96.7243 0 88.1381 0C79.5519 0 72.6208 6.93103 72.6208 15.5172C72.6208 21.4138 75.8795 26.4828 80.6898 29.1207L57.1036 72.4138L30.776 65.8448C31.0863 64.6552 31.2415 63.3621 31.2415 62.069C31.2415 53.4828 24.3105 46.5517 15.7243 46.5517C7.13807 46.5517 0.207031 53.4828 0.207031 62.069C0.207031 70.6552 7.13807 77.5862 15.7243 77.5862C16.6553 77.5862 17.5863 77.4828 18.5174 77.3276L26.0691 118.966H150.207L157.759 77.3276C158.638 77.4828 159.569 77.5862 160.552 77.5862C169.138 77.5862 176.069 70.6552 176.069 62.069C176.069 53.4828 169.138 46.5517 160.552 46.5517ZM17.1208 69.7241C16.6553 69.8276 16.1898 69.8276 15.7243 69.8276C11.4312 69.8276 7.96565 66.3621 7.96565 62.069C7.96565 57.7759 11.4312 54.3103 15.7243 54.3103C20.0174 54.3103 23.4829 57.7759 23.4829 62.069C23.4829 62.6897 23.3794 63.3621 23.276 63.931C22.5001 66.8793 20.1208 69.1552 17.1208 69.7241ZM91.8622 22.3448C90.776 22.9655 89.4829 23.2759 88.1381 23.2759C86.7932 23.2759 85.5519 22.9138 84.4139 22.3448C81.9829 21.0517 80.3795 18.4655 80.3795 15.5172C80.3795 11.2241 83.845 7.75862 88.1381 7.75862C92.4312 7.75862 95.8967 11.2241 95.8967 15.5172C95.8967 18.4655 94.2415 21 91.8622 22.3448ZM160.552 69.8276C160.086 69.8276 159.621 69.7759 159.155 69.7241C156.155 69.2069 153.724 66.8793 153 63.9828C152.845 63.3621 152.793 62.7414 152.793 62.1207C152.793 57.8276 156.259 54.3621 160.552 54.3621C164.845 54.3621 168.31 57.8276 168.31 62.1207C168.31 66.4138 164.845 69.8276 160.552 69.8276Z" fill="#FFA800"/>
<path d="M26.0691 129.31H150.207V139.655C150.207 145.345 145.552 150 139.862 150H36.4139C30.7243 150 26.0691 145.345 26.0691 139.655V129.31Z" fill="#FFA800"/>
<path d="M225.811 50H210.638V63.7069H228.569V72.4138H200.897V20.6897H228.483V29.3966H210.638V41.638H225.811V50Z" fill="#FFA800"/>
<path d="M246.931 20.6897L256.069 58.1035L265.121 20.6897H277.793V72.4138H268.052V58.4483L268.914 36.8966L259.259 72.4138H252.621L242.966 36.8966L243.828 58.4483V72.4138H234.173V20.6897H246.931Z" fill="#FFA800"/>
<path fill-rule="evenodd" clip-rule="evenodd" d="M295.38 54.2242V72.4138H285.638V20.6897H302.017C306.759 20.6897 310.552 22.2414 313.397 25.4311C316.242 28.6207 317.707 32.7587 317.707 37.7587C317.707 42.7587 316.328 46.8104 313.483 49.7414C310.638 52.6725 306.759 54.138 301.845 54.138H295.38V54.2242ZM302.104 45.5173H295.38V29.3966H302.19C303.914 29.3966 305.293 30.1724 306.328 31.7242C307.362 33.2759 307.88 35.2587 307.88 37.8449C307.88 40.3449 307.362 42.2414 306.328 43.5345C305.38 44.8276 303.914 45.5173 302.104 45.5173Z" fill="#FFA800"/>
<path d="M334.431 72.4138H324.69V20.6897H334.431V72.4138Z" fill="#FFA800"/>
<path fill-rule="evenodd" clip-rule="evenodd" d="M357.19 53.5345H352.362V72.4138H342.621V20.6897H358.138C363.052 20.6897 366.759 22.069 369.431 24.7414C372.104 27.4138 373.397 31.2932 373.397 36.2932C373.397 43.1897 371.069 47.9311 366.414 50.6897L374.862 71.8966V72.4138H364.431L357.19 53.5345ZM357.879 44.8276H352.362V29.3966H358.052C361.845 29.3966 363.742 31.9828 363.742 37.1552C363.742 39.4828 363.224 41.2932 362.276 42.7587C361.242 44.138 359.776 44.8276 357.879 44.8276Z" fill="#FFA800"/>
<path d="M405.035 50H389.862V63.7069H407.793V72.4138H380.121V20.6897H407.707V29.3966H389.862V41.638H405.035V50Z" fill="#FFA800"/>
<path d="M366.931 81.0345L379 130.948L390.983 81.0345H407.793V150H394.862V131.379L396.069 102.586L383.311 150H374.517L361.759 102.586L362.966 131.379V150H350.121V81.0345H366.931Z" fill="#FFA800"/>
<path fill-rule="evenodd" clip-rule="evenodd" d="M326.931 135.862H309.345L305.897 150H292.276L312.19 81.0345H324L344.086 150H330.38L326.931 135.862ZM324.086 124.31H312.19L318.138 99.7415L324.086 124.31Z" fill="#FFA800"/>
<path d="M285.38 120.172H265.293V138.448H289V150H252.362V81.0345H288.914V92.6725H265.293V108.966H285.38V120.172Z" fill="#FFA800"/>
<path d="M245.121 92.6725H229.345V150H216.414V92.6725H200.897V81.0345H245.121V92.6725Z" fill="#FFA800"/>
</svg>
