<svg xmlns="http://www.w3.org/2000/svg" width="259.999" height="55.315"><defs><style>.cls-1{fill:#26276e}.cls-2{fill:#ec1c24}</style></defs><g id="Group_363" data-name="Group 363" transform="translate(-170.874 -429.286)"><g id="Group_360" data-name="Group 360" transform="translate(170.874 429.286)"><path id="Path_7361" data-name="Path 7361" class="cls-1" d="M170.874 465.553v-34.514h5.2l11.936 24.447 11.936-24.447h5.2v34.514h-5.393v-22.122l-10.594 22.122h-2.3l-10.57-22.122v22.122z" transform="translate(-170.874 -430.32)"/><path id="Path_7362" data-name="Path 7362" class="cls-1" d="M274.623 477.639a13.646 13.646 0 01-6.9-1.7 12.036 12.036 0 01-4.638-4.722 14.148 14.148 0 01-1.666-6.951 15.742 15.742 0 011.63-7.37 11.921 11.921 0 014.53-4.854 12.872 12.872 0 016.711-1.726 12.032 12.032 0 016.842 1.882 11.155 11.155 0 014.183 5.309 18.162 18.162 0 011.03 8.077h-5.728v-2.109q-.024-4.218-1.486-6.16a5.387 5.387 0 00-4.6-1.941 6.3 6.3 0 00-5.273 2.193q-1.726 2.193-1.726 6.411a9.522 9.522 0 001.726 6.088 6.065 6.065 0 005.034 2.157 6.9 6.9 0 003.678-.947 6.183 6.183 0 002.385-2.745l5.7 1.726a11.582 11.582 0 01-4.589 5.441 12.652 12.652 0 01-6.843 1.941zm-8.916-12.056v-4.362h17.809v4.362z" transform="translate(-224.266 -441.687)"/><path id="Path_7363" data-name="Path 7363" class="cls-1" d="M337.721 477.639a10.863 10.863 0 01-6.232-1.8 11.9 11.9 0 01-4.122-4.889 17.39 17.39 0 01.012-13.985 11.785 11.785 0 014.183-4.866 11.32 11.32 0 016.375-1.785 10.406 10.406 0 016.2 1.785 11.092 11.092 0 013.8 4.878 19.463 19.463 0 010 13.961 10.99 10.99 0 01-3.859 4.9 10.793 10.793 0 01-6.357 1.801zm.5 11.5a12.777 12.777 0 01-4.134-.671 11.706 11.706 0 01-3.559-1.929 10.381 10.381 0 01-2.588-3.032l5.32-2.636a4.751 4.751 0 002.1 2.1 6.327 6.327 0 002.888.683 7.767 7.767 0 003.211-.635 4.892 4.892 0 002.193-1.869 5.4 5.4 0 00.731-3.08v-7.358h.719v-19.677h5.057v27.132q0 .982-.084 1.882a14.306 14.306 0 01-.276 1.762 8.278 8.278 0 01-2.205 4.134 10.1 10.1 0 01-4.039 2.409 17.024 17.024 0 01-5.331.79zm.384-16.682a5.622 5.622 0 005.836-4.051 15.277 15.277 0 000-8.88 6.172 6.172 0 00-2.049-2.972 5.742 5.742 0 00-3.6-1.067 6.194 6.194 0 00-3.834 1.139 6.646 6.646 0 00-2.229 3.068 12.173 12.173 0 00-.719 4.278 12.416 12.416 0 00.707 4.3 6.625 6.625 0 002.169 3.056 5.908 5.908 0 003.722 1.134z" transform="translate(-262.295 -441.687)"/><path id="Path_7364" data-name="Path 7364" class="cls-1" d="M400.705 477.639a9.74 9.74 0 01-4.746-1.066 7.289 7.289 0 01-2.936-2.841 7.84 7.84 0 01-1-3.907 8.688 8.688 0 01.623-3.367 6.731 6.731 0 011.917-2.589 10.233 10.233 0 013.356-1.786 31.61 31.61 0 013.655-.91q2.1-.408 4.554-.755t5.141-.755l-2.061 1.174a5.459 5.459 0 00-1.2-3.954q-1.223-1.271-4.123-1.271a7.475 7.475 0 00-3.38.815 4.52 4.52 0 00-2.276 2.8l-5.273-1.654a9.777 9.777 0 013.655-5.273 11.994 11.994 0 017.274-1.989 15.3 15.3 0 016.076 1.126 7.539 7.539 0 013.9 3.691 7.878 7.878 0 01.839 2.793 30.991 30.991 0 01.144 3.1v15.899h-5.057v-5.609l.839.91a11.561 11.561 0 01-4.087 4.111 11.835 11.835 0 01-5.834 1.307zm1.15-4.6a7.434 7.434 0 003.356-.7 6.678 6.678 0 002.217-1.7 5.991 5.991 0 001.115-1.893 7.422 7.422 0 00.515-2.529q.059-1.426.06-2.313l1.774.527q-2.613.407-4.482.719t-3.212.588a22.093 22.093 0 00-2.373.611 7.314 7.314 0 00-1.7.839 3.579 3.579 0 00-1.067 1.1 2.8 2.8 0 00-.371 1.462 3.011 3.011 0 00.479 1.69 3.285 3.285 0 001.4 1.162 5.39 5.39 0 002.29.436z" transform="translate(-301.288 -441.687)"/><path id="Path_7365" data-name="Path 7365" class="cls-2" d="M467.59 465.307a16.947 16.947 0 01-6.819-1.318 12.73 12.73 0 01-4.985-3.775 12.216 12.216 0 01-2.481-5.836l5.992-.911a7.922 7.922 0 003.152 4.746 9.316 9.316 0 005.5 1.678 10.36 10.36 0 003.475-.575 6.452 6.452 0 002.649-1.678 3.841 3.841 0 001.019-2.708 3.628 3.628 0 00-.24-1.331 3.246 3.246 0 00-.707-1.09 4.952 4.952 0 00-1.2-.875 8.974 8.974 0 00-1.69-.683l-8.916-2.637a22.575 22.575 0 01-2.481-.9 9.946 9.946 0 01-2.517-1.558 7.623 7.623 0 01-1.942-2.541 8.674 8.674 0 01-.755-3.823 9.094 9.094 0 011.69-5.6 10.181 10.181 0 014.554-3.392 16.929 16.929 0 016.363-1.1 16.277 16.277 0 016.327 1.21 12.128 12.128 0 014.65 3.44 13.23 13.23 0 012.637 5.44l-6.208 1.079a6.886 6.886 0 00-1.474-3.1 7.12 7.12 0 00-2.66-1.953 9.065 9.065 0 00-3.344-.719 8.887 8.887 0 00-3.2.515 5.768 5.768 0 00-2.373 1.546 3.416 3.416 0 00-.9 2.349 2.876 2.876 0 00.767 2.073 5.458 5.458 0 001.906 1.27 18.7 18.7 0 002.312.779l6.184 1.726q1.27.336 2.852.911a12.973 12.973 0 013.044 1.606 8.172 8.172 0 012.409 2.709 8.6 8.6 0 01.947 4.266 9.614 9.614 0 01-1.114 4.71 9.968 9.968 0 01-3.008 3.368 13.722 13.722 0 01-4.326 2.013 19.072 19.072 0 01-5.089.669z" transform="translate(-337.422 -429.355)"/><path id="Path_7366" data-name="Path 7366" class="cls-2" d="M537.131 477.639a12.539 12.539 0 01-6.831-1.786 11.637 11.637 0 01-4.326-4.877 16.074 16.074 0 01-1.522-7 15.746 15.746 0 011.57-7.059 11.776 11.776 0 014.4-4.841 12.647 12.647 0 016.783-1.761 12.373 12.373 0 017.466 2.217 10.208 10.208 0 013.991 6.052l-5.752 1.558a6.338 6.338 0 00-2.229-3.248 5.778 5.778 0 00-3.547-1.163 5.813 5.813 0 00-5.872 4 12.114 12.114 0 00-.7 4.242 9.923 9.923 0 001.654 5.968 6.571 6.571 0 008.545 1.222 6.346 6.346 0 002-3.044l5.9 1.318a11.122 11.122 0 01-4.195 6.076 12.37 12.37 0 01-7.335 2.126z" transform="translate(-379.376 -441.687)"/><path id="Path_7367" data-name="Path 7367" class="cls-2" d="M589.232 465.553v-34.514h5.153v18.168h.7v16.346zm17.952 0V453.09a24.388 24.388 0 00-.168-2.709 9.722 9.722 0 00-.779-2.864 5.548 5.548 0 00-1.821-2.265 5.427 5.427 0 00-3.272-.887 6.857 6.857 0 00-2.181.36 4.969 4.969 0 00-1.953 1.234 6.193 6.193 0 00-1.4 2.4 12.1 12.1 0 00-.527 3.9l-3.428-1.462a13.721 13.721 0 011.282-5.992 10.194 10.194 0 013.775-4.278 11.164 11.164 0 016.136-1.594 10.363 10.363 0 014.746.959 8.389 8.389 0 012.972 2.445 10.663 10.663 0 011.63 3.164 16.287 16.287 0 01.683 3.175q.156 1.5.156 2.433v14.453z" transform="translate(-417.577 -430.32)"/><path id="Path_7368" data-name="Path 7368" class="cls-2" d="M665.948 477.639a12.877 12.877 0 01-6.783-1.75 11.919 11.919 0 01-4.494-4.83 15.2 15.2 0 01-1.594-7.082 15.005 15.005 0 011.63-7.143 12.016 12.016 0 014.53-4.793 14.014 14.014 0 0113.518.024 12 12 0 014.506 4.83 16.419 16.419 0 01-.012 14.189 12 12 0 01-4.518 4.817 12.946 12.946 0 01-6.783 1.738zm0-5.417a5.928 5.928 0 005.129-2.3 9.845 9.845 0 001.678-5.944 9.687 9.687 0 00-1.7-6 6 6 0 00-5.1-2.241 6.546 6.546 0 00-3.823 1.043 6.12 6.12 0 00-2.217 2.9 11.878 11.878 0 00-.719 4.3 9.638 9.638 0 001.714 6 5.958 5.958 0 005.038 2.242z" transform="translate(-455.226 -441.687)"/><path id="Path_7369" data-name="Path 7369" class="cls-2" d="M732.306 477.639a12.876 12.876 0 01-6.783-1.75 11.916 11.916 0 01-4.494-4.83 15.189 15.189 0 01-1.594-7.082 15 15 0 011.63-7.143 12.012 12.012 0 014.53-4.793 14.014 14.014 0 0113.518.024 12 12 0 014.506 4.83 16.419 16.419 0 01-.012 14.189 12 12 0 01-4.518 4.817 12.946 12.946 0 01-6.783 1.738zm0-5.417a5.927 5.927 0 005.129-2.3 9.842 9.842 0 001.678-5.944 9.689 9.689 0 00-1.7-6 6.006 6.006 0 00-5.105-2.241 6.544 6.544 0 00-3.823 1.043 6.118 6.118 0 00-2.217 2.9 11.877 11.877 0 00-.719 4.3 9.637 9.637 0 001.714 6 5.958 5.958 0 005.043 2.242z" transform="translate(-494.356 -441.687)"/><path id="Path_7370" data-name="Path 7370" class="cls-2" d="M790.466 464.519v-35.233h5.776v35.233z" transform="translate(-536.243 -429.286)"/></g><g id="Group_362" data-name="Group 362" transform="translate(286.757 473.032)"><g id="Group_361" data-name="Group 361"><path id="Path_7371" data-name="Path 7371" class="cls-1" d="M456.94 548.714v-9.165h-3.634v-1.3h8.825v1.3H458.5v9.165z" transform="translate(-453.305 -537.286)"/><path id="Path_7372" data-name="Path 7372" class="cls-1" d="M479.14 549.145h-5.2a2.962 2.962 0 00.329 1.354 1.722 1.722 0 00.88.75 4.116 4.116 0 001.521.237 7.9 7.9 0 002.065-.3v1.174a8.782 8.782 0 01-2.27.311 4.262 4.262 0 01-3.051-.965 4.019 4.019 0 01-1.008-3.023 5.208 5.208 0 01.407-2.174 2.9 2.9 0 011.181-1.34 3.626 3.626 0 011.863-.453 2.99 2.99 0 012.444 1.022 4.589 4.589 0 01.845 2.987zm-4.7-2.821a3.058 3.058 0 00-.509 1.873h3.769a3.154 3.154 0 00-.491-1.873 1.638 1.638 0 00-1.369-.587 1.706 1.706 0 00-1.403.586z" transform="translate(-464.566 -541.097)"/><path id="Path_7373" data-name="Path 7373" class="cls-1" d="M494.815 544.994a2.052 2.052 0 011.086.933 3.649 3.649 0 01.36 1.761v4.837h-1.272l-.113-.835h-.085a2.544 2.544 0 01-1 .711 3.459 3.459 0 01-1.322.251 3.217 3.217 0 01-1.358-.261 1.932 1.932 0 01-.862-.746 2.127 2.127 0 01-.3-1.135 1.911 1.911 0 01.732-1.6 4.479 4.479 0 012.33-.711l1.754-.176v-.423a2.053 2.053 0 00-.216-1.029 1.167 1.167 0 00-.658-.523 3.674 3.674 0 00-1.17-.152 7.674 7.674 0 00-1.1.085 6.643 6.643 0 00-1.125.262v-1.181a7.127 7.127 0 011.188-.262 9.049 9.049 0 011.259-.092 5.22 5.22 0 011.872.286zm-.919 6.365a2.52 2.52 0 00.867-.594v-1.81l-1.633.162a2.486 2.486 0 00-1.266.4 1.04 1.04 0 00-.389.866 1.085 1.085 0 00.354.87 1.592 1.592 0 001.061.3 2.632 2.632 0 001.01-.195z" transform="translate(-474.913 -541.097)"/><path id="Path_7374" data-name="Path 7374" class="cls-1" d="M508.642 551.676a4.091 4.091 0 01-.979-2.991 3.934 3.934 0 011.04-2.988 4.256 4.256 0 013.04-.986 6.607 6.607 0 011.775.219v1.237a6.753 6.753 0 00-1.612-.2 2.774 2.774 0 00-2.019.64 2.807 2.807 0 00-.647 2.061 3.017 3.017 0 00.608 2.1 2.4 2.4 0 001.839.654 4.7 4.7 0 00.838-.078 9.526 9.526 0 00.993-.24v1.238a6.168 6.168 0 01-2.029.332 3.829 3.829 0 01-2.847-.998z" transform="translate(-485.36 -541.097)"/><path id="Path_7375" data-name="Path 7375" class="cls-1" d="M523.864 535.9h1.527v4.561h.078a3.3 3.3 0 011.121-.707 3.788 3.788 0 011.354-.24 2.63 2.63 0 011.941.714 3.04 3.04 0 01.718 2.234v4.865h-1.528v-4.78a1.739 1.739 0 00-.413-1.3 1.656 1.656 0 00-1.185-.393 3 3 0 00-1.142.227 2.443 2.443 0 00-.944.679v5.572h-1.527z" transform="translate(-494.913 -535.904)"/><path id="Path_7376" data-name="Path 7376" class="cls-1" d="M550.99 547.331V535.9h1.528v11.427z" transform="translate(-510.909 -535.904)"/><path id="Path_7377" data-name="Path 7377" class="cls-1" d="M564 549.145h-5.2a2.967 2.967 0 00.329 1.354 1.723 1.723 0 00.88.75 4.113 4.113 0 001.521.237 7.9 7.9 0 002.065-.3v1.174a8.784 8.784 0 01-2.27.311 4.263 4.263 0 01-3.052-.965 4.021 4.021 0 01-1.007-3.023 5.209 5.209 0 01.406-2.174 2.9 2.9 0 011.181-1.34 3.627 3.627 0 011.863-.453 2.989 2.989 0 012.443 1.022 4.586 4.586 0 01.845 2.987zm-4.7-2.821a3.055 3.055 0 00-.509 1.873h3.769a3.148 3.148 0 00-.491-1.873 1.637 1.637 0 00-1.368-.587 1.706 1.706 0 00-1.401.586z" transform="translate(-514.608 -541.097)"/><path id="Path_7378" data-name="Path 7378" class="cls-1" d="M575.076 552.334v-1.146a8.622 8.622 0 002.433.339 2.71 2.71 0 001.425-.286.931.931 0 00.442-.831.9.9 0 00-.245-.675 1.722 1.722 0 00-.859-.357l-1.237-.212a2.9 2.9 0 01-1.609-.729 1.956 1.956 0 01-.5-1.407 2.059 2.059 0 01.368-1.219 2.365 2.365 0 011.135-.81 5.479 5.479 0 011.92-.29 7.647 7.647 0 012.051.261v1.146a7.546 7.546 0 00-2.029-.269q-1.994 0-1.994 1.131a.892.892 0 00.24.65 1.55 1.55 0 00.827.361l1.238.22a3.084 3.084 0 011.626.7 1.889 1.889 0 01.517 1.425 2.066 2.066 0 01-.379 1.244 2.376 2.376 0 01-1.121.806 5.124 5.124 0 01-1.817.283 8.27 8.27 0 01-2.432-.335z" transform="translate(-525.025 -541.097)"/><path id="Path_7379" data-name="Path 7379" class="cls-1" d="M590.553 552.334v-1.146a8.622 8.622 0 002.433.339 2.71 2.71 0 001.425-.286.931.931 0 00.442-.831.9.9 0 00-.245-.675 1.722 1.722 0 00-.859-.357l-1.237-.212a2.9 2.9 0 01-1.609-.729 1.956 1.956 0 01-.5-1.407 2.058 2.058 0 01.368-1.219 2.365 2.365 0 011.135-.81 5.479 5.479 0 011.92-.29 7.648 7.648 0 012.051.261v1.146a7.546 7.546 0 00-2.029-.269q-1.994 0-1.995 1.131a.894.894 0 00.24.65 1.553 1.553 0 00.828.361l1.238.22a3.084 3.084 0 011.626.7 1.889 1.889 0 01.517 1.425 2.066 2.066 0 01-.379 1.244 2.375 2.375 0 01-1.121.806 5.123 5.123 0 01-1.817.283 8.27 8.27 0 01-2.432-.335z" transform="translate(-534.151 -541.097)"/><path id="Path_7380" data-name="Path 7380" class="cls-1" d="M614.223 553.757v-1.273h4.483v1.273z" transform="translate(-548.197 -545.681)"/><path id="Path_7381" data-name="Path 7381" class="cls-1" d="M636.318 548.714v-10.466h1.556v9.165h5.4v1.3z" transform="translate(-561.227 -537.286)"/><path id="Path_7382" data-name="Path 7382" class="cls-1" d="M659.516 549.145h-5.2a2.966 2.966 0 00.329 1.354 1.723 1.723 0 00.88.75 4.112 4.112 0 001.52.237 7.9 7.9 0 002.065-.3v1.174a8.785 8.785 0 01-2.27.311 4.263 4.263 0 01-3.052-.965 4.02 4.02 0 01-1.007-3.023 5.208 5.208 0 01.406-2.174 2.9 2.9 0 011.181-1.34 3.627 3.627 0 011.863-.453 2.99 2.99 0 012.443 1.022 4.587 4.587 0 01.845 2.987zm-4.7-2.821a3.055 3.055 0 00-.509 1.873h3.769a3.149 3.149 0 00-.491-1.873 1.638 1.638 0 00-1.368-.587 1.705 1.705 0 00-1.404.586z" transform="translate(-570.932 -541.097)"/><path id="Path_7383" data-name="Path 7383" class="cls-1" d="M675.191 544.994a2.052 2.052 0 011.086.933 3.649 3.649 0 01.36 1.761v4.837h-1.273l-.113-.835h-.085a2.542 2.542 0 01-1 .711 3.456 3.456 0 01-1.322.251 3.217 3.217 0 01-1.358-.261 1.931 1.931 0 01-.863-.746 2.131 2.131 0 01-.3-1.135 1.911 1.911 0 01.732-1.6 4.48 4.48 0 012.33-.711l1.754-.176v-.423a2.049 2.049 0 00-.216-1.029 1.168 1.168 0 00-.657-.523 3.678 3.678 0 00-1.171-.152 7.675 7.675 0 00-1.1.085 6.647 6.647 0 00-1.124.262v-1.181a7.131 7.131 0 011.188-.262 9.051 9.051 0 011.259-.092 5.222 5.222 0 011.873.286zm-.919 6.365a2.518 2.518 0 00.866-.594v-1.81l-1.633.162a2.487 2.487 0 00-1.266.4 1.041 1.041 0 00-.389.866 1.085 1.085 0 00.354.87 1.592 1.592 0 001.061.3 2.636 2.636 0 001.006-.195z" transform="translate(-581.278 -541.097)"/><path id="Path_7384" data-name="Path 7384" class="cls-1" d="M689.038 544.882h1.262l.12 1h.091a2.553 2.553 0 011.008-.806 3.132 3.132 0 011.319-.283 3.619 3.619 0 01.693.064v1.386a4.69 4.69 0 00-.778-.057 3.234 3.234 0 00-1.209.244 2.3 2.3 0 00-.976.711v5.431h-1.528z" transform="translate(-592.315 -541.148)"/><path id="Path_7385" data-name="Path 7385" class="cls-1" d="M701.136 544.831h1.264l.106.849h.085a3.531 3.531 0 011.163-.718 3.88 3.88 0 011.39-.251 2.727 2.727 0 012 .718 3.047 3.047 0 01.728 2.253v4.844h-1.528v-4.773a1.782 1.782 0 00-.406-1.315 1.641 1.641 0 00-1.192-.4 3.03 3.03 0 00-1.132.223 2.43 2.43 0 00-.955.682v5.579h-1.528z" transform="translate(-599.449 -541.097)"/><path id="Path_7386" data-name="Path 7386" class="cls-1" d="M738.453 545.422a3.151 3.151 0 01.679 2.238v4.865h-1.521v-4.787a1.868 1.868 0 00-.371-1.3 1.37 1.37 0 00-1.05-.4 2.392 2.392 0 00-.955.2 2.06 2.06 0 00-.806.633 4.967 4.967 0 01.049.749v4.9h-1.5v-4.787a1.921 1.921 0 00-.357-1.3 1.313 1.313 0 00-1.022-.392 2.244 2.244 0 00-.99.234 2.206 2.206 0 00-.82.693v5.558h-1.528v-7.694h1.266l.106.849h.085a3.076 3.076 0 011.047-.721 3.3 3.3 0 011.28-.247 2.145 2.145 0 012.044 1.082 3.42 3.42 0 011.184-.821 3.476 3.476 0 011.312-.261 2.458 2.458 0 011.868.709z" transform="translate(-615.446 -541.097)"/><path id="Path_7387" data-name="Path 7387" class="cls-1" d="M758.8 552.232a2.941 2.941 0 01-1.262-1.326 4.934 4.934 0 01-.446-2.221 4.133 4.133 0 01.962-2.977 4.13 4.13 0 015.378 0 4.144 4.144 0 01.958 2.981 4.87 4.87 0 01-.449 2.206 3 3 0 01-1.265 1.333 4.008 4.008 0 01-1.935.442 4.078 4.078 0 01-1.941-.438zm3.507-1.421a4.429 4.429 0 000-4.243 2.223 2.223 0 00-3.133 0 3.27 3.27 0 00-.541 2.107 3.361 3.361 0 00.537 2.136 2.221 2.221 0 003.136 0z" transform="translate(-632.449 -541.097)"/><path id="Path_7388" data-name="Path 7388" class="cls-1" d="M777.434 544.882h1.258l.12 1h.092a2.554 2.554 0 011.008-.806 3.133 3.133 0 011.319-.283 3.626 3.626 0 01.693.064v1.386a4.694 4.694 0 00-.778-.057 3.236 3.236 0 00-1.21.244 2.3 2.3 0 00-.976.711v5.431h-1.527z" transform="translate(-644.442 -541.148)"/><path id="Path_7389" data-name="Path 7389" class="cls-1" d="M794.858 549.145h-5.2a2.962 2.962 0 00.329 1.354 1.72 1.72 0 00.88.75 4.114 4.114 0 001.521.237 7.9 7.9 0 002.065-.3v1.174a8.785 8.785 0 01-2.27.311 4.262 4.262 0 01-3.052-.965 4.019 4.019 0 01-1.008-3.023 5.2 5.2 0 01.407-2.174 2.9 2.9 0 011.181-1.34 3.628 3.628 0 011.863-.453 2.989 2.989 0 012.443 1.022 4.587 4.587 0 01.845 2.987zm-4.7-2.821a3.056 3.056 0 00-.509 1.873h3.769a3.149 3.149 0 00-.491-1.873 1.637 1.637 0 00-1.368-.587 1.706 1.706 0 00-1.404.586z" transform="translate(-650.742 -541.097)"/></g></g></g></svg>