<svg width="173" height="51" viewBox="0 0 173 51" fill="none" xmlns="http://www.w3.org/2000/svg">
<path fill-rule="evenodd" clip-rule="evenodd" d="M13.4326 45.0372H13.4082C9.9924 43.0614 7.13962 40.2437 5.12187 36.8525C3.10412 33.4613 1.98866 29.6099 1.88184 25.6653H1.88184C1.88184 25.5473 1.88184 25.4294 1.88184 25.3155C3.38515 24.0439 5.05954 22.9897 6.85599 22.1838C7.22203 22.0211 7.59215 21.8665 7.97446 21.7201C10.3612 20.8143 12.893 20.3512 15.4459 20.3535V20.3535C17.0894 20.3522 18.7274 20.5433 20.3265 20.9229C20.6356 20.9961 20.9406 21.0775 21.2334 21.1629L21.6402 21.289C21.567 21.6957 21.51 22.1024 21.4612 22.5417C21.4612 22.6149 21.4612 22.7369 21.4246 22.8914C21.3555 23.5951 21.3229 24.3149 21.3229 25.047C21.3224 28.3952 22.0808 31.6999 23.5412 34.7128C25.0015 37.7257 27.1257 40.3684 29.7542 42.4423C30.7551 43.2341 31.8219 43.9389 32.9428 44.5491C33.7019 44.9652 34.4856 45.3347 35.2896 45.6554C30.5199 48.0477 25.0697 48.7173 19.8628 47.5507C18.7554 47.2965 17.668 46.9622 16.6091 46.5502C15.5135 46.127 14.4516 45.6213 13.4326 45.0372V45.0372Z" fill="#E11B22"/>
<path fill-rule="evenodd" clip-rule="evenodd" d="M36.6805 44.9028L36.6195 44.9394C33.2253 43.7583 30.1902 41.7274 27.8037 39.0404C25.4171 36.3534 23.7586 33.0998 22.9863 29.5899V29.5899L23.0514 29.5655L23.3036 29.472L23.5517 29.3744L23.8445 29.2483L24.0804 29.1466H24.1129C24.3 29.0693 24.4464 29.0043 24.5603 28.9514L24.6132 28.927L24.8328 28.8253L25.0443 28.7277H25.0931L25.4104 28.5731L25.4714 28.5162L25.5324 28.4877L25.7642 28.3698L25.996 28.2437L26.4312 27.9997L26.476 27.9712L26.6793 27.8533L26.8867 27.7272L26.9274 27.7028L27.1348 27.5767L27.3382 27.4425H27.3626C27.5619 27.3123 27.7693 27.174 27.989 27.0358L28.1069 26.9544L28.2126 26.8812L28.416 26.7348L28.6194 26.5843L28.656 26.5558L28.8431 26.4135L29.0301 26.2711L29.079 26.2345L29.2579 26.0922L29.4409 25.9417L29.4775 25.9132L29.6687 25.7505L29.8558 25.5878C31.8229 23.8767 33.4748 21.8338 34.7364 19.5522C34.9831 19.1075 35.215 18.652 35.4319 18.1856C36.7999 15.2569 37.508 12.0635 37.5061 8.83109C37.556 7.77313 37.5302 6.71296 37.4289 5.65869C42.4041 8.86672 45.9555 13.8649 47.3477 19.6188C48.74 25.3726 47.8666 31.4415 44.9084 36.5692V36.5692L44.6928 36.9312L44.6481 37.0044L44.6074 37.0735L44.4529 37.3216L44.2983 37.5657L44.0665 37.9073L44.0217 37.9764L43.977 38.0456L43.8184 38.2774L43.6598 38.5052V38.5337L43.493 38.7573L43.3303 38.977L43.1676 39.1844L43.0009 39.3959L42.9602 39.4447L42.8016 39.6399L42.643 39.8311L42.582 39.9043L42.4274 40.0832L42.2729 40.2622L42.2037 40.3435L42.0532 40.5144L41.8987 40.6811L41.8051 40.7828L41.6628 40.9333L41.5164 41.0878L41.4025 41.2017L41.2642 41.34L41.1178 41.4864L40.9998 41.6003L40.8575 41.7345L40.7233 41.8606L40.5646 42.007C40.5158 42.0558 40.4548 42.1087 40.3857 42.1697L40.3491 42.2022L40.3125 42.2348L40.223 42.3121L40.1335 42.3893L39.8976 42.5927L39.796 42.674L39.6943 42.7594L39.5804 42.853L39.4624 42.9506L39.3608 43.0319L39.255 43.1174L39.0923 43.2394L39.0598 43.2678L39.0273 43.2922L38.9174 43.3736L38.8036 43.459L38.5961 43.6135L38.409 43.7478L38.3765 43.7722L38.3358 43.7966L38.2382 43.8657L38.1406 43.9349L38.0105 44.0243L37.8722 44.1179L37.7786 44.1789L37.677 44.244L37.5427 44.3294L37.4004 44.4189L37.2092 44.5409L37.0669 44.6303L36.9164 44.7239L36.6805 44.9028Z" fill="#2AAB4A"/>
<path fill-rule="evenodd" clip-rule="evenodd" d="M31.6004 2.97869C33.1805 3.45903 34.7048 4.10667 36.1475 4.9106C36.2329 5.37425 36.302 5.84605 36.3589 6.3219C36.3589 6.47646 36.3874 6.5822 36.3915 6.65135C36.4601 7.33518 36.4941 8.02206 36.4932 8.70933C36.5004 13.1075 35.1229 17.3963 32.5561 20.9678C32.0747 21.6399 31.5532 22.2823 30.9943 22.8916C30.547 23.3796 30.0792 23.846 29.5912 24.2907C28.0499 23.0138 26.3423 21.952 24.5153 21.1345C24.1086 20.9515 23.7222 20.7888 23.3359 20.6424C20.8167 19.6863 18.1441 19.1984 15.4496 19.2026V19.2026C11.5981 19.1973 7.8123 20.1998 4.46825 22.1107C3.83885 22.4686 3.228 22.8582 2.63802 23.2779V23.2779C2.39399 23.4528 2.14996 23.6318 1.91406 23.8148C2.02042 21.7722 2.40071 19.7531 3.04474 17.8117C3.21556 17.3033 3.40672 16.7867 3.62228 16.2702C3.83784 15.7537 4.0656 15.2493 4.32183 14.7532C4.52112 14.3464 4.72855 13.9397 4.98071 13.533C7.57904 9.03123 11.622 5.53929 16.4539 3.62351C21.2858 1.70774 26.6231 1.48052 31.6004 2.97869V2.97869Z" fill="#0095DA"/>
<path fill-rule="evenodd" clip-rule="evenodd" d="M92.5518 12.7182L92.869 11.0913L92.9178 10.9612V10.9368L92.9626 10.7131L92.743 10.6439H92.7104C92.3362 10.526 91.9621 10.4243 91.5919 10.3389L91.3723 10.2901L91.1527 10.2453L91.0022 10.2169L90.8477 10.1884L90.6321 10.1559H90.5914H90.5508C90.3718 10.126 90.1888 10.1016 90.0017 10.0826L89.4526 10.0298C89.2777 10.0013 89.0947 10.0013 88.8995 10.0013H88.3463C87.1162 9.983 85.8907 10.1573 84.7144 10.5178C84.506 10.5821 84.3011 10.6567 84.1002 10.7415C83.9009 10.8229 83.7057 10.9083 83.5186 11.0018C83.3397 11.0913 83.1566 11.193 82.9736 11.3069L82.876 11.3679L82.7743 11.433C82.6035 11.5428 82.4367 11.6648 82.2741 11.7909L82.1764 11.8641L82.087 11.9413C81.6242 12.3206 81.2139 12.7596 80.8668 13.2469C80.8017 13.3364 80.7407 13.4299 80.6797 13.5275L80.513 13.8163C80.456 13.9139 80.4072 14.0156 80.3584 14.1173L80.33 14.1742L80.3056 14.2312C80.0821 14.7326 79.9222 15.26 79.8297 15.8011C79.825 15.8291 79.819 15.858 79.8128 15.8879C79.7974 15.9623 79.7809 16.0423 79.7809 16.1265C79.7382 16.4746 79.7165 16.825 79.7158 17.1758C79.71 17.9159 79.8114 18.6529 80.0168 19.3639C80.0575 19.5144 80.1022 19.6446 80.1469 19.7707C80.185 19.878 80.229 19.9824 80.2739 20.0889L80.2974 20.1448C80.5784 20.7785 80.9664 21.3591 81.4444 21.8612C81.5379 21.9629 81.6355 22.0605 81.7372 22.154C81.8389 22.2476 81.9406 22.3411 82.0504 22.4306C82.6214 22.899 83.257 23.2826 83.9375 23.5694L84.3442 23.7321C84.4825 23.7809 84.6249 23.8297 84.7754 23.8744C85.3196 24.0372 85.8758 24.1569 86.4388 24.2323C86.9856 24.3122 87.5375 24.3517 88.0901 24.3503H89.0093H89.1842H89.355C89.6519 24.33 89.9488 24.3015 90.2457 24.2608H90.4165L90.5833 24.2364C90.99 24.1754 91.3967 24.0941 91.8034 24.0005L92.0353 23.9395C92.0678 23.933 92.099 23.9226 92.1295 23.9124C92.1752 23.8972 92.2191 23.8826 92.263 23.8826L92.4216 23.8378L92.5803 23.7931L92.7348 23.7443L92.8894 23.6955H92.9178L93.0927 23.6385V16.7447H86.2355V18.8149H90.4003V22.093C90.2647 22.1337 90.1291 22.1703 89.9935 22.2028L89.8797 22.2272L89.7658 22.2516H89.6804H89.599H89.5218H89.4363L89.3947 22.2598C89.3186 22.275 89.2319 22.2923 89.1394 22.2923L88.8385 22.3208H88.5334H88.2243C87.1495 22.3674 86.0804 22.1408 85.117 21.6619C84.7667 21.4817 84.439 21.2605 84.1409 21.003C83.6166 20.5528 83.2014 19.9894 82.9266 19.3553C82.6518 18.7212 82.5247 18.033 82.5547 17.3426C82.5506 16.8138 82.6191 16.2869 82.7581 15.7767C82.7865 15.6831 82.815 15.5937 82.8475 15.5042L82.8476 15.5041C82.8801 15.4147 82.9126 15.3252 82.9533 15.2358C83.1428 14.7888 83.4053 14.3765 83.7301 14.0156C83.7911 13.9465 83.8562 13.8773 83.9294 13.8082C83.9921 13.7416 84.0624 13.6787 84.1365 13.6123L84.145 13.6048C85.2133 12.6585 86.6463 12.1854 88.444 12.1854C88.7815 12.1854 89.115 12.2016 89.4404 12.2342L89.6356 12.2586L89.8268 12.283L90.0139 12.3115H90.0505H90.0912L90.2254 12.3359L90.3555 12.3603C90.5792 12.405 90.8029 12.4579 91.0185 12.5189L91.1446 12.5555L91.2706 12.5962C91.4943 12.6653 91.6936 12.7426 91.9011 12.828L92.0231 12.8768L92.141 12.9297L92.1858 12.95L92.4867 13.0842L92.5518 12.7629V12.7182ZM118.999 23.1863C117.829 23.9852 116.448 24.42 115.031 24.4361C113.116 24.4458 111.275 23.6948 109.913 22.348C108.551 21.0013 107.779 19.1689 107.767 17.2535C107.767 15.8364 108.186 14.4509 108.972 13.2716C109.758 12.0922 110.875 11.1717 112.183 10.6257C113.49 10.0798 114.93 9.93286 116.321 10.2035C117.712 10.4741 118.992 11.1501 120 12.1465C121.008 13.1429 121.698 14.4151 121.984 15.803C122.271 17.1909 122.14 18.6325 121.609 19.9462C121.077 21.26 120.17 22.3873 118.999 23.1863ZM110.399 17.2453C110.399 19.9459 112.473 22.1259 115.031 22.1259C117.589 22.1259 119.664 19.9459 119.664 17.2453C119.664 14.5447 117.589 12.3647 115.031 12.3647C112.473 12.3647 110.399 14.5447 110.399 17.2453ZM95.899 10.2373H100.495C100.942 10.2373 101.365 10.2576 101.768 10.2942C102.144 10.3267 102.518 10.3837 102.886 10.4651C105.018 10.9247 106.189 12.3034 106.103 14.5119C106.103 16.1388 105.152 17.3264 103.456 17.8307C103.805 18.0341 104.116 18.297 104.375 18.6075H104.395L104.497 18.7214L104.595 18.8475L104.692 18.9858C104.881 19.282 105.047 19.592 105.188 19.9131C105.366 20.2803 105.543 20.6475 105.72 21.0146L105.721 21.0164L105.722 21.0176C106.246 22.1051 106.771 23.1914 107.299 24.2731H104.277C104.211 24.1093 104.144 23.9412 104.075 23.7703L104.075 23.7703C103.269 21.7603 102.309 19.3654 101.207 19.0468L101.129 19.0102C100.482 18.7252 99.6505 18.7497 98.9117 18.7715C98.7228 18.777 98.54 18.7824 98.3677 18.7824V24.2731H95.5898V10.2373H95.8908H95.899ZM98.3759 12.2709V16.7448H99.9702C100.231 16.7458 100.492 16.7335 100.751 16.7082C100.977 16.6835 101.201 16.6441 101.422 16.5902C101.613 16.5432 101.799 16.4807 101.979 16.4031C102.141 16.3313 102.294 16.2441 102.439 16.1428L102.549 16.0574L102.65 15.968C102.816 15.8186 102.954 15.6409 103.057 15.4433C103.09 15.3782 103.118 15.305 103.147 15.2318C103.173 15.1628 103.189 15.0866 103.205 15.0134L103.208 15C103.244 14.8262 103.262 14.6489 103.261 14.4712C103.261 14.306 103.245 14.1411 103.212 13.9791C103.214 13.9547 103.214 13.9303 103.212 13.9059C103.184 13.7852 103.143 13.6679 103.09 13.5561L103.037 13.4504C103.02 13.4147 102.999 13.3807 102.976 13.3487C102.86 13.1719 102.714 13.0164 102.545 12.8891L102.512 12.8647L102.48 12.8403L102.321 12.7386H102.288L102.252 12.7183C102.193 12.6852 102.131 12.6553 102.069 12.6288L101.87 12.5515L101.658 12.4824C101.22 12.3698 100.768 12.3164 100.316 12.3238L98.3759 12.2709ZM63.3332 10.2492C64.284 10.2417 65.227 10.4219 66.1081 10.7795C66.9891 11.1371 67.791 11.665 68.4676 12.333C69.1443 13.0009 69.6825 13.7959 70.0515 14.6723C70.4204 15.5486 70.6127 16.4892 70.6175 17.44C70.6165 18.5768 70.344 19.697 69.8226 20.7072C69.3012 21.7174 68.5461 22.5885 67.62 23.2479C68.6911 23.6942 69.7854 24.0825 70.8982 24.4111L69.2225 26.1885C67.7433 25.8508 66.3367 25.2502 65.0699 24.4152C64.0791 24.6681 63.0457 24.7068 62.0387 24.5287C61.0318 24.3506 60.0744 23.9597 59.2305 23.3822C58.3866 22.8047 57.6755 22.0539 57.1448 21.1798C56.6141 20.3057 56.2759 19.3284 56.1529 18.3133C56.0298 17.2981 56.1247 16.2684 56.4311 15.2928C56.7376 14.3172 57.2486 13.4182 57.9301 12.6558C58.6116 11.8934 59.4479 11.2851 60.3831 10.8715C61.3183 10.4579 62.331 10.2485 63.3536 10.2574L63.3332 10.2492ZM63.3332 12.5594C60.775 12.5594 58.7007 14.7394 58.7007 17.44C58.7007 20.1406 60.775 22.3206 63.3332 22.3206C65.8915 22.3206 67.9657 20.1365 67.9657 17.44C67.9657 14.7435 65.8915 12.5594 63.3332 12.5594ZM124.357 10.2414H126.822V18.4571C126.821 18.7833 126.84 19.1092 126.879 19.4332C126.912 19.7082 126.966 19.9802 127.041 20.2466C127.041 20.2884 127.061 20.3368 127.083 20.3902L127.083 20.3903L127.083 20.3905C127.091 20.4097 127.099 20.4296 127.107 20.45C127.126 20.515 127.149 20.5788 127.176 20.6411C127.291 20.9374 127.454 21.2123 127.66 21.4546C127.696 21.4993 127.737 21.54 127.778 21.5807L127.9 21.6945C128.132 21.89 128.396 22.0441 128.681 22.1501L128.86 22.2111L129.051 22.2639C129.447 22.3957 129.875 22.3957 130.271 22.2639L130.462 22.2111L130.641 22.1501C130.925 22.0441 131.19 21.89 131.422 21.6945L131.548 21.5807C131.56 21.5668 131.573 21.5529 131.586 21.5389C131.612 21.5118 131.638 21.4841 131.662 21.4546C131.867 21.2123 132.031 20.9374 132.146 20.6411C132.17 20.5842 132.195 20.5191 132.219 20.45L132.28 20.2466C132.356 19.9802 132.41 19.7082 132.443 19.4332C132.481 19.1092 132.5 18.7833 132.5 18.4571V10.2373H135.286V10.5261V18.514C135.289 18.9726 135.257 19.4307 135.192 19.8846C135.136 20.2998 135.039 20.7084 134.903 21.1048C134.731 21.6228 134.476 22.1092 134.147 22.5446C134.082 22.63 134.017 22.7073 133.948 22.7845C133.878 22.8618 133.809 22.935 133.736 23.0082C133.418 23.3216 133.056 23.5874 132.662 23.7973L132.422 23.9193L132.174 24.0291L131.918 24.1267H131.869H131.82C131.603 24.2006 131.382 24.2617 131.157 24.3097L130.885 24.3667L130.604 24.4114C130.314 24.4521 130.009 24.4805 129.689 24.4968C129.369 24.5131 129.064 24.4846 128.774 24.4114L128.493 24.3667L128.221 24.3097C127.997 24.2617 127.775 24.2006 127.558 24.1267H127.509H127.46C127.374 24.0996 127.288 24.067 127.204 24.0291L126.956 23.9193L126.716 23.7973C126.323 23.5873 125.963 23.3215 125.646 23.0082C125.573 22.935 125.5 22.8618 125.435 22.7845C125.365 22.7082 125.3 22.6281 125.24 22.5446C124.893 22.112 124.622 21.6238 124.438 21.1007C124.305 20.7038 124.208 20.2954 124.15 19.8806C124.086 19.4265 124.055 18.9684 124.056 18.5099V10.5261V10.2373H124.357V10.2414ZM74.4569 24.4518H72.704H72.4559H72.1956V24.1956V23.976V15.4796V13.7104V11.3067V10.8919V10.416H72.4559H72.704H74.4569H74.705H74.9694V10.8919V11.3067V13.7104V15.4796V23.976V24.1956V24.4518H74.705H74.4569ZM142.456 10.2414H138.092L138.096 10.2373H137.795V24.2731H140.573V23.9884V18.7377H142.383C143.24 18.7494 144.096 18.651 144.929 18.4449C145.055 18.4083 145.197 18.3635 145.335 18.3188L145.742 18.1724C145.868 18.1195 145.994 18.0625 146.116 17.9975L146.181 17.9609L146.247 17.9283C146.364 17.8633 146.478 17.7982 146.588 17.725L146.649 17.6884L146.706 17.6477L146.751 17.6152L146.861 17.5297C147.157 17.2986 147.418 17.0244 147.633 16.7163C147.646 16.6978 147.658 16.6796 147.67 16.6616C147.706 16.6082 147.741 16.5565 147.772 16.5048L147.894 16.2852C148.005 16.0587 148.094 15.8216 148.158 15.5775C148.172 15.5294 148.183 15.4805 148.191 15.4311C148.261 15.1201 148.295 14.8022 148.292 14.4834C148.293 14.1517 148.262 13.8207 148.199 13.4951C148.142 13.1945 148.047 12.9021 147.918 12.6247C147.793 12.3562 147.635 12.1047 147.446 11.8764C147.251 11.6479 147.028 11.4444 146.783 11.2704C146.466 11.044 146.12 10.8607 145.754 10.7254L145.527 10.64L145.291 10.5667L145.047 10.4976H144.998H144.949C144.518 10.3987 144.08 10.3294 143.639 10.2902L143.363 10.2698C143.078 10.2414 142.777 10.2414 142.456 10.2414ZM142.163 16.7488H140.569V12.275L142.505 12.3278C142.957 12.3205 143.409 12.3738 143.847 12.4865L144.058 12.5556L144.258 12.6329C144.32 12.6594 144.381 12.6893 144.441 12.7223L144.477 12.7427H144.51L144.668 12.8444L144.701 12.8688L144.734 12.8932C144.904 13.0194 145.05 13.1751 145.165 13.3528C145.182 13.3764 145.198 13.4021 145.213 13.4269C145.219 13.4363 145.224 13.4455 145.23 13.4544C145.24 13.4729 145.251 13.4948 145.263 13.5191C145.269 13.5321 145.275 13.5459 145.283 13.5602C145.336 13.672 145.377 13.7893 145.405 13.91C145.407 13.9343 145.407 13.9588 145.405 13.9832C145.437 14.1451 145.454 14.31 145.453 14.4753C145.455 14.6529 145.437 14.8302 145.401 15.004L145.398 15.0176C145.382 15.0908 145.366 15.1669 145.34 15.2359C145.311 15.3091 145.283 15.3823 145.25 15.4474C145.15 15.6468 145.011 15.825 144.843 15.972L144.742 16.0615L144.632 16.1469C144.488 16.2473 144.336 16.3344 144.176 16.4072C143.994 16.4841 143.807 16.5467 143.615 16.5943C143.394 16.6482 143.17 16.6876 142.944 16.7122C142.684 16.7376 142.424 16.7498 142.163 16.7488Z" fill="#404040"/>
<path d="M63.183 37H64.503L64.074 29.586H62.314L61.291 32.556C61.005 33.425 60.752 34.338 60.554 35.141H60.521C60.334 34.316 60.103 33.436 59.839 32.567L58.871 29.586H57.089L56.594 37H57.859L58.024 34.019C58.079 33.007 58.123 31.83 58.156 30.862H58.178C58.376 31.786 58.64 32.798 58.926 33.744L59.916 36.912H60.961L62.039 33.7C62.369 32.765 62.677 31.764 62.919 30.862H62.952C62.941 31.863 62.996 33.018 63.04 33.975L63.183 37ZM70.1026 37C70.0476 36.67 70.0256 36.197 70.0256 35.713V33.777C70.0256 32.611 69.5306 31.522 67.8146 31.522C66.9676 31.522 66.2746 31.753 65.8786 31.995L66.1426 32.875C66.5056 32.644 67.0556 32.479 67.5836 32.479C68.5296 32.479 68.6726 33.062 68.6726 33.414V33.502C66.6926 33.491 65.4936 34.173 65.4936 35.526C65.4936 36.34 66.0986 37.121 67.1766 37.121C67.8696 37.121 68.4306 36.824 68.7606 36.406H68.7936L68.8816 37H70.1026ZM68.7056 35.119C68.7056 35.207 68.6946 35.317 68.6616 35.416C68.5406 35.801 68.1446 36.153 67.6056 36.153C67.1766 36.153 66.8356 35.911 66.8356 35.383C66.8356 34.569 67.7486 34.36 68.7056 34.382V35.119ZM71.4535 37H72.8175V33.854C72.8175 33.7 72.8285 33.535 72.8725 33.414C73.0155 33.007 73.3895 32.622 73.9285 32.622C74.6655 32.622 74.9515 33.205 74.9515 33.975V37H76.3045V33.821C76.3045 32.127 75.3365 31.522 74.4015 31.522C73.5105 31.522 72.9275 32.028 72.6965 32.446H72.6635L72.5975 31.643H71.4095C71.4425 32.105 71.4535 32.622 71.4535 33.238V37ZM81.4665 31.643L81.4115 32.358H81.3895C81.1365 31.918 80.6525 31.522 79.8385 31.522C78.5515 31.522 77.4075 32.589 77.4075 34.349C77.4075 35.867 78.3535 36.967 79.6845 36.967C80.3885 36.967 80.9385 36.648 81.2465 36.175H81.2685V36.637C81.2685 37.792 80.6085 38.254 79.7285 38.254C79.0795 38.254 78.5075 38.045 78.1665 37.847L77.8695 38.87C78.3315 39.156 79.0575 39.299 79.7395 39.299C80.4765 39.299 81.2465 39.145 81.8075 38.65C82.3685 38.144 82.5995 37.341 82.5995 36.219V33.183C82.5995 32.446 82.6215 32.006 82.6435 31.643H81.4665ZM81.2465 34.657C81.2465 34.811 81.2245 34.998 81.1915 35.141C81.0375 35.625 80.5975 35.955 80.0915 35.955C79.2445 35.955 78.7825 35.218 78.7825 34.305C78.7825 33.216 79.3435 32.556 80.1025 32.556C80.6745 32.556 81.0595 32.93 81.2025 33.425C81.2355 33.535 81.2465 33.667 81.2465 33.788V34.657ZM86.3315 37H87.6955V29.19H86.3315V37ZM93.3917 37C93.3367 36.67 93.3147 36.197 93.3147 35.713V33.777C93.3147 32.611 92.8197 31.522 91.1037 31.522C90.2567 31.522 89.5637 31.753 89.1677 31.995L89.4317 32.875C89.7947 32.644 90.3447 32.479 90.8727 32.479C91.8187 32.479 91.9617 33.062 91.9617 33.414V33.502C89.9817 33.491 88.7827 34.173 88.7827 35.526C88.7827 36.34 89.3877 37.121 90.4657 37.121C91.1587 37.121 91.7197 36.824 92.0497 36.406H92.0827L92.1707 37H93.3917ZM91.9947 35.119C91.9947 35.207 91.9837 35.317 91.9507 35.416C91.8297 35.801 91.4337 36.153 90.8947 36.153C90.4657 36.153 90.1247 35.911 90.1247 35.383C90.1247 34.569 91.0377 34.36 91.9947 34.382V35.119ZM91.2357 37.88C90.8397 37.88 90.5427 38.177 90.5427 38.562C90.5427 38.936 90.8397 39.244 91.2137 39.244C91.6097 39.244 91.8847 38.936 91.8847 38.562C91.8847 38.177 91.5987 37.88 91.2357 37.88ZM96.1066 37V31.643H94.7426V37H96.1066ZM95.4246 29.41C94.9736 29.41 94.6656 29.729 94.6656 30.147C94.6656 30.554 94.9626 30.873 95.4136 30.873C95.8866 30.873 96.1836 30.554 96.1836 30.147C96.1726 29.729 95.8866 29.41 95.4246 29.41ZM103.552 31.643L103.497 32.358H103.475C103.222 31.918 102.738 31.522 101.924 31.522C100.637 31.522 99.4934 32.589 99.4934 34.349C99.4934 35.867 100.439 36.967 101.77 36.967C102.474 36.967 103.024 36.648 103.332 36.175H103.354V36.637C103.354 37.792 102.694 38.254 101.814 38.254C101.165 38.254 100.593 38.045 100.252 37.847L99.9554 38.87C100.417 39.156 101.143 39.299 101.825 39.299C102.562 39.299 103.332 39.145 103.893 38.65C104.454 38.144 104.685 37.341 104.685 36.219V33.183C104.685 32.446 104.707 32.006 104.729 31.643H103.552ZM103.332 34.657C103.332 34.811 103.31 34.998 103.277 35.141C103.123 35.625 102.683 35.955 102.177 35.955C101.33 35.955 100.868 35.218 100.868 34.305C100.868 33.216 101.429 32.556 102.188 32.556C102.76 32.556 103.145 32.93 103.288 33.425C103.321 33.535 103.332 33.667 103.332 33.788V34.657ZM107.461 37V31.643H106.097V37H107.461ZM106.779 29.41C106.328 29.41 106.02 29.729 106.02 30.147C106.02 30.554 106.317 30.873 106.768 30.873C107.241 30.873 107.538 30.554 107.538 30.147C107.527 29.729 107.241 29.41 106.779 29.41ZM113.147 37C113.092 36.67 113.07 36.197 113.07 35.713V33.777C113.07 32.611 112.575 31.522 110.859 31.522C110.012 31.522 109.319 31.753 108.923 31.995L109.187 32.875C109.55 32.644 110.1 32.479 110.628 32.479C111.574 32.479 111.717 33.062 111.717 33.414V33.502C109.737 33.491 108.538 34.173 108.538 35.526C108.538 36.34 109.143 37.121 110.221 37.121C110.914 37.121 111.475 36.824 111.805 36.406H111.838L111.926 37H113.147ZM111.75 35.119C111.75 35.207 111.739 35.317 111.706 35.416C111.585 35.801 111.189 36.153 110.65 36.153C110.221 36.153 109.88 35.911 109.88 35.383C109.88 34.569 110.793 34.36 111.75 34.382V35.119ZM111.255 29.322L110.298 30.95H111.233L112.586 29.322H111.255ZM117.006 30.433V31.643H116.236V32.655H117.006V35.174C117.006 35.878 117.138 36.362 117.424 36.67C117.677 36.945 118.095 37.11 118.59 37.11C119.019 37.11 119.371 37.055 119.569 36.978L119.547 35.944C119.426 35.977 119.25 36.01 119.019 36.01C118.502 36.01 118.326 35.669 118.326 35.02V32.655H119.613V31.643H118.326V30.114L117.006 30.433ZM120.631 37H121.984V34.228C121.984 34.074 122.006 33.931 122.028 33.81C122.149 33.205 122.589 32.787 123.238 32.787C123.403 32.787 123.524 32.809 123.634 32.831V31.555C123.524 31.533 123.447 31.522 123.315 31.522C122.743 31.522 122.116 31.907 121.852 32.666H121.808L121.764 31.643H120.587C120.62 32.127 120.631 32.644 120.631 33.37V37ZM125.916 37V31.643H124.552V37H125.916ZM125.234 29.41C124.783 29.41 124.475 29.729 124.475 30.147C124.475 30.554 124.772 30.873 125.223 30.873C125.696 30.873 125.993 30.554 125.993 30.147C125.982 29.729 125.696 29.41 125.234 29.41ZM125.245 37.88C124.86 37.88 124.552 38.177 124.552 38.562C124.552 38.936 124.849 39.244 125.234 39.244C125.619 39.244 125.894 38.936 125.894 38.562C125.894 38.177 125.619 37.88 125.245 37.88ZM135.452 31.005V30.224H134.583V29.19H133.23V30.224H131.151V31.005H133.23V32.226H133.208C132.966 31.83 132.438 31.522 131.701 31.522C130.414 31.522 129.292 32.589 129.303 34.382C129.303 36.032 130.315 37.121 131.591 37.121C132.372 37.121 133.021 36.747 133.34 36.153H133.362L133.417 37H134.627C134.605 36.637 134.583 36.043 134.583 35.493V31.005H135.452ZM133.23 34.679C133.23 34.822 133.219 34.954 133.186 35.075C133.054 35.658 132.57 36.032 132.02 36.032C131.162 36.032 130.678 35.317 130.678 34.338C130.678 33.337 131.162 32.567 132.031 32.567C132.647 32.567 133.076 32.996 133.197 33.524C133.219 33.634 133.23 33.766 133.23 33.876V34.679ZM137.4 37V31.643H136.036V37H137.4ZM137.037 29.322L136.08 30.95H137.015L138.368 29.322H137.037ZM142.601 35.834C142.337 35.944 142.007 36.043 141.534 36.043C140.61 36.043 139.895 35.416 139.895 34.316C139.884 33.337 140.5 32.578 141.534 32.578C142.018 32.578 142.337 32.688 142.557 32.787L142.799 31.775C142.491 31.632 141.985 31.522 141.49 31.522C139.609 31.522 138.509 32.776 138.509 34.382C138.509 36.043 139.598 37.11 141.27 37.11C141.941 37.11 142.502 36.967 142.788 36.835L142.601 35.834ZM143.791 37H145.155V33.799C145.155 33.645 145.166 33.502 145.21 33.392C145.353 32.985 145.727 32.633 146.255 32.633C147.003 32.633 147.289 33.216 147.289 33.997V37H148.642V33.843C148.642 32.127 147.685 31.522 146.772 31.522C146.431 31.522 146.112 31.61 145.848 31.764C145.562 31.918 145.342 32.127 145.177 32.38H145.155V29.19H143.791V37ZM152.595 30.433V31.643H151.825V32.655H152.595V35.174C152.595 35.878 152.727 36.362 153.013 36.67C153.266 36.945 153.684 37.11 154.179 37.11C154.608 37.11 154.96 37.055 155.158 36.978L155.136 35.944C155.015 35.977 154.839 36.01 154.608 36.01C154.091 36.01 153.915 35.669 153.915 35.02V32.655H155.202V31.643H153.915V30.114L152.595 30.433ZM156.22 37H157.584V33.799C157.584 33.645 157.595 33.502 157.639 33.392C157.782 32.985 158.156 32.633 158.684 32.633C159.432 32.633 159.718 33.216 159.718 33.997V37H161.071V33.843C161.071 32.127 160.114 31.522 159.201 31.522C158.86 31.522 158.541 31.61 158.277 31.764C157.991 31.918 157.771 32.127 157.606 32.38H157.584V29.19H156.22V37ZM167.19 30.521C167.322 30.741 167.41 30.983 167.41 31.203C167.41 31.467 167.278 31.643 166.86 31.643H165.958V34.877C165.958 35.031 165.925 35.174 165.881 35.295C165.738 35.636 165.386 36.021 164.847 36.021C164.132 36.021 163.846 35.449 163.846 34.558V31.643H162.493V34.789C162.493 36.538 163.384 37.121 164.363 37.121C165.32 37.121 165.848 36.571 166.079 36.186H166.101L166.167 37H167.355C167.333 36.56 167.311 36.032 167.311 35.394V32.303L167.41 32.292C167.971 32.248 168.389 31.874 168.389 31.258C168.389 30.928 168.301 30.609 168.169 30.356L167.19 30.521ZM164.913 37.88C164.517 37.88 164.22 38.177 164.22 38.562C164.22 38.936 164.506 39.244 164.891 39.244C165.287 39.244 165.562 38.936 165.562 38.562C165.562 38.177 165.276 37.88 164.913 37.88ZM172.529 35.834C172.265 35.944 171.935 36.043 171.462 36.043C170.538 36.043 169.823 35.416 169.823 34.316C169.812 33.337 170.428 32.578 171.462 32.578C171.946 32.578 172.265 32.688 172.485 32.787L172.727 31.775C172.419 31.632 171.913 31.522 171.418 31.522C169.537 31.522 168.437 32.776 168.437 34.382C168.437 36.043 169.526 37.11 171.198 37.11C171.869 37.11 172.43 36.967 172.716 36.835L172.529 35.834Z" fill="white"/>
<path d="M63.183 37H64.503L64.074 29.586H62.314L61.291 32.556C61.005 33.425 60.752 34.338 60.554 35.141H60.521C60.334 34.316 60.103 33.436 59.839 32.567L58.871 29.586H57.089L56.594 37H57.859L58.024 34.019C58.079 33.007 58.123 31.83 58.156 30.862H58.178C58.376 31.786 58.64 32.798 58.926 33.744L59.916 36.912H60.961L62.039 33.7C62.369 32.765 62.677 31.764 62.919 30.862H62.952C62.941 31.863 62.996 33.018 63.04 33.975L63.183 37ZM70.1026 37C70.0476 36.67 70.0256 36.197 70.0256 35.713V33.777C70.0256 32.611 69.5306 31.522 67.8146 31.522C66.9676 31.522 66.2746 31.753 65.8786 31.995L66.1426 32.875C66.5056 32.644 67.0556 32.479 67.5836 32.479C68.5296 32.479 68.6726 33.062 68.6726 33.414V33.502C66.6926 33.491 65.4936 34.173 65.4936 35.526C65.4936 36.34 66.0986 37.121 67.1766 37.121C67.8696 37.121 68.4306 36.824 68.7606 36.406H68.7936L68.8816 37H70.1026ZM68.7056 35.119C68.7056 35.207 68.6946 35.317 68.6616 35.416C68.5406 35.801 68.1446 36.153 67.6056 36.153C67.1766 36.153 66.8356 35.911 66.8356 35.383C66.8356 34.569 67.7486 34.36 68.7056 34.382V35.119ZM71.4535 37H72.8175V33.854C72.8175 33.7 72.8285 33.535 72.8725 33.414C73.0155 33.007 73.3895 32.622 73.9285 32.622C74.6655 32.622 74.9515 33.205 74.9515 33.975V37H76.3045V33.821C76.3045 32.127 75.3365 31.522 74.4015 31.522C73.5105 31.522 72.9275 32.028 72.6965 32.446H72.6635L72.5975 31.643H71.4095C71.4425 32.105 71.4535 32.622 71.4535 33.238V37ZM81.4665 31.643L81.4115 32.358H81.3895C81.1365 31.918 80.6525 31.522 79.8385 31.522C78.5515 31.522 77.4075 32.589 77.4075 34.349C77.4075 35.867 78.3535 36.967 79.6845 36.967C80.3885 36.967 80.9385 36.648 81.2465 36.175H81.2685V36.637C81.2685 37.792 80.6085 38.254 79.7285 38.254C79.0795 38.254 78.5075 38.045 78.1665 37.847L77.8695 38.87C78.3315 39.156 79.0575 39.299 79.7395 39.299C80.4765 39.299 81.2465 39.145 81.8075 38.65C82.3685 38.144 82.5995 37.341 82.5995 36.219V33.183C82.5995 32.446 82.6215 32.006 82.6435 31.643H81.4665ZM81.2465 34.657C81.2465 34.811 81.2245 34.998 81.1915 35.141C81.0375 35.625 80.5975 35.955 80.0915 35.955C79.2445 35.955 78.7825 35.218 78.7825 34.305C78.7825 33.216 79.3435 32.556 80.1025 32.556C80.6745 32.556 81.0595 32.93 81.2025 33.425C81.2355 33.535 81.2465 33.667 81.2465 33.788V34.657ZM86.3315 37H87.6955V29.19H86.3315V37ZM93.3917 37C93.3367 36.67 93.3147 36.197 93.3147 35.713V33.777C93.3147 32.611 92.8197 31.522 91.1037 31.522C90.2567 31.522 89.5637 31.753 89.1677 31.995L89.4317 32.875C89.7947 32.644 90.3447 32.479 90.8727 32.479C91.8187 32.479 91.9617 33.062 91.9617 33.414V33.502C89.9817 33.491 88.7827 34.173 88.7827 35.526C88.7827 36.34 89.3877 37.121 90.4657 37.121C91.1587 37.121 91.7197 36.824 92.0497 36.406H92.0827L92.1707 37H93.3917ZM91.9947 35.119C91.9947 35.207 91.9837 35.317 91.9507 35.416C91.8297 35.801 91.4337 36.153 90.8947 36.153C90.4657 36.153 90.1247 35.911 90.1247 35.383C90.1247 34.569 91.0377 34.36 91.9947 34.382V35.119ZM91.2357 37.88C90.8397 37.88 90.5427 38.177 90.5427 38.562C90.5427 38.936 90.8397 39.244 91.2137 39.244C91.6097 39.244 91.8847 38.936 91.8847 38.562C91.8847 38.177 91.5987 37.88 91.2357 37.88ZM96.1066 37V31.643H94.7426V37H96.1066ZM95.4246 29.41C94.9736 29.41 94.6656 29.729 94.6656 30.147C94.6656 30.554 94.9626 30.873 95.4136 30.873C95.8866 30.873 96.1836 30.554 96.1836 30.147C96.1726 29.729 95.8866 29.41 95.4246 29.41ZM103.552 31.643L103.497 32.358H103.475C103.222 31.918 102.738 31.522 101.924 31.522C100.637 31.522 99.4934 32.589 99.4934 34.349C99.4934 35.867 100.439 36.967 101.77 36.967C102.474 36.967 103.024 36.648 103.332 36.175H103.354V36.637C103.354 37.792 102.694 38.254 101.814 38.254C101.165 38.254 100.593 38.045 100.252 37.847L99.9554 38.87C100.417 39.156 101.143 39.299 101.825 39.299C102.562 39.299 103.332 39.145 103.893 38.65C104.454 38.144 104.685 37.341 104.685 36.219V33.183C104.685 32.446 104.707 32.006 104.729 31.643H103.552ZM103.332 34.657C103.332 34.811 103.31 34.998 103.277 35.141C103.123 35.625 102.683 35.955 102.177 35.955C101.33 35.955 100.868 35.218 100.868 34.305C100.868 33.216 101.429 32.556 102.188 32.556C102.76 32.556 103.145 32.93 103.288 33.425C103.321 33.535 103.332 33.667 103.332 33.788V34.657ZM107.461 37V31.643H106.097V37H107.461ZM106.779 29.41C106.328 29.41 106.02 29.729 106.02 30.147C106.02 30.554 106.317 30.873 106.768 30.873C107.241 30.873 107.538 30.554 107.538 30.147C107.527 29.729 107.241 29.41 106.779 29.41ZM113.147 37C113.092 36.67 113.07 36.197 113.07 35.713V33.777C113.07 32.611 112.575 31.522 110.859 31.522C110.012 31.522 109.319 31.753 108.923 31.995L109.187 32.875C109.55 32.644 110.1 32.479 110.628 32.479C111.574 32.479 111.717 33.062 111.717 33.414V33.502C109.737 33.491 108.538 34.173 108.538 35.526C108.538 36.34 109.143 37.121 110.221 37.121C110.914 37.121 111.475 36.824 111.805 36.406H111.838L111.926 37H113.147ZM111.75 35.119C111.75 35.207 111.739 35.317 111.706 35.416C111.585 35.801 111.189 36.153 110.65 36.153C110.221 36.153 109.88 35.911 109.88 35.383C109.88 34.569 110.793 34.36 111.75 34.382V35.119ZM111.255 29.322L110.298 30.95H111.233L112.586 29.322H111.255ZM117.006 30.433V31.643H116.236V32.655H117.006V35.174C117.006 35.878 117.138 36.362 117.424 36.67C117.677 36.945 118.095 37.11 118.59 37.11C119.019 37.11 119.371 37.055 119.569 36.978L119.547 35.944C119.426 35.977 119.25 36.01 119.019 36.01C118.502 36.01 118.326 35.669 118.326 35.02V32.655H119.613V31.643H118.326V30.114L117.006 30.433ZM120.631 37H121.984V34.228C121.984 34.074 122.006 33.931 122.028 33.81C122.149 33.205 122.589 32.787 123.238 32.787C123.403 32.787 123.524 32.809 123.634 32.831V31.555C123.524 31.533 123.447 31.522 123.315 31.522C122.743 31.522 122.116 31.907 121.852 32.666H121.808L121.764 31.643H120.587C120.62 32.127 120.631 32.644 120.631 33.37V37ZM125.916 37V31.643H124.552V37H125.916ZM125.234 29.41C124.783 29.41 124.475 29.729 124.475 30.147C124.475 30.554 124.772 30.873 125.223 30.873C125.696 30.873 125.993 30.554 125.993 30.147C125.982 29.729 125.696 29.41 125.234 29.41ZM125.245 37.88C124.86 37.88 124.552 38.177 124.552 38.562C124.552 38.936 124.849 39.244 125.234 39.244C125.619 39.244 125.894 38.936 125.894 38.562C125.894 38.177 125.619 37.88 125.245 37.88ZM135.452 31.005V30.224H134.583V29.19H133.23V30.224H131.151V31.005H133.23V32.226H133.208C132.966 31.83 132.438 31.522 131.701 31.522C130.414 31.522 129.292 32.589 129.303 34.382C129.303 36.032 130.315 37.121 131.591 37.121C132.372 37.121 133.021 36.747 133.34 36.153H133.362L133.417 37H134.627C134.605 36.637 134.583 36.043 134.583 35.493V31.005H135.452ZM133.23 34.679C133.23 34.822 133.219 34.954 133.186 35.075C133.054 35.658 132.57 36.032 132.02 36.032C131.162 36.032 130.678 35.317 130.678 34.338C130.678 33.337 131.162 32.567 132.031 32.567C132.647 32.567 133.076 32.996 133.197 33.524C133.219 33.634 133.23 33.766 133.23 33.876V34.679ZM137.4 37V31.643H136.036V37H137.4ZM137.037 29.322L136.08 30.95H137.015L138.368 29.322H137.037ZM142.601 35.834C142.337 35.944 142.007 36.043 141.534 36.043C140.61 36.043 139.895 35.416 139.895 34.316C139.884 33.337 140.5 32.578 141.534 32.578C142.018 32.578 142.337 32.688 142.557 32.787L142.799 31.775C142.491 31.632 141.985 31.522 141.49 31.522C139.609 31.522 138.509 32.776 138.509 34.382C138.509 36.043 139.598 37.11 141.27 37.11C141.941 37.11 142.502 36.967 142.788 36.835L142.601 35.834ZM143.791 37H145.155V33.799C145.155 33.645 145.166 33.502 145.21 33.392C145.353 32.985 145.727 32.633 146.255 32.633C147.003 32.633 147.289 33.216 147.289 33.997V37H148.642V33.843C148.642 32.127 147.685 31.522 146.772 31.522C146.431 31.522 146.112 31.61 145.848 31.764C145.562 31.918 145.342 32.127 145.177 32.38H145.155V29.19H143.791V37ZM152.595 30.433V31.643H151.825V32.655H152.595V35.174C152.595 35.878 152.727 36.362 153.013 36.67C153.266 36.945 153.684 37.11 154.179 37.11C154.608 37.11 154.96 37.055 155.158 36.978L155.136 35.944C155.015 35.977 154.839 36.01 154.608 36.01C154.091 36.01 153.915 35.669 153.915 35.02V32.655H155.202V31.643H153.915V30.114L152.595 30.433ZM156.22 37H157.584V33.799C157.584 33.645 157.595 33.502 157.639 33.392C157.782 32.985 158.156 32.633 158.684 32.633C159.432 32.633 159.718 33.216 159.718 33.997V37H161.071V33.843C161.071 32.127 160.114 31.522 159.201 31.522C158.86 31.522 158.541 31.61 158.277 31.764C157.991 31.918 157.771 32.127 157.606 32.38H157.584V29.19H156.22V37ZM167.19 30.521C167.322 30.741 167.41 30.983 167.41 31.203C167.41 31.467 167.278 31.643 166.86 31.643H165.958V34.877C165.958 35.031 165.925 35.174 165.881 35.295C165.738 35.636 165.386 36.021 164.847 36.021C164.132 36.021 163.846 35.449 163.846 34.558V31.643H162.493V34.789C162.493 36.538 163.384 37.121 164.363 37.121C165.32 37.121 165.848 36.571 166.079 36.186H166.101L166.167 37H167.355C167.333 36.56 167.311 36.032 167.311 35.394V32.303L167.41 32.292C167.971 32.248 168.389 31.874 168.389 31.258C168.389 30.928 168.301 30.609 168.169 30.356L167.19 30.521ZM164.913 37.88C164.517 37.88 164.22 38.177 164.22 38.562C164.22 38.936 164.506 39.244 164.891 39.244C165.287 39.244 165.562 38.936 165.562 38.562C165.562 38.177 165.276 37.88 164.913 37.88ZM172.529 35.834C172.265 35.944 171.935 36.043 171.462 36.043C170.538 36.043 169.823 35.416 169.823 34.316C169.812 33.337 170.428 32.578 171.462 32.578C171.946 32.578 172.265 32.688 172.485 32.787L172.727 31.775C172.419 31.632 171.913 31.522 171.418 31.522C169.537 31.522 168.437 32.776 168.437 34.382C168.437 36.043 169.526 37.11 171.198 37.11C171.869 37.11 172.43 36.967 172.716 36.835L172.529 35.834Z" fill="#1060BB"/>
</svg>
