<svg width="90" height="46" viewBox="0 0 90 46" fill="none" xmlns="http://www.w3.org/2000/svg">
<path d="M38.5699 10.8186C31.9194 10.8186 26.51 16.2279 26.51 22.8785C26.51 29.5291 31.9194 34.9384 38.5699 34.9384C45.2205 34.9384 50.6298 29.5291 50.6298 22.8785C50.6298 16.2279 45.2205 10.8186 38.5699 10.8186ZM38.5699 29.7974C34.754 29.7974 31.651 26.6944 31.651 22.8701C31.651 19.0458 34.754 15.9428 38.5699 15.9428C42.3858 15.9428 45.4972 19.0458 45.4972 22.8701C45.4972 26.6944 42.3942 29.7974 38.5699 29.7974Z" fill="#0C99D5"/>
<path d="M17.9557 23.2559C17.9557 26.7279 15.1378 29.5458 11.6825 29.5458C8.22724 29.5458 5.40934 26.7196 5.40934 23.2559V10.8186H0V22.585C0 25.9815 1.14896 28.9252 3.40495 31.3154C5.67771 33.7224 8.46206 34.9468 11.6825 34.9468C14.0559 34.9468 16.1945 34.2759 18.0731 32.9592C18.0311 35.0978 17.4441 36.7667 16.3203 37.9324C15.2552 39.0478 13.3095 39.6936 10.9696 39.6936H9.3762V45.0946L11.0619 45.0107C13.8127 44.8597 17.6034 44.1553 20.0607 41.6225C22.258 39.3581 23.3734 36.3893 23.3734 32.7831V10.8186H17.9724V23.2559H17.9557Z" fill="#0C99D5"/>
<path d="M59.2341 25.6378V0H53.8164V26.1745C53.8164 28.4473 54.6299 30.5104 54.6551 30.5607C55.066 31.7432 55.6111 32.758 56.173 33.7728L57.0033 35.2656L61.6579 32.3387L60.8024 30.9716C59.7877 29.353 59.2425 27.508 59.2341 25.6462" fill="#0C99D5"/>
<path d="M88.3773 31.0051C87.0522 28.9001 86.5826 26.1157 86.8006 24.4552C86.8677 23.9184 86.9097 23.3817 86.9097 22.8701C86.9097 16.2279 81.5003 10.8186 74.8582 10.8186C68.216 10.8186 62.8066 16.2279 62.8066 22.8701C62.8066 29.5123 68.216 34.9216 74.8582 34.9216C77.7851 34.9216 80.603 33.8565 82.7835 31.9528C83.0854 32.5986 83.4125 33.2024 83.7563 33.8146L84.5866 35.3074L89.2495 32.3805L88.3857 31.0051H88.3773ZM81.6597 24.1281C81.6177 24.3797 81.559 24.6145 81.4836 24.8577V24.8745C81.4836 24.8745 81.4752 24.9081 81.4668 24.9248C81.4668 24.9332 81.4668 24.95 81.4584 24.9584C81.3997 25.1429 81.3326 25.3274 81.2571 25.5119C81.232 25.5622 81.2152 25.6125 81.19 25.6712C81.1313 25.8054 81.0642 25.948 80.9971 26.0738C80.9636 26.1409 80.93 26.1996 80.8965 26.2667C80.8294 26.3841 80.7623 26.4931 80.6868 26.6105C80.6449 26.6776 80.603 26.7447 80.5526 26.8118C80.4856 26.9125 80.4101 27.0047 80.3346 27.097C80.083 27.424 79.7979 27.726 79.4959 28.0027C79.4624 28.0363 79.4288 28.0698 79.3869 28.1033C79.2779 28.1956 79.1605 28.2879 79.0431 28.3801C79.0095 28.4053 78.976 28.4304 78.9424 28.4556C78.8166 28.5478 78.6908 28.6317 78.5566 28.7156C78.5399 28.724 78.5147 28.7407 78.4979 28.7491C78.0702 29.0175 77.609 29.2355 77.1225 29.4033C77.0974 29.4033 77.0722 29.42 77.0471 29.4284C76.9213 29.4704 76.7955 29.5039 76.6697 29.5375C76.5942 29.5626 76.5187 29.5794 76.4348 29.5962C76.3258 29.6213 76.2084 29.6465 76.0994 29.6632C75.9903 29.68 75.8813 29.6968 75.7723 29.7136C75.68 29.722 75.5878 29.7387 75.4872 29.7471C75.311 29.7639 75.1349 29.7723 74.9588 29.7723C74.9252 29.7723 74.8917 29.7723 74.8582 29.7723C71.0339 29.7723 67.9392 26.6776 67.9392 22.8533C67.9392 19.0291 71.0339 15.9344 74.8582 15.9344C77.2483 15.9344 79.3534 17.1421 80.5946 18.9871C81.341 20.0942 81.7771 21.4192 81.7771 22.8533C81.7771 23.0882 81.7603 23.323 81.7352 23.5578C81.7352 23.5746 81.7352 23.5914 81.7352 23.6081C81.7184 23.7759 81.6932 23.952 81.6681 24.1197" fill="#0C99D5"/>
</svg>
